<svg width="599" height="409" viewBox="0 0 599 409" fill="none" xmlns="http://www.w3.org/2000/svg">
<path d="M197.236 278.665L33.6164 306.029C27.7332 306.986 22.1204 302.879 21.2993 296.995L0.365077 147.291C-0.456062 141.407 4.47077 136.343 10.354 137.029L172.06 156.19C176.707 156.741 180.407 160.162 181.363 164.81L202.162 271.679C202.713 274.964 200.52 278.114 197.236 278.655V278.665Z" fill="#D90368"/>
<path d="M204.075 276.752L40.456 304.116C34.5727 305.073 28.96 300.966 28.1389 295.082L7.06942 145.378C6.24828 139.493 11.1751 134.43 17.0583 135.116L178.765 154.277C183.411 154.828 187.111 158.249 188.068 162.896L208.867 269.765C209.553 273.051 207.36 276.201 204.075 276.742V276.752Z" fill="#F3DE8A"/>
<path d="M99.549 269.224L59.1876 273.872C56.1735 274.278 53.4396 272.094 53.0339 269.224L38.2631 170.424C37.8573 167.689 40.0406 165.225 42.9097 165.496L83.2711 168.51C85.8698 168.646 87.9178 170.559 88.3332 173.158L103.384 264.296C103.655 266.625 101.877 268.944 99.549 269.224Z" fill="#03045E"/>
<path d="M102.834 267.446L62.4722 272.094C59.4581 272.5 56.7242 270.316 56.3184 267.446L41.5476 168.646C41.1419 165.911 43.3251 163.447 46.1943 163.718L86.5557 166.732C89.1543 166.868 91.2024 168.781 91.6178 171.38L106.669 262.518C106.939 264.847 105.297 267.166 102.834 267.446Z" fill="#00B4D8"/>
<path d="M69.3214 173.023C69.3214 173.023 69.2635 173.023 69.2441 173.023L62.9552 172.607C62.279 172.559 61.7573 171.979 61.8056 171.293C61.8539 170.617 62.4432 170.124 63.1097 170.143L69.3987 170.559C70.0749 170.607 70.5966 171.187 70.5483 171.873C70.5097 172.52 69.9687 173.023 69.3214 173.023Z" fill="#03045E"/>
<path d="M73.0117 173.303H72.606C71.9297 173.303 71.3791 172.752 71.3791 172.066C71.3791 171.38 71.9297 170.829 72.606 170.829H73.0117C73.6879 170.829 74.2386 171.38 74.2386 172.066C74.2386 172.752 73.6879 173.303 73.0117 173.303Z" fill="#03045E"/>
<path d="M92.8543 180.28C92.8543 180.28 92.8156 180.28 92.7866 180.28L42.7165 177.68C42.0403 177.642 41.5186 177.072 41.5476 176.385C41.5862 175.709 42.1755 175.207 42.8421 175.216L92.9122 177.816C93.5885 177.854 94.1101 178.424 94.0812 179.11C94.0425 179.767 93.5015 180.28 92.8543 180.28Z" fill="#03045E"/>
<path d="M55.2268 261.011C54.5989 261.011 54.0579 260.528 53.9999 259.89C53.9323 259.214 54.4347 258.615 55.1109 258.547L105.181 253.89C105.857 253.861 106.456 254.324 106.524 255.001C106.591 255.677 106.089 256.276 105.413 256.344L55.3427 261.001C55.3427 261.001 55.2655 261.001 55.2268 261.001V261.011Z" fill="#03045E"/>
<path d="M157.154 183.7C157.84 187.536 156.063 190.541 153.184 190.406C150.17 190.271 147.165 186.985 146.479 183.149C145.794 179.178 147.571 176.173 150.585 176.443C153.454 176.579 156.333 179.864 157.154 183.7Z" fill="#03045E"/>
<path d="M162.487 208.195H150.17C147.977 208.195 146.199 206.688 145.794 204.504L145.388 202.31C144.161 195.054 147.581 189.449 152.913 189.585C158.246 189.72 163.443 195.469 164.68 202.446L165.086 204.91C165.491 206.688 164.264 208.195 162.487 208.195Z" fill="#03045E"/>
<path d="M148.122 229.81C148.808 233.917 146.895 237.338 143.746 237.608C140.596 237.743 137.312 234.593 136.635 230.351C135.95 226.11 137.862 222.689 141.147 222.554C144.296 222.554 147.301 225.704 148.122 229.81Z" fill="#03045E"/>
<path d="M153.59 255.948L140.596 257.32C138.268 257.59 136.085 255.948 135.669 253.629L135.264 251.435C133.892 243.773 137.592 237.202 143.475 236.796C149.088 236.391 154.691 242.13 156.063 249.522L156.468 251.986C156.874 253.899 155.647 255.677 153.599 255.957L153.59 255.948Z" fill="#03045E"/>
<path d="M181.499 228.177C182.184 232.013 180.677 235.154 177.944 235.434C175.21 235.569 172.331 232.564 171.655 228.728C170.969 224.892 172.611 221.616 175.345 221.471C178.079 221.471 180.813 224.486 181.499 228.177Z" fill="#03045E"/>
<path d="M186.425 252.527L176.301 253.619C173.973 253.89 171.925 252.247 171.51 249.928L171.239 248.15C169.867 241.038 173.017 235.009 177.944 234.603C182.87 234.333 187.797 239.666 189.024 246.507L189.43 248.556C189.7 250.469 188.338 252.247 186.416 252.527H186.425Z" fill="#03045E"/>
<path d="M110.089 212.031C109.412 212.031 108.862 211.49 108.862 210.814C108.862 210.137 109.403 209.577 110.079 209.567L122.666 209.432H122.676C123.352 209.432 123.903 209.973 123.903 210.649C123.903 211.326 123.362 211.886 122.686 211.896L110.098 212.031H110.089Z" fill="#03045E"/>
<path d="M122.406 216.408L129.516 211.76C130.337 211.21 130.337 209.983 129.38 209.567L120.628 205.055C119.672 204.504 118.58 205.325 118.851 206.427L120.493 215.597C120.628 216.553 121.584 216.969 122.406 216.418V216.408Z" fill="#03045E"/>
<path d="M425.947 408.019L288.063 399.545C277.746 398.926 270.346 389.525 272.191 379.359L324.725 84.8897C326.57 74.7149 334.897 67.1684 345.06 66.0861L483.562 52.684C494.807 51.6018 504.052 61.4674 502.206 72.7147L449.828 388.916C447.982 400.472 437.655 408.792 425.947 408.019Z" fill="#D90368"/>
<path d="M418.402 407.091L280.518 398.617C270.201 397.999 262.801 388.597 264.646 378.432L317.18 83.9621C319.025 73.7873 327.352 66.2408 337.515 65.1586L476.017 51.7564C487.262 50.6742 496.507 60.5398 494.662 71.7871L442.283 387.988C440.438 399.545 430.111 407.71 418.402 407.091Z" fill="#F3DE8A"/>
<mask id="mask0_1_1719" style="mask-type:luminance" maskUnits="userSpaceOnUse" x="264" y="51" width="231" height="357">
<path d="M418.402 407.091L280.518 398.617C270.201 397.999 262.801 388.597 264.646 378.432L317.18 83.9621C319.025 73.7873 327.352 66.2408 337.515 65.1586L476.017 51.7564C487.262 50.6742 496.507 60.5398 494.662 71.7871L442.283 387.988C440.438 399.545 430.111 407.71 418.402 407.091Z" fill="white"/>
</mask>
<g mask="url(#mask0_1_1719)">
<path d="M557.358 240.671L345.07 244.372C339.524 244.527 335.361 239.444 336.288 234.052L351.851 145.446C352.779 140.363 356.933 136.662 362.024 136.198L571.54 122.178C578.63 121.714 584.485 128.033 583.248 135.126L567.84 231.434C567.376 236.671 562.758 240.681 557.368 240.681L557.358 240.671Z" fill="#F8AB5D"/>
</g>
<mask id="mask1_1_1719" style="mask-type:luminance" maskUnits="userSpaceOnUse" x="264" y="51" width="231" height="357">
<path d="M418.402 407.091L280.518 398.617C270.201 397.999 262.801 388.597 264.646 378.432L317.18 83.9621C319.025 73.7873 327.352 66.2408 337.515 65.1586L476.017 51.7564C487.262 50.6742 496.507 60.5398 494.662 71.7871L442.283 387.988C440.438 399.545 430.111 407.71 418.402 407.091Z" fill="white"/>
</mask>
<g mask="url(#mask1_1_1719)">
<path d="M533.941 383.514L321.653 374.267C316.417 373.958 312.408 369.185 313.335 363.947L329.362 273.186C330.289 267.949 334.907 263.939 340.297 263.939L550.122 262.248C557.059 262.248 562.295 268.413 561.213 275.196L545.495 374.277C544.568 379.823 539.486 383.833 533.941 383.524V383.514Z" fill="#F8AB5D"/>
</g>
<path d="M313.944 103.065C313.229 103.065 312.62 102.514 312.562 101.79C312.504 101.026 313.074 100.36 313.837 100.302L491.928 86.1265C492.701 86.0685 493.357 86.6386 493.415 87.402C493.473 88.1653 492.903 88.8321 492.14 88.89L314.05 103.065C314.05 103.065 313.973 103.065 313.934 103.065H313.944Z" fill="#D90368"/>
<path d="M404.53 80.2613L389.276 81.6527C387.885 81.8073 387.121 80.7251 387.276 79.1888C387.585 77.6524 388.812 76.4156 390.203 76.261L405.457 74.8695C406.848 74.7149 407.766 75.7972 407.457 77.3335C407.148 78.8699 405.766 80.1067 404.53 80.2613Z" fill="#03045E"/>
<path d="M414.702 79.3337C413.311 79.4883 412.393 78.4061 412.702 76.8697C413.011 75.3334 414.238 74.0965 415.629 73.9419C417.021 73.7873 417.938 74.8695 417.629 76.4059C417.475 77.9423 416.093 79.3337 414.702 79.3337Z" fill="#03045E"/>
<path d="M527.391 95.6829C526.01 95.6829 524.706 95.0935 523.827 94.0692C522.919 93.0063 522.58 91.6246 522.89 90.2815L528.724 54.7712C529.121 51.998 531.468 49.8142 534.308 49.6113L592.339 43.4465C593.875 43.2533 595.411 43.7847 596.522 44.8959C597.681 46.0555 598.231 47.6691 598.019 49.3117L592.31 86.0299C592.31 86.0879 592.29 86.1458 592.271 86.1942C591.469 88.9963 589.122 91.0062 586.417 91.1994L527.72 95.6732C527.604 95.6732 527.488 95.6829 527.382 95.6829H527.391ZM592.957 46.1811C592.86 46.1811 592.764 46.181 592.657 46.2004L534.55 52.3652C532.985 52.4811 531.681 53.689 531.458 55.1867L525.604 90.8129C525.44 91.5569 525.739 92.0401 525.933 92.2623C526.319 92.7165 526.908 92.9484 527.527 92.9001L586.214 88.4262C587.711 88.3199 589.083 87.1218 589.576 85.4984L595.266 48.9156C595.362 48.1619 595.101 47.3986 594.551 46.8478C594.106 46.4033 593.546 46.1714 592.947 46.1714L592.957 46.1811Z" fill="#00B4D8"/>
<path d="M559.512 70.473C558.43 70.473 557.358 70.1638 556.44 69.555L530.888 53.0802C530.241 52.6647 530.058 51.8047 530.473 51.167C530.888 50.5196 531.748 50.336 532.386 50.7515L557.957 67.236C558.894 67.8641 560.14 67.8641 561.058 67.2456L594.319 44.4514C594.947 44.0166 595.816 44.1809 596.251 44.8089C596.686 45.437 596.522 46.3066 595.894 46.7415L562.613 69.5454C561.686 70.1638 560.594 70.473 559.512 70.473Z" fill="#00B4D8"/>
<path d="M321.498 156.384L273.283 159.002L266.192 163.621C264.501 164.703 262.492 163.312 262.801 161.312L270.346 119.395C270.964 116.003 273.737 113.54 277.128 113.23L327.352 109.375C330.589 109.066 333.361 111.993 332.743 115.23L326.27 151.9C325.807 154.519 323.807 156.22 321.498 156.364V156.384Z" fill="#00B4D8"/>
<path d="M279.746 126.951C279.021 126.951 278.412 126.391 278.364 125.666C278.306 124.903 278.886 124.236 279.649 124.188L320.319 121.26C321.083 121.183 321.749 121.782 321.798 122.545C321.855 123.308 321.276 123.975 320.513 124.023L279.842 126.951C279.842 126.951 279.775 126.951 279.746 126.951Z" fill="#03045E"/>
<path d="M277.9 137.281C277.176 137.281 276.567 136.72 276.519 135.986C276.471 135.222 277.041 134.556 277.804 134.507L318.474 131.734C319.247 131.676 319.904 132.256 319.952 133.029C320.001 133.792 319.431 134.459 318.668 134.507L277.997 137.281C277.997 137.281 277.929 137.281 277.9 137.281Z" fill="#03045E"/>
<path d="M276.046 147.446C275.311 147.446 274.703 146.876 274.664 146.141C274.616 145.378 275.205 144.721 275.968 144.673L297.231 143.436C297.994 143.378 298.651 143.977 298.699 144.74C298.748 145.504 298.158 146.161 297.395 146.209L276.133 147.446C276.133 147.446 276.075 147.446 276.055 147.446H276.046Z" fill="#03045E"/>
<path d="M545.959 231.269L333.67 234.97C328.125 235.125 323.961 230.042 324.889 224.651L340.452 136.044C341.379 130.961 345.533 127.26 350.624 126.797L560.14 112.776C567.231 112.312 573.085 118.632 571.849 125.724L556.44 222.032C555.822 227.269 551.359 231.279 545.968 231.279L545.959 231.269Z" fill="#03045E"/>
<path d="M388.667 164.239C387.585 170.559 382.04 175.951 376.34 176.26C370.641 176.569 366.941 171.641 368.023 165.322C369.105 159.002 374.65 153.611 380.349 153.301C386.049 152.992 389.749 157.92 388.667 164.239Z" fill="#F3DE8A"/>
<path d="M384.658 204.765L359.396 205.538C356.005 205.692 353.233 202.61 353.851 199.218L354.315 196.445C356.314 185.043 366.178 175.332 376.495 175.023C386.812 174.559 393.749 183.652 391.749 195.208L391.131 199.218C390.512 202.301 387.894 204.61 384.658 204.765Z" fill="#F3DE8A"/>
<path d="M523.16 165.322L422.556 169.94C420.402 170.095 418.702 168.095 419.165 166.085L420.247 159.302C420.711 156.993 422.556 155.292 424.865 155.137L525.614 149.9C527.768 149.746 529.468 151.591 529.005 153.756L527.768 161.147C527.459 163.457 525.459 165.312 523.15 165.312L523.16 165.322Z" fill="#00B4D8"/>
<path d="M421.484 188.126L423.02 192.899L427.792 193.672L423.638 197.837L423.329 203.228L419.32 201.074L414.393 203.538L415.939 198.146L413.156 194.29L418.247 193.054L421.484 188.126Z" fill="#F3DE8A"/>
<path d="M444.592 187.353L446.282 192.136L451.054 192.899L446.9 197.064L446.746 202.455L442.428 200.301L437.501 202.765L439.046 197.373L436.274 193.363L441.355 192.29L444.592 187.353Z" fill="#F3DE8A"/>
<path d="M468.318 186.435L470.008 191.208L474.935 192.136L470.626 196.291L470.472 201.837L466.154 199.528L461.072 202.146L462.618 196.6L459.691 192.599L465.081 191.363L468.318 186.435Z" fill="#F3DE8A"/>
<path d="M492.498 185.507L494.198 190.435L499.279 191.208L494.961 195.527L494.807 201.074L490.343 198.755L485.107 201.383L486.798 195.682L483.716 191.826L489.107 190.59L492.498 185.507Z" fill="#F3DE8A"/>
<path d="M517.306 184.579L518.996 189.517L524.232 190.435L519.769 194.6L519.615 200.301L514.997 197.991L509.751 200.61L511.451 194.909L508.37 190.899L513.76 189.672L517.306 184.579Z" fill="#F3DE8A"/>
<path d="M522.387 374.113L310.253 364.711C305.017 364.402 301.008 359.628 301.936 354.391L317.962 263.63C318.89 258.393 323.507 254.382 328.898 254.382L538.723 252.692C545.659 252.692 550.895 258.856 549.813 265.64L534.096 364.72C533.014 370.421 528.087 374.431 522.387 374.122V374.113Z" fill="#03045E"/>
<path d="M366.023 295.372C364.941 301.846 359.396 307.083 353.542 306.928C347.842 306.773 344.142 301.536 345.224 295.062C346.306 288.588 351.851 283.506 357.551 283.506C363.405 283.66 367.26 288.898 366.023 295.372Z" fill="#F3DE8A"/>
<path d="M361.55 336.979L336.288 336.206C333.052 336.051 330.588 333.124 331.052 329.887L331.67 326.65C333.67 314.939 343.533 305.691 353.851 305.846C364.168 306.001 371.104 315.711 368.95 327.577L368.332 331.433C367.868 334.67 364.941 336.979 361.55 336.979Z" fill="#F3DE8A"/>
<path d="M500.207 304.928L399.603 303.537C397.603 303.537 396.057 301.691 396.367 299.681L397.603 292.589C398.067 290.125 400.066 288.424 402.53 288.424L503.279 289.197C505.278 289.197 506.824 291.043 506.515 293.053L505.278 300.754C504.815 303.063 502.661 304.918 500.197 304.918L500.207 304.928Z" fill="#00B4D8"/>
<path d="M398.675 322.185L400.221 327.113L404.993 328.196L400.839 332.206L400.685 337.752L396.521 335.133L391.594 337.443L393.13 331.896L390.512 327.886L395.449 326.968L398.675 322.185Z" fill="#F3DE8A"/>
<path d="M421.938 322.649L423.483 327.577L428.41 328.814L424.102 332.824L423.947 338.37L419.629 335.897L414.702 338.216L416.238 332.669L413.466 328.35L418.711 327.577L421.938 322.649Z" fill="#F3DE8A"/>
<path d="M445.664 323.268L447.21 328.196L452.291 329.432L447.982 333.433L447.673 339.134L443.355 336.515L438.274 338.824L439.964 333.278L437.037 328.969L442.273 328.196L445.664 323.268Z" fill="#F3DE8A"/>
<path d="M469.854 323.731L471.544 328.814L476.635 330.041L472.162 334.206L472.008 339.907L467.545 337.288L462.309 339.598L463.999 333.897L461.072 329.587L466.463 328.659L469.854 323.731Z" fill="#90E0EF"/>
<path d="M494.507 324.34L496.352 329.432L501.434 330.66L496.971 334.824L496.816 340.68L492.343 337.907L486.953 340.371L488.653 334.515L485.571 330.35L491.116 329.432L494.507 324.34Z" fill="#90E0EF"/>
<path d="M518.687 18.9324C516.378 16.3138 512.369 16.1592 509.906 18.4686C507.288 20.778 507.133 24.788 509.442 27.2519C511.751 29.8705 515.76 30.0251 518.223 27.7158C520.841 25.4064 520.996 21.3963 518.687 18.9324Z" fill="#03045E"/>
<path d="M510.37 4.44802L509.288 3.2112C505.588 -0.798803 499.424 -1.10799 495.425 2.59281C491.416 6.29361 491.107 12.4584 494.807 16.4587L495.889 17.6955C497.125 19.087 498.043 20.7779 498.507 22.6235C498.816 24.0149 499.279 25.7059 499.743 27.2422C500.67 30.6338 504.67 31.861 507.288 29.5516L514.224 23.2322L521.16 16.9129C523.778 14.6035 522.851 10.2843 519.624 9.21171C518.088 8.5933 516.543 8.1295 515.161 7.67535C513.316 6.74773 511.77 5.82978 510.389 4.43835L510.37 4.44802Z" fill="#00B4D8"/>
</svg>
