<?xml version="1.0" encoding="UTF-8"?>
<svg id="Layer_2" data-name="Layer 2" xmlns="http://www.w3.org/2000/svg" viewBox="0 0 114.81 115">
  <defs>
    <style>
      .cls-1 {
        fill: #03045e;
      }

      .cls-1, .cls-2, .cls-3, .cls-4 {
        stroke-width: 0px;
      }

      .cls-2 {
        fill: #90e0ef;
      }

      .cls-3 {
        fill: #00b4d8;
      }

      .cls-4 {
        fill: #fff;
      }
    </style>
  </defs>
  <g id="Layer_2-2" data-name="Layer 2">
    <g id="Layer_3" data-name="Layer 3">
      <g id="Cloud_Computing" data-name="Cloud Computing">
        <path class="cls-4" d="m93.28,34.75c.25-6.93-5.17-12.75-12.1-13-.93-.03-1.86.04-2.77.21C75.6,8.38,62.31-.36,48.73,2.45c-11.69,2.42-20.06,12.72-20.03,24.66-9.91,0-17.94,8.03-17.94,17.94s8.03,17.94,17.94,17.94h60.99c7.93-.02,14.33-6.47,14.31-14.39-.02-6.51-4.42-12.2-10.72-13.84h0Z"/>
        <path class="cls-2" d="m89.69,62.98H28.7c-9.91,0-17.94-8.03-17.94-17.94,0-.6.03-1.2.09-1.79.92,9.2,8.69,16.19,17.94,16.14h60.9c7.23,0,13.32-5.39,14.22-12.56.99,7.86-4.58,15.04-12.44,16.03-.59.07-1.19.11-1.78.11h0Z"/>
        <rect class="cls-2" x="43.05" y="84.51" width="28.7" height="21.53" rx="1.79" ry="1.79"/>
        <rect class="cls-3" x="53.81" y="106.04" width="7.18" height="7.18"/>
        <rect class="cls-2" x="84.31" y="84.51" width="28.7" height="21.53" rx="1.79" ry="1.79"/>
        <rect class="cls-3" x="95.07" y="106.04" width="7.18" height="7.18"/>
        <rect class="cls-2" x="1.79" y="84.51" width="28.7" height="21.53" rx="1.79" ry="1.79"/>
        <path class="cls-3" d="m43.05,100.65h28.7v3.59c0,.99-.8,1.79-1.79,1.79h-25.11c-.99,0-1.79-.8-1.79-1.79v-3.59h-.01Z"/>
        <path class="cls-3" d="m84.31,100.65h28.7v3.59c0,.99-.8,1.79-1.79,1.79h-25.11c-.99,0-1.79-.8-1.79-1.79v-3.59h-.01Z"/>
        <path class="cls-3" d="m1.79,100.65h28.7v3.59c0,.99-.8,1.79-1.79,1.79H3.59c-.99,0-1.79-.8-1.79-1.79v-3.59h-.01Z"/>
        <rect class="cls-3" x="12.56" y="106.04" width="7.18" height="7.18"/>
        <path class="cls-1" d="m28.7,64.78h19.73v5.38H16.14c-.99,0-1.79.8-1.79,1.79v7.18c0,.99.8,1.79,1.79,1.79s1.79-.8,1.79-1.79v-5.38h32.29c.99,0,1.79-.8,1.79-1.79v-7.18h3.59v14.35c0,.99.8,1.79,1.79,1.79s1.79-.8,1.79-1.79v-14.35h3.59v7.18c0,.99.8,1.79,1.79,1.79h32.29v5.38c0,.99.8,1.79,1.79,1.79s1.79-.8,1.79-1.79v-7.18c0-.99-.8-1.79-1.79-1.79h-32.29v-5.38h23.32c8.92-.01,16.13-7.25,16.12-16.17-.01-6.82-4.31-12.9-10.74-15.18-.46-7.91-7.24-13.96-15.15-13.5-.06,0-.11,0-.17.01C75.88,5.59,61.12-2.92,46.76.93c-11.18,3-19.19,12.83-19.88,24.39-10.9.5-19.33,9.73-18.83,20.63s9.73,19.33,20.63,18.83h.02Zm0-35.88c.99,0,1.79-.8,1.79-1.79.01-12.88,10.46-23.31,23.34-23.29,11.01.01,20.52,7.73,22.79,18.51.2.96,1.13,1.59,2.1,1.4,5.84-1.1,11.47,2.74,12.57,8.58.14.72.2,1.45.18,2.18-.16.92.42,1.81,1.33,2.04,6.69,1.83,10.62,8.74,8.79,15.43-1.48,5.38-6.33,9.15-11.91,9.23H28.69c-8.92,0-16.14-7.23-16.14-16.14s7.23-16.14,16.14-16.14h.01Z"/>
        <path class="cls-1" d="m71.75,82.72h-28.7c-.99,0-1.79.8-1.79,1.79v21.53c0,.99.8,1.79,1.79,1.79h8.97v3.59h-1.79c-.99,0-1.79.8-1.79,1.79s.8,1.79,1.79,1.79h14.35c.99,0,1.79-.8,1.79-1.79s-.8-1.79-1.79-1.79h-1.79v-3.59h8.97c.99,0,1.79-.8,1.79-1.79v-21.53c0-.99-.8-1.79-1.79-1.79h0Zm-12.56,28.7h-3.59v-3.59h3.59v3.59Zm10.76-7.18h-25.11v-17.94h25.11v17.94Z"/>
        <path class="cls-1" d="m113.01,82.72h-28.7c-.99,0-1.79.8-1.79,1.79v21.53c0,.99.8,1.79,1.79,1.79h8.97v3.59h-1.79c-.99,0-1.79.8-1.79,1.79s.8,1.79,1.79,1.79h14.35c.99,0,1.79-.8,1.79-1.79s-.8-1.79-1.79-1.79h-1.79v-3.59h8.97c.99,0,1.79-.8,1.79-1.79v-21.53c0-.99-.8-1.79-1.79-1.79h0Zm-12.56,28.7h-3.59v-3.59h3.59v3.59Zm10.76-7.18h-25.11v-17.94h25.11v17.94Z"/>
        <path class="cls-1" d="m30.49,82.72H1.79c-.99,0-1.79.8-1.79,1.79v21.53c0,.99.8,1.79,1.79,1.79h8.97v3.59h-1.79c-.99,0-1.79.8-1.79,1.79s.8,1.79,1.79,1.79h14.35c.99,0,1.79-.8,1.79-1.79s-.8-1.79-1.79-1.79h-1.79v-3.59h8.97c.99,0,1.79-.8,1.79-1.79v-21.53c0-.99-.8-1.79-1.79-1.79h0Zm-12.56,28.7h-3.59v-3.59h3.59v3.59Zm10.76-7.18H3.58v-17.94h25.11v17.94Z"/>
      </g>
    </g>
  </g>
</svg>