<?xml version="1.0" encoding="UTF-8"?>
<svg id="Layer_2" data-name="Layer 2" xmlns="http://www.w3.org/2000/svg" viewBox="0 0 115.01 115.01">
  <defs>
    <style>
      .cls-1, .cls-2, .cls-3, .cls-4, .cls-5, .cls-6, .cls-7 {
        stroke-width: 0px;
      }

      .cls-2 {
        fill: #03045e;
      }

      .cls-3 {
        fill: #90e0ef;
      }

      .cls-4 {
        fill: #f3de8a;
      }

      .cls-5 {
        fill: #00b4d8;
      }

      .cls-6 {
        fill: #f1f2f2;
      }

      .cls-7 {
        fill: #d90368;
      }
    </style>
  </defs>
  <g id="Layer_2-2" data-name="Layer 2">
    <g id="Layer_3" data-name="Layer 3">
      <g id="Development">
        <path class="cls-6" d="m113.21,106.03V8.99H1.8v97.03h111.41,0Z"/>
        <path class="cls-3" d="m113.21,106.03v-3.59H1.8v3.59h111.41,0Z"/>
        <rect class="cls-3" x="1.8" y="8.99" width="111.41" height="14.38"/>
        <rect class="cls-4" x="61.1" y="23.37" width="52.11" height="82.66"/>
        <rect class="cls-7" x="62.9" y="102.43" width="50.31" height="3.59"/>
        <rect class="cls-3" x="10.79" y="32.35" width="41.33" height="16.17"/>
        <rect class="cls-5" x="10.79" y="44.93" width="41.33" height="3.59"/>
        <circle class="cls-3" cx="47.62" cy="62" r="4.49"/>
        <circle class="cls-3" cx="31.45" cy="62" r="4.49"/>
        <circle class="cls-3" cx="15.28" cy="62" r="4.49"/>
        <rect class="cls-3" x="10.79" y="89.85" width="41.33" height="7.19"/>
        <path class="cls-2" d="m113.21,7.19h-50.31V1.8c0-.99-.8-1.8-1.8-1.8s-1.8.8-1.8,1.8v5.39H1.8c-.99,0-1.8.8-1.8,1.8v97.03c0,.99.8,1.8,1.8,1.8h57.5v5.39c0,.99.8,1.8,1.8,1.8s1.8-.8,1.8-1.8v-5.39h50.31c.99,0,1.8-.8,1.8-1.8V8.99c0-.99-.8-1.8-1.8-1.8Zm-1.8,3.59v10.78h-48.52v-10.78s48.52,0,48.52,0ZM3.59,10.78h55.7v10.78H3.59v-10.78Zm0,93.44V25.16h55.7v79.06s-55.7,0-55.7,0Zm59.3,0V25.16h48.52v79.06s-48.52,0-48.52,0Z"/>
        <path class="cls-1" d="m10.79,14.38c-.99,0-1.8.8-1.8,1.8s.8,1.8,1.8,1.8,1.8-.8,1.8-1.8-.8-1.8-1.8-1.8Z"/>
        <path class="cls-1" d="m19.77,14.38c-.99,0-1.8.8-1.8,1.8s.8,1.8,1.8,1.8,1.8-.8,1.8-1.8-.8-1.8-1.8-1.8Z"/>
        <path class="cls-2" d="m28.76,14.38c-.99,0-1.8.8-1.8,1.8s.8,1.8,1.8,1.8,1.8-.8,1.8-1.8-.8-1.8-1.8-1.8Z"/>
        <path class="cls-2" d="m52.12,30.55H10.79c-.99,0-1.8.8-1.8,1.8v16.17c0,.99.8,1.8,1.8,1.8h41.33c.99,0,1.8-.8,1.8-1.8v-16.17c0-.99-.8-1.8-1.8-1.8Zm-1.8,16.17H12.58v-12.58h37.74v12.58Z"/>
        <path class="cls-2" d="m47.62,55.71c-3.47,0-6.29,2.82-6.29,6.29s2.82,6.29,6.29,6.29,6.29-2.82,6.29-6.29-2.82-6.29-6.29-6.29Zm0,8.98c-1.49,0-2.7-1.21-2.7-2.7s1.21-2.7,2.7-2.7,2.7,1.21,2.7,2.7-1.21,2.7-2.7,2.7Z"/>
        <path class="cls-2" d="m31.45,68.29c3.47,0,6.29-2.82,6.29-6.29s-2.82-6.29-6.29-6.29-6.29,2.82-6.29,6.29,2.82,6.29,6.29,6.29Zm0-8.98c1.49,0,2.7,1.21,2.7,2.7s-1.21,2.7-2.7,2.7-2.7-1.21-2.7-2.7,1.21-2.7,2.7-2.7Z"/>
        <path class="cls-2" d="m15.28,68.29c3.47,0,6.29-2.82,6.29-6.29s-2.82-6.29-6.29-6.29-6.29,2.82-6.29,6.29,2.82,6.29,6.29,6.29Zm0-8.98c1.49,0,2.7,1.21,2.7,2.7s-1.21,2.7-2.7,2.7-2.7-1.21-2.7-2.7,1.21-2.7,2.7-2.7Z"/>
        <path class="cls-2" d="m52.12,71.88h-8.98c-.99,0-1.8.8-1.8,1.8s.8,1.8,1.8,1.8h8.98c.99,0,1.8-.8,1.8-1.8s-.8-1.8-1.8-1.8Z"/>
        <path class="cls-2" d="m52.12,79.07h-8.98c-.99,0-1.8.8-1.8,1.8s.8,1.8,1.8,1.8h8.98c.99,0,1.8-.8,1.8-1.8s-.8-1.8-1.8-1.8Z"/>
        <path class="cls-2" d="m26.96,75.48h8.98c.99,0,1.8-.8,1.8-1.8s-.8-1.8-1.8-1.8h-8.98c-.99,0-1.8.8-1.8,1.8s.8,1.8,1.8,1.8Z"/>
        <path class="cls-2" d="m26.96,82.67h8.98c.99,0,1.8-.8,1.8-1.8s-.8-1.8-1.8-1.8h-8.98c-.99,0-1.8.8-1.8,1.8s.8,1.8,1.8,1.8Z"/>
        <path class="cls-2" d="m10.79,75.48h8.98c.99,0,1.8-.8,1.8-1.8s-.8-1.8-1.8-1.8h-8.98c-.99,0-1.8.8-1.8,1.8s.8,1.8,1.8,1.8Z"/>
        <path class="cls-2" d="m10.79,82.67h8.98c.99,0,1.8-.8,1.8-1.8s-.8-1.8-1.8-1.8h-8.98c-.99,0-1.8.8-1.8,1.8s.8,1.8,1.8,1.8Z"/>
        <path class="cls-2" d="m52.12,88.06H10.79c-.99,0-1.8.8-1.8,1.8v7.19c0,.99.8,1.8,1.8,1.8h41.33c.99,0,1.8-.8,1.8-1.8v-7.19c0-.99-.8-1.8-1.8-1.8Zm-1.8,7.19H12.58v-3.59h37.74v3.59Z"/>
        <path class="cls-2" d="m74.2,48c.7.7,1.85.7,2.55,0s.7-1.85,0-2.55h0l-5.93-5.91,5.93-5.91c.7-.7.7-1.85,0-2.55s-1.85-.7-2.55,0h0l-7.19,7.19c-.7.7-.71,1.84-.01,2.54h.01s7.19,7.2,7.19,7.2h0Z"/>
        <path class="cls-2" d="m100.11,31.08c-.7-.7-1.85-.7-2.55,0s-.7,1.85,0,2.55l5.93,5.91-5.93,5.91c-.7.7-.71,1.84-.01,2.54.34.34.8.53,1.29.53,1.01,0,.54.22,8.46-7.71.7-.7.71-1.84.01-2.54h-.01s-7.19-7.2-7.19-7.2h0Z"/>
        <path class="cls-2" d="m84.19,47.68l8.98-14.38c.53-.84.27-1.95-.58-2.48-.84-.53-1.95-.27-2.48.58l-8.98,14.38c-.53.84-.27,1.95.58,2.48.84.53,1.95.27,2.48-.58Z"/>
        <path class="cls-2" d="m106.02,55.71h-37.74c-.99,0-1.8.8-1.8,1.8s.8,1.8,1.8,1.8h37.74c.99,0,1.8-.8,1.8-1.8s-.8-1.8-1.8-1.8Z"/>
        <path class="cls-2" d="m68.29,68.29h25.16c.99,0,1.8-.8,1.8-1.8s-.8-1.8-1.8-1.8h-25.16c-.99,0-1.8.8-1.8,1.8s.8,1.8,1.8,1.8Z"/>
        <path class="cls-2" d="m68.29,77.27h32.34c.99,0,1.8-.8,1.8-1.8s-.8-1.8-1.8-1.8h-32.34c-.99,0-1.8.8-1.8,1.8s.8,1.8,1.8,1.8Z"/>
        <path class="cls-2" d="m106.02,82.67h-37.74c-.99,0-1.8.8-1.8,1.8s.8,1.8,1.8,1.8h37.74c.99,0,1.8-.8,1.8-1.8s-.8-1.8-1.8-1.8Z"/>
        <path class="cls-2" d="m97.04,91.65h-28.75c-.99,0-1.8.8-1.8,1.8s.8,1.8,1.8,1.8h28.75c.99,0,1.8-.8,1.8-1.8s-.8-1.8-1.8-1.8Z"/>
      </g>
    </g>
  </g>
</svg>