<?xml version="1.0" encoding="utf-8"?>
<!-- Generator: Adobe Illustrator 25.3.1, SVG Export Plug-In . SVG Version: 6.00 Build 0)  -->
<svg version="1.1" id="Layer_1" xmlns="http://www.w3.org/2000/svg" xmlns:xlink="http://www.w3.org/1999/xlink" x="0px" y="0px"
	 viewBox="0 0 675.1 436" style="enable-background:new 0 0 675.1 436;" xml:space="preserve">
<style type="text/css">
	.st0{fill:#90E0EF;}
	.st1{clip-path:url(#SVGID_2_);}
	.st2{fill:#00B4D8;}
	.st3{clip-path:url(#SVGID_4_);}
	.st4{fill:#D90368;}
	.st5{fill:#03045E;}
	.st6{fill:#F3DE8A;}
	.st7{fill:#FFE779;}
	.st8{fill:#F4C2C9;}
	.st9{fill:#6DAFA7;}
	.st10{fill:#FFFFFF;}
	.st11{fill:#63737A;}
	.st12{fill:#22272E;}
	.st13{fill:none;stroke:#03045E;stroke-width:1.8;stroke-linecap:round;stroke-linejoin:round;}
	.st14{fill:none;stroke:#03045E;stroke-width:1.8;stroke-linecap:round;stroke-linejoin:round;stroke-miterlimit:10;}
	.st15{fill:none;stroke:#00B4D8;stroke-width:1.8;stroke-linecap:round;stroke-linejoin:round;}
	.st16{fill:none;stroke:#FFFFFF;stroke-width:1.8;stroke-linecap:round;stroke-linejoin:round;}
</style>
<g id="Layer_1_1_">
	<g id="Layer_2_1_">
		<path class="st0" d="M591.8,436l-520-14.9c-24.2-0.7-44.1-19.2-46.5-43.3l-25.1-248c-2.8-28.1,19-52.6,47.2-53l578.8-8
			c29.2-0.4,52.1,25.1,48.5,54.1L641,393.8C637.9,418.4,616.6,436.7,591.8,436L591.8,436z"/>
		<g>
			<g>
				<g>
					<defs>
						<path id="SVGID_1_" d="M591.8,436l-520-14.9c-24.2-0.7-44.1-19.2-46.5-43.3l-25.1-248c-2.8-28.1,19-52.6,47.2-53l578.8-8
							c29.2-0.4,52.1,25.1,48.5,54.1L641,393.8C637.9,418.4,616.6,436.7,591.8,436L591.8,436z"/>
					</defs>
					<clipPath id="SVGID_2_">
						<use xlink:href="#SVGID_1_"  style="overflow:visible;"/>
					</clipPath>
					<g class="st1">
						<g>
							<path class="st2" d="M167.4,481.9h-415.5c-8.8,0-15.9-7.1-15.9-15.9V230.3c0-8.8,7.1-15.9,15.9-15.9h415.5
								c8.8,0,15.9,7.1,15.9,15.9V466C183.3,474.8,176.2,481.9,167.4,481.9z M-248.1,216.2c-7.8,0-14.1,6.3-14.1,14.1V466
								c0,7.8,6.3,14.1,14.1,14.1h415.5c7.8,0,14.1-6.3,14.1-14.1V230.3c0-7.8-6.3-14.1-14.1-14.1H-248.1L-248.1,216.2z"/>
							<path class="st2" d="M716.5,466.1H297.4c-8.8,0-15.9-7.1-15.9-15.9V105.9c0-8.8,7.1-15.9,15.9-15.9h419.1
								c8.8,0,15.9,7.1,15.9,15.9v344.3C732.4,458.9,725.3,466.1,716.5,466.1z M297.4,91.8c-7.8,0-14.1,6.3-14.1,14.1v344.3
								c0,7.8,6.3,14.1,14.1,14.1h419.1c7.8,0,14.1-6.3,14.1-14.1V105.9c0-7.8-6.3-14.1-14.1-14.1H297.4L297.4,91.8z"/>
							<path class="st2" d="M67.8,145.9h-89.9c-0.5,0-0.9-0.4-0.9-0.9v-8.9c0-0.5,0.4-0.9,0.9-0.9h89.9c1.5,0,2.7,1.2,2.7,2.7v5.2
								C70.5,144.7,69.3,145.9,67.8,145.9L67.8,145.9z M-21.2,144.1h89c0.5,0,0.9-0.4,0.9-1v-5.2c0-0.5-0.4-0.9-0.9-0.9h-89
								L-21.2,144.1L-21.2,144.1z"/>
							<g>
								<path class="st2" d="M51.5,137H31.2c-2.6,0-4.8-1.9-5.2-4.6L24.5,118c-0.2-1.4,0.3-2.9,1.3-4s2.4-1.8,3.9-1.8h23.5
									c1.5,0,2.8,0.6,3.8,1.6c1,1.1,1.5,2.6,1.4,4.1l-1.6,14.4C56.4,135,54.1,137,51.5,137L51.5,137z M29.6,114
									c-1,0-1.9,0.4-2.6,1.2c-0.6,0.7-1,1.7-0.8,2.6l1.6,14.4c0.2,1.7,1.7,3,3.4,3h20.3c1.7,0,3.2-1.3,3.4-3l1.6-14.4
									c0.1-1-0.3-2-0.9-2.7c-0.6-0.7-1.5-1.1-2.5-1.1H29.6L29.6,114z"/>
								<path class="st2" d="M38.9,113.1c0,0-8-0.8-9.6-11.6c0,0,7.2,2.1,9.5,7.2c0,0,1-11.4,6.4-12.5c0,0,2.4,8.5-1.4,12.7
									c0,0,2.9-4.8,10.3-4.7c0,0-1.9,6.8-9.2,8.8"/>
							</g>
							<g>
								<path class="st2" d="M164.2,266H74c-2.8,0-5.1-2.3-5.1-5.1v-27.4c0-2.8,2.3-5.1,5.1-5.1h90.2c2.8,0,5.1,2.3,5.1,5.1v27.4
									c0.1,1.3-0.4,2.5-1.4,3.5C167,265.4,165.7,266,164.2,266L164.2,266z M74,230.2c-1.8,0-3.3,1.5-3.3,3.3v27.4
									c0,1.8,1.5,3.3,3.3,3.3h90.2c0.9,0,1.8-0.4,2.4-1c0.6-0.6,0.9-1.4,0.9-2.2v-27.4c0-1.8-1.5-3.3-3.3-3.3L74,230.2L74,230.2z"
									/>
								<path class="st2" d="M129.5,238.9h-20.8c-0.8,0-1.5-0.7-1.5-1.5l0,0c0-0.8,0.7-1.5,1.5-1.5h20.8c0.8,0,1.5,0.7,1.5,1.5l0,0
									C131,238.2,130.3,238.9,129.5,238.9z"/>
							</g>
							<g>
								<path class="st2" d="M164.2,311.8H74c-2.8,0-5.1-2.3-5.1-5.1v-27.4c0-2.8,2.3-5.1,5.1-5.1h90.2c2.8,0,5.1,2.3,5.1,5.1v27.4
									c0.1,1.3-0.4,2.5-1.4,3.5C167,311.2,165.7,311.8,164.2,311.8L164.2,311.8z M74,276c-1.8,0-3.3,1.5-3.3,3.3v27.4
									c0,1.8,1.5,3.3,3.3,3.3h90.2c0.9,0,1.8-0.4,2.4-1c0.6-0.6,0.9-1.4,0.9-2.2v-27.4c0-1.8-1.5-3.3-3.3-3.3L74,276L74,276z"/>
								<path class="st2" d="M129.5,284.7h-20.8c-0.8,0-1.5-0.7-1.5-1.5l0,0c0-0.8,0.7-1.5,1.5-1.5h20.8c0.8,0,1.5,0.7,1.5,1.5l0,0
									C131,284.1,130.3,284.7,129.5,284.7z"/>
							</g>
							<g>
								<path class="st2" d="M627.4,344.1h-90.2c-2.8,0-5.1-2.3-5.1-5.1v-27.4c0-2.8,2.3-5.1,5.1-5.1h90.2c2.8,0,5.1,2.3,5.1,5.1
									V339c0.1,1.3-0.4,2.5-1.3,3.5C630.2,343.5,628.9,344.1,627.4,344.1L627.4,344.1z M537.2,308.3c-1.8,0-3.3,1.5-3.3,3.3V339
									c0,1.8,1.5,3.3,3.3,3.3h90.2c1,0,1.8-0.4,2.5-1c0.6-0.6,0.9-1.4,0.8-2.2v-27.4c0-1.8-1.5-3.3-3.3-3.3h-90.2V308.3z"/>
								<path class="st2" d="M592.7,317.1h-20.8c-0.8,0-1.5-0.7-1.5-1.5l0,0c0-0.8,0.7-1.5,1.5-1.5h20.8c0.8,0,1.5,0.7,1.5,1.5l0,0
									C594.2,316.4,593.5,317.1,592.7,317.1z"/>
							</g>
							<g>
								<path class="st2" d="M511.6,344.1h-90.2c-2.8,0-5.1-2.3-5.1-5.1v-27.4c0-2.8,2.3-5.1,5.1-5.1h90.2c2.8,0,5.1,2.3,5.1,5.1
									V339C516.7,341.8,514.5,344.1,511.6,344.1L511.6,344.1z M421.4,308.3c-1.8,0-3.3,1.5-3.3,3.3V339c0,1.8,1.5,3.3,3.3,3.3
									h90.2c1.8,0,3.3-1.5,3.3-3.3v-27.4c0-1.8-1.5-3.3-3.3-3.3L421.4,308.3L421.4,308.3z"/>
								<path class="st2" d="M476.9,317.1h-20.8c-0.8,0-1.5-0.7-1.5-1.5l0,0c0-0.8,0.7-1.5,1.5-1.5h20.8c0.8,0,1.5,0.7,1.5,1.5l0,0
									C478.4,316.4,477.7,317.1,476.9,317.1z"/>
							</g>
							<g>
								<path class="st2" d="M49.2,266H-41c-2.8,0-5.1-2.3-5.1-5.1v-27.4c0-2.8,2.3-5.1,5.1-5.1h90.2c2.8,0,5.1,2.3,5.1,5.1v27.4
									c0.1,1.3-0.4,2.5-1.3,3.5C52,265.4,50.7,266,49.2,266L49.2,266z M-41,230.2c-1.8,0-3.3,1.5-3.3,3.3v27.4
									c0,1.8,1.5,3.3,3.3,3.3h90.2c1,0,1.8-0.4,2.5-1c0.6-0.6,0.9-1.4,0.8-2.2v-27.4c0-1.8-1.5-3.3-3.3-3.3L-41,230.2L-41,230.2z"
									/>
								<path class="st2" d="M14.5,238.9H-6.3c-0.8,0-1.5-0.7-1.5-1.5l0,0c0-0.8,0.7-1.5,1.5-1.5h20.8c0.8,0,1.5,0.7,1.5,1.5l0,0
									C16,238.2,15.4,238.9,14.5,238.9z"/>
							</g>
							<g>
								<path class="st2" d="M49.2,311.8H-41c-2.8,0-5.1-2.3-5.1-5.1v-27.4c0-2.8,2.3-5.1,5.1-5.1h90.2c2.8,0,5.1,2.3,5.1,5.1v27.4
									c0.1,1.3-0.4,2.5-1.3,3.5C52,311.2,50.7,311.8,49.2,311.8L49.2,311.8z M-41,276c-1.8,0-3.3,1.5-3.3,3.3v27.4
									c0,1.8,1.5,3.3,3.3,3.3h90.2c1,0,1.8-0.4,2.5-1c0.6-0.6,0.9-1.4,0.8-2.2v-27.4c0-1.8-1.5-3.3-3.3-3.3L-41,276L-41,276z"/>
								<path class="st2" d="M14.5,284.7H-6.3c-0.8,0-1.5-0.7-1.5-1.5l0,0c0-0.8,0.7-1.5,1.5-1.5h20.8c0.8,0,1.5,0.7,1.5,1.5l0,0
									C16,284.1,15.4,284.7,14.5,284.7z"/>
							</g>
							<path class="st2" d="M758.7,196.6h-455c-3,0-5.5-2.5-5.5-5.5v-79.7c0-3,2.5-5.5,5.5-5.5h455c3,0,5.5,2.5,5.5,5.5v79.7
								C764.2,194.1,761.8,196.6,758.7,196.6z M303.7,107.7c-2,0-3.7,1.7-3.7,3.7v79.7c0,2,1.7,3.7,3.7,3.7h455c2,0,3.7-1.7,3.7-3.7
								v-79.7c0-2-1.7-3.7-3.7-3.7H303.7z"/>
							<path class="st2" d="M758.7,295.5h-455c-3,0-5.5-2.5-5.5-5.5v-79.7c0-3,2.5-5.5,5.5-5.5h455c3,0,5.5,2.5,5.5,5.5V290
								C764.2,293.1,761.8,295.5,758.7,295.5z M303.7,206.6c-2,0-3.7,1.7-3.7,3.7V290c0,2,1.7,3.7,3.7,3.7h455
								c2.1,0,3.7-1.6,3.7-3.7v-79.7c0-2-1.7-3.7-3.7-3.7H303.7z"/>
							<path class="st2" d="M339.7,196.6h-9.9c-0.5,0-0.9-0.4-0.9-0.9v-50.3c0-0.5,0.4-0.9,0.9-0.9h9.9c0.5,0,0.9,0.4,0.9,0.9v50.3
								C340.6,196.2,340.2,196.6,339.7,196.6z M330.7,194.8h8.1v-48.5h-8.1V194.8z"/>
							<path class="st2" d="M349.9,196.6h-10.3c-0.5,0-0.9-0.4-0.9-0.9v-36.6c0-0.5,0.4-0.9,0.9-0.9h10.3c0.5,0,0.9,0.4,0.9,0.9
								v36.6C350.8,196.2,350.4,196.6,349.9,196.6L349.9,196.6z M340.5,194.8h8.5V160h-8.5V194.8z"/>
							<path class="st2" d="M638,295.4h-9.9c-0.5,0-0.9-0.4-0.9-0.9v-50.3c0-0.5,0.4-0.9,0.9-0.9h9.9c0.5,0,0.9,0.4,0.9,0.9v50.3
								C638.9,295,638.5,295.4,638,295.4z M629,293.6h8.1v-48.5H629V293.6z"/>
							<path class="st2" d="M648.3,295.4H638c-0.5,0-0.9-0.4-0.9-0.9v-36.6c0-0.5,0.4-0.9,0.9-0.9h10.3c0.5,0,0.9,0.4,0.9,0.9v36.6
								C649.2,295,648.8,295.4,648.3,295.4z M638.9,293.6h8.5v-34.8h-8.5V293.6z"/>
							<path class="st2" d="M617.9,295.4H608c-0.5,0-0.9-0.4-0.9-0.9v-50.3c0-0.5,0.4-0.9,0.9-0.9h9.9c0.5,0,0.9,0.4,0.9,0.9v50.3
								C618.8,295,618.4,295.4,617.9,295.4z M608.9,293.6h8.1v-48.5h-8.1V293.6z"/>
							<path class="st2" d="M593,294.9c-0.1,0-0.2,0-0.3,0l-9.4-3c-0.5-0.1-0.7-0.7-0.6-1.1l15.2-48c0.2-0.5,0.7-0.7,1.1-0.6l9.4,3
								c0.2,0.1,0.4,0.2,0.5,0.4s0.1,0.5,0.1,0.7l-15.2,48c-0.1,0.2-0.2,0.4-0.4,0.5C593.3,294.9,593.2,294.9,593,294.9L593,294.9z
								 M584.7,290.4l7.7,2.4l14.6-46.2l-7.7-2.4L584.7,290.4z"/>
							<path class="st2" d="M628.2,295.4h-10.3c-0.5,0-0.9-0.4-0.9-0.9v-36.6c0-0.5,0.4-0.9,0.9-0.9h10.3c0.5,0,0.9,0.4,0.9,0.9
								v36.6C629.1,295,628.7,295.4,628.2,295.4z M618.8,293.6h8.5v-34.8h-8.5V293.6z"/>
							<path class="st2" d="M504.5,196.6h-9.9c-0.5,0-0.9-0.4-0.9-0.9v-50.3c0-0.5,0.4-0.9,0.9-0.9h9.9c0.5,0,0.9,0.4,0.9,0.9v50.3
								C505.4,196.2,505,196.6,504.5,196.6z M495.5,194.8h8.1v-48.5h-8.1V194.8z"/>
							<path class="st2" d="M514.8,196.6h-10.3c-0.5,0-0.9-0.4-0.9-0.9v-36.6c0-0.5,0.4-0.9,0.9-0.9h10.3c0.5,0,0.9,0.4,0.9,0.9
								v36.6C515.7,196.2,515.3,196.6,514.8,196.6L514.8,196.6z M505.4,194.8h8.5V160h-8.5L505.4,194.8L505.4,194.8z"/>
							<path class="st2" d="M406.7,196.6h-9.9c-0.5,0-0.9-0.4-0.9-0.9v-50.3c0-0.5,0.4-0.9,0.9-0.9h9.9c0.5,0,0.9,0.4,0.9,0.9v50.3
								C407.6,196.2,407.2,196.6,406.7,196.6z M397.7,194.8h8.1v-48.5h-8.1V194.8z"/>
							<path class="st2" d="M381.8,196.1c-0.1,0-0.2,0-0.3,0l-9.4-3c-0.5-0.1-0.7-0.7-0.6-1.1l15.1-48c0.1-0.5,0.6-0.7,1.1-0.6
								l9.4,3c0.2,0.1,0.4,0.2,0.5,0.4s0.1,0.5,0.1,0.7l-15.1,48c-0.1,0.2-0.2,0.4-0.4,0.5C382.1,196.1,382,196.1,381.8,196.1
								L381.8,196.1z M373.5,191.6l7.7,2.4l14.6-46.2l-7.7-2.4L373.5,191.6z"/>
							<path class="st2" d="M417,196.6h-10.3c-0.5,0-0.9-0.4-0.9-0.9v-36.6c0-0.5,0.4-0.9,0.9-0.9H417c0.5,0,0.9,0.4,0.9,0.9v36.6
								C417.9,196.2,417.5,196.6,417,196.6L417,196.6z M407.6,194.8h8.5V160h-8.5V194.8z"/>
							<path class="st2" d="M637.9,152l1.1-14.9c0.1-1-0.7-1.8-1.7-1.8h-8.6c-1,0-1.7,0.8-1.7,1.8l1.1,14.9c0,0-9,5.8-8.9,10.6
								c0.1,3.7,2.3,21.4,3.3,29.2c0.3,2.2,2.1,3.8,4.3,3.8h12.4c2.2,0,4-1.6,4.3-3.8c1-7.8,3.2-25.5,3.3-29.2
								C646.9,157.7,637.9,152,637.9,152L637.9,152z"/>
							<path class="st2" d="M598,152l1.1-14.9c0.1-1-0.7-1.8-1.7-1.8h-8.6c-1,0-1.7,0.8-1.7,1.8l1.1,14.9c0,0-9,5.8-8.9,10.6
								c0.1,3.7,2.3,21.4,3.3,29.2c0.3,2.2,2.1,3.8,4.3,3.8h12.4c2.2,0,4-1.6,4.3-3.8c1-7.8,3.2-25.5,3.3-29.2
								C607,157.7,598,152,598,152L598,152z"/>
							<path class="st2" d="M954.5,389.9H-1.3c-0.5,0-0.9-0.4-0.9-0.9s0.4-0.9,0.9-0.9h955.8c0.5,0,0.9,0.4,0.9,0.9
								S955,389.9,954.5,389.9z"/>
						</g>
					</g>
				</g>
			</g>
		</g>
		<g>
			<g>
				<g>
					<defs>
						<path id="SVGID_3_" d="M591.8,436l-520-14.9c-24.2-0.7-44.1-19.2-46.5-43.3l-25.1-248c-2.8-28.1,19-52.6,47.2-53l578.8-8
							c29.2-0.4,52.1,25.1,48.5,54.1L641,393.8C637.9,418.4,616.6,436.7,591.8,436L591.8,436z"/>
					</defs>
					<clipPath id="SVGID_4_">
						<use xlink:href="#SVGID_3_"  style="overflow:visible;"/>
					</clipPath>
					<g class="st3">
						<g>
							<g>
								<g>
									<polygon class="st4" points="86.6,399.2 86.6,519.5 94.7,519.5 97.3,399.2 									"/>
									<polygon class="st5" points="97.3,399.2 86.6,399.2 86.6,412.3 97,412.3 									"/>
								</g>
								<g>
									<polygon class="st4" points="567.1,399.2 567.1,519.5 558.9,519.5 556.4,399.2 									"/>
									<polygon class="st5" points="556.4,399.2 567.1,399.2 567.1,412.3 556.7,412.3 									"/>
								</g>
							</g>
							<polygon class="st6" points="601.7,394.3 52,394.3 110.5,368.7 543.1,368.7 							"/>
							<rect x="52" y="394.3" class="st4" width="549.7" height="7.7"/>
						</g>
					</g>
				</g>
			</g>
		</g>
		<g>
			<path class="st5" d="M116.9,335.4l-12.7,7.3c-1.9,1.1-4.4,0.5-5.5-1.5l-36.4-62.8c-1.1-1.9-0.5-4.4,1.5-5.5l12.7-7.3
				c1.9-1.1,4.4-0.5,5.5,1.5l36.4,62.8C119.5,331.8,118.8,334.3,116.9,335.4z"/>
			<path class="st2" d="M108,326.5c-1.1-1.9-3.6-2.6-5.5-1.5s-2.6,3.6-1.5,5.5s3.6,2.6,5.5,1.5S109.1,328.5,108,326.5z"/>
			<g>
				<path class="st2" d="M91.3,317.4c-0.3,0-0.6-0.2-0.8-0.5c-0.2-0.4-0.1-1,0.3-1.2l9.3-5.4c0.4-0.2,1-0.1,1.2,0.3s0.1,1-0.3,1.2
					l-9.3,5.4C91.7,317.3,91.5,317.4,91.3,317.4L91.3,317.4z"/>
				<path class="st2" d="M88.7,313c-0.3,0-0.6-0.2-0.8-0.5c-0.2-0.4-0.1-1,0.3-1.2l9.4-5.4c0.4-0.2,1-0.1,1.2,0.3s0.1,1-0.3,1.2
					l-9.4,5.4C89.1,312.9,88.9,313,88.7,313L88.7,313z"/>
			</g>
		</g>
		<g>
			<g>
				<path class="st6" d="M136.1,292.5l-8.2,34.7c-0.3,1,4.5,3.5,10.9,5.7c6.3,2.2,11.8,3.2,12.1,2.3l15.1-32.3L136.1,292.5
					L136.1,292.5z"/>
				<path class="st7" d="M157.8,331.6c-0.6,0-1.2-0.1-1.8-0.3l-6.1-2.1c-0.5-0.2-0.7-0.7-0.6-1.1s0.7-0.7,1.1-0.6l6.1,2.1
					c1.6,0.6,3.3-0.1,4.1-1.6l4.7-9c0.4-0.9,0.5-1.9,0.2-2.8c-0.4-0.9-1.1-1.6-2.1-2l-5.6-1.9c-0.5-0.2-0.7-0.7-0.6-1.1
					s0.7-0.7,1.1-0.6l5.6,1.9c1.5,0.5,2.6,1.6,3.1,3s0.4,2.9-0.2,4.2l-4.7,9C161.4,330.6,159.7,331.6,157.8,331.6L157.8,331.6z"/>
			</g>
			<path class="st2" d="M166,303c-0.4,1.2-7.5-0.1-15.7-3c-8.3-2.9-14.6-6.2-14.2-7.5c0.4-1.2,7.5,0.1,15.7,3
				C160.1,298.4,166.4,301.7,166,303z"/>
		</g>
		<g>
			<g>
				<path class="st2" d="M219.2,122.8l-114.7,30.4c-4.2,1.1-8.3-1.7-8.8-6L81.4,23.5c-0.3-3,2.1-5.6,5.1-5.3l116.6,8.1
					c3.3,0.2,6,2.7,6.5,6l13,85.2C223.1,119.8,221.5,122.2,219.2,122.8z"/>
				<path class="st5" d="M224.5,123.2l-115.9,30.7c-4.2,1.1-8.4-1.8-8.9-6.1l-14.4-125c-0.3-3,2.1-5.6,5.2-5.4l117.9,8.1
					c3.3,0.2,6.1,2.7,6.6,6l13.2,86.1C228.4,120.2,226.9,122.5,224.5,123.2z"/>
			</g>
			<g>
				<path class="st2" d="M133.8,41.1l-28.3-0.4c-0.6,0-1-0.4-1.1-1l-0.4-3.2c-0.1-0.7,0.5-1.3,1.1-1.3l28.4,0.8c0.6,0,1,0.4,1.1,1
					l0.4,2.9C135,40.5,134.5,41.1,133.8,41.1z"/>
				<g>
					<path class="st6" d="M105.8,52.6c-0.5,0-0.9-0.4-0.9-0.9s0.4-0.9,0.9-0.9l54.8-0.7l0,0c0.5,0,0.9,0.4,0.9,0.9s-0.4,0.9-0.9,0.9
						L105.8,52.6L105.8,52.6L105.8,52.6z"/>
					<path class="st6" d="M107.2,63.7c-0.5,0-0.9-0.4-0.9-0.9s0.4-0.9,0.9-0.9l34.7-1.4c0.5,0,0.9,0.4,0.9,0.9s-0.4,0.9-0.9,0.9
						L107.2,63.7C107.3,63.7,107.3,63.7,107.2,63.7z"/>
				</g>
				<g>
					<path class="st2" d="M120.2,131.2l-3.3,0.7c-0.7,0.2-1.4-0.3-1.5-1.1l-3.3-27.7c-0.1-0.7,0.4-1.3,1.1-1.4l3.3-0.5
						c0.7-0.1,1.3,0.4,1.4,1.1l3.4,27.5C121.2,130.5,120.8,131.1,120.2,131.2L120.2,131.2z"/>
					<path class="st6" d="M131.9,127.3l-5.5-44c-0.1-0.7,0.4-1.3,1.1-1.4l2.8-0.3c0.7-0.1,1.3,0.4,1.3,1.1l5.5,43.6
						c0.1,0.6-0.3,1.2-1,1.4l-2.9,0.6C132.7,128.5,132,128,131.9,127.3z"/>
					<path class="st2" d="M147.2,124l-2.1-16.2c-0.1-0.7,0.4-1.3,1-1.4l2.4-0.4c0.7-0.1,1.3,0.4,1.4,1.1l2.1,16.1
						c0.1,0.6-0.3,1.2-1,1.4l-2.4,0.5C147.9,125.2,147.2,124.7,147.2,124z"/>
					<path class="st8" d="M164.8,121.6l-2.1,0.4c-0.7,0.2-1.4-0.3-1.5-1l-1.2-8.7c-0.1-0.7,0.4-1.3,1-1.4l2.1-0.4
						c0.7-0.1,1.4,0.4,1.4,1.1l1.2,8.7C165.8,120.9,165.4,121.5,164.8,121.6z"/>
				</g>
				<g>
					<path class="st9" d="M205.6,109.5L197,90.2l7.4-17.1c3.4,3.6,5.9,9,6.9,15.1C212.4,96.9,210.1,105.2,205.6,109.5L205.6,109.5z"
						/>
					<path class="st8" d="M204.3,73.1l-7.4,17.1l-14.5-11.6c2.1-5.9,6.2-10,11.3-10.3C197.5,68,201.3,69.8,204.3,73.1L204.3,73.1z"
						/>
					<path class="st7" d="M205.6,109.5c-1.6,1.5-3.4,2.5-5.4,2.9c-8.4,1.8-17.1-7.2-18.9-20.1c-0.7-5.1-0.2-9.9,1.1-13.8l14.5,11.6
						L205.6,109.5L205.6,109.5z"/>
				</g>
			</g>
		</g>
		<g>
			<g>
				<path class="st6" d="M321,49.1c-1.3,0-2.5-0.6-3.2-1.7c-2.5-3.7-9-13.4-14.3-23.6c-1.9-3.8-2.3-8-1-12s4.2-7.3,8-9.1
					c2.2-1.1,4.6-1.7,7-1.7c6.8,0,12.8,4.4,14.9,11c2.9,9.4,5.6,16.9,7.8,22.2c0.9,2.1-0.1,4.5-2.1,5.6c-4.2,2.1-10.3,5.3-14.8,8.6
					C322.6,48.9,321.8,49.1,321,49.1L321,49.1L321,49.1z"/>
				<path class="st5" d="M317.5,2c6.4,0,12,4.1,13.9,10.3c3,9.5,5.6,17,7.9,22.3c0.7,1.6-0.1,3.5-1.6,4.3c-4.3,2.1-10.4,5.4-15,8.7
					c-0.5,0.4-1.1,0.5-1.7,0.5c-1,0-1.8-0.5-2.4-1.3c-2.5-3.7-9-13.3-14.3-23.5c-1.8-3.5-2.1-7.5-0.9-11.2c1.2-3.8,3.9-6.8,7.5-8.6
					C313,2.5,315.2,2,317.5,2 M317.5,0c-2.5,0-5,0.6-7.5,1.8c-8.4,4.1-11.8,14.2-7.5,22.5c4.8,9.3,10.8,18.5,14.4,23.7
					c1,1.4,2.5,2.1,4,2.1c1,0,2-0.3,2.9-0.9c4.5-3.2,10.5-6.4,14.7-8.5c2.5-1.3,3.7-4.3,2.6-6.9c-2.7-6.3-5.5-14.7-7.8-22.1
					C331.1,4.5,324.5,0,317.5,0L317.5,0z"/>
			</g>
			<g>
				<path class="st10" d="M335.7,35.2c1.5,0,2.9,0.6,3.7,1.8c1.6,2.3,4.6,6.2,7.8,8.5c4.7,3.3,21.8,6.2,23.2,8.7s-2.7,3.3-5.5,3
					c-2.9-0.2-5.2-0.6-5.8,0.6c-0.6,1.2,0.2,6.2,4.1,9.7c3.8,3.5,10.9,7.2,11.2,10.4s-7.6,0.1-11.1-2.1c-3.6-2.1-4.5-2.6-4.5-2.6
					s-0.5,1-3.3,2c-1.6,0.5-3.3-0.8-4.8-0.5s-8.2,3.7-11.4,2.1c-2.3-1.2-7.4-12.8-9.9-15.9c-1.8-2.3-6.1-8.9-8.2-12.2
					c-0.9-1.3-0.9-3.1-0.1-4.4C322.8,41,327.2,35.5,335.7,35.2L335.7,35.2z"/>
				<path class="st5" d="M372.7,80.2c-3.1,0-8.1-2.5-9.9-3.6c-2-1.2-3.1-1.8-3.8-2.2c-0.6,0.5-1.5,1.1-3.2,1.7
					c-1.2,0.4-2.3,0.1-3.2-0.2c-0.6-0.2-1.3-0.3-1.7-0.3c-0.3,0.1-0.9,0.3-1.7,0.6c-2.8,1.1-7.5,2.8-10.4,1.4
					c-1.5-0.8-3.4-4.1-6.3-9.4c-1.5-2.7-3-5.5-4-6.7c-1.9-2.4-6.2-9.1-8.3-12.3c-1.1-1.6-1.1-3.8-0.1-5.5c1.1-2.1,5.5-9.2,15.4-9.6
					l0,0c1.9,0,3.6,0.8,4.5,2.2c1.5,2.1,4.4,6,7.5,8.2c2.2,1.5,7.5,3.1,12.2,4.4c6.6,1.9,10.4,3,11.2,4.6c0.7,1.3,0.3,2.2,0,2.7
					c-1.2,1.8-4.8,2-6.5,1.8c-0.4,0-0.8-0.1-1.2-0.1c-1.4-0.1-3.4-0.3-3.6,0.1c-0.3,0.7,0.2,5.2,3.9,8.5c1.2,1.1,2.9,2.3,4.4,3.4
					c3.5,2.6,6.9,5,7.1,7.6c0.1,0.9-0.2,1.6-1,2.1C374,80.1,373.4,80.2,372.7,80.2L372.7,80.2z M358.4,71.7l0.9,0.6
					c0,0,0.9,0.5,4.5,2.6c3.7,2.3,8.9,3.9,9.6,3.2l0,0c0,0,0-0.1,0-0.2c-0.2-1.7-3.4-4.1-6.3-6.2c-1.6-1.2-3.3-2.4-4.6-3.6
					c-4.2-3.8-5.2-9.2-4.3-10.9c0.8-1.6,2.9-1.5,5.5-1.2c0.4,0,0.8,0.1,1.2,0.1c2.2,0.2,4.3-0.3,4.7-0.9c0,0,0.1-0.2-0.1-0.6
					c-0.6-0.9-6-2.5-10-3.7c-5.1-1.5-10.4-3-12.9-4.7c-3.4-2.5-6.5-6.5-8-8.8c-0.6-0.9-1.6-1.4-2.9-1.4c-8.6,0.3-12.5,6.1-13.7,8.6
					c-0.6,1.1-0.6,2.4,0,3.4c2.4,3.7,6.5,10,8.2,12.2c1.1,1.3,2.6,4.1,4.1,7c1.7,3.2,4.4,8,5.4,8.6c2,1,6.4-0.6,8.8-1.5
					c0.9-0.3,1.5-0.6,2-0.7c0.9-0.2,1.9,0.1,2.7,0.3c0.8,0.2,1.5,0.4,2,0.2c2.2-0.8,2.7-1.5,2.7-1.6L358.4,71.7L358.4,71.7z"/>
			</g>
			<path class="st5" d="M358.7,74.2c-0.1,0-0.3,0-0.4-0.1c-0.2-0.1-4-2.1-5.7-3.8c-1-1-1.7-2.3-1.8-2.4c-0.2-0.4-0.1-1,0.4-1.2
				s1-0.1,1.2,0.4c0,0,0.6,1.2,1.4,2c1.5,1.5,5.2,3.4,5.3,3.4c0.4,0.2,0.6,0.8,0.4,1.2C359.4,74,359.1,74.2,358.7,74.2L358.7,74.2z"
				/>
			<path class="st5" d="M350.6,75.6c-0.1,0-0.2,0-0.4-0.1c-0.3-0.1-2.5-1.1-3.5-1.8c-1-0.9-2.3-2.9-2.4-3.1c-0.3-0.4-0.1-1,0.3-1.2
				c0.4-0.3,1-0.1,1.2,0.3c0.3,0.6,1.4,2.1,2,2.7c0.6,0.5,2.4,1.3,3,1.5c0.5,0.2,0.7,0.7,0.5,1.2C351.3,75.4,351,75.6,350.6,75.6
				L350.6,75.6z"/>
			<path class="st5" d="M344.8,77.6c-0.1,0-0.2,0-0.3-0.1c-0.1,0-2-0.8-3.1-1.8c-0.7-0.6-2.1-2.3-2.2-2.5c-0.3-0.4-0.2-1,0.2-1.3
				c0.4-0.3,1-0.2,1.3,0.2c0.4,0.5,1.5,1.8,2,2.3c0.7,0.7,2.1,1.3,2.5,1.4c0.5,0.2,0.7,0.7,0.5,1.2
				C345.5,77.4,345.2,77.6,344.8,77.6L344.8,77.6z"/>
		</g>
		<g>
			<path class="st9" d="M269.5,103.4c0.3-0.8,1.3-0.8,1.6,0c0.5,1.5,1.1,3.1,1.8,3.8c0.6,0.6,2.3,1.3,3.8,1.8c0.8,0.3,0.8,1.3,0,1.6
				c-1.5,0.5-3.1,1.1-3.8,1.8c-0.6,0.6-1.3,2.3-1.8,3.8c-0.3,0.8-1.3,0.8-1.6,0c-0.5-1.5-1.1-3.1-1.8-3.8c-0.6-0.6-2.3-1.3-3.8-1.8
				c-0.8-0.3-0.8-1.3,0-1.6c1.5-0.5,3.1-1.1,3.8-1.8S269,104.9,269.5,103.4z"/>
			<path class="st9" d="M281.6,45.7c0.2-0.6,1-0.6,1.2,0c0.4,1.1,0.8,2.3,1.3,2.7c0.5,0.5,1.6,0.9,2.7,1.3c0.6,0.2,0.6,1,0,1.2
				c-1.1,0.4-2.3,0.8-2.7,1.3c-0.5,0.5-0.9,1.6-1.3,2.7c-0.2,0.6-1,0.6-1.2,0c-0.4-1.1-0.8-2.3-1.3-2.7c-0.5-0.5-1.6-0.9-2.7-1.3
				c-0.6-0.2-0.6-1,0-1.2c1.1-0.4,2.3-0.8,2.7-1.3C280.8,47.9,281.3,46.7,281.6,45.7z"/>
			<path class="st2" d="M376.3,95.4c0.2-0.6,1-0.6,1.2,0c0.4,1.1,0.8,2.3,1.3,2.7s1.6,0.9,2.7,1.3c0.6,0.2,0.6,1,0,1.2
				c-1.1,0.4-2.3,0.8-2.7,1.3c-0.5,0.5-0.9,1.6-1.3,2.7c-0.2,0.6-1,0.6-1.2,0c-0.4-1.1-0.8-2.3-1.3-2.7c-0.5-0.5-1.6-0.9-2.7-1.3
				c-0.6-0.2-0.6-1,0-1.2c1.1-0.4,2.3-0.8,2.7-1.3C375.5,97.7,376,96.5,376.3,95.4z"/>
			<path class="st7" d="M291.7,78.3c0.2-0.5,0.8-0.5,0.9,0c0.3,0.9,0.7,1.8,1,2.2c0.4,0.4,1.3,0.8,2.2,1c0.5,0.2,0.5,0.8,0,0.9
				c-0.9,0.3-1.8,0.7-2.2,1c-0.4,0.4-0.8,1.3-1,2.2c-0.2,0.5-0.8,0.5-0.9,0c-0.3-0.9-0.7-1.8-1-2.2c-0.4-0.4-1.3-0.8-2.2-1
				c-0.5-0.2-0.5-0.8,0-0.9c0.9-0.3,1.8-0.7,2.2-1C291,80.2,291.4,79.2,291.7,78.3z"/>
			<path class="st6" d="M384.3,122.1c0.3-0.8,1.3-0.8,1.6,0c0.5,1.5,1.1,3.1,1.8,3.8c0.6,0.6,2.3,1.3,3.8,1.8c0.8,0.3,0.8,1.3,0,1.6
				c-1.5,0.5-3.1,1.1-3.8,1.8c-0.6,0.6-1.3,2.3-1.8,3.8c-0.3,0.8-1.3,0.8-1.6,0c-0.5-1.5-1.1-3.1-1.8-3.8c-0.6-0.6-2.3-1.3-3.8-1.8
				c-0.8-0.3-0.8-1.3,0-1.6c1.5-0.5,3.1-1.1,3.8-1.8C383.1,125.2,383.8,123.6,384.3,122.1z"/>
		</g>
		<g>
			<path class="st5" d="M553.3,102.2c0,0-1.4,1.4,1.2,12c2.6,10.6,8.5,18.7,8.5,18.7s7.6-6.4,5.3-17.4
				C566.1,104.5,553.3,102.2,553.3,102.2z"/>
			<g>
				<path class="st10" d="M554.8,133.4c0,0-2,0.6-6.7,5.5s-11.6,7.4-19.8,11.1s-12.2-13.5-10.1-22.2c2-8.7,11-14.7,11-14.7l20.9-4.1
					c0,0,2.4-0.4,4.7,4.1C557,117.6,556.8,127.7,554.8,133.4L554.8,133.4z"/>
				<path class="st5" d="M526.1,151.5c-1.3,0-2.6-0.5-3.8-1.4c-4.8-4-6.8-15.6-5.1-22.5c2.1-9,11-15,11.4-15.3l0.2-0.1l21.1-4.1
					c0.3-0.1,3.2-0.4,5.8,4.6c2.5,5,2,15.4,0,21.1l-0.2,0.5l-0.5,0.1c-0.1,0-2.1,0.8-6.3,5.2c-4.1,4.3-9.8,6.8-16.3,9.6
					c-1.2,0.5-2.5,1.1-3.8,1.7C527.9,151.3,527,151.5,526.1,151.5L526.1,151.5z M529.6,114c-1.2,0.8-8.7,6.4-10.4,14
					c-1.5,6.2,0.3,17.1,4.4,20.5c1.3,1.1,2.7,1.3,4.3,0.6c1.3-0.6,2.6-1.1,3.8-1.7c6.4-2.8,11.9-5.2,15.7-9.2
					c3.6-3.7,5.7-5.1,6.6-5.5c1.9-5.8,1.9-15.1-0.1-19.1c-1.9-3.7-3.7-3.5-3.7-3.5C550.3,110,529.6,114,529.6,114z"/>
			</g>
			<g>
				<g>
					<path class="st5" d="M539.8,165.3L480.2,179c-2.6,0.6-5.2-1-5.8-3.6l-16.9-73.2c-0.6-2.6,1-5.2,3.6-5.8l59.6-13.7
						c2.6-0.6,5.2,1,5.8,3.6l16.8,73.2C544,162.1,542.4,164.7,539.8,165.3L539.8,165.3z"/>
					<g>
						<path class="st6" d="M514.7,103.7l-38.8,8.9c-1.3,0.3-2.5-0.5-2.8-1.8l0,0c-0.3-1.3,0.5-2.5,1.8-2.8l38.8-8.9
							c1.3-0.3,2.5,0.5,2.8,1.8l0,0C516.7,102.1,515.9,103.4,514.7,103.7z"/>
						<path class="st2" d="M475.8,123.8c-0.4,0-0.8-0.3-0.9-0.7c-0.1-0.5,0.2-1,0.7-1.1l43.4-10c0.5-0.1,1,0.2,1.1,0.7
							s-0.2,1-0.7,1.1l-43.4,10C476,123.8,475.9,123.8,475.8,123.8L475.8,123.8z"/>
						<path class="st2" d="M477.5,131.1c-0.4,0-0.8-0.3-0.9-0.7c-0.1-0.5,0.2-1,0.7-1.1l43.4-10c0.5-0.1,1,0.2,1.1,0.7
							s-0.2,1-0.7,1.1l-43.4,10C477.7,131.1,477.6,131.1,477.5,131.1L477.5,131.1z"/>
						<path class="st6" d="M503.4,159l-16,3.7c-1.3,0.3-2.5-0.5-2.8-1.8l-3.7-16c-0.3-1.3,0.5-2.5,1.8-2.8l16-3.7
							c1.3-0.3,2.5,0.5,2.8,1.8l3.7,16C505.4,157.4,504.6,158.7,503.4,159z"/>
						<path class="st2" d="M507.4,137.2c-0.4,0-0.8-0.3-0.9-0.7c-0.1-0.5,0.2-1,0.7-1.1l16.3-3.8c0.5-0.1,1,0.2,1.1,0.7
							s-0.2,1-0.7,1.1l-16.3,3.8C507.6,137.2,507.5,137.2,507.4,137.2L507.4,137.2z"/>
						<path class="st2" d="M509.2,145.1c-0.4,0-0.8-0.3-0.9-0.7c-0.1-0.5,0.2-1,0.7-1.1l16.4-3.7c0.5-0.1,1,0.2,1.1,0.7
							s-0.2,1-0.7,1.1l-16.4,3.7C509.4,145.1,509.3,145.1,509.2,145.1L509.2,145.1z"/>
						<path class="st2" d="M511,153.1c-0.4,0-0.8-0.3-0.9-0.7c-0.1-0.5,0.2-1,0.7-1.1l9.9-2.3c0.5-0.1,1,0.2,1.1,0.7s-0.2,1-0.7,1.1
							l-9.9,2.3C511.2,153.1,511.1,153.1,511,153.1L511,153.1z"/>
					</g>
				</g>
				<path class="st2" d="M502.1,89.3l-21.2,4.9c-1.5,0.3-2.8-1-2.5-2.5l0.2-1c0.2-0.8,0.8-1.4,1.6-1.6l20.3-4.7
					c0.8-0.2,1.6,0.1,2.1,0.7l0.6,0.8C504.2,87.2,503.6,89,502.1,89.3z"/>
			</g>
			<g>
				<path class="st10" d="M548.1,109.4c0,0-2.5,1.3-7.3,0s-5.6-2.5-10.6-3.8s-11.9,0.1-13.1,2.2c-1.2,2.1,2,3.4,6.3,3.9
					s6.3,8.7,13.2,11.8"/>
				<path class="st5" d="M536.2,124.4c-3.8-1.7-6.2-4.9-8.2-7.5c-1.7-2.2-3.1-4.1-4.7-4.3c-4-0.5-6.4-1.5-7.2-3
					c-0.3-0.5-0.5-1.4,0.1-2.4c1.5-2.6,9-4,14.2-2.7c2.6,0.7,4.2,1.4,5.6,2c1.4,0.6,2.7,1.2,5,1.8c4.3,1.2,6.6,0.1,6.6,0.1l0.9,1.8
					c-0.1,0.1-2.9,1.5-8,0.1c-2.4-0.7-3.9-1.3-5.2-1.9c-1.5-0.6-2.8-1.2-5.3-1.9c-4.8-1.2-11.1,0.2-12,1.7c-0.2,0.3-0.1,0.4-0.1,0.5
					c0.2,0.5,1.7,1.4,5.6,1.9c2.5,0.3,4.2,2.5,6.1,5c1.9,2.5,4,5.3,7.4,6.8L536.2,124.4L536.2,124.4z"/>
			</g>
			<path class="st5" d="M541.2,125.4c-1.7,0-3.4-0.4-5-1.1c-3.8-1.7-6.2-4.9-8.1-7.4c-1.7-2.2-3.1-4.1-4.8-4.3
				c-2.7-0.3-6.2-1.1-7.1-2.9c-0.3-0.5-0.4-1.3,0.1-2.3c0.2-0.4,0.8-0.6,1.2-0.3s0.6,0.8,0.3,1.2c-0.2,0.4-0.1,0.5-0.1,0.6
				c0.3,0.6,2,1.5,5.7,1.9c2.5,0.3,4.1,2.5,6,5s4.1,5.4,7.4,6.9c2,0.9,4,1.2,6.3,0.7c0.5-0.1,1,0.2,1,0.7c0.1,0.5-0.2,1-0.7,1.1
				C542.8,125.3,542,125.4,541.2,125.4L541.2,125.4z"/>
			<g>
				<path class="st10" d="M555.7,104.8c0,0-5.3,3.4-7.6,4.6c0,0,4.5,4.4,6.3,12.3s0.4,11.7,0.4,11.7s5.9-0.6,8.8-2.7
					c0,0,2.8-4.6,0.5-13.6S555.7,104.8,555.7,104.8z"/>
				<path class="st5" d="M553.3,134.5l0.5-1.5c0,0,1.3-3.7-0.4-11.1c-1.7-7.5-6-11.8-6-11.8l-1-1l1.2-0.6c2.2-1.2,7.5-4.5,7.5-4.6
					l0.5-0.3l0.5,0.3c0.3,0.1,6.5,3.6,8.9,12.9s-0.5,14.2-0.6,14.4l-0.1,0.2l-0.2,0.1c-3.1,2.2-9,2.9-9.3,2.9L553.3,134.5
					L553.3,134.5z M549.7,109.6c1.5,1.8,4.3,5.8,5.7,11.8c1.2,5.3,1,8.9,0.7,10.7c1.8-0.3,4.9-0.9,6.7-2.2c0.4-0.9,2.2-5.2,0.3-12.7
					c-1.8-7-6-10.4-7.4-11.4C554.6,106.7,551.7,108.5,549.7,109.6L549.7,109.6z"/>
			</g>
			<g>
				<path class="st2" d="M564.5,131.6c0.4-1.9,0.7-5.4-0.2-11.3c-1.1-8-7-15.2-9.4-17.7l14.2-7.7c6.3-3.4,13.8-8.5,19.1-12.2
					c3.3-2.3,7.1-3.5,11-3.5c8.5,0,15.9,5.5,18.4,13.7c2.8,9-1.5,18.7-10,23C590,124.5,570.3,130,564.5,131.6L564.5,131.6z"/>
				<path class="st5" d="M599.2,80.2c8.1,0,15.1,5.2,17.4,13c2.6,8.6-1.4,17.7-9.5,21.8c-16.2,7.9-34.3,13.3-41.5,15.2
					c0.2-2.2,0.3-5.4-0.4-10.1c-1-7.4-6-14.1-8.8-17.3l13-7.1c6.3-3.4,13.9-8.5,19.2-12.2C591.9,81.3,595.5,80.2,599.2,80.2
					 M599.2,78.2c-4,0-8,1.2-11.6,3.7c-6.6,4.6-13.5,9.1-19,12.1l-15.3,8.3c0,0,8.7,8.6,10,18.1S563,133,563,133s23.9-5.9,45-16.2
					c8.9-4.5,13.4-14.7,10.5-24.2C615.8,83.6,607.7,78.2,599.2,78.2L599.2,78.2L599.2,78.2z"/>
			</g>
			<path class="st5" d="M561,125.7c0-0.7-0.5-1.2-1.2-1.2s-1.2,0.5-1.2,1.2s0.5,1.2,1.2,1.2S561,126.4,561,125.7z"/>
		</g>
		<g>
			<polygon class="st2" points="426.8,310.3 497.5,302 496.3,314.8 482.4,316.8 481,319.4 			"/>
			<path class="st5" d="M481,318l18.4-72.9c0.6-2.5,2.8-4.5,5.3-4.8l94.5-14.1c2-0.3,3.7,1.6,3.1,3.6L583,295.1
				c-0.7,2.2-2.5,4-4.8,4.5l-93.9,21.9C482.3,321.9,480.5,320.1,481,318z"/>
			<path class="st11" d="M553.3,271.4c-1,3.6-4.3,7.1-7.6,7.8c-3.2,0.7-5.1-1.7-4.1-5.3c1-3.6,4.3-7.1,7.6-7.8
				C552.4,265.4,554.3,267.8,553.3,271.4z"/>
			<path class="st5" d="M482.4,321.2c-0.3-0.2-41.3-5.6-52.7-7.2c-1.7-0.2-2.9-1.6-2.9-3.3v-0.4l55.6,6.5V321.2L482.4,321.2z"/>
		</g>
		<g>
			<path class="st5" d="M565.7,213.3c-0.8,0-1.6-0.3-2.2-0.9c-0.8-0.7-1.1-1.7-1.1-2.7l1.7-22.7c0-2.2,1.9-4.1,4.3-4.1h30.8
				c0.9,0,1.8,0.4,2.5,1.1c0.7,0.7,1,1.6,0.9,2.6l-1.6,19.3c-0.1,2.1-1.7,3.8-3.9,4l-31,3.4C566,213.3,565.9,213.3,565.7,213.3z
				 M568.4,184.7c-1.4,0-2.5,1.1-2.5,2.4l-1.7,22.8c0,0.5,0.2,0.9,0.5,1.2s0.8,0.4,1.2,0.4l31-3.4c1.3-0.1,2.2-1.1,2.3-2.4l1.6-19.3
				c0-0.4-0.1-0.9-0.4-1.2c-0.3-0.3-0.7-0.5-1.2-0.5H568.4L568.4,184.7z"/>
			<path class="st5" d="M586,195.5c-0.7,0-1.4-0.2-2-0.5l-18-9.7c-0.4-0.2-0.6-0.8-0.4-1.2s0.8-0.6,1.2-0.4l18,9.7
				c0.9,0.4,1.9,0.4,2.7-0.2l12.8-9.4c0.4-0.3,1-0.2,1.3,0.2s0.2,1-0.2,1.3l-12.8,9.4C587.9,195.2,587,195.4,586,195.5L586,195.5z"
				/>
		</g>
		<g>
			<g>
				<path class="st5" d="M395.3,86.5l-3.2,3.5c-0.5,0.5-0.5,1.4,0,2l0,0c0.5,0.5,1.2,0.6,1.8,0.3l3.8-2.3L395.3,86.5L395.3,86.5z"/>
				<path class="st5" d="M424.5,95l0.9,4.7c0.1,0.7-0.3,1.5-1,1.7l0,0c-0.7,0.2-1.4-0.1-1.7-0.8l-2-4L424.5,95L424.5,95z"/>
			</g>
			<circle class="st2" cx="413.8" cy="77.3" r="21.8"/>
			<circle class="st6" cx="413.8" cy="77.3" r="14"/>
			<path class="st2" d="M417.7,83.2c-0.3,0-0.5-0.1-0.7-0.3l-3.9-5c-0.2-0.2-0.2-0.5-0.1-0.8l2.1-7c0.1-0.5,0.6-0.7,1.1-0.6
				s0.8,0.6,0.6,1.1l-2,6.6l3.6,4.6c0.3,0.4,0.2,1-0.2,1.3C418.1,83.1,417.9,83.2,417.7,83.2L417.7,83.2z"/>
			<g>
				<path class="st2" d="M399.9,56.2c-0.6,0.2-1.3-0.1-1.5-0.8c-0.5-2.9,1.1-5.8,4-6.9c2.9-1.1,6,0,7.6,2.5c0.4,0.6,0.1,1.3-0.6,1.6
					L399.9,56.2z"/>
				<path class="st2" d="M436.8,67c0.4,0.5,1.2,0.6,1.7,0.1c2-2.2,2.2-5.5,0.3-8s-5.1-3.2-7.7-1.9c-0.6,0.3-0.8,1.1-0.4,1.6
					L436.8,67z"/>
			</g>
			<g>
				<path class="st2" d="M423.7,53.9l-5.7-1.6c-0.9-0.3-1.5-1.2-1.2-2.2l0,0c0.3-0.9,1.2-1.5,2.2-1.2l5.7,1.6
					c0.9,0.3,1.5,1.2,1.2,2.2l0,0C425.6,53.6,424.6,54.2,423.7,53.9z"/>
				
					<rect x="417.6" y="52.5" transform="matrix(0.279 -0.9603 0.9603 0.279 250.5785 443.1324)" class="st2" width="5.6" height="4.3"/>
			</g>
		</g>
		<path class="st5" d="M181.1,222.7l0.9,9.2c0.1,0.9-0.4,1.8-1.3,2.2c-2.8,1.3-4.5,4.2-4.2,7.2l1.1,10.2c0.3,3.1,2.6,5.6,5.6,6.2
			c0.9,0.2,1.6,1,1.7,1.9l0.9,9.2c0.2,1.7-1.6,2.9-3.1,2.1l-2.2-1.1c-4.8-2.4-8.1-7.2-8.6-12.6l-2.1-20.3
			c-0.6-5.4,1.7-10.7,5.9-14.1l2-1.6C178.9,220.2,180.9,221,181.1,222.7L181.1,222.7z"/>
		<g>
			<path class="st4" d="M227.8,28.4c1.8,12.2-5,23.3-16.4,24.9c-13.1,1.8-26.8-9.5-28.6-25.1c-1.7-15.3,9-25.8,22.1-24
				C216.4,5.8,226.1,16.4,227.8,28.4z"/>
			<path class="st6" d="M232.5,26.3c1.8,12.6-5.1,24.1-16.9,25.7c-13.6,1.9-27.7-9.8-29.5-25.9c-1.8-15.8,9.3-26.6,22.8-24.8
				C220.7,3,230.7,14,232.5,26.3L232.5,26.3z"/>
			<g>
				<path class="st12" d="M216.1,19.3c0.4,3.1-1.5,5.5-4.3,5.5s-5.7-2.7-6.1-5.9s1.7-5.6,4.6-5.4C213.1,13.7,215.7,16.3,216.1,19.3z
					"/>
				<path class="st12" d="M218.8,38.9l-10.3,0.7c-2.5,0.2-4.8-1.9-5.2-4.7l0,0c-0.8-6.1,3.2-10.9,8.5-10.8l0,0
					c5,0.1,9.5,4.6,10.3,10l0,0C222.3,36.7,220.9,38.8,218.8,38.9z"/>
			</g>
		</g>
		<g>
			<path class="st5" d="M540.3,206.6c-1.5-1.6-4-1.7-5.6-0.3c-1.6,1.5-1.7,4-0.3,5.6s4,1.7,5.6,0.3
				C541.7,210.7,541.8,208.2,540.3,206.6z"/>
			<path class="st2" d="M535.1,197.5l-0.7-0.8c-2.3-2.5-6.2-2.7-8.8-0.4l0,0c-2.5,2.3-2.7,6.2-0.4,8.8l0.7,0.8
				c0.8,0.9,1.4,1.9,1.7,3.1c0.2,0.9,0.5,1.9,0.7,2.9c0.5,2.1,3.1,2.9,4.8,1.4l4.4-4l4.4-4c1.6-1.5,1.1-4.1-1-4.9
				c-1-0.3-1.9-0.7-2.8-1C536.9,199,535.9,198.4,535.1,197.5L535.1,197.5z"/>
		</g>
		<g>
			<path class="st5" d="M455.7,213.2c0,0,2.4,11.4,0,25.2l32.4-7c0,0-7.2-12-9.1-23L455.7,213.2z"/>
			<path class="st2" d="M456.4,219.3c-0.4,0-0.8-0.3-0.9-0.7c-0.1-0.5,0.2-1,0.7-1.1l23.8-5c0.5-0.1,1,0.2,1.1,0.7s-0.2,1-0.7,1.1
				l-23.8,5C456.6,219.3,456.5,219.3,456.4,219.3z"/>
			<path class="st2" d="M462,224c-0.4,0-0.8-0.3-0.9-0.7c-0.1-0.5,0.2-1,0.7-1.1l15.4-3.7c0.5-0.1,1,0.2,1.1,0.7s-0.2,1-0.7,1.1
				l-15.4,3.7C462.2,224,462.1,224,462,224L462,224z"/>
			<path class="st2" d="M462.3,228.8c-0.4,0-0.8-0.3-0.9-0.7c-0.1-0.5,0.2-1,0.7-1.1l10.3-2.4c0.5-0.1,1,0.2,1.1,0.7s-0.2,1-0.7,1.1
				l-10.3,2.4C462.5,228.8,462.4,228.8,462.3,228.8L462.3,228.8z"/>
		</g>
		<g>
			<path class="st2" d="M532.3,323.2l21.8-4.9c0,0,0.3,10,15.7,15.9c0,0-17.1,13-22.4,16.4C547.5,350.5,534.7,343.9,532.3,323.2z"/>
			<path class="st5" d="M533.6,330.7c-0.4,0-0.7-0.2-0.9-0.6c-0.2-0.5,0.1-1,0.6-1.1l21.9-7.1c0.5-0.1,1,0.1,1.1,0.6s-0.1,1-0.6,1.1
				l-21.9,7.1C533.8,330.7,533.7,330.7,533.6,330.7L533.6,330.7z"/>
			<path class="st5" d="M540.8,334.8c-0.3,0-0.7-0.2-0.8-0.5c-0.2-0.5,0-1,0.4-1.2l13.7-6.3c0.5-0.2,1,0,1.2,0.4
				c0.2,0.5,0,1-0.4,1.2l-13.7,6.3C541.1,334.8,541,334.8,540.8,334.8L540.8,334.8z"/>
			<path class="st5" d="M543.1,339c-0.3,0-0.6-0.2-0.8-0.5c-0.2-0.4-0.1-1,0.4-1.2l13.7-7.4c0.4-0.2,1-0.1,1.2,0.4
				c0.2,0.4,0.1,1-0.4,1.2l-13.7,7.4C543.4,338.9,543.3,339,543.1,339L543.1,339z"/>
			<path class="st5" d="M546.1,343c-0.3,0-0.6-0.1-0.8-0.4c-0.3-0.4-0.1-1,0.3-1.2l7.9-4.8c0.4-0.3,1-0.1,1.2,0.3
				c0.3,0.4,0.1,1-0.3,1.2l-7.9,4.8C546.5,342.9,546.3,343,546.1,343z"/>
		</g>
		<g>
			<path class="st2" d="M186.5,167.3c0,0-2.2,0.6-5.7,0.2l1.8-2.8c-3.9,0.1-13.3-5-14.3-9.7c-0.1-0.6-0.1-1.2,0.1-1.6l0,0v-0.1
				c1.5-3,9.4-2.3,15.2,3.4C190.5,163.4,186.5,167.3,186.5,167.3L186.5,167.3z"/>
			<path class="st5" d="M182.7,164.7l-1.8,2.8c-2.2-0.3-5-1-8-2.7c-3.8-2.1-5.6-4.8-6.5-6.9c1.1-2.5,1.9-4.2,2.1-4.6
				c-0.2,0.5-0.2,1-0.1,1.6C169.4,159.7,178.8,164.8,182.7,164.7L182.7,164.7z"/>
			<g>
				<path class="st10" d="M127.1,195c0,0,4.6,2.1,8.9,1.5s12.7-3,14.4-2.1s4.6,1,3.7,3.9c-0.8,2.9-2.6,6.3-6.4,6.5
					c-3.8,0.3-7.6,3.2-13.9,1.4c-6.3-1.8-10-2.7-10.2-5.2C123.5,198.4,127.1,195,127.1,195L127.1,195z"/>
				<path class="st5" d="M137.9,207.8c-1.3,0-2.7-0.2-4.3-0.6l-1.1-0.3c-6-1.7-9.6-2.7-9.8-5.8c-0.1-3,3.4-6.4,3.8-6.8l0.5-0.5
					l0.6,0.3c0,0,4.4,2,8.4,1.4c1.4-0.2,3.2-0.6,5.2-1c5.2-1.1,8.5-1.7,9.8-1c0.3,0.2,0.7,0.3,1.2,0.5c1.5,0.5,4,1.4,3,4.6
					c-1.2,4.4-3.8,7-7.3,7.2c-1.1,0.1-2.3,0.4-3.5,0.8C142.5,207.1,140.4,207.8,137.9,207.8L137.9,207.8z M127.4,196.2
					c-1.2,1.3-2.8,3.4-2.7,4.8c0.1,1.6,3.4,2.6,8.4,4l1.1,0.3c4,1.1,6.8,0.3,9.6-0.5c1.4-0.4,2.6-0.8,4-0.9c3.3-0.2,4.8-3.2,5.5-5.8
					c0.4-1.2,0-1.5-1.8-2.2c-0.5-0.2-1-0.4-1.4-0.6c-0.9-0.4-5.6,0.6-8.5,1.2c-2,0.4-3.8,0.8-5.3,1
					C132.6,198,128.9,196.7,127.4,196.2L127.4,196.2z"/>
			</g>
			<path class="st10" d="M186.5,167.3c-1.6,4.7-22.5,32.2-32.4,46.6s-26.7,55.2-35.1,53.5s-18.8-9.9-17-14.6
				c1.9-4.7,23.1-18.1,39.3-41.2s15.8-39.1,20.7-52.2c2.1-5.6,3.6-5.2,3.6-5.2s-0.1,1.6,0.7,3.8c0.8,2.1,2.6,4.8,6.5,6.9
				c3,1.7,5.8,2.4,8,2.7C184.3,168,186.5,167.3,186.5,167.3L186.5,167.3z"/>
			<path class="st5" d="M150.5,209.6c-0.1,0-0.3,0-0.4-0.1c-0.4-0.2-0.6-0.8-0.4-1.2c0-0.1,3.9-7.3,4.9-11.7
				c0.1-0.5,0.6-0.8,1.1-0.7s0.8,0.6,0.7,1.1c-1,4.6-4.9,11.8-5.1,12.1C151.2,209.4,150.9,209.6,150.5,209.6L150.5,209.6z"/>
			<path class="st5" d="M154.3,210.6c-0.1,0-0.3,0-0.4-0.1c-0.4-0.2-0.6-0.8-0.4-1.2c0.3-0.5,2.8-5.3,4.3-6.6
				c0.4-0.3,0.9-0.3,1.3,0.1c0.3,0.4,0.3,0.9-0.1,1.3c-1.1,1-3.2,4.8-3.9,6.2C155,210.4,154.7,210.6,154.3,210.6L154.3,210.6z"/>
			<path class="st5" d="M135.6,238.5c-0.2,0-0.3,0-0.5-0.1c-0.4-0.3-0.6-0.8-0.3-1.2c2-3.4,3.9-8.3,3.9-8.4c0.2-0.5,0.7-0.7,1.2-0.5
				s0.7,0.7,0.5,1.2c-0.1,0.2-1.9,5.1-4.1,8.6C136.2,238.3,135.9,238.5,135.6,238.5L135.6,238.5z"/>
			<path class="st5" d="M123.6,239.8c-0.3,0-0.5-0.1-0.7-0.3c-0.3-0.4-0.2-0.9,0.1-1.3c6.5-5.2,10.2-10.9,10.2-11
				c0.3-0.4,0.8-0.5,1.2-0.3c0.4,0.3,0.5,0.8,0.3,1.2c-0.1,0.2-3.9,6-10.6,11.4C124,239.7,123.8,239.8,123.6,239.8L123.6,239.8z"/>
			<g>
				<path class="st10" d="M142.5,201.2c0,0,6.2,4,9.7,5.4c3.6,1.4,8.2-0.1,8.6-0.1s2.3,3,0.6,5.1s-3.6,2.4-3.8,3.1
					c-0.2,0.7,0.3,4.7-0.8,6.1c-1,1.4-3.2,2.2-3.9,3.1c-0.6,0.9-1.4,5.4-2.5,6.1s-2.5,3-5.3,3.4s-13.8-4-24-11.9
					c-6.5-5-10.7-6.8-10.7-6.8s4.5-19.7,12.7-17.9"/>
				<path class="st5" d="M144.8,234.4c-3.7,0-14.4-4.4-24.3-12.1c-6.3-4.9-10.4-6.6-10.5-6.7l-0.8-0.3l0.2-0.8
					c0.2-0.8,4.8-20.7,13.9-18.6l-0.4,1.9c-5.7-1.2-9.9,10.7-11.3,16.4c1.5,0.8,5.2,2.7,10.2,6.6c10.2,7.9,20.8,12.1,23.2,11.7
					c1.7-0.2,2.8-1.3,3.7-2.2c0.4-0.4,0.8-0.8,1.2-1c0.4-0.3,1-2.4,1.3-3.4c0.4-1.3,0.6-2,0.9-2.4c0.4-0.6,1.1-1,1.8-1.5
					c0.8-0.5,1.6-1,2.1-1.7c0.6-0.7,0.6-3,0.6-4.1c0-0.9,0-1.3,0.1-1.6c0.2-0.7,0.8-1,1.5-1.4s1.6-1,2.5-2c0.9-1.2,0.3-2.8-0.1-3.4
					l0,0c-1.5,0.3-5.4,1.2-8.6-0.1c-3.6-1.4-9.6-5.3-9.9-5.5l1.1-1.7c0.1,0,6.2,4,9.5,5.3c2.7,1.1,6.2,0.3,7.5,0
					c0.4-0.1,0.6-0.1,0.8-0.1c0.6,0,1.2,0.6,1.7,1.6c0.9,1.9,0.8,3.8-0.3,5.1c-1.1,1.4-2.3,2.1-3.1,2.5c-0.2,0.1-0.4,0.2-0.6,0.4
					c0,0.2,0,0.6,0,1c0,2.2-0.1,4.2-1,5.4c-0.6,0.9-1.7,1.6-2.6,2.1c-0.5,0.3-1.1,0.7-1.3,0.9c-0.1,0.2-0.4,1.1-0.6,1.8
					c-0.7,2.3-1.2,3.9-2.1,4.5c-0.2,0.1-0.5,0.4-0.9,0.8c-1,1-2.5,2.4-4.8,2.8C145.2,234.4,145,234.4,144.8,234.4L144.8,234.4z"/>
			</g>
			<path class="st5" d="M155.8,208.1c-1.3,0-2.6-0.2-3.9-0.7c-3.6-1.4-9.6-5.3-9.9-5.5c-0.4-0.3-0.5-0.8-0.3-1.2s0.8-0.5,1.2-0.3
				c0.1,0,6.2,4,9.6,5.3c2.7,1.1,6.2,0.3,7.5,0c0.4-0.1,0.6-0.1,0.7-0.1c0.5,0,0.9,0.4,0.9,0.9s-0.4,0.9-0.9,0.9c0,0-0.1,0-0.3,0.1
				C159.6,207.7,157.8,208.1,155.8,208.1L155.8,208.1z"/>
			<g>
				<path class="st2" d="M110.9,217.6c-1.2-0.5-7.4-3.5-8.2-4.4c-0.5-0.7-0.5-1.4-0.4-1.7c6.4-10.3,13.9-21.2,15.6-22.1h0.3l0.3-0.2
					l0,0c0,0,0.2-0.1,0.5-0.1c0.2,0,0.4,0.1,0.7,0.3c2.9,2.2,6.1,5.1,6.5,6.1c0.4,1.4-2.6,10.6-7.8,16.6
					C113.8,217.2,111.2,217.6,110.9,217.6L110.9,217.6z"/>
				<path class="st5" d="M119,190C119,190,119,190.1,119,190c2.9,2.2,5.7,4.8,6.2,5.6c0,1.8-2.9,10.2-7.6,15.7
					c-3.7,4.3-5.9,5.1-6.5,5.3c-1.7-0.7-6.7-3.2-7.5-4c-0.2-0.3-0.2-0.6-0.2-0.8c5.8-9.3,12.9-19.7,14.9-21.4h0.3L119,190 M119,188
					c-0.7,0-1.1,0.4-1.1,0.4l0,0c-2.4,0-16.5,22.7-16.5,22.7s-0.4,1.4,0.6,2.7s8.4,4.7,8.7,4.8c0,0,0.1,0,0.2,0c0.8,0,3.6-0.6,8.2-6
					c5.3-6.1,8.7-16,8-17.6c-0.6-1.6-5.5-5.5-6.8-6.5C119.8,188.1,119.3,188,119,188L119,188L119,188z"/>
			</g>
			<g>
				<path class="st6" d="M102.6,210.4c-3.2-1.2-24.9-9.6-39.1-22.4c-2.2-1.9-4.2-3.8-6-5.4l-1.8-1.7c-7.5-6.9-8.3-18.6-1.8-26.5
					c3.7-4.5,9.2-7.1,15.1-7.1c6.3,0,12,2.9,15.6,8c7.8,10.9,19.6,25.5,32.1,33.6C116.2,191.9,113.4,205.1,102.6,210.4L102.6,210.4z
					"/>
				<path class="st5" d="M69,148.3c6,0,11.4,2.8,14.8,7.5c7.7,10.8,19.4,25.3,31.8,33.5c-0.7,3.7-3.7,15.1-13.1,20
					c-4.2-1.6-24.8-9.8-38.4-22c-2.2-1.9-4.2-3.8-6-5.4l-1.8-1.6c-7.1-6.6-7.9-17.6-1.7-25.2C58.2,150.8,63.4,148.3,69,148.3
					 M69,146.3c-5.9,0-11.7,2.5-15.8,7.5c-6.8,8.3-6,20.6,1.9,27.9c2.3,2.1,4.9,4.5,7.8,7.1c15.6,14,39.8,22.7,39.8,22.7
					c13.2-6.1,15.2-23.1,15.2-23.1c-11.9-7.5-23.7-21.5-32.4-33.7C81.4,149.1,75.2,146.3,69,146.3L69,146.3z"/>
			</g>
			<path class="st5" d="M151.5,217.3c-1.2,0-2.3-0.1-2.4-0.1c-0.5,0-0.9-0.5-0.8-1c0-0.5,0.5-0.9,1-0.8c0,0,2.3,0.2,3.9,0
				c1.3-0.1,3.4-1.1,4.1-1.4c0.4-0.2,1,0,1.2,0.4s0,1-0.4,1.2c-0.1,0.1-2.9,1.4-4.7,1.6C152.8,217.2,152.2,217.3,151.5,217.3
				L151.5,217.3z"/>
			<path class="st5" d="M150.1,225.8c-1.7,0-3-0.7-3-0.8c-0.4-0.2-0.6-0.8-0.3-1.2s0.8-0.6,1.2-0.3c0,0,1.2,0.6,2.6,0.5
				c1.4-0.2,2.4-1.1,2.4-1.1c0.4-0.3,0.9-0.3,1.3,0.1s0.3,0.9-0.1,1.3c-0.1,0.1-1.4,1.2-3.3,1.5
				C150.6,225.8,150.3,225.8,150.1,225.8L150.1,225.8z"/>
			<path class="st5" d="M147.9,232c-0.9,0-1.9-0.2-2.6-0.9c-0.4-0.3-0.4-0.9-0.1-1.3s0.9-0.4,1.3-0.1c0.7,0.7,2.3,0.4,2.8,0.2
				c0.5-0.1,1,0.1,1.1,0.6s-0.1,1-0.6,1.1C149.8,231.8,148.9,232,147.9,232L147.9,232z"/>
		</g>
		<g>
			<path class="st5" d="M489,362.5l2.4,22.2c0,1.6,8.3,2.8,18.5,2.8c10.2,0,18.5-1.3,18.5-2.8l2.4-22.2H489L489,362.5z"/>
			<path class="st7" d="M530.8,362.5c0,1.8-9.4,3.2-20.9,3.2s-20.9-1.4-20.9-3.2s9.4-3.2,20.9-3.2
				C521.5,359.4,530.8,360.8,530.8,362.5z"/>
			<path class="st2" d="M504.3,362.5c0,0-11.2-4.4-10-13c1.3-8.7,9.5,9.2,11.6,6.5s-0.6-15.8,4-17c4.7-1.1,3.4,17.2,3.4,17.2
				s4.7-2.3,7.6-5.7c2.9-3.4,7.1,4.2-4.8,12C516,362.5,510.9,365.1,504.3,362.5L504.3,362.5z"/>
		</g>
		<path class="st6" d="M603,356.7c0,3-2.4,5.4-5.4,5.4s-5.4-2.4-5.4-5.4s2.4-5.4,5.4-5.4S603,353.8,603,356.7z"/>
		<g>
			<path class="st10" d="M218.1,376c-2.7,0.7-5.5,2-8,4.2c-4.3,3.7-11.2,6.3-18.5,5.9c-7-0.3-14.4-3.4-20-10.9
				C195.9,377.8,218.1,376,218.1,376z"/>
			<path class="st5" d="M191.5,386.2c-17.6,0.3-42.2,0-49.8-0.1c-8.8,0.7-18.7-2.7-25.3-13.6c0,0,6.5,1,23.2,1.1s30-1.1,30-1.1
				c0.6,1,1.2,1.9,1.8,2.8C177.1,382.7,184.5,385.8,191.5,386.2L191.5,386.2z"/>
		</g>
	</g>
</g>
<g id="Layer_2_2_">
	<g>
		<g id="XMLID_1_">
			<g>
				<path class="st10" d="M406.9,158.2c0,0-3.3,3.3-4.4,7.6c-1.2,4.3,1.4,6.3,5.5,5.3C413.8,169.7,411.1,161.1,406.9,158.2z
					 M430.3,162.8c0.8-1.9,1.1-3.2,1.4-4.2c0.8-2.5,5.4-1,2.9,8.7c-1.9,7.4-7,12.4-12.1,15.9c-2.7,1.8-6.8,5.7-5.9,8.8
					c3.9,23.1,17.1,72.9,7,84.3c-11.6,15.3-30,10.6-44.9-10.9c0.4-0.2,13.4-6.2,21.2-17.2l0,0c-0.1-0.8-0.1-1.5-0.1-2.3v-0.1
					c0-1,0-2,0-3.1c0.1-1.5,0-3.2,0-5.3v-0.1c0-2.3-0.1-4.9-0.2-7.7c-0.2-4-0.4-8.5-0.6-12.9c-0.8-14.2-0.3-26.8-0.3-26.8
					c-11.8-19.5,0.7-35.8,5.4-35.6c1.1,0.1,1.9,0.3,2.4,0.7c5-2.1,12.7,5.1,11.3,13.3c0,0,0,0,0,0.1h0.2c8-5.7,6.1-15.8,7.7-17.2
					C426.6,150.2,432.2,151,430.3,162.8z"/>
				<path class="st2" d="M399.4,237.4c-8.4,4.9-19.9,15.1-26.9,16.9c-0.4-0.7-0.7-1.5-1.1-2.2c-1.2-2.4-2.5-5-3.8-7.7
					c-4.1-8.5-8.2-17.8-8.6-21.6c-3.5-10.9-2.9-32.6,14.5-31.9l0,0h0.1c3.6,2.3,17.7,22.7,25.9,38.8c0.1,2.8,0.2,5.4,0.2,7.7v0.1
					h-0.3V237.4z"/>
				<path class="st4" d="M376.6,262.2c0,0-1.7-3.2-4.1-7.9c7-1.8,18.5-12,26.9-16.9h0.4c0,2.1,0.1,3.8,0,5.3c0,1.1,0,2.1,0,3.1v0.1
					C393.3,249.9,389.1,258.2,376.6,262.2z"/>
				<path class="st5" d="M378.7,265.4c-0.7-1-1.4-2.1-2.1-3.2c12.5-4,16.7-12.3,23.2-16.3c0,0.8,0,1.6,0.1,2.3l0,0
					C392.1,259.2,379.2,265.2,378.7,265.4L378.7,265.4z"/>
				<path class="st2" d="M296.6,181.1c4.4-2.6,8.3-4,9.1-4.3c0.1,0,0.1,0,0.1,0l0.2,0.1c0,0,0,0-0.1,0.1
					c-3.8,4.2-14.3,16.4-15.3,25.9c-0.1,0-0.1,0.1-0.1,0.1h0.1c8.3-2.3,12,3.7,14.1,8.4c0.1,0.2,0.2,0.4,0.2,0.5
					c0.4,0.9,0.7,1.8,1,2.5l0.2,4.5l2.7-5.6l0.1-0.2c0.7-0.6,1.4-1.2,2-1.8c8.7-7.5,11.9-7.1,19.5-1.8l12.1-36.3l0.2,0.1
					c0,0,20,10.6,30.9,17.4l0,0c-17.4-0.6-18,21-14.5,31.9c0.5,3.9,4.5,13.1,8.6,21.6l1.4,46.6c2.1,2.8,2.8,2.6,3,5.9v0.1l0,0
					c-0.6,0.5-1.2,1.1-1.8,1.6c-34,17-80.6,10.3-89.9-5.5c-0.1-0.4-0.3-0.9-0.4-1.3c-0.8-2.3-1.9-5.1-0.4-6.6
					c2.1-2.1,1.6-3.2,2.5-10.1c0.4-2.6,0.6-7.6,0.7-13.8c0-0.8,0-1.6,0-2.4c0-0.1,0-0.3,0-0.5c0-2.8,0.1-5.8,0.1-8.8v-0.1
					c0.2-22.1,1.5-49.5,2-52.3c0.6-3.5,2.1-6.6,4.1-9.3c2-2.8,4.7-5.1,7.6-6.8h0V181.1z M350.2,229.5c0.1-1-0.7-1.8-1.6-1.9
					l-20.4-1.4c-0.9-0.1-1.7,0.6-1.8,1.6l-0.3,5l-1,13.8c0,1,0.4,2.1,1.3,2.7l8.4,6.1c0.5,0.3,1.1,0.4,1.7,0.2l10.1-3.9
					c1.1-0.4,1.9-1.4,2-2.6l1.2-14.4L350.2,229.5z"/>
				<path class="st2" d="M280.9,196.9c4.1-5.2,7.3-8.6,8-9l0,0c-2,2.7-3.4,5.8-4.1,9.3c-0.5,2.8-1.8,30.2-2,52.3h-0.3
					c0,0-13.1-9.9-21-21l-0.5-0.3C266.5,219,276.5,202.5,280.9,196.9z"/>
				<path class="st5" d="M392.3,370.4c-1.3,0.4-2.8,0.7-4.2,1.1l0,0l-1.5,0.5c-8.1,2-18.4,4-31.8,6.1c-0.3,0-0.5,0.1-0.8,0.1
					c-6.5,1-23.7,4.4-36.9,6.9v-0.2c0,0-9.1-14.6-3.4-35.3c0.6-0.2,1.2-0.4,1.9-0.6l0,0c-2.8-1.5-7.2-3.4-11.1-5.1l-0.7,2.6
					c-3.4,4.3-3.8,7.4-3.8,7.4l0.1,0.3c-2.2,0.8-3.7,1.3-4.2,1.5v0.1c-0.2,1-0.4,2.2-0.6,3.6l0,0l-14.2,4.5c0,0,0,0,0.1,0.1
					c-8.7-2-21.7,4.6-26.9,0.6c-4.3-3.4-16.1-5.4-20.1,1l-0.1-0.1c-24.5-5.1-37.5-12.2-43.4-15.4c-14.7-10.3-14.1-20.5-12.5-26.1
					c3.8-13.2,11.9-14.4,30.7-18.2c18.8-3.8,50.3-5.5,55.7-7.9c3.1-1.4,14.2-5,15.2-5.9l0.4-0.1c0.2,0.4,0.3,0.9,0.4,1.3
					c9.3,15.8,55.9,22.5,89.9,5.5c0.6-0.5,1.2-1.1,1.8-1.6l0,0c1.1,2.4,1.8,6.1,3.2,7c5.3,2.7,10.5,2,29.1,6.3
					c18.7,4.3,26,7.5,30.9,16.4c2.8,5.1,3.7,29-14.7,35c-5.7,2.9-10.8,3.7-25.8,8C394,369.9,393.2,370.2,392.3,370.4z"/>
				<path class="st2" d="M388.1,371.5L388.1,371.5c1.5-0.4,2.9-0.7,4.3-1.1c7.5,4.4,6.9,10,2.8,16.1c-5.4,7.9-13.8,12.8-19.6,8.9
					c-5.8-3.9-6.9-11.9-12.6-13.2c-2.9-0.7-5.6-1.6-8-3l-0.2-1.2c13.4-2.1,23.7-4.1,31.8-6.1L388.1,371.5z"/>
				<path class="st5" d="M352.5,128.1c-0.1,2.4-0.7,3.4-0.7,3.4l-1.4-0.8l-0.9,5.1v0.1c-5.1-1.8-7,4.5-7,4.5l-0.3,11.8
					c0,0-0.1,0.1-0.1,0.2v0.1c-8.7,17.9-23.7,24.5-33.6,22c-5.4-1.4-9.3-5.4-9.8-11.6c-0.2-1.6-0.3-4-0.2-7c1.2-1.8,4.7-3.4,4.7-3.4
					c10.9-3.4,16.2,5.7,22.4,4c1.3-0.4,7.1-1,10-4.5c2.5-3,3.1-14.7,3.1-14.7l-3.6-8.2c0,0,1.6-2.2,1.5-6.8
					c-0.1-4.6-7.3-9.3-7.3-9.3s-19.4,10.3-21.8,10.4c-2.2,0.1-7.7-5.2-8.5-6l0,0c-0.2-0.4-6-10.6,3-16.3c3.6-2.3,6.5-2.4,8.8-1.6
					v-0.1c0,0,2.5-7.1,22-2.1s22,19.1,22.2,31.2l-2.3-0.4L352.5,128.1L352.5,128.1z"/>
				<path class="st10" d="M348.6,227.6c0.9,0.1,1.7,0.9,1.6,1.9l-0.4,5.2l-23.7-1.9l0.3-5c0.1-1,0.9-1.7,1.8-1.6L348.6,227.6z"/>
				<path class="st10" d="M349.8,234.7l-1.2,14.4c-0.1,1.2-0.9,2.2-2,2.6l-10.1,3.9c-0.6,0.2-1.2,0.1-1.7-0.2l-8.4-6.1
					c-0.9-0.6-1.3-1.7-1.3-2.7l1-13.8L349.8,234.7z"/>
				<path class="st10" d="M342.1,152.4L342.1,152.4c0-0.1,0.1-0.2,0.1-0.2l0.3-11.8c0,0,1.9-6.3,7-4.5l0,0
					c5.1,1.8,0.7,14.6-3.8,16.4C344.3,152.8,343.1,152.8,342.1,152.4z"/>
				<path class="st4" d="M341.9,170.7l0.8,2.1l-0.2,0.5l0,0l-12.1,36.3c-4.9-3.6-12.3-13.6-19.9,1.4l0.4,0.4c-0.6,0.5-1.3,1.1-2,1.8
					l1.1-2.3l5.5-11.5l26.3-28.5L341.9,170.7z"/>
				<path class="st10" d="M308.9,213.1l-0.1,0.2l-2.7,5.6l-0.2-4.5l-1-17.5l3.4-21.2v-0.1l0.1-0.7l0.1-0.4c9.9,2.5,24.9-4.1,33.6-22
					l-0.3,18.3l-26.3,28.5l-5.5,11.5L308.9,213.1z"/>
				<path class="st10" d="M335.1,129.1l3.6,8.2c0,0-0.6,11.7-3.1,14.7c-2.9,3.5-8.7,4.1-10,4.5c-6.2,1.7-11.5-7.4-22.4-4
					c0,0-3.5,1.6-4.7,3.4c-0.2-13.7,0.4-38.6,0.4-38.6s0,0,0.1,0.1l0,0c0.8,0.8,6.3,6.1,8.5,6c2.4-0.1,21.8-10.4,21.8-10.4
					s7.2,4.7,7.3,9.3C336.7,126.9,335.1,129.1,335.1,129.1z"/>
				<path class="st5" d="M330.4,209.6c-7.6-5.3-10.8-5.8-19.5,1.8l-0.4-0.4C318.1,196,325.5,206,330.4,209.6z"/>
				<path class="st5" d="M317,384.9v0.2c-7.8,1.5-14.2,2.7-16.3,2.9c0,0-1.9-2.1-3.5-6.2h-0.1c-0.6-1.6-1.3-3.6-1.7-5.7
					c-1-4.9-0.8-11.8-0.3-16.7v-0.1c0.2-1.4,0.4-2.6,0.6-3.6v-0.1c0.5-0.2,2-0.8,4.2-1.5c3.2-1.1,7.9-2.6,13.7-4.5
					C307.9,370.3,317,384.9,317,384.9z"/>
				<path class="st5" d="M313.6,349.6c-5.7,1.8-10.5,3.4-13.7,4.5l-0.1-0.3c0,0,0.4-3.1,3.8-7.4l0.7-2.6c3.9,1.7,8.3,3.7,11.1,5.1
					l0,0C314.9,349.2,314.2,349.4,313.6,349.6z"/>
				<path class="st4" d="M308.3,175.6L308.3,175.6l-3.4,21.3l1,17.5c-0.3-0.7-0.6-1.6-1-2.5c-0.1-0.2-0.1-0.4-0.2-0.5
					c-1.2-5.1-3.1-12-5.1-12.5c-2.8-0.8-8.1,3.3-9,4c1-9.5,11.5-21.7,15.3-25.9c0,0,0,0,0.1-0.1c0.8-0.9,1.2-1.3,1.3-1.4
					L308.3,175.6z"/>
				<path class="st5" d="M299.6,198.9c1.9,0.5,3.9,7.4,5.1,12.5c-2.1-4.7-5.8-10.7-14.1-8.4c0,0,0,0,0-0.1
					C291.5,202.2,296.8,198.1,299.6,198.9z"/>
				<path class="st10" d="M297.1,381.9l-8.4,1.1l-2.1,0.2l-0.4-0.1V383c3.4-10.4-4.2-18.1-5.2-19c-0.1-0.1-0.1-0.1-0.1-0.1l14.2-4.5
					l0,0v0.1c-0.5,4.9-0.7,11.8,0.3,16.7C295.8,378.3,296.5,380.2,297.1,381.9z"/>
				<path class="st2" d="M286.2,383l0.4,0.1l2.1-0.2c-0.5,7.5-6.5,7.1-12.1,7.7s-17.7,12-28,7.8c-1.9-0.8-3.7-1.7-5.2-2.8l0,0v-0.1
					c-8.4-7.4-3.4-18-10.2-28.2l0,0c0.2-0.6,0.5-1.2,0.8-1.7l0,0c4-6.4,15.8-4.4,20.1-1c5.2,4,18.2-2.7,26.9-0.6
					C282,364.9,289.6,372.6,286.2,383L286.2,383z"/>
				<path class="st4" d="M282.8,249.5v0.1c0,3-0.1,6.1-0.1,8.8h-1.2c-16.3-9.6-22.3-19.6-24-22.7c-0.1-0.3-0.2-0.5-0.3-0.6
					c-0.1-0.3-0.1-0.4-0.1-0.4s1.5-2.6,3.8-6.5l0.5,0.3c7.9,11.1,21,21,21,21H282.8z"/>
				<path class="st5" d="M282.7,258.4c0,0.2,0,0.3,0,0.5c-0.6,1-1.2,2-1.8,2.9c-0.5-0.2-15.2-6.9-24.8-24.9l1-1.8l0.1-0.1
					c0.1,0.1,0.2,0.4,0.3,0.6c1.7,3.1,7.7,13.1,24,22.7L282.7,258.4z"/>
				<path class="st10" d="M251.3,160c-4.3,2.8-7.3,11.2-1.5,12.8c4.1,1.1,6.7-0.8,5.7-5.1S251.3,160,251.3,160z M254,240.7l2.1-3.8
					c9.6,18,24.3,24.7,24.8,24.9l0,0c-18.9,29.6-33.9,25-44.5,18.2c-7.3-4.7-11.1-13.1-10.8-21.7c0.8-20.3,11.7-45.4,13.7-63.5
					c1-3.1-1.8-8.5-4.4-10.4c-5-3.7-9.9-8.8-11.6-16.3c-2.2-9.8,2.5-11.2,3.2-8.6c0.3,1.1,0.6,2.5,1.3,4.4
					c-1.5-12,4.1-12.6,5.1-11.6c1.5,1.5-0.7,11.5,7.1,17.5h0.1c0,0,0,0,0-0.1c-1.2-8,6.3-14.4,11.2-12.2c0.4-0.7,1.2-1.3,3.1-1.3
					c4.7,0,16,15.5,3.5,34.6C257.9,190.8,255.4,227.5,254,240.7z"/>
				<path class="st5" d="M243.4,395.6L243.4,395.6c-8.1-5.5-11.2-14.9-10.8-25.1c0-1.2,0.2-2.2,0.6-3.1
					C239.9,377.5,235,388.1,243.4,395.6z"/>
			</g>
			<g>
				<polyline class="st13" points="308.8,213.3 306.1,218.9 305.9,214.4 304.9,196.9 308.3,175.7 308.3,175.6 308.4,174.9 				"/>
				<polyline class="st13" points="341.9,170.7 341.8,170.8 315.5,199.3 310,210.8 308.9,213.1 308.8,213.3 				"/>
				<path class="st13" d="M342.5,140.3L342.5,140.3l-0.3,11.9c0,0-0.1,0.1-0.1,0.2v0.1l-0.3,18.3"/>
				<path class="st13" d="M299,117.4C298.9,117.3,298.9,117.3,299,117.4c-0.1-0.1-0.7,24.8-0.5,38.5c-0.1,3,0,5.4,0.2,7
					c0.5,6.2,4.4,10.2,9.8,11.6c9.9,2.5,24.9-4.1,33.6-22v-0.1c0,0,0-0.1,0.1-0.1"/>
				<path class="st13" d="M298.5,155.9c1.2-1.8,4.7-3.4,4.7-3.4c10.9-3.4,16.2,5.7,22.4,4c1.3-0.4,7.1-1,10-4.5
					c2.5-3,3.1-14.7,3.1-14.7l-3.6-8.2c0,0,1.6-2.2,1.5-6.8c-0.1-4.6-7.3-9.3-7.3-9.3s-19.4,10.3-21.8,10.4c-2.2,0.1-7.7-5.2-8.5-6"
					/>
				<path class="st13" d="M342.1,152.4L342.1,152.4c1,0.4,2.2,0.4,3.6-0.1c4.5-1.8,8.9-14.6,3.8-16.4l0,0c-5.1-1.8-7,4.5-7,4.5"/>
				<path class="st13" d="M349.5,135.8l0.9-5.1l1.4,0.8c0,0,0.6-1,0.7-3.4c0-0.9,0-2-0.2-3.3"/>
				<path class="st13" d="M299,117.4L299,117.4c-0.2-0.4-6-10.6,3-16.3c3.6-2.3,6.5-2.4,8.8-1.6h0.1c3.4,1.2,5,4.2,5,4.2"/>
				<path class="st13" d="M310.8,99.4c0,0,2.5-7.1,22-2.1s22,19.1,22.2,31.2l-2.3-0.4"/>
				<path class="st13" d="M304.9,211.9c0.6,2.7,1,4.8,1,4.8"/>
				<path class="st13" d="M290.5,203c0,0,0-0.1,0.1-0.1c0.9-0.7,6.2-4.8,9-4c1.9,0.5,3.9,7.4,5.1,12.5c0,0.2,0.1,0.4,0.1,0.5"/>
				<path class="st13" d="M307.3,175.5c-0.1,0.1-0.6,0.6-1.3,1.4c0,0,0,0-0.1,0.1c-3.8,4.2-14.3,16.4-15.3,25.9c0,0,0,0,0,0.1l0,0"
					/>
				<path class="st13" d="M310.5,211c7.6-15,15-5,19.9-1.4l12.1-36.3l0,0l0.2-0.5l-0.8-2.1"/>
				<path class="st13" d="M359,222.8c-3.5-10.9-2.9-32.6,14.5-31.9"/>
				<path class="st13" d="M371.4,252.1c-1.2-2.4-2.5-5-3.8-7.7c-4.1-8.5-8.2-17.8-8.6-21.6"/>
				<path class="st13" d="M399.8,245.9c-6.5,4-10.7,12.3-23.2,16.3c0,0-1.7-3.2-4.1-7.9c-0.4-0.7-0.7-1.5-1.1-2.2"/>
				<path class="st13" d="M399.9,248.2c-7.8,11-20.8,17-21.2,17.2"/>
				<path class="st13" d="M342.7,173.4c0,0,20,10.6,30.9,17.4h0.1c3.6,2.3,17.7,22.7,25.9,38.8"/>
				<path class="st13" d="M372.5,254.3c7-1.8,18.5-12,26.9-16.9"/>
				<path class="st13" d="M261.5,228.5c7.9,11.1,21,21,21,21"/>
				<line class="st13" x1="367.6" y1="244.4" x2="369" y2="291.1"/>
				<path class="st13" d="M372,296.9c-0.2-3.3-0.9-3-3-5.9"/>
				<path class="st13" d="M280.3,293.1c9.3,15.8,55.9,22.5,89.9,5.5c0.6-0.5,1.2-1.1,1.8-1.6l0,0"/>
				<path class="st13" d="M296.5,181.1c-2.9,1.7-5.5,4-7.6,6.8c-2,2.7-3.4,5.8-4.1,9.3c-0.5,2.8-1.8,30.2-2,52.3v0.1
					c0,3-0.1,6.1-0.1,8.8c0,0.2,0,0.3,0,0.5c0,0.8,0,1.6,0,2.4c-0.1,6.2-0.3,11.2-0.7,13.8c-0.9,6.9-0.4,8-2.5,10.1
					c-1.5,1.5-0.4,4.2,0.4,6.6c0.2,0.4,0.3,0.9,0.4,1.3"/>
				<path class="st13" d="M305.8,176.8L305.8,176.8c-0.9,0.3-4.8,1.7-9.2,4.3"/>
				<path class="st13" d="M288.9,187.9c-0.7,0.4-3.9,3.8-8,9c-4.4,5.6-14.4,22.1-20,31.3c-2.3,3.9-3.8,6.5-3.8,6.5s0,0.1,0.1,0.4
					c0.1,0.1,0.2,0.4,0.3,0.6c1.7,3.1,7.7,13.1,24,22.7"/>
				<path class="st14" d="M326.1,232.8l0.3-5c0.1-1,0.9-1.7,1.8-1.6l20.4,1.4c0.9,0.1,1.7,0.9,1.6,1.9l-0.4,5.2l-1.2,14.4
					c-0.1,1.2-0.9,2.2-2,2.6l-10.1,3.9c-0.6,0.2-1.2,0.1-1.7-0.2l-8.4-6.1c-0.9-0.6-1.3-1.7-1.3-2.7L326.1,232.8z"/>
				<line class="st14" x1="326.1" y1="232.8" x2="349.8" y2="234.7"/>
				<path class="st13" d="M254,240.8c-0.2,1.4-0.3,2.5-0.4,3.3c-0.1,0.8-0.3,1.6-0.4,2.5c-2.3,10.6-4.6,19.6-3.1,14.5"/>
				<path class="st13" d="M251.3,160c0,0-0.6-1.4,0-2.5c0.4-0.7,1.2-1.3,3.1-1.3c4.7,0,16,15.5,3.5,34.6c0,0-2.4,36.7-3.8,49.9"/>
				<path class="st13" d="M251.3,160c-4.3,2.8-7.3,11.2-1.5,12.8c4.1,1.1,6.7-0.8,5.7-5.1S251.3,160,251.3,160z"/>
				<path class="st13" d="M251.3,157.5c-4.9-2.2-12.4,4.2-11.2,12.2c0,0,0,0,0,0.1c0.2,1.4,0.7,2.9,1.5,4.3"/>
				<path class="st13" d="M240,169.8c-7.8-6-5.6-16-7.1-17.5c-1-1-6.6-0.4-5.1,11.6c0,0.1,0,0.1,0,0.1c0,0.2,0,0.3,0.1,0.5"/>
				<path class="st13" d="M234.7,175.1c-4-4.7-5.9-8.4-6.9-11.2c0,0,0,0,0-0.1c-0.7-1.9-1-3.3-1.3-4.4c-0.7-2.6-5.4-1.2-3.2,8.6
					c1.7,7.5,6.6,12.6,11.6,16.3c2.6,1.9,5.4,7.3,4.4,10.4c-1.9,18.1-12.9,43.2-13.7,63.5c-0.3,8.6,3.5,17,10.8,21.7
					c10.6,6.8,25.6,11.5,44.5-18.2l0,0c0.6-0.9,1.2-1.9,1.8-2.9"/>
				<polyline class="st13" points="257.1,235.1 256.1,236.9 254,240.7 254,240.8 254,240.8 				"/>
				<path class="st13" d="M406.9,158.2c0,0,1-2.1-0.5-3.2c-0.5-0.4-1.3-0.6-2.4-0.7c-4.7-0.2-17.2,16.1-5.4,35.6
					c0,0-0.5,12.6,0.3,26.8c0.2,4.4,0.5,8.9,0.6,12.9c0.1,2.8,0.2,5.4,0.2,7.7v0.1c0,2.1,0.1,3.8,0,5.3c0,1.1,0,2.1,0,3.1v0.1
					c0,0.8,0,1.6,0.1,2.3c0,0.4,0.1,0.7,0.1,1.1c0.8,10.6,3.9,17,3.9,17"/>
				<path class="st13" d="M406.9,158.2c4.2,2.9,6.9,11.5,1.1,12.9c-4.1,1-6.7-1-5.5-5.3C403.6,161.5,406.9,158.2,406.9,158.2z"/>
				<path class="st13" d="M406.4,155c5-2.1,12.7,5.1,11.3,13.3c0,0,0,0,0,0.1c-0.2,1.4-0.8,2.9-1.6,4.3"/>
				<path class="st13" d="M417.9,168.4c8-5.7,6.1-15.8,7.7-17.2c1-1,6.6-0.2,4.7,11.6c0,0.1,0,0.1,0,0.2c0,0.2-0.1,0.3-0.1,0.5"/>
				<path class="st13" d="M423,173.9c4.2-4.6,6.2-8.2,7.3-11c0,0,0,0,0-0.1c0.8-1.9,1.1-3.2,1.4-4.2c0.8-2.5,5.4-1,2.9,8.7
					c-1.9,7.4-7,12.4-12.1,15.9c-2.7,1.8-6.8,5.7-5.9,8.8c3.9,23.1,17.1,72.9,7,84.3c-11.6,15.3-30,10.6-44.9-10.9l0,0
					c-0.7-1-1.4-2.1-2.1-3.2"/>
				<path class="st13" d="M233.9,365.5c-24.5-5.1-37.5-12.2-43.4-15.4c-14.7-10.3-14.1-20.5-12.5-26.1c3.8-13.2,11.9-14.4,30.7-18.2
					c18.8-3.8,50.3-5.5,55.7-7.9c3.1-1.4,14.2-5,15.2-5.9"/>
				<path class="st15" d="M211.3,318.7c23.3-0.1,62.8,11.4,89.4,23.5c1.1,0.5,2.4,1.1,3.7,1.6c3.9,1.7,8.3,3.7,11.1,5.1"/>
				<path class="st15" d="M303.7,346.5c-3.4,4.3-3.8,7.4-3.8,7.4"/>
				<path class="st13" d="M297.1,381.9c-0.6-1.6-1.3-3.6-1.7-5.7c-1-4.9-0.8-11.8-0.3-16.7v-0.1c0.2-1.4,0.4-2.6,0.6-3.6"/>
				<path class="st13" d="M386.5,372c-8.1,2-18.4,4-31.8,6.1c-0.3,0-0.5,0.1-0.8,0.1c-6.5,1-23.7,4.4-36.9,6.9
					c-7.8,1.5-14.2,2.7-16.3,2.9c0,0-1.9-2.1-3.5-6.2"/>
				<path class="st13" d="M388.1,371.5c-0.5,0.1-1.1,0.2-1.6,0.4"/>
				<path class="st13" d="M372,297.1c1.1,2.4,1.8,6.1,3.2,7c5.3,2.7,10.5,2,29.1,6.3c18.7,4.3,26,7.5,30.9,16.4
					c2.8,5.1,3.7,29-14.7,35c-5.7,2.9-10.8,3.7-25.8,8c-0.8,0.2-1.6,0.5-2.5,0.7"/>
				<polyline class="st13" points="286.6,383.2 288.7,383 297.1,381.9 				"/>
				<path class="st13" d="M295.1,359.3l-14.2,4.5c0,0,0,0,0.1,0.1c1,0.9,8.6,8.7,5.2,19c0,0,0,0,0,0.1c-0.2,0.6-0.4,1.2-0.7,1.8"/>
				<path class="st13" d="M288.7,383c-0.5,7.5-6.5,7.1-12.1,7.7s-17.7,12-28,7.8c-1.9-0.8-3.7-1.7-5.2-2.8l0,0
					c-8.1-5.5-11.2-14.9-10.8-25.1c0-1.2,0.2-2.2,0.6-3.1l0,0c0.2-0.6,0.5-1.2,0.8-1.7l0,0c4-6.4,15.8-4.4,20.1-1
					c5.2,4,18.2-2.7,26.9-0.6"/>
				<path class="st13" d="M233.1,367.2l0.1,0.1c6.8,10.2,1.8,20.8,10.2,28.2"/>
				<path class="st15" d="M300.7,318.8c-4.6,7.2,0,23.4,0,23.4"/>
				<path class="st15" d="M294.5,318.8c-3.2,8.1,1.8,20.7,1.8,20.7"/>
				<path class="st15" d="M313.6,349.6L313.6,349.6c-5.7,20.7,3.4,35.3,3.4,35.3"/>
				<path class="st15" d="M295.7,355.7c0.5-0.2,2-0.8,4.2-1.5c3.2-1.1,7.9-2.6,13.7-4.5c0.6-0.2,1.2-0.4,1.9-0.6
					c27.1-8.7,73.5-22.9,84.9-25"/>
				<path class="st13" d="M392.3,370.4L392.3,370.4c7.5,4.4,6.9,10.1,2.8,16.1c-5.4,7.9-13.8,12.8-19.6,8.9
					c-5.8-3.9-6.9-11.9-12.6-13.2c-2.9-0.7-5.6-1.6-8-3c-0.3-0.2-0.7-0.4-1-0.6"/>
				<path class="st13" d="M392.3,370.4c-1.3,0.4-2.8,0.7-4.2,1.1l0,0l-1.5,0.5"/>
				<path class="st13" d="M374.4,382.8c1.9-5.2,10.3-9.7,13.7-11.3"/>
			</g>
		</g>
	</g>
	<g>
		<g>
			<path class="st5" d="M348,141.4c-0.3-0.3-0.6-0.6-0.8-0.6c-0.3-0.1-0.2,0.1-0.4,0.2c0,0.1-0.1,0.9-0.2,1.6
				c-0.1,0.7-0.2,1.5-0.5,2.2c-0.2,0.4-0.3,0.8-0.7,1.1s-0.9,0.5-1.3,0.3c0.4-0.2,0.5-0.5,0.5-0.8c0.1-0.3,0.1-0.6,0.1-0.9
				c0.1-0.7,0-1.4,0.1-2.2c0.1-0.4,0.1-0.8,0.2-1.2c0.1-0.2,0.2-0.4,0.3-0.6c0.1-0.1,0.1-0.2,0.3-0.3c0.1-0.1,0.3-0.2,0.4-0.3
				c0.2-0.1,0.5-0.2,0.9-0.3c0.4,0.1,0.6,0.3,0.8,0.4C348,140.5,348,141,348,141.4z"/>
			<g>
				<path class="st5" d="M329.5,132.1c0-0.1-1-2.7-2.6-3.7c-1.1-0.7-6.3-0.4-7.7-0.2c-0.8,0.1-4.2,2-4.3,2l0,0c0,0-0.4,0.5-0.4,0.7
					v0.5c0,0.3,0.3,1.1,0.7,1.3c0.4,0.1,0.8,0.1,1.2-0.1c1.1-0.6,2.8-1.6,4-1.9c1.5-0.3,3.8-0.4,5.1-0.4c0.6,0,1.2,0.2,1.7,0.5
					l2.5,1.6L329.5,132.1z"/>
				<path class="st5" d="M300.2,127.5c-1,0.4-2.2,2.9-2.2,3.1l0.7-0.3l1.7-1.1c0.4,0.2,2.7,1.1,3.9,2.1c0.7,0.5,1.1,2.1,2.2,2.6l0,0
					c0.2-0.4,0.5-3.4-1.2-5C304.5,128.2,301.9,126.8,300.2,127.5z"/>
			</g>
			<path class="st5" d="M299,117.4c0,0-3.1-3.4-5.1,0.3c-2,3.7,1.5,9.1,1.5,9.1s-5.4-5.5-3.8-11.3c1.5-5.8,6.6-3.7,8.2,1.5
				L299,117.4z"/>
			<path class="st5" d="M306.7,134c0.4,1.1-1.5,5-1.8,6.3c-0.2,0.6-1.6,3.9-1.9,4.4c-0.2,0.3-0.4,0.6-0.6,0.8
				c-0.1,0.1-0.2,0.3-0.3,0.4c-0.1,0.3-0.1,0.6,0.1,0.9c0.1,0.4,0.5,0.8,0.8,1.2c0.7,0.8,3.4,2.3,4.4,2.9c-1.2,0.2-4.3-1-5.3-1.7
				c-0.5-0.4-1.1-0.9-1.5-1.6s-0.5-1.6-0.2-2.4c0.2-0.4,0.4-0.8,0.7-1c0.2-0.2,0.4-0.3,0.5-0.6c0.3-0.4,0.7-0.9,0.8-1.3
				c0.4-0.7,0.7-1.3,1-2c0.3-0.9,0.7-1.7,1.2-2.6L306.7,134z"/>
			<path class="st16" d="M306.9,159.2c5.5,1.1,7.4-1.2,7.4-1.2"/>
		</g>
		<path class="st13" d="M315.3,135.7c1.5,3,5.7,4.7,8.9,0.7"/>
		<path class="st13" d="M298.8,133.8c1.2,2.7,4.4,4.7,6.9,1.1"/>
	</g>
	<g>
		<ellipse transform="matrix(1 -5.358663e-03 5.358663e-03 1 -1.2426 1.6211)" cx="301.9" cy="232.7" rx="2.2" ry="2.2"/>
		<ellipse cx="300.8" cy="255.6" rx="2.2" ry="2.2"/>
		<ellipse cx="299.7" cy="278.5" rx="2.2" ry="2.2"/>
		<ellipse cx="298.6" cy="301.4" rx="2.2" ry="2.2"/>
	</g>
	<path class="st13" d="M258.2,370.6c3.5,4.3,4.1,17.1,4.1,17.1"/>
	<path class="st14" d="M399.9,248.2"/>
</g>
</svg>
