<?xml version="1.0" encoding="UTF-8"?>
<svg id="Layer_2" data-name="Layer 2" xmlns="http://www.w3.org/2000/svg" xmlns:xlink="http://www.w3.org/1999/xlink" viewBox="0 0 675.12 436">
  <defs>
    <style>
      .cls-1 {
        fill: #f4c2c9;
      }

      .cls-1, .cls-2, .cls-3, .cls-4, .cls-5, .cls-6, .cls-7, .cls-8, .cls-9, .cls-10, .cls-11, .cls-12 {
        stroke-width: 0px;
      }

      .cls-13 {
        clip-path: url(#clippath-2);
      }

      .cls-2 {
        fill: #03045e;
      }

      .cls-3 {
        fill: none;
      }

      .cls-4 {
        fill: #90e0ef;
      }

      .cls-14 {
        clip-path: url(#clippath-1);
      }

      .cls-5 {
        fill: #ffe779;
      }

      .cls-6 {
        fill: #f3de8a;
      }

      .cls-7 {
        fill: #00b4d8;
      }

      .cls-8 {
        fill: #fff;
      }

      .cls-9 {
        fill: #6dafa7;
      }

      .cls-15 {
        clip-path: url(#clippath);
      }

      .cls-10 {
        fill: #22272e;
      }

      .cls-11 {
        fill: #63737a;
      }

      .cls-12 {
        fill: #d90368;
      }
    </style>
    <clipPath id="clippath">
      <path class="cls-3" d="m591.84,435.98l-520-14.9c-24.2-.7-44.1-19.2-46.5-43.3L.24,129.78c-2.8-28.1,19-52.6,47.2-53l578.8-8c29.2-.4,52.1,25.1,48.5,54.1l-33.7,270.9c-3.1,24.6-24.4,42.9-49.2,42.2Z"/>
    </clipPath>
    <clipPath id="clippath-1">
      <path class="cls-3" d="m591.84,435.98l-520-14.9c-24.2-.7-44.1-19.2-46.5-43.3L.24,129.78c-2.8-28.1,19-52.6,47.2-53l578.8-8c29.2-.4,52.1,25.1,48.5,54.1l-33.7,270.9c-3.1,24.6-24.4,42.9-49.2,42.2Z"/>
    </clipPath>
    <clipPath id="clippath-2">
      <path class="cls-3" d="m320.54,185.48s-21.6,1.2-34.2,5.7-10.3,14.5-11.9,25c-1.7,10.5-11.9,21.2-6.7,35.5,5.2,14.3,10.3,22.4,7.6,33.4-2.6,11-5.2,16.5-4.8,19.6.5,3.1,14.8,12.6,20.3,14.5,5.5,1.9,16.2-5.7,16.2-5.7,0,0,5.5,7.2,13.5,8.8,8,1.7,40.4-6.7,47.8-15,0,0-4.8-9.3-5-20.5s6.3-25.1,8.7-32.8c2.3-7.7,15.9-37.4,10.6-47.3-3.8-7.1-32.2-23.1-62.1-21.2Z"/>
    </clipPath>
  </defs>
  <g id="illustration">
    <g>
      <path class="cls-4" d="m591.84,435.98l-520-14.9c-24.2-.7-44.1-19.2-46.5-43.3L.24,129.78c-2.8-28.1,19-52.6,47.2-53l578.8-8c29.2-.4,52.1,25.1,48.5,54.1l-33.7,270.9c-3.1,24.6-24.4,42.9-49.2,42.2Z"/>
      <g class="cls-15">
        <g>
          <path class="cls-7" d="m167.44,481.88H-248.06c-8.77,0-15.9-7.13-15.9-15.9v-235.7c0-8.77,7.13-15.9,15.9-15.9H167.44c8.77,0,15.9,7.13,15.9,15.9v235.7c0,8.77-7.13,15.9-15.9,15.9ZM-248.06,216.18c-7.77,0-14.1,6.33-14.1,14.1v235.7c0,7.77,6.33,14.1,14.1,14.1H167.44c7.77,0,14.1-6.33,14.1-14.1v-235.7c0-7.77-6.33-14.1-14.1-14.1H-248.06Z"/>
          <path class="cls-7" d="m716.54,466.08h-419.1c-8.77,0-15.9-7.13-15.9-15.9V105.88c0-8.77,7.13-15.9,15.9-15.9h419.1c8.77,0,15.9,7.13,15.9,15.9v344.3c0,8.77-7.13,15.9-15.9,15.9ZM297.44,91.78c-7.77,0-14.1,6.33-14.1,14.1v344.3c0,7.77,6.33,14.1,14.1,14.1h419.1c7.77,0,14.1-6.33,14.1-14.1V105.88c0-7.77-6.33-14.1-14.1-14.1h-419.1Z"/>
          <path class="cls-7" d="m67.84,145.88H-22.06c-.5,0-.9-.4-.9-.9v-8.9c0-.5.4-.9.9-.9h89.9c1.49,0,2.7,1.21,2.7,2.7v5.2c0,1.57-1.19,2.8-2.7,2.8Zm-89-1.8h89c.52,0,.9-.42.9-1v-5.2c0-.5-.4-.9-.9-.9H-21.16v7.1Z"/>
          <g>
            <path class="cls-7" d="m51.54,136.98h-20.3c-2.65,0-4.83-1.93-5.19-4.58l-1.6-14.42c-.17-1.45.29-2.92,1.28-4.04,1-1.12,2.42-1.77,3.91-1.77h23.5c1.47,0,2.81.58,3.8,1.64,1.01,1.09,1.52,2.59,1.4,4.13l-1.6,14.43c-.38,2.63-2.61,4.6-5.19,4.6Zm-21.9-23c-.98,0-1.91.42-2.56,1.16-.65.73-.96,1.69-.84,2.63l1.6,14.41c.24,1.73,1.67,3,3.41,3h20.3c1.7,0,3.16-1.3,3.41-3.03l1.6-14.37c.08-1-.26-2.01-.93-2.74-.64-.69-1.52-1.07-2.48-1.07h-23.5Z"/>
            <path class="cls-7" d="m38.94,113.08s-8-.8-9.6-11.6c0,0,7.2,2.1,9.5,7.2,0,0,1-11.4,6.4-12.5,0,0,2.4,8.5-1.4,12.7,0,0,2.9-4.8,10.3-4.7,0,0-1.9,6.8-9.2,8.8"/>
          </g>
          <g>
            <path class="cls-7" d="m164.24,265.98h-90.2c-2.81,0-5.1-2.29-5.1-5.1v-27.4c0-2.81,2.29-5.1,5.1-5.1h90.2c2.81,0,5.1,2.29,5.1,5.1v27.4c.06,1.29-.42,2.55-1.35,3.52-.96,1-2.33,1.58-3.75,1.58Zm-90.2-35.8c-1.79,0-3.3,1.51-3.3,3.3v27.4c0,1.79,1.51,3.3,3.3,3.3h90.2c.95,0,1.82-.36,2.45-1.02.58-.61.89-1.41.85-2.24v-27.44c0-1.79-1.51-3.3-3.3-3.3h-90.2Z"/>
            <path class="cls-7" d="m129.54,238.88h-20.8c-.8,0-1.5-.7-1.5-1.5h0c0-.8.7-1.5,1.5-1.5h20.8c.8,0,1.5.7,1.5,1.5h0c0,.8-.7,1.5-1.5,1.5Z"/>
          </g>
          <g>
            <path class="cls-7" d="m164.24,311.78h-90.2c-2.81,0-5.1-2.29-5.1-5.1v-27.4c0-2.81,2.29-5.1,5.1-5.1h90.2c2.81,0,5.1,2.29,5.1,5.1v27.4c.06,1.29-.42,2.55-1.35,3.52-.96,1-2.33,1.58-3.75,1.58Zm-90.2-35.8c-1.79,0-3.3,1.51-3.3,3.3v27.4c0,1.79,1.51,3.3,3.3,3.3h90.2c.95,0,1.82-.36,2.45-1.02.58-.61.89-1.41.85-2.24v-27.44c0-1.79-1.51-3.3-3.3-3.3h-90.2Z"/>
            <path class="cls-7" d="m129.54,284.68h-20.8c-.8,0-1.5-.7-1.5-1.5h0c0-.8.7-1.5,1.5-1.5h20.8c.8,0,1.5.7,1.5,1.5h0c0,.9-.7,1.5-1.5,1.5Z"/>
          </g>
          <g>
            <path class="cls-7" d="m627.44,344.08h-90.2c-2.81,0-5.1-2.29-5.1-5.1v-27.4c0-2.81,2.29-5.1,5.1-5.1h90.2c2.81,0,5.1,2.29,5.1,5.1v27.4c.06,1.29-.42,2.55-1.35,3.52-.96,1-2.33,1.58-3.75,1.58Zm-90.2-35.8c-1.79,0-3.3,1.51-3.3,3.3v27.4c0,1.79,1.51,3.3,3.3,3.3h90.2c.95,0,1.82-.36,2.45-1.02.59-.61.89-1.41.85-2.24v-27.44c0-1.79-1.51-3.3-3.3-3.3h-90.2Z"/>
            <path class="cls-7" d="m592.74,317.08h-20.8c-.8,0-1.5-.7-1.5-1.5h0c0-.8.7-1.5,1.5-1.5h20.8c.8,0,1.5.7,1.5,1.5h0c0,.8-.7,1.5-1.5,1.5Z"/>
          </g>
          <g>
            <path class="cls-7" d="m511.64,344.08h-90.2c-2.81,0-5.1-2.29-5.1-5.1v-27.4c0-2.81,2.29-5.1,5.1-5.1h90.2c2.81,0,5.1,2.29,5.1,5.1v27.4c0,2.81-2.29,5.1-5.1,5.1Zm-90.2-35.8c-1.79,0-3.3,1.51-3.3,3.3v27.4c0,1.79,1.51,3.3,3.3,3.3h90.2c1.79,0,3.3-1.51,3.3-3.3v-27.4c0-1.79-1.51-3.3-3.3-3.3h-90.2Z"/>
            <path class="cls-7" d="m476.94,317.08h-20.8c-.8,0-1.5-.7-1.5-1.5h0c0-.8.7-1.5,1.5-1.5h20.8c.8,0,1.5.7,1.5,1.5h0c0,.8-.7,1.5-1.5,1.5Z"/>
          </g>
          <g>
            <path class="cls-7" d="m49.24,265.98H-40.96c-2.81,0-5.1-2.29-5.1-5.1v-27.4c0-2.81,2.29-5.1,5.1-5.1H49.24c2.81,0,5.1,2.29,5.1,5.1v27.4c.06,1.29-.42,2.55-1.35,3.52-.96,1-2.33,1.58-3.75,1.58Zm-90.2-35.8c-1.79,0-3.3,1.51-3.3,3.3v27.4c0,1.79,1.51,3.3,3.3,3.3H49.24c.95,0,1.82-.36,2.45-1.02.58-.61.89-1.41.85-2.24v-27.44c0-1.79-1.51-3.3-3.3-3.3H-40.96Z"/>
            <path class="cls-7" d="m14.54,238.88H-6.26c-.8,0-1.5-.7-1.5-1.5h0c0-.8.7-1.5,1.5-1.5H14.54c.8,0,1.5.7,1.5,1.5h0c0,.8-.6,1.5-1.5,1.5Z"/>
          </g>
          <g>
            <path class="cls-7" d="m49.24,311.78H-40.96c-2.81,0-5.1-2.29-5.1-5.1v-27.4c0-2.81,2.29-5.1,5.1-5.1H49.24c2.81,0,5.1,2.29,5.1,5.1v27.4c.06,1.29-.42,2.55-1.35,3.52-.96,1-2.33,1.58-3.75,1.58Zm-90.2-35.8c-1.79,0-3.3,1.51-3.3,3.3v27.4c0,1.79,1.51,3.3,3.3,3.3H49.24c.95,0,1.82-.36,2.45-1.02.58-.61.89-1.41.85-2.24v-27.44c0-1.79-1.51-3.3-3.3-3.3H-40.96Z"/>
            <path class="cls-7" d="m14.54,284.68H-6.26c-.8,0-1.5-.7-1.5-1.5h0c0-.8.7-1.5,1.5-1.5H14.54c.8,0,1.5.7,1.5,1.5h0c0,.9-.6,1.5-1.5,1.5Z"/>
          </g>
          <path class="cls-7" d="m758.74,196.58h-455c-2.98,0-5.5-2.52-5.5-5.5v-79.7c0-2.98,2.52-5.5,5.5-5.5h455c2.98,0,5.5,2.52,5.5,5.5v79.7c0,3.03-2.47,5.5-5.5,5.5Zm-455-88.9c-2.01,0-3.7,1.69-3.7,3.7v79.7c0,2.01,1.69,3.7,3.7,3.7h455c2.04,0,3.7-1.66,3.7-3.7v-79.7c0-2.01-1.69-3.7-3.7-3.7h-455Z"/>
          <path class="cls-7" d="m758.74,295.48h-455c-2.98,0-5.5-2.52-5.5-5.5v-79.7c0-2.98,2.52-5.5,5.5-5.5h455c2.98,0,5.5,2.52,5.5,5.5v79.7c0,3.08-2.42,5.5-5.5,5.5Zm-455-88.9c-2.01,0-3.7,1.69-3.7,3.7v79.7c0,2.01,1.69,3.7,3.7,3.7h455c2.11,0,3.7-1.59,3.7-3.7v-79.7c0-2.01-1.69-3.7-3.7-3.7h-455Z"/>
          <path class="cls-7" d="m339.74,196.58h-9.9c-.5,0-.9-.4-.9-.9v-50.3c0-.5.4-.9.9-.9h9.9c.5,0,.9.4.9.9v50.3c0,.5-.4.9-.9.9Zm-9-1.8h8.1v-48.5h-8.1v48.5Z"/>
          <path class="cls-7" d="m349.94,196.58h-10.3c-.5,0-.9-.4-.9-.9v-36.6c0-.5.4-.9.9-.9h10.3c.5,0,.9.4.9.9v36.6c0,.5-.4.9-.9.9Zm-9.4-1.8h8.5v-34.8h-8.5v34.8Z"/>
          <path class="cls-7" d="m638.04,295.38h-9.9c-.5,0-.9-.4-.9-.9v-50.3c0-.5.4-.9.9-.9h9.9c.5,0,.9.4.9.9v50.3c0,.5-.4.9-.9.9Zm-9-1.8h8.1v-48.5h-8.1v48.5Z"/>
          <path class="cls-7" d="m648.34,295.38h-10.3c-.5,0-.9-.4-.9-.9v-36.6c0-.5.4-.9.9-.9h10.3c.5,0,.9.4.9.9v36.6c0,.5-.4.9-.9.9Zm-9.4-1.8h8.5v-34.8h-8.5v34.8Z"/>
          <path class="cls-7" d="m617.94,295.38h-9.9c-.5,0-.9-.4-.9-.9v-50.3c0-.5.4-.9.9-.9h9.9c.5,0,.9.4.9.9v50.3c0,.5-.4.9-.9.9Zm-9-1.8h8.1v-48.5h-8.1v48.5Z"/>
          <path class="cls-7" d="m593.04,294.91c-.09,0-.18-.01-.27-.04l-9.44-2.98c-.47-.15-.74-.66-.59-1.13l15.15-47.97c.15-.47.65-.74,1.13-.59l9.44,2.98c.23.07.42.23.53.44.11.21.13.46.06.69l-15.15,47.97c-.07.23-.23.42-.44.53-.13.07-.27.1-.42.1Zm-8.31-4.47l7.72,2.44,14.6-46.25-7.72-2.44-14.6,46.25Z"/>
          <path class="cls-7" d="m628.24,295.38h-10.3c-.5,0-.9-.4-.9-.9v-36.6c0-.5.4-.9.9-.9h10.3c.5,0,.9.4.9.9v36.6c0,.5-.4.9-.9.9Zm-9.4-1.8h8.5v-34.8h-8.5v34.8Z"/>
          <path class="cls-7" d="m504.54,196.58h-9.9c-.5,0-.9-.4-.9-.9v-50.3c0-.5.4-.9.9-.9h9.9c.5,0,.9.4.9.9v50.3c0,.5-.4.9-.9.9Zm-9-1.8h8.1v-48.5h-8.1v48.5Z"/>
          <path class="cls-7" d="m514.84,196.58h-10.3c-.5,0-.9-.4-.9-.9v-36.6c0-.5.4-.9.9-.9h10.3c.5,0,.9.4.9.9v36.6c0,.5-.4.9-.9.9Zm-9.4-1.8h8.5v-34.8h-8.5v34.8Z"/>
          <path class="cls-7" d="m406.74,196.58h-9.9c-.5,0-.9-.4-.9-.9v-50.3c0-.5.4-.9.9-.9h9.9c.5,0,.9.4.9.9v50.3c0,.5-.4.9-.9.9Zm-9-1.8h8.1v-48.5h-8.1v48.5Z"/>
          <path class="cls-7" d="m381.83,196.1c-.09,0-.18-.01-.27-.04l-9.44-2.98c-.47-.15-.74-.66-.59-1.13l15.15-47.97c.15-.47.65-.74,1.13-.59l9.44,2.98c.23.07.42.23.53.44.11.21.13.46.06.69l-15.15,47.97c-.07.23-.23.42-.44.53-.13.07-.27.1-.42.1Zm-8.31-4.47l7.72,2.44,14.6-46.25-7.72-2.44-14.6,46.25Z"/>
          <path class="cls-7" d="m417.04,196.58h-10.3c-.5,0-.9-.4-.9-.9v-36.6c0-.5.4-.9.9-.9h10.3c.5,0,.9.4.9.9v36.6c0,.5-.4.9-.9.9Zm-9.4-1.8h8.5v-34.8h-8.5v34.8Z"/>
          <path class="cls-7" d="m637.94,151.98l1.1-14.9c.1-1-.7-1.8-1.7-1.8h-8.6c-1,0-1.7.8-1.7,1.8l1.1,14.9s-9,5.8-8.9,10.6c.1,3.7,2.3,21.4,3.3,29.2.3,2.2,2.1,3.8,4.3,3.8h12.4c2.2,0,4-1.6,4.3-3.8,1-7.8,3.2-25.5,3.3-29.2.1-4.9-8.9-10.6-8.9-10.6Z"/>
          <path class="cls-7" d="m598.04,151.98l1.1-14.9c.1-1-.7-1.8-1.7-1.8h-8.6c-1,0-1.7.8-1.7,1.8l1.1,14.9s-9,5.8-8.9,10.6c.1,3.7,2.3,21.4,3.3,29.2.3,2.2,2.1,3.8,4.3,3.8h12.4c2.2,0,4-1.6,4.3-3.8,1-7.8,3.2-25.5,3.3-29.2.1-4.9-8.9-10.6-8.9-10.6Z"/>
          <path class="cls-7" d="m954.54,389.88H-1.26c-.5,0-.9-.4-.9-.9s.4-.9.9-.9h955.8c.5,0,.9.4.9.9s-.4.9-.9.9Z"/>
        </g>
      </g>
      <g class="cls-14">
        <g>
          <g>
            <g>
              <polygon class="cls-12" points="86.64 399.18 86.64 519.48 94.74 519.48 97.34 399.18 86.64 399.18"/>
              <polygon class="cls-2" points="97.34 399.18 86.64 399.18 86.64 412.28 97.04 412.28 97.34 399.18"/>
            </g>
            <g>
              <polygon class="cls-12" points="567.14 399.18 567.14 519.48 558.94 519.48 556.44 399.18 567.14 399.18"/>
              <polygon class="cls-2" points="556.44 399.18 567.14 399.18 567.14 412.28 556.74 412.28 556.44 399.18"/>
            </g>
          </g>
          <polygon class="cls-6" points="601.74 394.28 52.04 394.28 110.54 368.68 543.14 368.68 601.74 394.28"/>
          <rect class="cls-12" x="52.04" y="394.28" width="549.7" height="7.7"/>
        </g>
      </g>
      <g>
        <path class="cls-2" d="m116.94,335.38l-12.7,7.3c-1.9,1.1-4.4.5-5.5-1.5l-36.4-62.8c-1.1-1.9-.5-4.4,1.5-5.5l12.7-7.3c1.9-1.1,4.4-.5,5.5,1.5l36.4,62.8c1.1,1.9.4,4.4-1.5,5.5Z"/>
        <path class="cls-7" d="m108.04,326.48c-1.1-1.9-3.6-2.6-5.5-1.5s-2.6,3.6-1.5,5.5,3.6,2.6,5.5,1.5,2.6-3.5,1.5-5.5Z"/>
        <g>
          <path class="cls-7" d="m91.34,317.38c-.31,0-.61-.16-.78-.45-.25-.43-.1-.98.33-1.23l9.3-5.4c.43-.25.98-.1,1.23.33s.1.98-.33,1.23l-9.3,5.4c-.14.08-.3.12-.45.12Z"/>
          <path class="cls-7" d="m88.74,312.98c-.31,0-.61-.16-.78-.45-.25-.43-.1-.98.33-1.23l9.4-5.4c.43-.25.98-.1,1.23.33s.1.98-.33,1.23l-9.4,5.4c-.14.08-.3.12-.45.12Z"/>
        </g>
      </g>
      <g>
        <g>
          <path class="cls-6" d="m136.14,292.48l-8.2,34.7c-.3,1,4.5,3.5,10.9,5.7,6.3,2.2,11.8,3.2,12.1,2.3l15.1-32.3-29.9-10.4Z"/>
          <path class="cls-5" d="m157.81,331.63c-.58,0-1.18-.1-1.76-.3l-6.1-2.1c-.47-.16-.72-.67-.56-1.14s.67-.73,1.14-.56l6.1,2.1c1.61.56,3.34-.1,4.11-1.57l4.7-9c.45-.87.51-1.85.16-2.75-.36-.92-1.11-1.64-2.06-1.98l-5.58-1.89c-.47-.16-.72-.67-.56-1.14.16-.47.67-.72,1.14-.56l5.6,1.9c1.46.53,2.6,1.63,3.15,3.03.54,1.38.45,2.92-.24,4.24l-4.7,9c-.91,1.73-2.66,2.73-4.53,2.73Z"/>
        </g>
        <path class="cls-7" d="m166.04,302.98c-.4,1.2-7.5-.1-15.7-3-8.3-2.9-14.6-6.2-14.2-7.5.4-1.2,7.5.1,15.7,3,8.3,2.9,14.6,6.2,14.2,7.5Z"/>
      </g>
      <g>
        <g>
          <path class="cls-7" d="m219.24,122.78l-114.7,30.4c-4.2,1.1-8.3-1.7-8.8-6l-14.3-123.7c-.3-3,2.1-5.6,5.1-5.3l116.6,8.1c3.3.2,6,2.7,6.5,6l13,85.2c.5,2.3-1.1,4.7-3.4,5.3Z"/>
          <path class="cls-2" d="m224.54,123.18l-115.9,30.7c-4.2,1.1-8.4-1.8-8.9-6.1l-14.4-125c-.3-3,2.1-5.6,5.2-5.4l117.9,8.1c3.3.2,6.1,2.7,6.6,6l13.2,86.1c.2,2.6-1.3,4.9-3.7,5.6Z"/>
        </g>
        <g>
          <path class="cls-7" d="m133.84,41.08l-28.3-.4c-.6,0-1-.4-1.1-1l-.4-3.2c-.1-.7.5-1.3,1.1-1.3l28.4.8c.6,0,1,.4,1.1,1l.4,2.9c0,.6-.5,1.2-1.2,1.2Z"/>
          <g>
            <path class="cls-6" d="m105.84,52.58c-.49,0-.89-.4-.9-.89,0-.5.39-.91.89-.91l54.8-.7h.01c.49,0,.89.4.9.89,0,.5-.39.91-.89.91l-54.8.7h-.01Z"/>
            <path class="cls-6" d="m107.24,63.68c-.48,0-.88-.38-.9-.86-.02-.5.37-.92.86-.94l34.7-1.4c.49,0,.92.37.94.86.02.5-.37.92-.86.94l-34.7,1.4s-.02,0-.04,0Z"/>
          </g>
          <g>
            <path class="cls-7" d="m120.24,131.18l-3.3.7c-.7.2-1.4-.3-1.5-1.1l-3.3-27.7c-.1-.7.4-1.3,1.1-1.4l3.3-.5c.7-.1,1.3.4,1.4,1.1l3.4,27.5c-.1.7-.5,1.3-1.1,1.4Z"/>
            <path class="cls-6" d="m131.94,127.28l-5.5-44c-.1-.7.4-1.3,1.1-1.4l2.8-.3c.7-.1,1.3.4,1.3,1.1l5.5,43.6c.1.6-.3,1.2-1,1.4l-2.9.6c-.5.2-1.2-.3-1.3-1Z"/>
            <path class="cls-7" d="m147.24,123.98l-2.1-16.2c-.1-.7.4-1.3,1-1.4l2.4-.4c.7-.1,1.3.4,1.4,1.1l2.1,16.1c.1.6-.3,1.2-1,1.4l-2.4.5c-.7.1-1.4-.4-1.4-1.1Z"/>
            <path class="cls-1" d="m164.84,121.58l-2.1.4c-.7.2-1.4-.3-1.5-1l-1.2-8.7c-.1-.7.4-1.3,1-1.4l2.1-.4c.7-.1,1.4.4,1.4,1.1l1.2,8.7c.1.6-.3,1.2-.9,1.3Z"/>
          </g>
          <g>
            <path class="cls-9" d="m205.64,109.48l-8.6-19.3,7.4-17.1c3.4,3.6,5.9,9,6.9,15.1,1.1,8.7-1.2,17-5.7,21.3Z"/>
            <path class="cls-1" d="m204.34,73.08l-7.4,17.1-14.5-11.6c2.1-5.9,6.2-10,11.3-10.3,3.8-.3,7.6,1.5,10.6,4.8Z"/>
            <path class="cls-5" d="m205.64,109.48c-1.6,1.5-3.4,2.5-5.4,2.9-8.4,1.8-17.1-7.2-18.9-20.1-.7-5.1-.2-9.9,1.1-13.8l14.5,11.6,8.7,19.4Z"/>
          </g>
        </g>
      </g>
      <g>
        <g>
          <path class="cls-6" d="m320.99,49.11c-1.28,0-2.48-.64-3.22-1.7-2.55-3.68-9.05-13.35-14.33-23.59-1.94-3.75-2.29-8.01-.97-12,1.33-4.02,4.18-7.27,8.02-9.14,2.23-1.11,4.58-1.67,7.01-1.67,6.83,0,12.82,4.41,14.89,10.98,2.94,9.45,5.57,16.92,7.83,22.19.87,2.07-.07,4.54-2.14,5.62-4.24,2.12-10.26,5.33-14.82,8.57-.67.49-1.46.75-2.28.75h0Z"/>
          <path class="cls-2" d="m317.5,2c6.39,0,11.99,4.13,13.94,10.27,2.95,9.48,5.6,16.98,7.87,22.29.68,1.6-.06,3.5-1.65,4.33-4.28,2.14-10.36,5.38-14.98,8.67-.49.36-1.08.55-1.68.55-.96,0-1.84-.46-2.4-1.27-2.54-3.67-9.01-13.3-14.27-23.48-1.82-3.51-2.14-7.5-.91-11.23,1.24-3.76,3.91-6.8,7.53-8.57,2.08-1.04,4.28-1.56,6.56-1.56m0-2c-2.49,0-5.03.57-7.45,1.78-8.4,4.1-11.8,14.2-7.5,22.5,4.8,9.3,10.8,18.5,14.4,23.7.97,1.4,2.5,2.13,4.04,2.13.99,0,1.99-.3,2.86-.93,4.5-3.2,10.5-6.4,14.7-8.5,2.5-1.3,3.7-4.3,2.6-6.9-2.7-6.3-5.5-14.7-7.8-22.1-2.28-7.22-8.86-11.68-15.85-11.68h0Z"/>
        </g>
        <g>
          <path class="cls-8" d="m335.74,35.18c1.5,0,2.9.6,3.7,1.8,1.6,2.3,4.6,6.2,7.8,8.5,4.7,3.3,21.8,6.2,23.2,8.7s-2.7,3.3-5.5,3c-2.9-.2-5.2-.6-5.8.6-.6,1.2.2,6.2,4.1,9.7,3.8,3.5,10.9,7.2,11.2,10.4s-7.6.1-11.1-2.1c-3.6-2.1-4.5-2.6-4.5-2.6,0,0-.5,1-3.3,2-1.6.5-3.3-.8-4.8-.5-1.5.3-8.2,3.7-11.4,2.1-2.3-1.2-7.4-12.8-9.9-15.9-1.8-2.3-6.1-8.9-8.2-12.2-.9-1.3-.9-3.1-.1-4.4,1.7-3.3,6.1-8.8,14.6-9.1Z"/>
          <path class="cls-2" d="m372.74,80.24c-3.13,0-8.1-2.47-9.93-3.62-1.98-1.15-3.13-1.82-3.77-2.18-.56.48-1.52,1.09-3.16,1.68-1.18.37-2.26.07-3.21-.2-.65-.18-1.26-.35-1.73-.26-.27.05-.94.31-1.66.58-2.82,1.07-7.55,2.85-10.39,1.44-1.53-.8-3.39-4.1-6.27-9.44-1.47-2.71-2.98-5.52-3.96-6.73-1.88-2.41-6.23-9.09-8.27-12.29-1.09-1.57-1.14-3.78-.11-5.46,1.08-2.11,5.5-9.22,15.42-9.57h.04c1.93,0,3.58.82,4.53,2.24,1.46,2.09,4.39,5.97,7.55,8.24,2.16,1.52,7.52,3.06,12.25,4.42,6.59,1.9,10.37,3.05,11.24,4.6.72,1.29.33,2.25.03,2.7-1.21,1.83-4.79,1.96-6.51,1.78-.39-.03-.8-.06-1.2-.09-1.35-.11-3.39-.28-3.6.14-.31.68.19,5.21,3.87,8.51,1.23,1.13,2.85,2.31,4.41,3.45,3.53,2.58,6.87,5.01,7.11,7.6.08.9-.25,1.63-.95,2.06-.46.28-1.06.4-1.75.4Zm-14.29-8.5l.88.56s.9.5,4.52,2.61c3.7,2.33,8.87,3.9,9.6,3.21h0s0-.05,0-.16c-.16-1.69-3.42-4.07-6.3-6.17-1.61-1.18-3.28-2.39-4.58-3.59-4.17-3.75-5.17-9.18-4.32-10.88.82-1.63,2.9-1.46,5.55-1.24.39.03.79.06,1.21.09,2.2.24,4.26-.28,4.66-.89.04-.05.13-.2-.1-.62-.58-.93-6.05-2.51-10.05-3.66-5.12-1.47-10.41-3-12.85-4.71-3.41-2.45-6.51-6.53-8.05-8.75-.58-.87-1.62-1.37-2.86-1.37-8.57.31-12.46,6.09-13.73,8.56-.65,1.07-.62,2.42.03,3.37,2.37,3.72,6.47,9.99,8.17,12.15,1.08,1.34,2.57,4.1,4.15,7.02,1.73,3.2,4.35,8.04,5.42,8.61,2.04,1.02,6.42-.64,8.77-1.53.89-.34,1.54-.58,1.97-.67.93-.19,1.85.07,2.66.3.75.21,1.46.41,2.04.23,2.21-.79,2.73-1.54,2.73-1.55l.47-.93Z"/>
        </g>
        <path class="cls-2" d="m358.74,74.18c-.14,0-.28-.03-.41-.1-.16-.08-4.04-2.08-5.73-3.76-.98-.98-1.72-2.35-1.76-2.41-.24-.44-.07-.98.37-1.22.44-.24.98-.07,1.22.37,0,.01.65,1.2,1.44,1.99,1.48,1.48,5.24,3.42,5.27,3.43.44.23.62.77.39,1.21-.16.31-.47.49-.8.49Z"/>
        <path class="cls-2" d="m350.64,75.58c-.12,0-.23-.02-.35-.07-.26-.11-2.54-1.07-3.51-1.82-1.02-.9-2.27-2.91-2.41-3.14-.26-.42-.13-.98.29-1.24.42-.26.98-.13,1.24.29.34.55,1.38,2.12,2.03,2.7.61.48,2.41,1.28,3.05,1.54.46.19.68.72.48,1.18-.14.35-.48.55-.83.55Z"/>
        <path class="cls-2" d="m344.84,77.58c-.11,0-.22-.02-.33-.06-.08-.03-1.97-.77-3.08-1.77-.73-.63-2.06-2.32-2.21-2.52-.31-.39-.23-.96.16-1.26.39-.31.96-.24,1.26.16.37.48,1.46,1.83,1.98,2.27.73.66,2.08,1.27,2.54,1.45.46.18.69.7.51,1.17-.14.36-.48.57-.84.57Z"/>
      </g>
      <g>
        <path class="cls-9" d="m269.54,103.38c.3-.8,1.3-.8,1.6,0,.5,1.5,1.1,3.1,1.8,3.8.6.6,2.3,1.3,3.8,1.8.8.3.8,1.3,0,1.6-1.5.5-3.1,1.1-3.8,1.8-.6.6-1.3,2.3-1.8,3.8-.3.8-1.3.8-1.6,0-.5-1.5-1.1-3.1-1.8-3.8-.6-.6-2.3-1.3-3.8-1.8-.8-.3-.8-1.3,0-1.6,1.5-.5,3.1-1.1,3.8-1.8s1.3-2.3,1.8-3.8Z"/>
        <path class="cls-9" d="m281.64,45.68c.2-.6,1-.6,1.2,0,.4,1.1.8,2.3,1.3,2.7.5.5,1.6.9,2.7,1.3.6.2.6,1,0,1.2-1.1.4-2.3.8-2.7,1.3-.5.5-.9,1.6-1.3,2.7-.2.6-1,.6-1.2,0-.4-1.1-.8-2.3-1.3-2.7-.5-.5-1.6-.9-2.7-1.3-.6-.2-.6-1,0-1.2,1.1-.4,2.3-.8,2.7-1.3.5-.5,1-1.7,1.3-2.7Z"/>
        <path class="cls-7" d="m376.34,95.38c.2-.6,1-.6,1.2,0,.4,1.1.8,2.3,1.3,2.7s1.6.9,2.7,1.3c.6.2.6,1,0,1.2-1.1.4-2.3.8-2.7,1.3-.5.5-.9,1.6-1.3,2.7-.2.6-1,.6-1.2,0-.4-1.1-.8-2.3-1.3-2.7-.5-.5-1.6-.9-2.7-1.3-.6-.2-.6-1,0-1.2,1.1-.4,2.3-.8,2.7-1.3.5-.4,1-1.6,1.3-2.7Z"/>
        <path class="cls-5" d="m291.74,78.28c.2-.5.8-.5.9,0,.3.9.7,1.8,1,2.2.4.4,1.3.8,2.2,1,.5.2.5.8,0,.9-.9.3-1.8.7-2.2,1-.4.4-.8,1.3-1,2.2-.2.5-.8.5-.9,0-.3-.9-.7-1.8-1-2.2-.4-.4-1.3-.8-2.2-1-.5-.2-.5-.8,0-.9.9-.3,1.8-.7,2.2-1,.3-.3.7-1.3,1-2.2Z"/>
        <path class="cls-6" d="m384.34,122.08c.3-.8,1.3-.8,1.6,0,.5,1.5,1.1,3.1,1.8,3.8.6.6,2.3,1.3,3.8,1.8.8.3.8,1.3,0,1.6-1.5.5-3.1,1.1-3.8,1.8-.6.6-1.3,2.3-1.8,3.8-.3.8-1.3.8-1.6,0-.5-1.5-1.1-3.1-1.8-3.8-.6-.6-2.3-1.3-3.8-1.8-.8-.3-.8-1.3,0-1.6,1.5-.5,3.1-1.1,3.8-1.8.6-.7,1.3-2.3,1.8-3.8Z"/>
      </g>
      <g>
        <path class="cls-2" d="m553.34,102.18s-1.4,1.4,1.2,12c2.6,10.6,8.5,18.7,8.5,18.7,0,0,7.6-6.4,5.3-17.4-2.2-11-15-13.3-15-13.3Z"/>
        <g>
          <path class="cls-8" d="m554.84,133.38s-2,.6-6.7,5.5c-4.7,4.9-11.6,7.4-19.8,11.1s-12.2-13.5-10.1-22.2c2-8.7,11-14.7,11-14.7l20.87-4.06s2.43-.44,4.73,4.06c2.2,4.5,2,14.6,0,20.3Z"/>
          <path class="cls-2" d="m526.12,151.49c-1.33,0-2.61-.48-3.77-1.45-4.85-4.02-6.75-15.6-5.08-22.5,2.06-8.97,11.04-15.04,11.42-15.3l.17-.11,21.07-4.09c.34-.06,3.25-.43,5.81,4.58,2.45,5,2.03,15.44.05,21.09l-.17.48-.47.14c-.12.04-2.06.83-6.28,5.24-4.1,4.27-9.77,6.76-16.35,9.65-1.22.54-2.48,1.09-3.77,1.67-.89.4-1.77.6-2.63.6Zm3.52-37.47c-1.19.84-8.68,6.4-10.42,13.98-1.5,6.2.28,17.09,4.41,20.5,1.32,1.09,2.72,1.27,4.31.56,1.29-.58,2.56-1.14,3.78-1.68,6.38-2.8,11.88-5.22,15.71-9.2,3.59-3.74,5.7-5.08,6.61-5.54,1.89-5.8,1.86-15.13-.09-19.12-1.86-3.65-3.67-3.5-3.69-3.51l-20.62,4.01Z"/>
        </g>
        <g>
          <g>
            <path class="cls-2" d="m539.84,165.28l-59.6,13.7c-2.6.6-5.2-1-5.8-3.6l-16.9-73.2c-.6-2.6,1-5.2,3.6-5.8l59.6-13.7c2.6-.6,5.2,1,5.8,3.6l16.8,73.2c.7,2.6-.9,5.2-3.5,5.8Z"/>
            <g>
              <path class="cls-6" d="m514.74,103.68l-38.8,8.9c-1.3.3-2.5-.5-2.8-1.8h0c-.3-1.3.5-2.5,1.8-2.8l38.8-8.9c1.3-.3,2.5.5,2.8,1.8h0c.2,1.2-.6,2.5-1.8,2.8Z"/>
              <path class="cls-7" d="m475.84,123.78c-.41,0-.78-.28-.88-.7-.11-.48.19-.97.67-1.08l43.4-10c.49-.11.97.19,1.08.67.11.48-.19.97-.67,1.08l-43.4,10c-.07.02-.14.02-.2.02Z"/>
              <path class="cls-7" d="m477.54,131.08c-.41,0-.78-.28-.88-.7-.11-.48.19-.97.67-1.08l43.4-10c.48-.11.97.19,1.08.67.11.48-.19.97-.67,1.08l-43.4,10c-.07.02-.14.02-.2.02Z"/>
              <path class="cls-6" d="m503.44,158.98l-16,3.7c-1.3.3-2.5-.5-2.8-1.8l-3.7-16c-.3-1.3.5-2.5,1.8-2.8l16-3.7c1.3-.3,2.5.5,2.8,1.8l3.7,16c.2,1.2-.6,2.5-1.8,2.8Z"/>
              <path class="cls-7" d="m507.44,137.18c-.41,0-.78-.28-.88-.7-.11-.48.19-.97.67-1.08l16.3-3.8c.48-.11.97.19,1.08.67.11.48-.19.97-.67,1.08l-16.3,3.8c-.07.02-.14.02-.21.02Z"/>
              <path class="cls-7" d="m509.24,145.08c-.41,0-.78-.28-.88-.7-.11-.49.19-.97.68-1.08l16.4-3.7c.49-.1.97.19,1.08.68s-.19.97-.68,1.08l-16.4,3.7c-.07.01-.13.02-.2.02Z"/>
              <path class="cls-7" d="m511.04,153.08c-.41,0-.78-.28-.88-.7-.11-.48.19-.97.67-1.08l9.9-2.3c.48-.11.97.19,1.08.67.11.48-.19.97-.67,1.08l-9.9,2.3c-.07.02-.14.02-.2.02Z"/>
            </g>
          </g>
          <path class="cls-7" d="m502.14,89.28l-21.2,4.9c-1.5.3-2.8-1-2.5-2.5l.2-1c.2-.8.8-1.4,1.6-1.6l20.3-4.7c.8-.2,1.6.1,2.1.7l.6.8c1,1.3.4,3.1-1.1,3.4Z"/>
        </g>
        <g>
          <path class="cls-8" d="m548.14,109.38s-2.5,1.3-7.3,0c-4.8-1.3-5.6-2.5-10.6-3.8-5-1.3-11.9.1-13.1,2.2-1.2,2.1,2,3.4,6.3,3.9s6.3,8.7,13.2,11.8"/>
          <path class="cls-2" d="m536.23,124.39c-3.81-1.71-6.23-4.9-8.17-7.46-1.66-2.18-3.09-4.07-4.73-4.26-4-.47-6.42-1.47-7.18-2.98-.27-.53-.46-1.38.13-2.41,1.51-2.64,8.95-4.04,14.22-2.67,2.64.69,4.16,1.36,5.64,2,1.39.61,2.71,1.19,4.97,1.8,4.3,1.16,6.56.08,6.59.07l.91,1.78c-.12.06-2.91,1.46-8.02.08-2.41-.65-3.86-1.29-5.25-1.9-1.46-.64-2.85-1.25-5.34-1.9-4.75-1.23-11.12.22-11.98,1.73-.18.32-.12.45-.08.52.25.49,1.71,1.43,5.63,1.89,2.49.29,4.16,2.49,6.1,5.04,1.9,2.5,4.05,5.34,7.4,6.84l-.82,1.82Z"/>
        </g>
        <path class="cls-2" d="m541.23,125.39c-1.71,0-3.38-.37-4.97-1.09-3.78-1.7-6.19-4.87-8.13-7.43-1.67-2.2-3.11-4.1-4.8-4.3-2.73-.32-6.18-1.08-7.11-2.92-.26-.51-.44-1.32.13-2.32.25-.43.8-.58,1.23-.33.43.25.58.8.33,1.23-.21.37-.12.53-.08.62.32.63,2,1.51,5.71,1.95,2.45.28,4.11,2.47,6.03,5,1.91,2.51,4.07,5.36,7.44,6.87,2,.92,4.05,1.16,6.26.74.49-.09.96.23,1.05.71.09.49-.23.96-.72,1.05-.8.15-1.59.23-2.38.23Z"/>
        <g>
          <path class="cls-8" d="m555.74,104.78s-5.3,3.4-7.6,4.6c0,0,4.5,4.4,6.3,12.3,1.8,7.9.4,11.7.4,11.7,0,0,5.9-.6,8.8-2.7,0,0,2.8-4.6.5-13.6s-8.4-12.3-8.4-12.3Z"/>
          <path class="cls-2" d="m553.35,134.53l.55-1.5s1.26-3.69-.44-11.13c-1.71-7.49-5.98-11.77-6.02-11.81l-.98-.96,1.22-.64c2.23-1.17,7.47-4.52,7.52-4.56l.5-.32.52.28c.27.14,6.51,3.62,8.89,12.93,2.38,9.3-.49,14.17-.61,14.37l-.1.17-.16.12c-3.08,2.23-9.03,2.86-9.29,2.89l-1.59.16Zm-3.62-24.89c1.46,1.75,4.32,5.79,5.69,11.81,1.21,5.32,1.01,8.87.72,10.73,1.79-.29,4.88-.95,6.74-2.19.42-.87,2.22-5.16.3-12.67-1.78-6.98-6-10.38-7.43-11.36-1.17.75-4,2.53-6.02,3.68Z"/>
        </g>
        <g>
          <path class="cls-7" d="m564.49,131.57c.37-1.91.65-5.42-.16-11.33-1.09-7.96-7.04-15.16-9.37-17.71l14.15-7.68c6.27-3.42,13.85-8.5,19.09-12.16,3.27-2.29,7.08-3.5,11-3.5,8.51,0,15.9,5.49,18.37,13.67,2.75,9.02-1.45,18.7-9.99,23.02-17.55,8.57-37.29,14.14-43.1,15.68Z"/>
          <path class="cls-2" d="m599.21,80.2c8.07,0,15.07,5.21,17.42,12.96,2.61,8.55-1.38,17.73-9.46,21.82-16.23,7.92-34.34,13.27-41.48,15.23.24-2.17.27-5.43-.37-10.1-1.01-7.38-6.03-14.09-8.78-17.29l13.05-7.08c6.31-3.44,13.92-8.54,19.19-12.22,3.1-2.17,6.71-3.32,10.42-3.32m0-2c-3.95,0-7.98,1.17-11.57,3.68-6.6,4.6-13.5,9.1-19,12.1l-15.3,8.3s8.7,8.6,10,18.1-.3,12.6-.3,12.6c0,0,23.9-5.9,45-16.2,8.9-4.5,13.4-14.7,10.5-24.2-2.73-9-10.85-14.38-19.33-14.38h0Z"/>
        </g>
        <path class="cls-2" d="m561.04,125.68c0-.7-.5-1.2-1.2-1.2s-1.2.5-1.2,1.2.5,1.2,1.2,1.2,1.2-.5,1.2-1.2Z"/>
      </g>
      <g>
        <polygon class="cls-7" points="426.84 310.28 497.54 301.98 496.34 314.78 482.44 316.78 481.04 319.38 426.84 310.28"/>
        <path class="cls-2" d="m481.04,317.98l18.4-72.9c.6-2.5,2.8-4.5,5.3-4.8l94.5-14.1c2-.3,3.7,1.6,3.1,3.6l-19.3,65.3c-.7,2.2-2.5,4-4.8,4.5l-93.9,21.9c-2,.4-3.8-1.4-3.3-3.5Z"/>
        <path class="cls-11" d="m553.34,271.38c-1,3.6-4.3,7.1-7.6,7.8-3.2.7-5.1-1.7-4.1-5.3,1-3.6,4.3-7.1,7.6-7.8,3.2-.7,5.1,1.7,4.1,5.3Z"/>
        <path class="cls-2" d="m482.44,321.18c-.3-.2-41.3-5.6-52.7-7.2-1.7-.2-2.9-1.6-2.9-3.3v-.4l55.6,6.5v4.4h0Z"/>
      </g>
      <g>
        <path class="cls-2" d="m565.73,213.3c-.81,0-1.6-.31-2.22-.89-.75-.7-1.14-1.68-1.07-2.69l1.7-22.71c0-2.25,1.93-4.13,4.3-4.13h30.8c.93,0,1.84.4,2.48,1.09.65.7.98,1.61.92,2.57l-1.6,19.31c-.12,2.1-1.72,3.76-3.89,4.02l-31.01,3.4c-.14.02-.27.03-.41.03Zm2.71-28.62c-1.38,0-2.5,1.08-2.5,2.4l-1.7,22.77c-.03.46.15.92.5,1.25.33.31.75.45,1.18.39l31.02-3.4c1.28-.15,2.23-1.12,2.3-2.36l1.6-19.32c.03-.44-.12-.88-.44-1.21-.31-.33-.73-.51-1.17-.51h-30.8Z"/>
        <path class="cls-2" d="m586.05,195.46c-.68,0-1.37-.16-2.01-.48l-18.02-9.71c-.44-.24-.6-.78-.37-1.22s.78-.6,1.22-.37l18,9.7c.89.44,1.92.36,2.74-.24l12.8-9.4c.4-.29.96-.21,1.26.19.29.4.21.96-.19,1.26l-12.8,9.4c-.78.57-1.7.86-2.62.86Z"/>
      </g>
      <g>
        <g>
          <path class="cls-2" d="m395.34,86.48l-3.2,3.5c-.5.5-.5,1.4,0,2h0c.5.5,1.2.6,1.8.3l3.8-2.3-2.4-3.5Z"/>
          <path class="cls-2" d="m424.54,94.98l.9,4.7c.1.7-.3,1.5-1,1.7h0c-.7.2-1.4-.1-1.7-.8l-2-4,3.8-1.6Z"/>
        </g>
        <circle class="cls-7" cx="413.84" cy="77.28" r="21.8"/>
        <circle class="cls-6" cx="413.83" cy="77.3" r="14" transform="translate(13.94 208.91) rotate(-28.8)"/>
        <path class="cls-7" d="m417.74,83.18c-.27,0-.53-.12-.71-.35l-3.9-5c-.18-.23-.24-.53-.15-.81l2.1-7c.14-.48.65-.74,1.12-.6.48.14.75.64.6,1.12l-1.97,6.55,3.61,4.63c.31.39.24.96-.16,1.26-.16.13-.36.19-.55.19Z"/>
        <g>
          <path class="cls-7" d="m399.94,56.18c-.6.2-1.3-.1-1.5-.8-.5-2.9,1.1-5.8,4-6.9,2.9-1.1,6,0,7.6,2.5.4.6.1,1.3-.6,1.6l-9.5,3.6Z"/>
          <path class="cls-7" d="m436.84,66.98c.4.5,1.2.6,1.7.1,2-2.2,2.2-5.5.3-8s-5.1-3.2-7.7-1.9c-.6.3-.8,1.1-.4,1.6l6.1,8.2Z"/>
        </g>
        <g>
          <path class="cls-7" d="m423.74,53.88l-5.7-1.6c-.9-.3-1.5-1.2-1.2-2.2h0c.3-.9,1.2-1.5,2.2-1.2l5.7,1.6c.9.3,1.5,1.2,1.2,2.2h0c-.3.9-1.3,1.5-2.2,1.2Z"/>
          <rect class="cls-7" x="417.57" y="52.55" width="5.6" height="4.3" transform="translate(250.56 443.12) rotate(-73.8)"/>
        </g>
      </g>
      <path class="cls-2" d="m181.14,222.68l.9,9.2c.1.9-.4,1.8-1.3,2.2-2.8,1.3-4.5,4.2-4.2,7.2l1.1,10.2c.3,3.1,2.6,5.6,5.6,6.2.9.2,1.6,1,1.7,1.9l.9,9.2c.2,1.7-1.6,2.9-3.1,2.1l-2.2-1.1c-4.8-2.4-8.1-7.2-8.6-12.6l-2.1-20.3c-.6-5.4,1.7-10.7,5.9-14.1l2-1.6c1.2-1,3.2-.2,3.4,1.5Z"/>
      <g>
        <path class="cls-12" d="m227.84,28.38c1.8,12.2-5,23.3-16.4,24.9-13.1,1.8-26.8-9.5-28.6-25.1-1.7-15.3,9-25.8,22.1-24,11.5,1.6,21.2,12.2,22.9,24.2Z"/>
        <path class="cls-6" d="m232.54,26.28c1.8,12.6-5.1,24.1-16.9,25.7-13.6,1.9-27.7-9.8-29.5-25.9-1.8-15.8,9.3-26.6,22.8-24.8,11.8,1.7,21.8,12.7,23.6,25Z"/>
        <g>
          <path class="cls-10" d="m216.14,19.28c.4,3.1-1.5,5.5-4.3,5.5s-5.7-2.7-6.1-5.9,1.7-5.6,4.6-5.4c2.8.2,5.4,2.8,5.8,5.8Z"/>
          <path class="cls-10" d="m218.84,38.88l-10.3.7c-2.5.2-4.8-1.9-5.2-4.7h0c-.8-6.1,3.2-10.9,8.5-10.8h0c5,.1,9.5,4.6,10.3,10h0c.2,2.6-1.2,4.7-3.3,4.8Z"/>
        </g>
      </g>
      <g>
        <path class="cls-2" d="m540.34,206.58c-1.5-1.6-4-1.7-5.6-.3-1.6,1.5-1.7,4-.3,5.6,1.4,1.6,4,1.7,5.6.3,1.7-1.5,1.8-4,.3-5.6Z"/>
        <path class="cls-7" d="m535.14,197.48l-.7-.8c-2.3-2.5-6.2-2.7-8.8-.4h0c-2.5,2.3-2.7,6.2-.4,8.8l.7.8c.8.9,1.4,1.9,1.7,3.1.2.9.5,1.9.7,2.9.5,2.1,3.1,2.9,4.8,1.4l4.4-4,4.4-4c1.6-1.5,1.1-4.1-1-4.9-1-.3-1.9-.7-2.8-1-1.2-.4-2.2-1-3-1.9Z"/>
      </g>
      <g>
        <path class="cls-2" d="m455.74,213.18s2.4,11.4,0,25.2l32.4-7s-7.2-12-9.1-23l-23.3,4.8Z"/>
        <path class="cls-7" d="m456.44,219.28c-.42,0-.79-.29-.88-.72-.1-.49.21-.96.7-1.07l23.8-5c.48-.1.96.21,1.07.7.1.49-.21.96-.7,1.07l-23.8,5c-.06.01-.12.02-.19.02Z"/>
        <path class="cls-7" d="m462.04,223.98c-.41,0-.77-.28-.87-.69-.12-.48.18-.97.66-1.08l15.4-3.7c.48-.11.97.18,1.09.67.12.48-.18.97-.66,1.08l-15.4,3.7c-.07.02-.14.03-.21.03Z"/>
        <path class="cls-7" d="m462.34,228.78c-.41,0-.78-.28-.88-.7-.11-.48.19-.97.67-1.08l10.3-2.4c.48-.11.97.19,1.08.67.11.48-.19.97-.67,1.08l-10.3,2.4c-.07.02-.14.02-.21.02Z"/>
      </g>
      <g>
        <path class="cls-7" d="m532.34,323.18l21.8-4.9s.3,10,15.7,15.9c0,0-17.1,13-22.4,16.4.1-.1-12.7-6.7-15.1-27.4Z"/>
        <path class="cls-2" d="m533.64,330.68c-.38,0-.73-.24-.86-.62-.15-.47.11-.98.58-1.13l21.9-7.1c.47-.15.98.11,1.13.58.15.47-.11.98-.58,1.13l-21.9,7.1c-.09.03-.19.04-.28.04Z"/>
        <path class="cls-2" d="m540.84,334.78c-.34,0-.67-.19-.82-.52-.21-.45,0-.99.44-1.19l13.7-6.3c.45-.21.99-.01,1.19.44.21.45,0,.99-.44,1.19l-13.7,6.3c-.12.06-.25.08-.38.08Z"/>
        <path class="cls-2" d="m543.14,338.98c-.32,0-.63-.17-.79-.47-.24-.44-.07-.98.36-1.22l13.7-7.4c.44-.24.98-.07,1.22.36.24.44.07.98-.36,1.22l-13.7,7.4c-.14.07-.28.11-.43.11Z"/>
        <path class="cls-2" d="m546.14,342.98c-.3,0-.6-.15-.77-.43-.26-.42-.12-.98.3-1.24l7.9-4.8c.43-.26.98-.12,1.24.3.26.42.12.98-.3,1.24l-7.9,4.8c-.15.09-.31.13-.47.13Z"/>
      </g>
      <g>
        <path class="cls-7" d="m186.54,167.28s-2.2.6-5.7.2l1.8-2.8c-3.9.1-13.3-5-14.3-9.7-.1-.6-.1-1.2.1-1.6h0v-.1c1.5-3,9.4-2.3,15.2,3.4,6.9,6.7,2.9,10.6,2.9,10.6Z"/>
        <path class="cls-2" d="m182.74,164.68l-1.8,2.8c-2.2-.3-5-1-8-2.7-3.8-2.1-5.6-4.8-6.5-6.9,1.1-2.5,1.9-4.2,2.1-4.6-.2.5-.2,1-.1,1.6,1,4.8,10.4,9.9,14.3,9.8Z"/>
        <g>
          <path class="cls-8" d="m127.14,194.98s4.6,2.1,8.9,1.5,12.7-3,14.4-2.1c1.7.9,4.6,1,3.7,3.9-.8,2.9-2.6,6.3-6.4,6.5-3.8.3-7.6,3.2-13.9,1.4-6.3-1.8-10-2.7-10.2-5.2-.1-2.6,3.5-6,3.5-6Z"/>
          <path class="cls-2" d="m137.88,207.76c-1.31,0-2.74-.17-4.31-.62l-1.07-.31c-5.99-1.7-9.6-2.73-9.85-5.78-.12-3.01,3.41-6.43,3.81-6.81l.49-.46.61.28s4.4,1.97,8.35,1.42c1.39-.19,3.22-.58,5.16-.99,5.2-1.1,8.46-1.73,9.84-1,.33.17.73.32,1.17.48,1.5.54,4,1.45,3.02,4.6-1.23,4.45-3.82,7.02-7.3,7.2-1.1.09-2.28.44-3.53.82-1.8.54-3.88,1.16-6.39,1.16Zm-10.5-11.6c-1.23,1.29-2.79,3.4-2.73,4.78.13,1.62,3.42,2.56,8.4,3.97l1.08.31c3.98,1.14,6.82.29,9.57-.54,1.36-.41,2.64-.79,3.98-.9,3.29-.17,4.82-3.23,5.52-5.77.38-1.24,0-1.51-1.79-2.16-.48-.17-.97-.35-1.42-.59-.86-.42-5.64.59-8.49,1.19-1.98.42-3.84.81-5.3,1.02-3.61.51-7.33-.74-8.8-1.31Z"/>
        </g>
        <path class="cls-8" d="m186.54,167.28c-1.6,4.7-22.5,32.2-32.4,46.6-9.9,14.4-26.7,55.2-35.1,53.5-8.4-1.7-18.8-9.9-17-14.6,1.9-4.7,23.1-18.1,39.3-41.2,16.2-23.1,15.8-39.1,20.7-52.2,2.1-5.6,3.6-5.2,3.6-5.2,0,0-.1,1.6.7,3.8.8,2.1,2.6,4.8,6.5,6.9,3,1.7,5.8,2.4,8,2.7,3.5.4,5.7-.3,5.7-.3Z"/>
        <path class="cls-2" d="m150.54,209.58c-.14,0-.29-.04-.43-.11-.44-.24-.6-.78-.36-1.22.04-.07,3.95-7.34,4.91-11.67.11-.49.59-.79,1.07-.68.49.11.79.59.68,1.07-1.02,4.57-4.92,11.83-5.09,12.13-.16.3-.47.47-.79.47Z"/>
        <path class="cls-2" d="m154.34,210.58c-.14,0-.29-.03-.42-.1-.44-.23-.61-.78-.37-1.22.28-.54,2.81-5.27,4.28-6.64.36-.34.93-.32,1.27.05.34.36.32.93-.05,1.27-1.06.98-3.19,4.78-3.92,6.16-.16.31-.47.48-.8.48Z"/>
        <path class="cls-2" d="m135.64,238.48c-.16,0-.32-.04-.46-.13-.43-.26-.56-.81-.31-1.23,2.03-3.39,3.91-8.31,3.93-8.36.18-.46.7-.7,1.16-.52.46.18.7.7.52,1.16-.08.21-1.95,5.12-4.07,8.64-.17.28-.47.44-.77.44Z"/>
        <path class="cls-2" d="m123.64,239.78c-.26,0-.52-.12-.7-.34-.31-.39-.25-.95.14-1.27,6.5-5.24,10.17-10.93,10.21-10.98.27-.42.82-.54,1.24-.27.42.27.54.82.27,1.24-.15.24-3.86,5.99-10.59,11.42-.17.13-.37.2-.56.2Z"/>
        <g>
          <path class="cls-8" d="m142.54,201.18s6.2,4,9.7,5.4c3.6,1.4,8.2-.1,8.6-.1s2.3,3,.6,5.1c-1.7,2.1-3.6,2.4-3.8,3.1-.2.7.3,4.7-.8,6.1-1,1.4-3.2,2.2-3.9,3.1-.6.9-1.4,5.4-2.5,6.1s-2.5,3-5.3,3.4c-2.8.4-13.8-4-24-11.9-6.5-5-10.7-6.8-10.7-6.8,0,0,4.5-19.7,12.7-17.9"/>
          <path class="cls-2" d="m144.8,234.4c-3.69,0-14.35-4.44-24.27-12.13-6.3-4.85-10.44-6.65-10.48-6.67l-.77-.33.18-.81c.19-.84,4.83-20.66,13.89-18.65l-.43,1.95c-5.65-1.23-9.91,10.73-11.32,16.37,1.51.75,5.15,2.72,10.15,6.56,10.16,7.87,20.82,12.05,23.25,11.7,1.68-.24,2.8-1.33,3.7-2.21.43-.42.8-.78,1.2-1.04.4-.33,1.01-2.38,1.31-3.37.38-1.26.6-2,.9-2.44.45-.59,1.13-1.02,1.84-1.47.76-.48,1.62-1.03,2.08-1.66.58-.74.57-2.96.56-4.15,0-.88,0-1.31.09-1.64.19-.68.79-1.03,1.47-1.42.73-.43,1.64-.96,2.51-2.03.94-1.16.27-2.76-.13-3.39h0c-1.47.33-5.37,1.23-8.65-.05-3.56-1.42-9.62-5.33-9.88-5.49l1.08-1.68c.06.04,6.16,3.96,9.53,5.31,2.7,1.05,6.17.26,7.47-.04.41-.09.58-.13.76-.13.62,0,1.2.55,1.71,1.62.88,1.85.76,3.76-.33,5.11-1.1,1.36-2.28,2.05-3.06,2.5-.2.12-.44.25-.56.35-.01.21,0,.63,0,.98.01,2.16-.05,4.2-.96,5.36-.65.91-1.69,1.57-2.61,2.15-.54.34-1.09.69-1.29.95-.1.16-.39,1.13-.6,1.84-.69,2.33-1.22,3.9-2.15,4.49-.23.14-.54.45-.88.78-.99.97-2.49,2.43-4.81,2.76-.14.02-.3.03-.48.03Z"/>
        </g>
        <path class="cls-2" d="m155.82,208.07c-1.28,0-2.64-.17-3.9-.66-3.55-1.42-9.61-5.32-9.86-5.48-.42-.27-.54-.83-.27-1.24s.83-.54,1.24-.27c.06.04,6.17,3.97,9.55,5.32,2.73,1.06,6.22.27,7.53-.03.4-.09.57-.13.74-.13.5,0,.9.4.9.9s-.4.9-.9.9c0,0-.14.04-.33.08-.89.2-2.69.61-4.69.61Z"/>
        <g>
          <path class="cls-7" d="m110.88,217.6c-1.18-.49-7.45-3.52-8.15-4.43-.54-.7-.49-1.44-.45-1.71,6.37-10.29,13.89-21.25,15.64-22.08h.26l.29-.23s0,0,0,0c0,0,.21-.15.49-.15.22,0,.43.09.67.26,2.9,2.23,6.12,5.11,6.47,6.06.4,1.43-2.64,10.64-7.82,16.59-4.53,5.32-7.06,5.66-7.41,5.68Z"/>
          <path class="cls-2" d="m118.98,190.03s.03.02.04.03c2.89,2.22,5.64,4.73,6.11,5.56.03,1.76-2.89,10.22-7.62,15.66-3.68,4.32-5.89,5.14-6.5,5.29-1.68-.74-6.66-3.2-7.51-4.04-.2-.28-.24-.56-.24-.75,5.75-9.28,12.87-19.72,14.95-21.38h.31s.46-.36.46-.36m-.01-2.03c-.67,0-1.12.37-1.12.37,0,0-.01,0-.02,0-2.45,0-16.48,22.7-16.48,22.7,0,0-.4,1.4.6,2.7s8.4,4.7,8.7,4.8c.03.01.1.02.2.02.79,0,3.59-.61,8.2-6.02,5.3-6.1,8.7-16,8-17.6-.6-1.6-5.5-5.5-6.8-6.5-.46-.36-.9-.47-1.28-.47h0Z"/>
        </g>
        <g>
          <path class="cls-6" d="m102.59,210.39c-3.16-1.18-24.88-9.61-39.08-22.36-2.16-1.93-4.15-3.76-5.98-5.43l-1.82-1.66c-7.51-6.94-8.3-18.59-1.8-26.53,3.72-4.51,9.22-7.1,15.08-7.1,6.29,0,11.98,2.9,15.64,7.96,7.78,10.91,19.63,25.52,32.12,33.61-.51,3-3.33,16.25-14.16,21.52Z"/>
          <path class="cls-2" d="m69,148.31c5.96,0,11.36,2.75,14.82,7.53,7.72,10.82,19.42,25.27,31.84,33.51-.72,3.72-3.65,15.09-13.12,19.96-4.24-1.62-24.78-9.83-38.36-22.01-2.16-1.94-4.2-3.8-5.99-5.45l-1.79-1.63c-7.13-6.58-7.88-17.64-1.71-25.16,3.54-4.29,8.75-6.74,14.31-6.74m0-2c-5.86,0-11.74,2.48-15.85,7.47-6.8,8.3-6,20.6,1.9,27.9,2.3,2.1,4.9,4.5,7.8,7.1,15.6,14,39.8,22.7,39.8,22.7,13.2-6.1,15.2-23.1,15.2-23.1-11.9-7.5-23.7-21.5-32.4-33.7-4.02-5.57-10.22-8.37-16.45-8.37h0Z"/>
        </g>
        <path class="cls-2" d="m151.52,217.27c-1.22,0-2.28-.09-2.35-.09-.5-.04-.86-.48-.82-.97.04-.5.47-.88.97-.82.02,0,2.33.19,3.92,0,1.27-.15,3.4-1.07,4.12-1.42.45-.22.99-.03,1.2.42.22.45.03.99-.42,1.2-.12.06-2.86,1.37-4.69,1.58-.61.07-1.29.1-1.93.1Z"/>
        <path class="cls-2" d="m150.11,225.8c-1.69,0-2.96-.71-3.02-.75-.43-.25-.58-.8-.33-1.23.25-.43.8-.58,1.23-.33,0,0,1.19.65,2.55.49,1.38-.25,2.42-1.09,2.43-1.1.38-.31.95-.26,1.27.12s.26.95-.12,1.26c-.06.05-1.41,1.16-3.32,1.5-.23.03-.46.04-.69.04Z"/>
        <path class="cls-2" d="m147.95,232.04c-.86,0-1.85-.2-2.62-.91-.37-.34-.39-.91-.05-1.27s.91-.39,1.27-.05c.74.68,2.28.38,2.81.21.48-.15.98.1,1.14.57.16.47-.1.98-.57,1.13-.16.05-.99.31-1.98.31Z"/>
      </g>
      <g>
        <g>
          <path class="cls-2" d="m418.14,329.98c-19.1.4-49.1,7.6-67.3,15-18.1,7.4-30.5,14.3-30.5,14.3,0,0,4.3-2.4,9.4,7.4,5.1,9.8,3.3,21.2,3.3,21.2,2.6-.7,64.6-2.6,84.4-5.2,19.8-2.6,42.7-9.8,41.3-29.1-1.4-19.3-18.4-24.6-41.7-28.9-23.4-4.3-36.3-2.5-37.7-2.9-1.4-.3-5.9-2.2-8.3-5.1-2.4-2.9-4.9-10.8-4.9-10.8,0,0-60.4-3.8-66.5,6.4-6,10.2,21.3,39.4,21.3,39.4l97.2-21.7Z"/>
          <path class="cls-2" d="m274.14,304.68s-3.3,7.2-4.5,9.8c-1.2,2.6-28.9,3.6-41.3,3.8-12.4.2-36.7,5.2-38.6,23.1-2.2,20.4,14.9,29.9,45.4,32.1,34.3,2.5,66.1,1.7,72.8,2.4,6.7.7,25.2-7.6,27.3-15.3,2.1-7.7,31.2-13.6,31.2-13.6,0,0,6.4-32-4.1-38.4-10.5-6.5-88.2-3.9-88.2-3.9Z"/>
          <path class="cls-7" d="m335.24,354.28c-.15,0-.31-.04-.45-.12-.57-.33-57.1-32.55-101.41-30.68-.52,0-.92-.37-.94-.86-.02-.5.36-.92.86-.94,44.85-1.85,101.82,30.59,102.39,30.92.43.25.58.8.33,1.23-.17.29-.47.45-.78.45Z"/>
          <path class="cls-2" d="m320.34,359.38s-2.8,1.2-1.2,10.8c1.6,9.6,10.4,19.8,13.9,17.8s1.7-19.4-2.3-25.2c-3.9-5.7-10.4-3.4-10.4-3.4Z"/>
          <g>
            <g>
              <path class="cls-12" d="m313.84,362.58s-5.5,6.7-8,8.6c-2.5,1.9-13.7,2.7-17.8,9.1-4.1,6.4,5.3,21.1,12.9,18.7-2.1,1.3-3.9,2.5-5.3,3.4-6.8,4.6-19.2,11.5-28,1.4-7.4-8.6-4.8-19,.6-25.9,5.4-6.8,19.3-7.7,22.5-8.6,3.2-1,10.5-6.2,13.7-8.1,2.7-1.6,4.7.5,9.4,1.4Z"/>
              <path class="cls-2" d="m278.6,409.97c-4.58,0-8.49-1.84-11.71-5.53-8-9.3-4.7-20.45.57-27.17,4.57-5.76,14.68-7.47,20.11-8.39,1.3-.22,2.32-.39,2.91-.56,2.11-.66,6.54-3.54,9.78-5.65,1.47-.95,2.73-1.78,3.68-2.34,2.15-1.27,3.99-.62,6.13.13,1.12.4,2.39.84,3.97,1.15l1.65.32-1.07,1.3c-.23.28-5.6,6.81-8.17,8.76-.95.72-2.7,1.23-4.91,1.88-4.25,1.24-10.07,2.94-12.65,6.96-2.03,3.16-.08,8.84,2.78,12.58,2.23,2.91,5.75,5.65,8.97,4.63l7.64-2.41-6.81,4.22c-1.48.92-2.81,1.79-3.96,2.53l-1.32.86c-6.65,4.5-12.53,6.75-17.59,6.75Zm27.88-48.37c-.52,0-1,.13-1.52.44-.92.54-2.17,1.36-3.61,2.3-3.52,2.29-7.9,5.15-10.3,5.89-.71.2-1.78.38-3.14.61-5.17.87-14.78,2.5-18.87,7.66-5.02,6.42-7.83,16.26-.62,24.62,6.07,6.97,14.8,6.46,26.68-1.58l1.33-.87c.32-.21.66-.43,1.01-.66-2.52-.61-5.1-2.47-7.35-5.41-3.25-4.25-5.54-10.71-2.88-14.87,2.98-4.66,9.22-6.48,13.77-7.81,1.85-.54,3.61-1.05,4.26-1.55,1.74-1.32,5.1-5.19,6.79-7.2-1.01-.28-1.89-.58-2.64-.85-1.28-.45-2.15-.74-2.92-.74Z"/>
            </g>
            <g>
              <path class="cls-8" d="m333.24,384.68c-.4.1-7.6,1.3-10.6,1.9-2.4.5-13.8,7.2-21.8,12.3-7.6,2.4-17-12.3-12.9-18.7s15.3-7.2,17.8-9.1c2.5-1.9,8-8.6,8-8.6.7.1,1.5.2,2.3.3,6.4.5,9.7-1.7,9.7-1.7,1.2,1.1,2.5,2.9,3.8,5.5,3.6,6.7,3.9,14,3.7,18.1Z"/>
              <path class="cls-2" d="m299.11,400.14c-3.06,0-6.35-1.99-9.13-5.63-3.25-4.25-5.54-10.71-2.88-14.87,2.98-4.66,9.22-6.48,13.77-7.81,1.85-.54,3.61-1.05,4.26-1.55,2.38-1.81,7.78-8.37,7.83-8.44l.36-.43.56.08c.7.1,1.49.2,2.28.3,5.88.45,8.99-1.52,9.03-1.54l.65-.42.58.52c1.38,1.26,2.73,3.21,4.02,5.79,3.76,6.99,4,14.65,3.8,18.6l-.04.74-.72.18c-.17.04-.89.17-2.89.52-2.49.43-5.91,1.03-7.75,1.39-2.08.43-12.98,6.76-21.46,12.16l-.24.11c-.66.21-1.34.31-2.03.31Zm15.05-36.6c-1.28,1.54-5.59,6.65-7.81,8.33-.95.72-2.7,1.23-4.91,1.88-4.25,1.24-10.07,2.94-12.65,6.96-2.03,3.16-.08,8.84,2.78,12.58,2.2,2.87,5.66,5.59,8.86,4.67,7.57-4.82,19.34-11.8,22.02-12.36,1.87-.38,5.31-.97,7.81-1.41.76-.13,1.5-.26,2.02-.35.11-3.91-.31-10.64-3.61-16.79-1.01-2.02-2.07-3.64-3.1-4.74-1.36.66-4.59,1.85-9.6,1.46-.64-.08-1.25-.15-1.81-.23Z"/>
            </g>
          </g>
          <path class="cls-7" d="m320.34,360.18c-.32,0-.62-.17-.79-.46-.24-.43-.09-.98.35-1.22.12-.07,12.65-7.01,30.6-14.35,17.4-7.07,47.45-14.64,67.62-15.07,0,0,.01,0,.02,0,.49,0,.89.39.9.88.01.5-.38.91-.88.92-19.97.42-49.73,7.92-66.98,14.93-17.83,7.29-30.28,14.18-30.4,14.25-.14.08-.29.11-.44.11Z"/>
          <path class="cls-7" d="m196.62,359.6c-1.62,0-3.15-.57-4.13-1.6-.34-.36-.33-.93.03-1.27s.93-.33,1.27.03c.67.7,2.17,1.29,3.88.93,2.3-.48,4.19-2.48,5.32-5.61,1.8-4.94,1.54-12.01-.6-16.45-.89-1.85-2.05-3.06-3.34-3.49-2.37-.76-3.93-.39-4.81.05-.44.22-.98.04-1.21-.4-.22-.44-.04-.98.4-1.21,1.18-.59,3.22-1.1,6.18-.15,1.77.59,3.29,2.12,4.4,4.42,2.33,4.83,2.62,12.5.67,17.85-1.82,5.05-4.94,6.4-6.64,6.76-.48.1-.96.15-1.43.15Z"/>
          <path class="cls-7" d="m450.93,369.57c-1.36,0-3.01-.38-4.94-1.51-2.74-1.64-5.02-5.73-5.81-10.43-.94-5.62.33-10.99,3.48-14.73,2.11-2.54,4.39-3.85,6.76-3.88,3.24,0,5.41,2.37,5.5,2.47.33.37.29.94-.08,1.27-.37.33-.94.29-1.27-.08-.04-.04-1.76-1.87-4.14-1.86-1.82.03-3.63,1.12-5.39,3.24-2.82,3.34-3.94,8.17-3.08,13.27.7,4.2,2.65,7.81,4.95,9.18,4.56,2.67,6.99.26,7.09.15.34-.35.91-.37,1.27-.03.36.34.38.9.04,1.26-.09.1-1.61,1.67-4.37,1.67Z"/>
        </g>
        <g>
          <path class="cls-10" d="m235.84,202.98c-1.1,0-2-.9-2-2s.9-2,2-2,2,.9,2,2-.9,2-2,2Zm0-2.2c-.1,0-.2.1-.2.2,0,.21.4.21.4,0,0-.1-.1-.2-.2-.2Z"/>
          <g>
            <path class="cls-8" d="m258.74,182.28c-2.1,7-4.3,10-4.1,16.4-12.7,3.7-21.1-4.2-21.1-4.2.6-2.7.9-4.8.5-6.1-1.2-4.8-7.7-7-12.2-13s-4.9-16.6-2.7-17.9c1-.6,2-.4,3.5,4.6.9,2.9,2.2,5.5,2.5,5.9-2.1-4.8-3-20.6,2.8-18.2,1.9.8-.3,4.2,2,10.3,2.1,5.8,6,8,6,8,0,0-.7-4.7,1.9-8.4,2.2-3.1,7.8-6.6,8.8-3.3,1.1,3.2-4,4.4-4.4,8.5-.6,4.9,4.9,8.7,8.6,5.5s1.6-6.8,0-9.1c-1.6-2.2-4.1-5.1-2.3-6.4,1.8-1.2,6.3.2,9.5,5.7,3.1,5.4,2.8,14.7.7,21.7Z"/>
            <path class="cls-2" d="m247.85,200.67c-9.05,0-14.7-5.2-14.99-5.47l-.41-.39.12-.56c.44-1.97.89-4.38.52-5.59-.6-2.41-2.82-4.19-5.38-6.25-2.16-1.74-4.61-3.7-6.67-6.45-3.74-4.99-4.7-12.82-3.95-16.56.28-1.42.8-2.36,1.55-2.8.66-.4,1.31-.48,1.91-.25.75.29,1.38,1.06,2.02,2.5-.11-3.9.42-7.73,2.03-9.37.98-1,2.31-1.23,3.73-.64,1.52.64,1.5,2.18,1.47,3.82-.03,1.69-.07,4.01,1.08,7.05,1.12,3.08,2.77,5.08,3.99,6.24.07-1.84.51-4.52,2.16-6.86,1.66-2.34,5.59-5.48,8.37-5.01.72.12,1.3.47,1.72,1.01.17-.41.46-.76.85-1.04.89-.59,2.09-.74,3.42-.43,2.78.65,5.53,2.99,7.53,6.44,3.4,5.93,2.8,15.81.79,22.49h0c-.64,2.13-1.3,3.92-1.87,5.49-1.35,3.66-2.32,6.31-2.18,10.59l.02.77-.74.22c-2.54.74-4.9,1.04-7.07,1.04Zm-13.2-6.57c1.76,1.44,8.81,6.45,18.98,3.81,0-4.22,1.03-7.04,2.32-10.55.57-1.55,1.21-3.3,1.83-5.38h0c1.88-6.28,2.5-15.5-.61-20.92-1.7-2.92-4.04-4.98-6.25-5.49-.76-.18-1.44-.13-1.83.12-.13.1-.16.19-.17.28-.13.86,1.25,2.72,2.17,3.96.19.26.38.51.55.75,1.23,1.77,4.48,6.44-.15,10.45-1.88,1.62-4.34,1.88-6.58.69-2.55-1.36-4.02-4.2-3.67-7.06.22-2.3,1.71-3.81,2.9-5.02,1.36-1.39,1.88-2.05,1.55-3.03-.14-.48-.35-.6-.62-.64-1.5-.25-4.8,1.91-6.42,4.19-2.33,3.31-1.73,7.63-1.73,7.67l.29,2.01-1.77-1c-.17-.1-4.25-2.45-6.45-8.53-1.28-3.39-1.23-6.03-1.21-7.78.02-1.27,0-1.84-.24-1.94-.84-.35-1.25-.09-1.53.2-2.31,2.36-1.68,12.76.04,16.68l3.45,7.89-5.17-6.89c-.44-.58-1.78-3.38-2.66-6.2-1.08-3.6-1.74-4.08-1.85-4.13,0,0-.06.03-.18.1-.1.06-.4.44-.61,1.47-.66,3.29.25,10.51,3.59,14.97,1.91,2.54,4.25,4.43,6.32,6.09,2.84,2.29,5.3,4.26,6.05,7.27.37,1.2.27,2.96-.37,5.97Zm12.97-35.74c-.37,1.07-1.24,1.95-2.04,2.76-1.07,1.09-2.18,2.22-2.34,3.84-.29,2.4,1.11,4.27,2.62,5.08.71.38,2.56,1.1,4.33-.44,2.88-2.49,1.62-5.21-.17-7.77-.16-.22-.34-.46-.53-.71-.69-.92-1.38-1.85-1.88-2.77Z"/>
          </g>
          <g>
            <path class="cls-12" d="m279.04,253.98s-22.5,28.4-37.3,34.8c-14.8,6.4-24.8,1.9-27.7-13.6-2.9-15.5,6.3-43.2,10.3-53.4,2.9-7.6,7.5-19.6,9.2-27.2,0,0,8.5,7.8,21.1,4.2.1,6.1-2.7,28.6-3,30.7.1-.7,1.3-4,9.7-15.8,9.7-13.5,19.4-19.4,19.4-19.4,0,0,8.2,3.9,10.6,22.2,2.3,18.4-12.3,37.5-12.3,37.5Z"/>
            <path class="cls-2" d="m230.02,292.6c-2.8,0-5.32-.59-7.54-1.77-4.81-2.56-7.98-7.76-9.42-15.47-2.75-14.72,5.21-40.84,10.35-53.95l.14-.38c2.93-7.67,7.35-19.27,9.01-26.68l.38-1.68,1.27,1.16c.08.08,8.27,7.37,20.15,3.98l1.25-.36.02,1.3c.07,4.5-1.37,17.4-2.28,25.05,1.47-2.43,3.72-5.87,7.17-10.71,9.71-13.51,19.29-19.43,19.69-19.67l.46-.28.49.23c.35.17,8.72,4.35,11.16,22.97,2.32,18.6-11.89,37.44-12.5,38.24h-.01c-.92,1.18-22.83,28.68-37.69,35.11-4.48,1.94-8.53,2.91-12.12,2.91Zm4.13-96.27c-1.9,7.52-5.97,18.2-8.73,25.42l-.15.39c-5.07,12.92-12.92,38.58-10.25,52.86,1.32,7.08,4.15,11.81,8.39,14.07,4.51,2.4,10.54,1.99,17.93-1.2,14.32-6.19,36.43-33.9,36.91-34.5.33-.43,14.3-19.11,12.1-36.76-1.96-14.95-7.9-19.99-9.59-21.14-2.09,1.4-10.39,7.37-18.61,18.8-9.06,12.73-9.51,15.26-9.52,15.36h0s-1.98-.28-1.98-.28c0,0,0,0,0,0,.34-2.4,2.75-22,2.98-29.26-9.62,2.24-16.69-1.75-19.48-3.74Z"/>
          </g>
          <path class="cls-2" d="m247.44,264.28c-.11,0-.22-.02-.33-.06-.46-.18-.69-.71-.5-1.17,3.2-8.06,4.13-33.35,4.14-33.6.02-.5.44-.88.93-.87.5.02.89.43.87.93-.04,1.05-.94,25.85-4.26,34.2-.14.35-.48.57-.84.57Z"/>
          <path class="cls-2" d="m237.44,173.48c-.27,0-.54-.12-.72-.36-1.32-1.76-1.75-4.69-1.77-4.81-.07-.49.27-.95.76-1.02.49-.07.95.27,1.02.76,0,.03.38,2.59,1.43,3.99.3.4.22.96-.18,1.26-.16.12-.35.18-.54.18Z"/>
          <path class="cls-2" d="m247.99,209.62c-12.72,0-17.28-6.32-17.49-6.63-.28-.41-.18-.97.23-1.25.41-.28.97-.18,1.25.22.09.12,5.72,7.7,21.94,5.42.49-.07.95.27,1.02.77.07.49-.27.95-.77,1.02-2.24.31-4.3.45-6.17.45Z"/>
          <path class="cls-2" d="m237.84,291.08c-.27,0-.55-.13-.72-.36-.3-.4-.21-.96.19-1.26,2.91-2.16,1.99-5.46,1.19-7.23-2.26-4.99-8.71-9.69-14.36-8.47-2.67.58-4.56,1.78-5.62,3.56-1.69,2.85-.72,6.28-.71,6.31.14.48-.13.98-.61,1.12-.48.14-.98-.13-1.12-.61-.05-.17-1.2-4.22.89-7.73,1.32-2.22,3.6-3.7,6.78-4.4,6.58-1.43,13.78,3.75,16.38,9.48,1.75,3.86,1.11,7.29-1.75,9.42-.16.12-.35.18-.54.18Z"/>
          <path class="cls-2" d="m231.54,177.28c-.34,0-.67-.19-.82-.52-.37-.79-1.17-1.52-1.94-2.22-.31-.28-.6-.55-.88-.82-2.49-2.49-3.64-5.07-3.69-5.17-.2-.45,0-.98.46-1.18.45-.2.99,0,1.19.46.01.02,1.07,2.39,3.31,4.63.25.25.53.5.81.76.87.79,1.85,1.67,2.37,2.8.21.45.01.99-.44,1.19-.12.06-.25.08-.38.08Z"/>
        </g>
        <path class="cls-2" d="m344.44,107.68c11.4,2.9,16.8,9.4,16.3,25.8s-2.7,22.3,5.1,31.4c7.8,9,9.9,21.9-4.9,30-14.8,8.1-47.2,10.2-63.3,0-16.1-10.2-18-21.1-13.2-31.8,4.8-10.7,17.6-17.7,14.8-25.4-2.8-7.8.6.7.6.7,0,0-8.4-6.1-7.7-18.3.6-12.2,15.6-16.8,23.4-17.2,4-.2,8.3,2.3,14.2,3.3,5.9.8,11.8.8,14.7,1.5Z"/>
        <g>
          <path class="cls-8" d="m320.54,185.48s-21.6,1.2-34.2,5.7-10.3,14.5-11.9,25c-1.7,10.5-11.9,21.2-6.7,35.5,5.2,14.3,10.3,22.4,7.6,33.4-2.6,11-5.2,16.5-4.8,19.6.5,3.1,14.8,12.6,20.3,14.5,5.5,1.9,16.2-5.7,16.2-5.7,0,0,5.5,7.2,13.5,8.8,8,1.7,40.4-6.7,47.8-15,0,0-4.8-9.3-5-20.5s6.3-25.1,8.7-32.8c2.3-7.7,15.9-37.4,10.6-47.3-3.8-7.1-32.2-23.1-62.1-21.2Z"/>
          <path class="cls-2" d="m323.26,323.5c-1.15,0-2.14-.08-2.93-.25-6.81-1.36-11.81-6.5-13.48-8.44-2.63,1.75-11.26,7.06-16.34,5.31-5.39-1.86-20.35-11.5-20.96-15.29-.26-2.04.55-4.77,1.78-8.89.87-2.9,1.95-6.52,3.03-11.1,2.06-8.4-.64-15.17-4.38-24.55-1.03-2.59-2.1-5.27-3.19-8.27-3.61-9.93-.05-18.25,3.09-25.59,1.55-3.62,3.02-7.05,3.56-10.41.31-2.07.48-4.14.64-6.15.64-8.13,1.24-15.82,11.92-19.63,12.57-4.49,33.51-5.7,34.48-5.76,30.39-1.94,59.09,14.34,63.04,21.73,4.42,8.25-3.32,28.69-7.94,40.9-1.19,3.13-2.12,5.6-2.59,7.16-.59,1.89-1.43,4.18-2.32,6.59-2.89,7.84-6.48,17.59-6.34,25.9.19,10.84,4.84,19.97,4.89,20.06l.32.61-.46.51c-6.95,7.79-34.42,15.56-45.83,15.56Zm-16.01-11.4l.59.77c.05.07,5.38,6.92,12.9,8.43,7.5,1.59,38.54-6.47,46.4-14.21-1.1-2.33-4.62-10.55-4.8-20.3-.15-8.68,3.51-18.63,6.46-26.63.88-2.39,1.71-4.65,2.29-6.49.48-1.62,1.43-4.12,2.63-7.29,4.21-11.11,12.03-31.79,8.04-39.25-3.67-6.85-32.01-22.54-61.15-20.67h0c-.21.01-21.6,1.25-33.92,5.64-9.46,3.38-9.96,9.79-10.59,17.9-.16,2.04-.33,4.16-.65,6.31-.59,3.62-2.1,7.15-3.7,10.89-3.14,7.34-6.39,14.94-3.05,24.12,1.08,2.98,2.14,5.64,3.17,8.22,3.87,9.73,6.67,16.75,4.46,25.76-1.09,4.62-2.18,8.27-3.06,11.2-1.16,3.88-1.93,6.44-1.72,8.04.37,2.3,13.77,11.66,19.63,13.68,4.11,1.42,12.43-3.54,15.29-5.57l.79-.56Z"/>
        </g>
        <g class="cls-13">
          <g>
            <g>
              <path class="cls-2" d="m266.14,316.58l1,1.2c.7.9.5,2.1-.3,2.8l-1.2,1c-.9.7-2.1.5-2.8-.3l-1-1.2c-.7-.9-.5-2.1.3-2.8l1.2-1c.9-.7,2.1-.6,2.8.3Z"/>
              <path class="cls-2" d="m268.24,298.48l1,1.2c.7.9.5,2.1-.3,2.8l-1.2,1c-.9.7-2.1.5-2.8-.3l-1-1.2c-.7-.9-.5-2.1.3-2.8l1.2-1c.9-.7,2.2-.5,2.8.3Z"/>
              <path class="cls-2" d="m270.44,280.48l1,1.2c.7.9.5,2.1-.3,2.8l-1.2,1c-.9.7-2.1.5-2.8-.3l-1-1.2c-.7-.9-.5-2.1.3-2.8l1.2-1c.8-.8,2.1-.6,2.8.3Z"/>
              <path class="cls-2" d="m272.54,262.38l1,1.2c.7.9.5,2.1-.3,2.8l-1.2,1c-.9.7-2.1.5-2.8-.3l-1-1.2c-.7-.9-.5-2.1.3-2.8l1.2-1c.8-.7,2.1-.6,2.8.3Z"/>
              <path class="cls-2" d="m274.64,244.28l1,1.2c.7.9.5,2.1-.3,2.8l-1.2,1c-.9.7-2.1.5-2.8-.3l-1-1.2c-.7-.9-.5-2.1.3-2.8l1.2-1c.9-.7,2.1-.5,2.8.3Z"/>
            </g>
            <g>
              <path class="cls-2" d="m282.44,318.48l1,1.2c.7.9.5,2.1-.3,2.8l-1.2,1c-.9.7-2.1.5-2.8-.3l-1-1.2c-.7-.9-.5-2.1.3-2.8l1.2-1c.9-.7,2.1-.6,2.8.3Z"/>
              <path class="cls-2" d="m284.54,300.38l1,1.2c.7.9.5,2.1-.3,2.8l-1.2,1c-.9.7-2.1.5-2.8-.3l-1-1.2c-.7-.9-.5-2.1.3-2.8l1.2-1c.9-.7,2.1-.5,2.8.3Z"/>
              <path class="cls-2" d="m286.64,282.38l1,1.2c.7.9.5,2.1-.3,2.8l-1.2,1c-.9.7-2.1.5-2.8-.3l-1-1.2c-.7-.9-.5-2.1.3-2.8l1.2-1c.9-.7,2.2-.6,2.8.3Z"/>
              <path class="cls-2" d="m288.84,264.28l1,1.2c.7.9.5,2.1-.3,2.8l-1.2,1c-.9.7-2.1.5-2.8-.3l-1-1.2c-.7-.9-.5-2.1.3-2.8l1.2-1c.8-.7,2.1-.6,2.8.3Z"/>
              <path class="cls-2" d="m290.94,246.18l1,1.2c.7.9.5,2.1-.3,2.8l-1.2,1c-.9.7-2.1.5-2.8-.3l-1-1.2c-.7-.9-.5-2.1.3-2.8l1.2-1c.8-.7,2.1-.5,2.8.3Z"/>
            </g>
            <g>
              <path class="cls-2" d="m298.74,320.38l1,1.2c.7.9.5,2.1-.3,2.8l-1.2,1c-.9.7-2.1.5-2.8-.3l-1-1.2c-.7-.9-.5-2.1.3-2.8l1.2-1c.8-.7,2.1-.6,2.8.3Z"/>
              <path class="cls-2" d="m300.84,302.28l1,1.2c.7.9.5,2.1-.3,2.8l-1.2,1c-.9.7-2.1.5-2.8-.3l-1-1.2c-.7-.9-.5-2.1.3-2.8l1.2-1c.8-.7,2.1-.5,2.8.3Z"/>
              <path class="cls-2" d="m302.94,284.28l1,1.2c.7.9.5,2.1-.3,2.8l-1.2,1c-.9.7-2.1.5-2.8-.3l-1-1.2c-.7-.9-.5-2.1.3-2.8l1.2-1c.9-.7,2.1-.6,2.8.3Z"/>
              <path class="cls-2" d="m305.04,266.18l1,1.2c.7.9.5,2.1-.3,2.8l-1.2,1c-.9.7-2.1.5-2.8-.3l-1-1.2c-.7-.9-.5-2.1.3-2.8l1.2-1c.9-.7,2.1-.6,2.8.3Z"/>
              <path class="cls-2" d="m307.14,248.08l1,1.2c.7.9.5,2.1-.3,2.8l-1.2,1c-.9.7-2.1.5-2.8-.3l-1-1.2c-.7-.9-.5-2.1.3-2.8l1.2-1c.9-.7,2.2-.5,2.8.3Z"/>
            </g>
            <g>
              <path class="cls-2" d="m314.94,322.28l1,1.2c.7.9.5,2.1-.3,2.8l-1.2,1c-.9.7-2.1.5-2.8-.3l-1-1.2c-.7-.9-.5-2.1.3-2.8l1.2-1c.9-.7,2.1-.5,2.8.3Z"/>
              <path class="cls-2" d="m317.14,304.28l1,1.2c.7.9.5,2.1-.3,2.8l-1.2,1c-.9.7-2.1.5-2.8-.3l-1-1.2c-.7-.9-.5-2.1.3-2.8l1.2-1c.8-.8,2.1-.6,2.8.3Z"/>
              <path class="cls-2" d="m319.24,286.18l1,1.2c.7.9.5,2.1-.3,2.8l-1.2,1c-.9.7-2.1.5-2.8-.3l-1-1.2c-.7-.9-.5-2.1.3-2.8l1.2-1c.8-.7,2.1-.6,2.8.3Z"/>
              <path class="cls-2" d="m321.34,268.08l1,1.2c.7.9.5,2.1-.3,2.8l-1.2,1c-.9.7-2.1.5-2.8-.3l-1-1.2c-.7-.9-.5-2.1.3-2.8l1.2-1c.8-.7,2.1-.5,2.8.3Z"/>
              <path class="cls-2" d="m323.44,250.08l1,1.2c.7.9.5,2.1-.3,2.8l-1.2,1c-.9.7-2.1.5-2.8-.3l-1-1.2c-.7-.9-.5-2.1.3-2.8l1.2-1c.9-.8,2.1-.6,2.8.3Z"/>
            </g>
            <g>
              <path class="cls-2" d="m331.24,324.18l1,1.2c.7.9.5,2.1-.3,2.8l-1.2,1c-.9.7-2.1.5-2.8-.3l-1-1.2c-.7-.9-.5-2.1.3-2.8l1.2-1c.9-.7,2.1-.5,2.8.3Z"/>
              <path class="cls-2" d="m333.34,306.18l1,1.2c.7.9.5,2.1-.3,2.8l-1.2,1c-.9.7-2.1.5-2.8-.3l-1-1.2c-.7-.9-.5-2.1.3-2.8l1.2-1c.9-.8,2.1-.6,2.8.3Z"/>
              <path class="cls-2" d="m335.44,288.08l1,1.2c.7.9.5,2.1-.3,2.8l-1.2,1c-.9.7-2.1.5-2.8-.3l-1-1.2c-.7-.9-.5-2.1.3-2.8l1.2-1c.9-.7,2.2-.6,2.8.3Z"/>
              <path class="cls-2" d="m337.64,269.98l1,1.2c.7.9.5,2.1-.3,2.8l-1.2,1c-.9.7-2.1.5-2.8-.3l-1-1.2c-.7-.9-.5-2.1.3-2.8l1.2-1c.8-.7,2.1-.5,2.8.3Z"/>
              <path class="cls-2" d="m339.74,251.98l1,1.2c.7.9.5,2.1-.3,2.8l-1.2,1c-.9.7-2.1.5-2.8-.3l-1-1.2c-.7-.9-.5-2.1.3-2.8l1.2-1c.8-.7,2.1-.6,2.8.3Z"/>
            </g>
            <g>
              <path class="cls-2" d="m347.54,326.08l1,1.2c.7.9.5,2.1-.3,2.8l-1.2,1c-.9.7-2.1.5-2.8-.3l-1-1.2c-.7-.9-.5-2.1.3-2.8l1.2-1c.8-.7,2.1-.5,2.8.3Z"/>
              <path class="cls-2" d="m349.64,308.08l1,1.2c.7.9.5,2.1-.3,2.8l-1.2,1c-.9.7-2.1.5-2.8-.3l-1-1.2c-.7-.9-.5-2.1.3-2.8l1.2-1c.8-.7,2.1-.6,2.8.3Z"/>
              <path class="cls-2" d="m351.74,289.98l1,1.2c.7.9.5,2.1-.3,2.8l-1.2,1c-.9.7-2.1.5-2.8-.3l-1-1.2c-.7-.9-.5-2.1.3-2.8l1.2-1c.9-.7,2.1-.6,2.8.3Z"/>
              <path class="cls-2" d="m353.84,271.88l1,1.2c.7.9.5,2.1-.3,2.8l-1.2,1c-.9.7-2.1.5-2.8-.3l-1-1.2c-.7-.9-.5-2.1.3-2.8l1.2-1c.9-.7,2.1-.5,2.8.3Z"/>
              <path class="cls-2" d="m355.94,253.88l1,1.2c.7.9.5,2.1-.3,2.8l-1.2,1c-.9.7-2.1.5-2.8-.3l-1-1.2c-.7-.9-.5-2.1.3-2.8l1.2-1c.9-.7,2.2-.6,2.8.3Z"/>
            </g>
            <g>
              <path class="cls-2" d="m363.74,327.98l1,1.2c.7.9.5,2.1-.3,2.8l-1.2,1c-.9.7-2.1.5-2.8-.3l-1-1.2c-.7-.9-.5-2.1.3-2.8l1.2-1c.9-.7,2.2-.5,2.8.3Z"/>
              <path class="cls-2" d="m365.94,309.98l1,1.2c.7.9.5,2.1-.3,2.8l-1.2,1c-.9.7-2.1.5-2.8-.3l-1-1.2c-.7-.9-.5-2.1.3-2.8l1.2-1c.8-.7,2.1-.6,2.8.3Z"/>
              <path class="cls-2" d="m368.04,291.88l1,1.2c.7.9.5,2.1-.3,2.8l-1.2,1c-.9.7-2.1.5-2.8-.3l-1-1.2c-.7-.9-.5-2.1.3-2.8l1.2-1c.8-.7,2.1-.6,2.8.3Z"/>
              <path class="cls-2" d="m370.14,273.78l1,1.2c.7.9.5,2.1-.3,2.8l-1.2,1c-.9.7-2.1.5-2.8-.3l-1-1.2c-.7-.9-.5-2.1.3-2.8l1.2-1c.9-.7,2.1-.5,2.8.3Z"/>
              <path class="cls-2" d="m372.24,255.78l1,1.2c.7.9.5,2.1-.3,2.8l-1.2,1c-.9.7-2.1.5-2.8-.3l-1-1.2c-.7-.9-.5-2.1.3-2.8l1.2-1c.9-.7,2.1-.6,2.8.3Z"/>
            </g>
            <g>
              <g>
                <path class="cls-2" d="m276.74,226.28l1,1.2c.7.9.5,2.1-.3,2.8l-1.2,1c-.9.7-2.1.5-2.8-.3l-1-1.2c-.7-.9-.5-2.1.3-2.8l1.2-1c.9-.8,2.1-.6,2.8.3Z"/>
                <path class="cls-2" d="m278.84,208.18l1,1.2c.7.9.5,2.1-.3,2.8l-1.2,1c-.9.7-2.1.5-2.8-.3l-1-1.2c-.7-.9-.5-2.1.3-2.8l1.2-1c.9-.7,2.2-.6,2.8.3Z"/>
                <path class="cls-2" d="m281.04,190.08l1,1.2c.7.9.5,2.1-.3,2.8l-1.2,1c-.9.7-2.1.5-2.8-.3l-1-1.2c-.7-.9-.5-2.1.3-2.8l1.2-1c.8-.7,2.1-.5,2.8.3Z"/>
                <path class="cls-2" d="m283.14,172.08l1,1.2c.7.9.5,2.1-.3,2.8l-1.2,1c-.9.7-2.1.5-2.8-.3l-1-1.2c-.7-.9-.5-2.1.3-2.8l1.2-1c.8-.7,2.1-.6,2.8.3Z"/>
              </g>
              <g>
                <path class="cls-2" d="m293.04,228.18l1,1.2c.7.9.5,2.1-.3,2.8l-1.2,1c-.9.7-2.1.5-2.8-.3l-1-1.2c-.7-.9-.5-2.1.3-2.8l1.2-1c.9-.7,2.1-.6,2.8.3Z"/>
                <path class="cls-2" d="m295.14,210.08l1,1.2c.7.9.5,2.1-.3,2.8l-1.2,1c-.9.7-2.1.5-2.8-.3l-1-1.2c-.7-.9-.5-2.1.3-2.8l1.2-1c.9-.7,2.1-.6,2.8.3Z"/>
                <path class="cls-2" d="m297.24,191.98l1,1.2c.7.9.5,2.1-.3,2.8l-1.2,1c-.9.7-2.1.5-2.8-.3l-1-1.2c-.7-.9-.5-2.1.3-2.8l1.2-1c.9-.7,2.1-.5,2.8.3Z"/>
                <path class="cls-2" d="m299.44,173.98l1,1.2c.7.9.5,2.1-.3,2.8l-1.2,1c-.9.7-2.1.5-2.8-.3l-1-1.2c-.7-.9-.5-2.1.3-2.8l1.2-1c.8-.7,2.1-.6,2.8.3Z"/>
              </g>
              <g>
                <path class="cls-2" d="m309.34,230.08l1,1.2c.7.9.5,2.1-.3,2.8l-1.2,1c-.9.7-2.1.5-2.8-.3l-1-1.2c-.7-.9-.5-2.1.3-2.8l1.2-1c.8-.7,2.1-.6,2.8.3Z"/>
                <path class="cls-2" d="m311.44,211.98l1,1.2c.7.9.5,2.1-.3,2.8l-1.2,1c-.9.7-2.1.5-2.8-.3l-1-1.2c-.7-.9-.5-2.1.3-2.8l1.2-1c.8-.7,2.1-.6,2.8.3Z"/>
                <path class="cls-2" d="m313.54,193.88l1,1.2c.7.9.5,2.1-.3,2.8l-1.2,1c-.9.7-2.1.5-2.8-.3l-1-1.2c-.7-.9-.5-2.1.3-2.8l1.2-1c.9-.7,2.1-.5,2.8.3Z"/>
                <path class="cls-2" d="m315.64,175.88l1,1.2c.7.9.5,2.1-.3,2.8l-1.2,1c-.9.7-2.1.5-2.8-.3l-1-1.2c-.7-.9-.5-2.1.3-2.8l1.2-1c.9-.7,2.1-.6,2.8.3Z"/>
              </g>
              <g>
                <path class="cls-2" d="m325.54,231.98l1,1.2c.7.9.5,2.1-.3,2.8l-1.2,1c-.9.7-2.1.5-2.8-.3l-1-1.2c-.7-.9-.5-2.1.3-2.8l1.2-1c.9-.7,2.1-.6,2.8.3Z"/>
                <path class="cls-2" d="m327.74,213.88l1,1.2c.7.9.5,2.1-.3,2.8l-1.2,1c-.9.7-2.1.5-2.8-.3l-1-1.2c-.7-.9-.5-2.1.3-2.8l1.2-1c.8-.7,2.1-.5,2.8.3Z"/>
                <path class="cls-2" d="m329.84,195.88l1,1.2c.7.9.5,2.1-.3,2.8l-1.2,1c-.9.7-2.1.5-2.8-.3l-1-1.2c-.7-.9-.5-2.1.3-2.8l1.2-1c.8-.8,2.1-.6,2.8.3Z"/>
                <path class="cls-2" d="m331.94,177.78l1,1.2c.7.9.5,2.1-.3,2.8l-1.2,1c-.9.7-2.1.5-2.8-.3l-1-1.2c-.7-.9-.5-2.1.3-2.8l1.2-1c.8-.7,2.1-.6,2.8.3Z"/>
              </g>
              <g>
                <path class="cls-2" d="m341.84,233.88l1,1.2c.7.9.5,2.1-.3,2.8l-1.2,1c-.9.7-2.1.5-2.8-.3l-1-1.2c-.7-.9-.5-2.1.3-2.8l1.2-1c.9-.7,2.1-.6,2.8.3Z"/>
                <path class="cls-2" d="m343.94,215.78l1,1.2c.7.9.5,2.1-.3,2.8l-1.2,1c-.9.7-2.1.5-2.8-.3l-1-1.2c-.7-.9-.5-2.1.3-2.8l1.2-1c.9-.7,2.1-.5,2.8.3Z"/>
                <path class="cls-2" d="m346.04,197.78l1,1.2c.7.9.5,2.1-.3,2.8l-1.2,1c-.9.7-2.1.5-2.8-.3l-1-1.2c-.7-.9-.5-2.1.3-2.8l1.2-1c.9-.7,2.2-.6,2.8.3Z"/>
                <path class="cls-2" d="m348.24,179.68l1,1.2c.7.9.5,2.1-.3,2.8l-1.2,1c-.9.7-2.1.5-2.8-.3l-1-1.2c-.7-.9-.5-2.1.3-2.8l1.2-1c.8-.7,2.1-.6,2.8.3Z"/>
              </g>
              <g>
                <path class="cls-2" d="m358.14,235.78l1,1.2c.7.9.5,2.1-.3,2.8l-1.2,1c-.9.7-2.1.5-2.8-.3l-1-1.2c-.7-.9-.5-2.1.3-2.8l1.2-1c.8-.7,2.1-.6,2.8.3Z"/>
                <path class="cls-2" d="m360.24,217.68l1,1.2c.7.9.5,2.1-.3,2.8l-1.2,1c-.9.7-2.1.5-2.8-.3l-1-1.2c-.7-.9-.5-2.1.3-2.8l1.2-1c.8-.7,2.1-.5,2.8.3Z"/>
                <path class="cls-2" d="m362.34,199.68l1,1.2c.7.9.5,2.1-.3,2.8l-1.2,1c-.9.7-2.1.5-2.8-.3l-1-1.2c-.7-.9-.5-2.1.3-2.8l1.2-1c.9-.7,2.1-.6,2.8.3Z"/>
                <path class="cls-2" d="m364.44,181.58l1,1.2c.7.9.5,2.1-.3,2.8l-1.2,1c-.9.7-2.1.5-2.8-.3l-1-1.2c-.7-.9-.5-2.1.3-2.8l1.2-1c.9-.7,2.1-.6,2.8.3Z"/>
              </g>
              <g>
                <path class="cls-2" d="m374.34,237.68l1,1.2c.7.9.5,2.1-.3,2.8l-1.2,1c-.9.7-2.1.5-2.8-.3l-1-1.2c-.7-.9-.5-2.1.3-2.8l1.2-1c.9-.7,2.2-.6,2.8.3Z"/>
                <path class="cls-2" d="m376.54,219.68l1,1.2c.7.9.5,2.1-.3,2.8l-1.2,1c-.9.7-2.1.5-2.8-.3l-1-1.2c-.7-.9-.5-2.1.3-2.8l1.2-1c.8-.8,2.1-.6,2.8.3Z"/>
                <path class="cls-2" d="m378.64,201.58l1,1.2c.7.9.5,2.1-.3,2.8l-1.2,1c-.9.7-2.1.5-2.8-.3l-1-1.2c-.7-.9-.5-2.1.3-2.8l1.2-1c.8-.7,2.1-.6,2.8.3Z"/>
                <path class="cls-2" d="m380.74,183.48l1,1.2c.7.9.5,2.1-.3,2.8l-1.2,1c-.9.7-2.1.5-2.8-.3l-1-1.2c-.7-.9-.5-2.1.3-2.8l1.2-1c.9-.7,2.1-.5,2.8.3Z"/>
              </g>
            </g>
          </g>
        </g>
        <g>
          <g>
            <path class="cls-12" d="m383.04,207.78s10.3,10.3,18.4,27c0,0,.5-34.6,1.2-37,0,0,10.7,2.6,21.5-1.7,0,0,2.9,26.7,7.2,47,4.3,20.3,9.1,50.6-5.5,54.6-14.5,4.1-27.9-5.2-45.6-28.9-17.6-23.6-16.2-35.5-16.2-41.5-.1-7.1,9.5-25.3,19-19.5Z"/>
            <path class="cls-2" d="m419.2,299.63c-12.08,0-24.13-9.33-39.76-30.26-16.67-22.36-16.5-34.41-16.41-40.88,0-.43.01-.84.01-1.22-.08-5.33,4.88-16.47,11.61-20.31,3.04-1.73,6.12-1.75,8.91-.05l.19.15c.1.1,9.02,9.11,16.76,23.66.16-9.46.58-31.2,1.18-33.23l.27-.92.93.22c.1.03,10.53,2.47,20.89-1.66l1.22-.49.14,1.31c.03.27,2.94,26.88,7.18,46.9,4.65,21.94,9.06,51.59-6.21,55.77-2.32.66-4.61.99-6.9.99Zm-39.96-91.97c-1.17,0-2.37.35-3.59,1.05-5.84,3.33-10.67,13.77-10.6,18.56,0,.4,0,.82-.01,1.26-.09,6.24-.25,17.85,16.01,39.66,18.01,24.12,30.91,32.38,44.53,28.54,15.23-4.17,7.37-41.25,4.79-53.43-3.73-17.6-6.43-40.25-7.07-45.82-8.67,3.07-16.93,2.02-19.82,1.5-.44,4.58-.85,23.69-1.03,35.82l-.06,4.21-1.84-3.79c-7.54-15.56-17.13-25.63-18.12-26.64-1.03-.61-2.09-.91-3.18-.91Z"/>
          </g>
          <path class="cls-2" d="m403.34,270.88c-.42,0-.8-.3-.88-.73-2.59-13.54-1.92-35.08-1.92-35.3.02-.5.44-.9.93-.87.5.02.89.43.87.93,0,.21-.67,21.56,1.88,34.9.09.49-.23.96-.71,1.05-.06.01-.11.02-.17.02Z"/>
          <path class="cls-2" d="m411.15,209.31c-5.18,0-9.08-1.19-9.37-1.28-.47-.15-.74-.65-.59-1.13.15-.48.65-.74,1.13-.59.12.04,12.53,3.79,22.25-2.4.42-.27.98-.15,1.24.28.27.42.14.98-.27,1.24-4.77,3.04-10.02,3.88-14.38,3.88Z"/>
          <path class="cls-2" d="m420.04,204.08c-1.1,0-2-.9-2-2s.9-2,2-2,2,.86,2,2-.9,2-2,2Zm0-2.2c-.1,0-.2.1-.2.2,0,.21.4.21.4,0,0-.19-.08-.2-.2-.2Z"/>
          <g>
            <path class="cls-8" d="m423.34,196.48s-1-7.1,3.8-9.4c4.8-2.3,9.2-1.2,14.1-4.8,4.9-3.5,13.2-15,12.9-17.5-.4-2.5-2.1-1.4-5.4,1.3-3.2,2.7-4.8,3.3-4.8,3.3,0,0,2-6.8,1.1-11.8-1-5-4.3-5.6-5.1-5.1s0,2.6-.2,6.6c-.2,3.9-1.4,7.3-4.9,9.8,0,0,.8-3.2-.7-7-1.6-3.8-4.3-6.3-6.4-5.7-2.1.6-1.4,2.2-.4,4.4,1.1,2.2,2.6,6.2-1.6,10.4-4.2,4.2-11,0-8.7-5.6,2.3-5.6,5.8-6.9,7.6-8.4s1.3-4.2-2.5-3.6c-3.8.6-10.3,5.2-14.1,10.3-3.8,5-4.9,12-5,18.8s-.4,15.5-.4,15.5c0,0,2.5,3.1,8,3.1,5.5-.1,12.7-2.1,12.7-4.6Z"/>
            <path class="cls-2" d="m410.66,202.08c-5.93,0-8.68-3.33-8.8-3.47l-.23-.29v-.37c.02-.09.31-8.77.41-15.48.13-8.61,1.83-14.95,5.2-19.39,3.82-5.13,10.57-10.02,14.74-10.68,3.12-.49,4.13.96,4.43,1.61.22.49.28,1.03.19,1.57.25-.14.54-.26.86-.35,2.6-.74,5.73,1.84,7.6,6.27.75,1.89.97,3.64.99,4.99,1.68-1.87,2.53-4.25,2.69-7.45.08-1.68-.01-2.99-.09-4.04-.12-1.6-.2-2.75.76-3.35.66-.41,1.71-.39,2.74.05,1.12.48,3.11,1.87,3.88,5.7.61,3.38-.02,7.45-.55,9.95.69-.47,1.56-1.12,2.62-2.02,2.58-2.11,4.24-3.35,5.65-2.81,1.11.42,1.32,1.7,1.38,2.12.39,3.26-8.51,15.04-13.31,18.47-3.02,2.22-5.86,2.75-8.6,3.27-1.93.36-3.75.71-5.65,1.62-4.07,1.95-3.25,8.3-3.24,8.36v.14c0,3.78-8.9,5.51-13.67,5.6Zm-7-4.48c.69.68,2.92,2.48,6.99,2.48,5.95-.11,11.57-2.27,11.7-3.55-.11-.93-.77-7.88,4.37-10.35,2.13-1.02,4.17-1.41,6.14-1.78,2.64-.5,5.14-.97,7.8-2.93,4.92-3.51,12.71-14.72,12.5-16.58-.05-.29-.11-.45-.15-.52-.69.08-2.81,1.81-3.63,2.47-3.23,2.72-4.9,3.39-5.08,3.46l-1.88.7.56-1.92c.02-.07,1.92-6.64,1.08-11.34-.53-2.65-1.73-3.7-2.4-4.08-.48-.28-.86-.33-1.08-.34-.03.32.02.94.06,1.5.08,1.05.18,2.49.09,4.29-.25,4.79-1.93,8.15-5.32,10.56l-2.21,1.58.66-2.63s.69-2.96-.66-6.39c-1.53-3.63-3.88-5.48-5.19-5.11-.33.09-.55.22-.61.33-.19.41.41,1.73.84,2.69.79,1.58,3.24,6.48-1.8,11.52-2.64,2.64-6,2.37-8.16.93-2.53-1.68-3.39-4.67-2.18-7.62,1.93-4.71,4.65-6.55,6.64-7.89.49-.33.91-.61,1.24-.9.58-.48.74-1.06.59-1.38-.16-.36-.86-.69-2.3-.46-3.25.51-9.58,4.71-13.45,9.91-3.11,4.1-4.68,10.05-4.8,18.22-.09,5.89-.33,13.29-.39,15.11Zm21.72-39.93s-.06.05-.09.08c-.41.34-.9.67-1.4,1.01-1.87,1.27-4.21,2.85-5.91,7-1.01,2.45.08,4.29,1.44,5.19,1.48.99,3.79,1.16,5.63-.68,3.57-3.57,2.63-6.81,1.41-9.25-.57-1.25-1.07-2.36-1.07-3.36Z"/>
          </g>
          <path class="cls-2" d="m439.84,178.88c-.16,0-.33-.04-.48-.14-.42-.27-.55-.82-.28-1.24,2.32-3.67,4-8.28,4.01-8.33.17-.47.69-.71,1.15-.54.47.17.71.69.54,1.15-.07.2-1.76,4.84-4.19,8.67-.17.27-.46.42-.76.42Z"/>
          <path class="cls-2" d="m431.54,177.58c-.19,0-.37-.06-.53-.18-.4-.29-.49-.86-.19-1.26,2.61-3.54,3.02-7.32,3.03-7.36.05-.49.5-.85.99-.8.49.05.85.49.8.98-.02.17-.46,4.29-3.37,8.24-.18.24-.45.37-.73.37Z"/>
          <path class="cls-2" d="m411.14,298.17c-.3,0-.59-.15-.76-.42-.12-.19-2.8-4.68,3.73-11.21,4.46-4.46,12.12-5.38,16.66-3.66,2.67,1.01,4.23,2.84,4.37,5.14.03.5-.35.92-.84.96-.5.03-.92-.34-.96-.84-.13-2-1.82-3.04-3.21-3.57-4.03-1.52-10.92-.58-14.75,3.25-5.45,5.45-3.55,8.85-3.47,9,.25.42.11.98-.31,1.23-.15.09-.31.13-.47.13Z"/>
        </g>
        <g>
          <g>
            <path class="cls-8" d="m314.04,184.08s-5.6-.3-9.1,7.3c-3.5,7.6-2.5,23.2,1.3,25.6s14-7.9,14-7.9c0,0,8.6,11.6,14.8,11.1s14-11.6,13.5-23.8c-.5-12.2-5.5-13.6-8.2-13.9-2.6-.5-26.3,1.6-26.3,1.6Z"/>
            <path class="cls-2" d="m334.66,221.19c-5.58,0-12.34-7.88-14.52-10.61-2.89,2.79-10.62,9.64-14.43,7.24-4.37-2.76-5.37-18.83-1.67-26.86,3.55-7.71,9.2-7.94,9.98-7.88,2.7-.24,23.88-2.09,26.52-1.58,5.65.62,8.63,5.48,9.01,14.84.52,12.71-7.49,24.28-14.42,24.84-.15.01-.31.02-.46.02Zm-14.31-13.65l.69.94c2.3,3.1,9.3,11.09,13.92,10.7,5.32-.43,13.07-10.8,12.58-22.76-.5-12.19-5.63-12.76-7.31-12.95-1.89-.36-16.63.76-26.1,1.6h-.07s-.07,0-.07,0c-.23-.02-5.01-.09-8.14,6.72-3.41,7.4-2.31,22.29.93,24.34,2.15,1.35,8.75-3.72,12.76-7.76l.82-.83Z"/>
          </g>
          <g>
            <path class="cls-8" d="m320.24,208.98s-19.7,21.8-19.9,25.9c-.2,4.1,6.5,5.4,8.3,4.5,1.8-1,13.6-30.7,11.6-30.4Z"/>
            <path class="cls-2" d="m307.02,240.64c-1.64,0-3.68-.5-5.25-1.52-1.67-1.09-2.51-2.57-2.42-4.29.21-4.24,16.83-22.84,20.16-26.52l.24-.26.35-.05c.58-.08,1.09.24,1.29.81.86,2.52-9.91,30.15-12.25,31.46-.52.26-1.26.39-2.11.39Zm11.95-28.74c-7.47,8.42-17.51,20.53-17.63,23.03-.05.98.46,1.83,1.52,2.52,1.79,1.17,4.42,1.39,5.25,1.08,1.78-1.89,8.89-19.71,10.86-26.62Z"/>
          </g>
          <g>
            <path class="cls-8" d="m320.04,211.68s3.4,24.2,5.6,28,9.2-1.9,8.4-5.2c-.8-3.3-10.3-22.6-13.8-25.4-3.5-2.9-.2,2.6-.2,2.6Z"/>
            <path class="cls-2" d="m327.82,241.93c-1.3,0-2.37-.6-3.04-1.76-2.18-3.77-5.23-24.88-5.7-28.16-2.11-3.57-1.43-4.15-1.02-4.5.92-.79,2.11.2,2.82.79,3.72,2.98,13.35,22.7,14.13,25.94.65,2.66-2.27,6.1-5.21,7.28-.7.28-1.37.42-1.99.42Zm-6.8-30.49v.09c.95,6.68,3.76,24.66,5.49,27.64.47.81,1.33.98,2.55.49,2.22-.89,4.35-3.53,4.01-4.95-.7-2.88-8.11-17.94-12.05-23.26Z"/>
          </g>
        </g>
        <g>
          <path class="cls-8" d="m344.44,162.78s-2.2,13.7-.6,24c0,0-9.5,21.1-23.5,21.1-6.9,0-9.1-14.2-7.9-19.8l2.1-15.6s14-24.2,29.9-9.7Z"/>
          <path class="cls-2" d="m320.34,208.88c-1.94,0-3.66-.91-5.12-2.71-3.71-4.58-4.7-13.9-3.76-18.3l2.11-15.72.1-.17c.31-.53,7.66-13.05,18.06-14.66,4.65-.72,9.16.87,13.38,4.72l.4.36-.09.53c-.02.14-2.16,13.67-.6,23.69l.05.29-.12.27c-.4.89-9.93,21.69-24.41,21.69Zm-4.84-36.06l-2.07,15.4c-.86,4.04.17,12.77,3.35,16.7,1.06,1.31,2.25,1.97,3.56,1.97,12.38,0,21.33-17.86,22.47-20.25-1.36-9.25.17-20.81.56-23.46-3.63-3.17-7.44-4.46-11.33-3.87-8.85,1.37-15.65,12.06-16.54,13.52Z"/>
        </g>
        <path class="cls-2" d="m332.94,177.28c-6,3.6-12.6,5.4-19.6,4l-.8,5.9c7.6-1.5,15.3-3.7,20.4-9.9Z"/>
        <g>
          <g>
            <path class="cls-8" d="m300.84,133.28s.5,7.8-.8,20.5c-1.3,12.7-.8,21,10,26.4,10.8,5.4,28.3.5,34.7-14.9,6.4-15.4,14.9-44.7-8.1-49.1-23-4.4-36.1,1.1-35.8,17.1Z"/>
            <path class="cls-2" d="m319.58,183.29c-3.59,0-7.03-.74-9.98-2.22-11.77-5.88-11.77-15.47-10.55-27.4,1.27-12.46.8-20.26.8-20.33v-.04c-.12-6.38,1.82-11.3,5.77-14.63,6.06-5.11,16.57-6.28,31.22-3.47,6.2,1.19,10.66,4.22,13.24,9.02,6.3,11.69-.06,30.98-4.41,41.45-3.09,7.43-8.92,13.06-16.43,15.86-3.17,1.18-6.47,1.77-9.66,1.77Zm-17.74-50.05c.03.5.45,8.36-.8,20.64-1.36,13.33-.3,20.53,9.45,25.4,5.09,2.54,11.84,2.68,18.05.36,6.98-2.6,12.41-7.84,15.28-14.75,4.21-10.13,10.4-28.77,4.49-39.73-2.29-4.24-6.27-6.94-11.86-8-13.84-2.65-24.06-1.6-29.56,3.04-3.46,2.92-5.16,7.3-5.06,13.04Z"/>
          </g>
          <path class="cls-2" d="m316.84,123.18s4.4,14.8,14.2,18.6c9.9,3.8,8.3,13,13.2,11.9,4.9-1.1,8.7-5.1,12-1.2,3.3,3.8,3.6-30.4-13.3-36.3-16.9-5.9-34.8-6.2-40.1-.8-5.2,5.4-3.4,22.7-3.4,22.7,0,0,10.8-2.5,17.4-14.9Z"/>
          <g>
            <path class="cls-8" d="m345.34,153.78s2.3-5.7,7.2-4.7c4.8,1,4.5,16.5-8,15.7"/>
            <path class="cls-2" d="m345.47,165.81c-.32,0-.65-.01-.99-.03l.13-2c6.34.41,9.17-3.73,9.72-7.73.4-2.94-.51-5.69-1.98-6-4-.8-5.99,3.9-6.07,4.1l-1.85-.75c.9-2.24,3.81-6.24,8.33-5.31,2.59.54,4.12,4.08,3.56,8.22-.6,4.46-3.81,9.49-10.83,9.49Z"/>
          </g>
          <g>
            <path class="cls-2" d="m310.34,148.48c.6,1.3.6,2.8.2,4.2-.2.7-.5,1.4-.9,2-.2.3-.4.6-.6.9-.1.2-.3.5-.4.7-.4.9-.2,1.9.4,2.9.7.9,1.7,1.8,3,2.1-.7.3-1.4.2-2.1,0s-1.4-.6-1.9-1.1c-.6-.5-1-1.2-1.3-2-.2-.8-.1-1.7.2-2.5.2-.4.4-.7.6-1s.4-.5.6-.8c.4-.5.7-1,1-1.6.6-1.2,1.1-2.4,1.2-3.8Z"/>
            <path class="cls-2" d="m319.28,169.04c-1.05,0-1.76-.19-1.78-.2-.48-.13-.76-.63-.62-1.11.13-.48.63-.76,1.11-.62.19.05,4.39,1.12,6.98-3.29.25-.43.8-.57,1.23-.32.43.25.57.8.32,1.23-2.15,3.66-5.29,4.31-7.24,4.31Z"/>
            <path class="cls-2" d="m329.02,152.02c-.25,0-.51-.02-.79-.05-4.4-.46-4.95-3.21-4.97-3.33-.09-.49.24-.96.72-1.05.49-.09.95.23,1.04.71.02.1.45,1.57,3.41,1.88,2.56.33,3.78-1.67,3.83-1.76.25-.42.8-.57,1.23-.32.43.25.57.79.33,1.22-.07.12-1.59,2.69-4.8,2.69Z"/>
            <path class="cls-2" d="m305.98,148.69c-1.16,0-2.43-.47-3.54-1.86-.31-.39-.25-.96.14-1.27.39-.31.95-.25,1.26.14,1.77,2.21,3.9.64,4.14.46.39-.31.96-.24,1.26.15.31.39.24.95-.14,1.26-.67.54-1.83,1.12-3.12,1.12Z"/>
            <path class="cls-2" d="m311.34,137.38c.2-1.3-1.3-3.5-3.3-4.1-2-.6-5.2,2.2-4.9,3.4.4,1.2,2.3-.6,4.1-.4,1.6.2,3.9,2.2,4.1,1.1Z"/>
            <path class="cls-2" d="m335.24,139.58c.2-1.3-1.3-3.5-3.3-4.1s-5.2,2.2-4.9,3.4c.4,1.2,2.3-.6,4.1-.4,1.7.2,4,2.2,4.1,1.1Z"/>
            <path class="cls-2" d="m352.14,153.78c-1,.3-1.8.8-2.1,1.4-.1.3-.2.6-.2,1v1.4c0,.6-.1,1.2-.3,1.7-.2.6-.7,1.2-1.3,1.4-1.2.5-2.3.2-3.3-.3,1-.3,2-.5,2.5-1,.5-.4.6-1.1.6-2v-1.6c.1-.6.3-1.3.8-1.7,1.1-.7,2.4-.7,3.3-.3Z"/>
          </g>
          <g>
            <path class="cls-2" d="m301.54,157.58c-5.4,0-9.8-4.76-9.8-10.6s4.4-10.6,9.8-10.6,9.8,4.76,9.8,10.6-4.4,10.6-9.8,10.6Zm0-19.4c-4.41,0-8,3.95-8,8.8s3.59,8.8,8,8.8,8-3.95,8-8.8-3.59-8.8-8-8.8Z"/>
            <path class="cls-2" d="m327.23,160.94c-.59,0-1.19-.05-1.8-.15-6.1-.99-10.25-6.75-9.26-12.85h0c.48-2.95,2.08-5.54,4.51-7.29,2.43-1.75,5.39-2.45,8.34-1.97,2.95.48,5.54,2.08,7.29,4.51s2.45,5.39,1.97,8.34c-.89,5.49-5.66,9.41-11.05,9.41Zm-9.28-12.71c-.83,5.12,2.66,9.95,7.77,10.78,5.12.84,9.95-2.66,10.79-7.77.83-5.12-2.66-9.95-7.77-10.78-2.48-.4-4.97.18-7,1.65-2.04,1.47-3.38,3.64-3.78,6.12h0Z"/>
            <path class="cls-2" d="m317.04,149.08c-.12,0-.23-.02-.35-.07-4.22-1.77-5.61-.6-5.62-.59-.36.32-.92.31-1.26-.03-.33-.34-.35-.88-.02-1.23.21-.22,2.18-2.09,7.6.19.46.19.67.72.48,1.18-.14.34-.48.55-.83.55Z"/>
            <path class="cls-2" d="m347.34,151.58s-.06,0-.08,0l-9.8-.9c-.49-.05-.86-.48-.81-.98.05-.49.48-.85.98-.81l9.8.9c.49.05.86.48.81.98-.04.47-.44.82-.9.82Z"/>
          </g>
          <path class="cls-6" d="m349.74,162.38l-3.4,5.9c-.4.8.1,1.7,1,1.7h6.8c.9,0,1.4-.9,1-1.7l-3.4-5.9c-.5-.7-1.6-.7-2,0Z"/>
        </g>
      </g>
      <g>
        <path class="cls-2" d="m489.04,362.48l2.4,22.2c0,1.6,8.3,2.8,18.5,2.8s18.5-1.3,18.5-2.8l2.4-22.2h-41.8Z"/>
        <path class="cls-5" d="m530.84,362.48c0,1.8-9.4,3.2-20.9,3.2s-20.9-1.4-20.9-3.2,9.4-3.2,20.9-3.2c11.6.1,20.9,1.5,20.9,3.2Z"/>
        <path class="cls-7" d="m504.34,362.48s-11.2-4.4-10-13c1.3-8.7,9.5,9.2,11.6,6.5s-.6-15.8,4-17c4.7-1.1,3.4,17.2,3.4,17.2,0,0,4.7-2.3,7.6-5.7,2.9-3.4,7.1,4.2-4.8,12-.1,0-5.2,2.6-11.8,0Z"/>
      </g>
      <path class="cls-6" d="m603.04,356.68c0,3-2.4,5.4-5.4,5.4s-5.4-2.4-5.4-5.4,2.4-5.4,5.4-5.4,5.4,2.5,5.4,5.4Z"/>
      <g>
        <path class="cls-8" d="m218.14,375.98c-2.7.7-5.5,2-8,4.2-4.3,3.7-11.2,6.3-18.5,5.9-7-.3-14.4-3.4-20-10.9,24.3,2.6,46.5.8,46.5.8Z"/>
        <path class="cls-2" d="m191.54,386.18c-17.6.3-42.2,0-49.8-.1-8.8.7-18.7-2.7-25.3-13.6,0,0,6.5,1,23.2,1.1,16.7.1,30-1.1,30-1.1.6,1,1.2,1.9,1.8,2.8,5.7,7.4,13.1,10.5,20.1,10.9Z"/>
      </g>
    </g>
  </g>
</svg>