<?xml version="1.0" encoding="utf-8"?>
<!-- Generator: Adobe Illustrator 25.3.1, SVG Export Plug-In . SVG Version: 6.00 Build 0)  -->
<svg version="1.1" xmlns="http://www.w3.org/2000/svg" xmlns:xlink="http://www.w3.org/1999/xlink" x="0px" y="0px"
	 viewBox="0 0 675.1 537.6" style="enable-background:new 0 0 675.1 537.6;" xml:space="preserve">
<style type="text/css">
	.st0{fill:#90E0EF;}
	.st1{clip-path:url(#SVGID_2_);}
	.st2{fill:none;stroke:#00B4D8;stroke-width:1.8;stroke-linecap:round;stroke-linejoin:round;}
	.st3{fill:#00B4D8;}
	.st4{fill:#B8D8C7;}
	.st5{fill:none;stroke:#00B4D8;stroke-width:1.8;stroke-linecap:round;stroke-linejoin:round;stroke-miterlimit:3.9998;}
	.st6{fill:#03045E;}
	.st7{fill:#F3DE8A;}
	.st8{fill:none;stroke:#03045E;stroke-width:1.8;stroke-linecap:round;stroke-linejoin:round;}
	.st9{fill:#D90368;}
	.st10{fill:#FFFFFF;}
	.st11{fill:none;stroke:#FFFFFF;stroke-width:1.8;stroke-linecap:round;stroke-linejoin:round;}
	.st12{fill:#00B4D8;stroke:#03045E;stroke-width:1.8;stroke-linecap:round;stroke-linejoin:round;stroke-miterlimit:10;}
	.st13{fill:none;stroke:#03045E;stroke-width:1.8;stroke-linecap:round;stroke-linejoin:round;stroke-miterlimit:10;}
</style>
<g id="Layer_1">
	<g id="Bg">
		<g>
			<path class="st0" d="M591.8,450.2l-520-14.9c-24.2-0.7-44.1-19.2-46.5-43.3L0.2,144c-2.8-28.1,19-52.6,47.2-53l578.8-8
				c29.2-0.4,52.1,25.1,48.5,54.1L641,408C637.9,432.7,616.6,451,591.8,450.2L591.8,450.2z"/>
			<g>
				<g>
					<g>
						<defs>
							<path id="SVGID_1_" d="M591.8,450.2l-520-14.9c-24.2-0.7-44.1-19.2-46.5-43.3L0.2,144c-2.8-28.1,19-52.6,47.2-53l578.8-8
								c29.2-0.4,52.1,25.1,48.5,54.1L641,408C637.9,432.7,616.6,451,591.8,450.2L591.8,450.2z"/>
						</defs>
						<clipPath id="SVGID_2_">
							<use xlink:href="#SVGID_1_"  style="overflow:visible;"/>
						</clipPath>
						<g class="st1">
							<g>
								<path class="st2" d="M516.9,517.5h415.5c8.3,0,15-6.7,15-15V266.9c0-8.3-6.7-15-15-15H516.9c-8.3,0-15,6.7-15,15v235.6
									C501.9,510.8,508.7,517.5,516.9,517.5z"/>
								<path class="st2" d="M-32.2,501.7h419.1c8.3,0,15-6.7,15-15V142.4c0-8.3-6.7-15-15-15H-32.2c-8.3,0-15,6.7-15,15v344.3
									C-47.2,495-40.4,501.7-32.2,501.7L-32.2,501.7z"/>
								<g>
									<path class="st2" d="M539.5,251.8h20.3c2.2,0,4-1.6,4.3-3.8l1.6-14.4c0.3-2.5-1.7-4.8-4.3-4.8h-23.5
										c-2.6,0-4.5,2.2-4.3,4.8l1.6,14.4C535.5,250.2,537.3,251.8,539.5,251.8L539.5,251.8z"/>
									<path class="st3" d="M552,228.9c0,0,8-0.8,9.6-11.6c0,0-7.2,2.1-9.5,7.2c0,0-1-11.4-6.4-12.5c0,0-2.4,8.5,1.4,12.7
										c0,0-2.9-4.8-10.3-4.7c0,0,1.9,6.8,9.2,8.8"/>
								</g>
								<g>
									<path class="st2" d="M53.8,232.1h20.3c2.2,0,4-1.6,4.3-3.8l1.6-14.4c0.3-2.5-1.7-4.8-4.3-4.8H52.2c-2.6,0-4.5,2.2-4.3,4.8
										l1.6,14.4C49.7,230.4,51.6,232.1,53.8,232.1z"/>
									<path class="st3" d="M66.3,209.1c0,0,8-0.8,9.6-11.6c0,0-7.2,2.1-9.5,7.2c0,0-1-11.4-6.4-12.5c0,0-2.4,8.5,1.4,12.7
										c0,0-2.9-4.8-10.3-4.7c0,0,1.9,6.8,9.2,8.8"/>
								</g>
								<g>
									<path class="st2" d="M520.1,301.6h90.2c2.3,0,4.2-1.9,4.2-4.2v-27.5c0-2.3-1.9-4.2-4.2-4.2h-90.2c-2.3,0-4.2,1.9-4.2,4.2
										v27.4C515.9,299.7,517.8,301.6,520.1,301.6L520.1,301.6z"/>
									<path class="st3" d="M554.8,275.5h20.8c0.8,0,1.5-0.7,1.5-1.5l0,0c0-0.8-0.7-1.5-1.5-1.5h-20.8c-0.8,0-1.5,0.7-1.5,1.5l0,0
										C553.3,274.8,554,275.5,554.8,275.5z"/>
								</g>
								<g>
									<path class="st2" d="M520.1,347.4h90.2c2.3,0,4.2-1.9,4.2-4.2v-27.4c0-2.3-1.9-4.2-4.2-4.2h-90.2c-2.3,0-4.2,1.9-4.2,4.2
										v27.4C515.9,345.5,517.8,347.4,520.1,347.4z"/>
									<path class="st3" d="M554.8,321.3h20.8c0.8,0,1.5-0.7,1.5-1.5l0,0c0-0.8-0.7-1.5-1.5-1.5h-20.8c-0.8,0-1.5,0.7-1.5,1.5l0,0
										C553.3,320.6,554,321.3,554.8,321.3z"/>
								</g>
								<g>
									<path class="st2" d="M56.9,379.8h90.2c2.3,0,4.2-1.9,4.2-4.2v-27.4c0-2.3-1.9-4.2-4.2-4.2H56.9c-2.3,0-4.2,1.9-4.2,4.2
										v27.4C52.7,377.9,54.6,379.8,56.9,379.8z"/>
									<path class="st3" d="M91.7,353.6h20.8c0.8,0,1.5-0.7,1.5-1.5l0,0c0-0.8-0.7-1.5-1.5-1.5H91.7c-0.8,0-1.5,0.7-1.5,1.5l0,0
										C90.2,353,90.8,353.6,91.7,353.6z"/>
								</g>
								<g>
									<path class="st2" d="M172.7,379.8h90.2c2.3,0,4.2-1.9,4.2-4.2v-27.4c0-2.3-1.9-4.2-4.2-4.2h-90.2c-2.3,0-4.2,1.9-4.2,4.2
										v27.4C168.5,377.9,170.4,379.8,172.7,379.8z"/>
									<path class="st3" d="M207.5,353.6h20.8c0.8,0,1.5-0.7,1.5-1.5l0,0c0-0.8-0.7-1.5-1.5-1.5h-20.8c-0.8,0-1.5,0.7-1.5,1.5l0,0
										C206,353,206.6,353.6,207.5,353.6z"/>
								</g>
								<g>
									<path class="st2" d="M635.1,301.6h90.2c2.3,0,4.2-1.9,4.2-4.2v-27.5c0-2.3-1.9-4.2-4.2-4.2h-90.2c-2.3,0-4.2,1.9-4.2,4.2
										v27.4C630.9,299.7,632.8,301.6,635.1,301.6L635.1,301.6z"/>
									<path class="st4" d="M669.8,275.5h20.8c0.8,0,1.5-0.7,1.5-1.5l0,0c0-0.8-0.7-1.5-1.5-1.5h-20.8c-0.8,0-1.5,0.7-1.5,1.5l0,0
										C668.3,274.8,669,275.5,669.8,275.5z"/>
								</g>
								<g>
									<path class="st2" d="M635.1,347.4h90.2c2.3,0,4.2-1.9,4.2-4.2v-27.4c0-2.3-1.9-4.2-4.2-4.2h-90.2c-2.3,0-4.2,1.9-4.2,4.2
										v27.4C630.9,345.5,632.8,347.4,635.1,347.4z"/>
									<path class="st4" d="M669.8,321.3h20.8c0.8,0,1.5-0.7,1.5-1.5l0,0c0-0.8-0.7-1.5-1.5-1.5h-20.8c-0.8,0-1.5,0.7-1.5,1.5l0,0
										C668.3,320.6,669,321.3,669.8,321.3z"/>
								</g>
								<path class="st2" d="M-74.4,232.2h455c2.5,0,4.6-2.1,4.6-4.6v-79.7c0-2.5-2.1-4.6-4.6-4.6h-455c-2.5,0-4.6,2.1-4.6,4.6v79.7
									C-79,230.2-76.9,232.2-74.4,232.2z"/>
								<path class="st2" d="M-74.4,331.2h455c2.5,0,4.6-2.1,4.6-4.6v-79.7c0-2.5-2.1-4.6-4.6-4.6h-455c-2.5,0-4.6,2.1-4.6,4.6v79.7
									C-79,329.1-76.9,331.2-74.4,331.2z"/>
								<rect x="344.8" y="182" class="st2" width="9.9" height="50.3"/>
								<rect x="334.4" y="195.6" class="st2" width="10.3" height="36.6"/>
								<rect x="46.4" y="280.7" class="st2" width="9.9" height="50.3"/>
								<rect x="36" y="294.4" class="st2" width="10.3" height="36.6"/>
								<rect x="66.5" y="280.7" class="st2" width="9.9" height="50.3"/>
								
									<rect x="83.6" y="280" transform="matrix(0.9536 -0.301 0.301 0.9536 -87.7421 40.8055)" class="st5" width="9.9" height="50.3"/>
								<rect x="56.2" y="294.4" class="st2" width="10.3" height="36.6"/>
								<path class="st3" d="M265.4,188.5l-1.1-14.9c-0.1-1,0.7-1.8,1.7-1.8h8.6c1,0,1.7,0.8,1.7,1.8l-1.1,14.9c0,0,9,5.8,8.9,10.6
									c-0.1,3.7-2.3,21.4-3.3,29.2c-0.3,2.2-2.1,3.8-4.3,3.8h-12.4c-2.2,0-4-1.6-4.3-3.8c-1-7.8-3.2-25.5-3.3-29.2
									C256.4,194.3,265.4,188.5,265.4,188.5L265.4,188.5z"/>
								<path class="st3" d="M221.2,188.5l-1.1-14.9c-0.1-1,0.7-1.8,1.7-1.8h8.6c1,0,1.7,0.8,1.7,1.8l-1.1,14.9c0,0,9,5.8,8.9,10.6
									c-0.1,3.7-2.3,21.4-3.3,29.2c-0.3,2.2-2.1,3.8-4.3,3.8h-12.4c-2.2,0-4-1.6-4.3-3.8c-1-7.8-3.2-25.5-3.3-29.2
									C212.2,194.3,221.2,188.5,221.2,188.5L221.2,188.5z"/>
								<line class="st2" x1="662.7" y1="425.6" x2="-270.2" y2="425.6"/>
							</g>
						</g>
					</g>
				</g>
			</g>
			<path class="st2" d="M249.4,331.2h-83.2c-2.7,0-4.9-2.2-4.9-4.9v-13.1c0-2.7,2.2-4.9,4.9-4.9h83.2c2.7,0,4.9,2.2,4.9,4.9v13.1
				C254.3,329,252.1,331.2,249.4,331.2z"/>
			<rect x="177.7" y="287.2" class="st2" width="60" height="21"/>
			<circle class="st3" cx="170.7" cy="315.9" r="1.5"/>
		</g>
		<g>
			<path class="st3" d="M259.8,308.7L302,293c1.6-0.6,2.7-2.2,2.7-3.9l0,0l-83.8-6l12.9,23.2l21.8,2.9
				C257,309.4,258.5,309.2,259.8,308.7L259.8,308.7z"/>
			<path class="st6" d="M153.6,293.4l-7.6-59.3c-0.2-1.7,1.2-3.1,2.8-3l101.4,7.2c1.5,0.1,2.7,1.3,2.8,2.8l6,65.3
				c0.2,1.7-1.3,3.1-3,2.9l-99.8-13.2C154.8,295.8,153.7,294.7,153.6,293.4L153.6,293.4z"/>
			<path class="st6" d="M304.7,289.2c0,1.8-1.1,3.3-2.7,3.9l-42.2,15.7c-1,0.4-2.2,0.6-3.3,0.5c-1.6-1.2-2.6-3.1-2.6-3.1
				L304.7,289.2L304.7,289.2z"/>
			<ellipse transform="matrix(0.8045 -0.594 0.594 0.8045 -120.5614 169.9732)" class="st3" cx="197.9" cy="268.1" rx="6" ry="7"/>
		</g>
		<g>
			<path class="st7" d="M436.8,25h-30.6l-3.1,2c-1,0.7-2.3-0.1-2.3-1.3V4c0-2.2,1.8-4,4-4h32.1c2.2,0,4,1.8,4,4v16.9
				C440.8,23.2,439,25,436.8,25z"/>
			<g>
				<line class="st8" x1="420.4" y1="10" x2="431.1" y2="10"/>
				<line class="st8" x1="420.4" y1="15.5" x2="426.9" y2="15.5"/>
				<rect x="409.4" y="10" class="st8" width="5.5" height="5.5"/>
			</g>
		</g>
		<g>
			<path class="st3" d="M254,186.9L85,212.5c-3.8,0.6-7.2-2.2-7.5-6L67.4,54.3c-0.3-4.2,3.2-7.7,7.4-7.4l169.3,10.8
				c3.2,0.2,5.8,2.7,6.1,5.9l9.7,115.9C260.2,183,257.6,186.3,254,186.9L254,186.9z"/>
			<path class="st6" d="M258.6,186.7L88.8,212.4c-3.8,0.6-7.2-2.2-7.5-6L71.1,53.5c-0.3-4.2,3.2-7.8,7.5-7.5l170,10.8
				c3.2,0.2,5.8,2.7,6.1,6l9.8,116.4C264.9,182.9,262.3,186.2,258.6,186.7z"/>
			<path class="st3" d="M147.9,134.3l-47.8,2.6c-1.5,0.1-2.8-1.1-2.9-2.6l-2.8-40.4c-0.1-1.6,1.2-3,2.8-3l47.8,0.3
				c1.5,0,2.7,1.1,2.8,2.6l2.8,37.5C150.7,132.9,149.5,134.2,147.9,134.3z"/>
			<path class="st7" d="M199.3,118.7l-40,1.4c-1.5,0.1-2.8-1.1-2.9-2.6l-1.7-23.3c-0.1-1.6,1.2-3,2.8-3l40,0.3
				c1.4,0,2.6,1.1,2.8,2.6l1.7,21.6C202.1,117.3,200.9,118.7,199.3,118.7L199.3,118.7z"/>
			<path class="st9" d="M244.6,117.2l-33.7,1.2c-1.5,0.1-2.8-1.1-2.9-2.6l-1.7-21.1c-0.1-1.6,1.2-3,2.8-3l33.7,0.2
				c1.4,0,2.6,1.1,2.8,2.6l1.6,19.7C247.4,115.7,246.2,117.1,244.6,117.2L244.6,117.2z"/>
			<path class="st2" d="M150.9,173.5l-47.8,5.2c-1.6,0.2-3-1-3.1-2.6L98.2,150c-0.1-1.5,1.1-2.9,2.6-3l47.9-3.2c1.5-0.1,2.9,1,3,2.6
				l1.8,24.1C153.5,172,152.4,173.3,150.9,173.5L150.9,173.5z"/>
			<path class="st9" d="M203.8,172.5l-39.9,4.7c-1.6,0.2-3-1-3.1-2.6l-3.2-43.1c-0.1-1.6,1.1-2.9,2.6-3l40-1.9
				c1.5-0.1,2.8,1.1,2.9,2.6l3.2,40.3C206.4,171,205.3,172.3,203.8,172.5z"/>
			<path class="st0" d="M195.5,134.1l-28.7,1.7c-0.7,0-1.2,0.6-1.1,1.3l1.3,17.8c0.1,0.7,0.6,1.2,1.3,1.1l28.7-2.5
				c0.7-0.1,1.2-0.6,1.1-1.3l-1.3-17C196.7,134.6,196.1,134.1,195.5,134.1z"/>
			<path class="st7" d="M248.6,162.6l-33.7,3.7c-1.6,0.2-3-1-3.1-2.6l-2.7-34.7c-0.1-1.6,1.1-2.9,2.6-3l33.7-1.6
				c1.5-0.1,2.8,1.1,2.9,2.6l2.7,32.6C251.2,161.1,250.1,162.4,248.6,162.6z"/>
			<g>
				<line class="st2" x1="126.5" y1="157" x2="127.1" y2="164.4"/>
				<line class="st2" x1="123.3" y1="161" x2="130.3" y2="160.4"/>
			</g>
			<g>
				<path class="st0" d="M174.4,165.2c-0.2-2-1.7-3.6-3.5-3.4s-3.2,2-3,4.1s1.8,3.6,3.6,3.4C173.2,169,174.5,167.2,174.4,165.2z"/>
				<line class="st8" x1="180.2" y1="164.6" x2="198.9" y2="162.7"/>
			</g>
			<g>
				<path class="st3" d="M221.8,135.4c-0.2-1.9-1.5-3.3-3.1-3.3c-1.6,0.1-2.7,1.7-2.6,3.6c0.2,1.9,1.5,3.4,3.1,3.3
					C220.9,138.9,222,137.3,221.8,135.4z"/>
				<line class="st8" x1="226.9" y1="135.1" x2="243" y2="134.1"/>
			</g>
			<g>
				<path class="st3" d="M222.7,146.1c-0.2-1.9-1.5-3.3-3.1-3.2s-2.7,1.8-2.6,3.7c0.2,1.9,1.6,3.4,3.1,3.2
					C221.7,149.6,222.9,148,222.7,146.1z"/>
				<line class="st8" x1="227.7" y1="145.7" x2="243.9" y2="144.4"/>
			</g>
			<g>
				<path class="st3" d="M223.6,156.8c-0.2-1.9-1.5-3.3-3.1-3.2s-2.7,1.8-2.6,3.7c0.2,1.9,1.6,3.3,3.1,3.2
					C222.6,160.3,223.7,158.7,223.6,156.8z"/>
				<line class="st8" x1="228.6" y1="156.3" x2="244.7" y2="154.7"/>
			</g>
			<g>
				<path class="st7" d="M111.1,107.1l-6.5,0.1c-0.6,0-1.1-0.5-1.2-1.1l-0.5-6.8c0-0.7,0.5-1.2,1.2-1.2h6.5c0.6,0,1.1,0.5,1.2,1.1
					l0.5,6.7C112.2,106.5,111.7,107.1,111.1,107.1z"/>
				<line class="st8" x1="118.1" y1="98.1" x2="140.6" y2="98"/>
				<line class="st8" x1="118.5" y1="103.9" x2="141" y2="103.7"/>
			</g>
			<g>
				<path class="st6" d="M219,105.5l-5.1,0.1c-0.3,0-0.6-0.3-0.7-0.6l-0.5-6.5c0-0.4,0.3-0.7,0.7-0.7h5.1c0.3,0,0.6,0.3,0.7,0.6
					l0.5,6.4C219.7,105.1,219.4,105.5,219,105.5z"/>
				<line class="st8" x1="223.8" y1="97.7" x2="240.5" y2="97.7"/>
				<line class="st8" x1="224.3" y1="102.8" x2="240.9" y2="102.6"/>
				<line class="st8" x1="213.7" y1="111.1" x2="241.5" y2="110.4"/>
			</g>
			<g>
				<path class="st7" d="M112.2,122.6l-6.5,0.2c-0.6,0-1.2-0.5-1.2-1.1l-0.5-6.8c0-0.7,0.5-1.2,1.1-1.2l6.5-0.2
					c0.6,0,1.1,0.5,1.2,1.1l0.5,6.7C113.3,122,112.8,122.6,112.2,122.6z"/>
				<line class="st8" x1="119.2" y1="113.4" x2="141.7" y2="112.8"/>
				<line class="st8" x1="119.6" y1="119.3" x2="142.1" y2="118.6"/>
			</g>
			<path class="st0" d="M128.6,74.2l-33.7-1c-1.1,0-2-0.9-2.1-2l-0.4-5.3c-0.1-1.3,1-2.4,2.2-2.3l33.7,1.4c1.1,0,2,0.9,2.1,2
				l0.4,4.9C130.9,73.1,129.9,74.2,128.6,74.2z"/>
			<line class="st8" x1="162.7" y1="97.9" x2="194.5" y2="97.8"/>
			<line class="st8" x1="163.1" y1="103.5" x2="194.9" y2="103.1"/>
			<line class="st8" x1="163.7" y1="112.3" x2="180.8" y2="111.9"/>
			<path class="st3" d="M243.6,73.7c-0.1-1.5-1.2-2.8-2.5-2.9c-1.2-0.1-2.2,1.2-2,2.7c0.1,1.6,1.2,2.9,2.5,2.9
				C242.8,76.5,243.7,75.2,243.6,73.7z"/>
			<path class="st3" d="M234.7,73.4c-0.1-1.6-1.3-2.9-2.5-2.9c-1.3-0.1-2.2,1.2-2.1,2.8c0.1,1.6,1.3,2.9,2.6,2.9
				C233.9,76.2,234.8,74.9,234.7,73.4z"/>
			<path class="st3" d="M225.5,73c-0.1-1.6-1.3-2.9-2.6-3s-2.3,1.2-2.2,2.8c0.1,1.6,1.3,2.9,2.6,3C224.7,75.9,225.6,74.6,225.5,73z"
				/>
		</g>
		<g>
			<g>
				<path class="st3" d="M569,211l-88.5-10.9c-2.9-0.4-4.9-2.9-4.6-5.8l9.4-87.8c0.4-3.4,3-6.1,6.4-6.6l91.6-12.4
					c3.4-0.5,6.4,2.4,6,5.9l-13.6,112.5C575.3,209.1,572.3,211.4,569,211z"/>
				<path class="st6" d="M566,210.7l-88.5-11c-2.9-0.4-4.9-2.9-4.6-5.8l9.4-87.8c0.4-3.4,3-6.1,6.4-6.6l91.6-12.4
					c3.4-0.5,6.4,2.4,6,5.9l-13.6,112.5C572.3,208.7,569.3,211.1,566,210.7z"/>
			</g>
			<g>
				<path class="st0" d="M562.7,129.1l-69.3,3.5c-1.2,0.1-2.2-1-2-2.1l1.7-15.5c0.1-0.9,0.8-1.6,1.7-1.7l69.9-6.9
					c1.2-0.1,2.3,0.9,2.1,2.2l-2.3,19C564.5,128.3,563.7,129,562.7,129.1L562.7,129.1z"/>
				<g>
					<line class="st8" x1="511.1" y1="118.7" x2="557" y2="115"/>
					<line class="st8" x1="510.5" y1="124.6" x2="535.2" y2="122.9"/>
				</g>
				
					<ellipse transform="matrix(0.4747 -0.8801 0.8801 0.4747 155.4067 504.9163)" class="st6" cx="500.7" cy="122.3" rx="3.4" ry="2.8"/>
			</g>
			<g>
				<path class="st9" d="M558.8,160.8l-68.5-1.2c-1.1,0-2-1-1.9-2.1l1.7-15.4c0.1-1,0.9-1.7,1.9-1.7l69-2.2c1.2,0,2.1,1,2,2.2
					l-2.2,18.8C560.7,160,559.8,160.8,558.8,160.8L558.8,160.8z"/>
				<g>
					<line class="st8" x1="508" y1="146.9" x2="553.4" y2="146.3"/>
					<line class="st8" x1="507.3" y1="152.7" x2="531.8" y2="152.7"/>
				</g>
				
					<ellipse transform="matrix(0.4351 -0.9004 0.9004 0.4351 146.1595 532.9253)" class="st6" cx="497.8" cy="150" rx="3.4" ry="2.7"/>
			</g>
			<g>
				<path class="st7" d="M555,192.2l-67.7-5.8c-1.1-0.1-1.9-1.1-1.8-2.1l1.7-15.3c0.1-1,1-1.8,2-1.7l68.2,2.5c1.1,0,2,1,1.9,2.2
					l-2.2,18.6C557,191.5,556,192.2,555,192.2L555,192.2z"/>
				<g>
					<line class="st8" x1="504.9" y1="174.9" x2="549.7" y2="177.3"/>
					<line class="st8" x1="504.2" y1="180.6" x2="528.4" y2="182.3"/>
				</g>
				
					<ellipse transform="matrix(0.3938 -0.9192 0.9192 0.3938 137.4383 562.1925)" class="st6" cx="495" cy="176.9" rx="3.4" ry="2.7"/>
			</g>
		</g>
	</g>
</g>
<g id="Layer_2">
	<g>
		<g id="XMLID_1_">
			<g>
				<path class="st6" d="M397.1,240.1c-1.4,2.6-2.8,5.3-4.4,7.9c-0.5,0.9-1.1,1.9-1.7,2.8l-0.1,0c2.6,6.3,7.8,10.3,12.9,12.2l0,0
					c2.5,1,5,1.5,7.1,1.6l1.2,0c-0.1,15.1-0.2,39.6,0.4,46.9c0.8,10.9,4,48.4,5,64c0.7,11.8,8.5,68.3,10.8,94.2c0,0,0,0.1,0,0.1h0
					c0,0-10.3,13.3-32.6,2.1c-3.8-25.3-11.9-78.2-14-85.9l-0.2-0.2c-1.5-4.9-8.9-30.3-15.3-52.4l0.5,26.2l1.3,105.9
					c-5.4,7.7-20,10.3-32.2,6.4l-11.5-128.6c0,0-5.9-84.5-4.8-93.1c0.3-2.5,0.6-6,0.8-9.6c0.6-8.5,1.2-19.4,1.2-19.8
					c0.6,3.8,1.2,9.3,6.6,11.5c0,0,25.4,12.7,72.3,0.9l0,0c0,0,0,0.1,0,0.1C399.3,235.7,398.2,237.9,397.1,240.1z"/>
				<path class="st3" d="M336.8,109.8c5.2-3.6,10.6-5.5,11.5-5.8c0.1,0,0.1,0,0.1,0l0.2,0.2c-3.6,3.9-13.8,15.7-14.8,24.7
					c8.2-2.4,11.7,3.9,13.6,8.5c0.4,0.9,0.7,1.7,0.9,2.4h0.1l0.2,4.3l2.6-5.4c0.6-0.6,1.3-1.2,1.9-1.7c7.9-6.6,11-6.7,17.2-2.5
					c0.4,0.4,0.9,0.7,1.3,1l0-0.1l12.9-32.8l-0.1-0.4l0.1,0c0,0,2.3,2.8,4.2,3.3c1.9,0.5,13,3,23.4,9.5l-0.1,0.1
					c-16.6,4.7-14.2,25.4-13.4,33c0.5,4.3,6,16.4,10.5,25.6v0c0,9.9-1.4,20.6-2.8,27.3c0,0,0,0.1,0,0.1c-0.3,10.1,0.6,15.2,0.9,19.9
					l0,0c-2,3.9-4.3,8.1-7,12.4l0,0c-46.9,11.8-72.3-0.9-72.3-0.9c-5.4-2.2-6.1-7.7-6.6-11.5c-0.3-2.2-0.3-3.8-0.3-3.8
					s2.8-8.7,4.2-20c0.2-2.2,0.5-6,0.6-10.9c0-0.7,0-1.3,0-2c0-0.8,0.1-1.6,0.1-2.5c0.5-21.5,2.1-55,2.7-58.1
					C329.8,118.1,332.2,112.9,336.8,109.8z"/>
				<path class="st10" d="M443.7,173.3c2.8,4.8,6.9,13.1,4.9,18.9c-2.9,8.5-19.5,38.6-33.3,56.3c-1.1,1.4-2.1,2.7-3,3.9
					c-1.9,0-4.6-1.8-7.5-4.2c-0.7-1.3-1.9-2.3-3.3-2.5l0-0.1c-1.9-1.8-3.7-4.1-4.3-5.5c1.1-2.2,2.2-4.4,3.3-6.6c0,0,0-0.1,0-0.1
					c2.7-4.3,5-8.5,7-12.4c6.2-12.2,9.7-22,12.9-26.5l-3.5-6.3l-0.1-0.3c0,0,19.9-8,26.7-15.1C443.5,173,443.6,173.1,443.7,173.3z"
					/>
				<path class="st6" d="M443.4,172.8c-6.9,7.1-26.7,15.1-26.7,15.1l-1.4-2.4l0,0c12.5-4.5,20.9-10.4,27-14.5
					C442.3,171,442.7,171.7,443.4,172.8z"/>
				<path class="st6" d="M447,167.7c0,0.1-0.5,1.9-3.3,5.6c-0.1-0.2-0.2-0.3-0.3-0.5c-0.7-1.1-1.1-1.8-1.1-1.8
					C445.2,169.1,446.8,167.8,447,167.7z"/>
				<path class="st10" d="M325.9,184.3h0.1c0,0.7,0,1.4,0,2c-0.1,4.9-0.4,8.7-0.6,10.9c-1.5,11.3-4.2,20-4.2,20s0,1.6,0.3,3.8
					c0,0.4-0.7,11.3-1.2,19.8c-6.2-8.4-19.7-50.7-20-55.8c-0.2-4,2.8-14,4.3-19.2c0.1-0.2,0.1-0.3,0.1-0.5
					C308.2,172.3,320.8,182.8,325.9,184.3z"/>
				<path class="st6" d="M305.4,163.1c2.3,3.7,6.5,10.6,20.2,18.7h0.5c0,0.8,0,1.7-0.1,2.5h-0.1c-5.1-1.5-17.7-11.9-21.2-18.9
					c0.4-1.4,0.7-2.2,0.7-2.2L305.4,163.1z"/>
				<path class="st6" d="M406.9,259.2c1.4-1.9,3.3-4.2,5.4-6.8c0,0-0.1,5.1-0.1,12.3l-1.2,0c-2.1-0.1-4.6-0.6-7.1-1.6l0,0
					C404.4,262.4,405.4,261.1,406.9,259.2C406.8,259.3,406.8,259.3,406.9,259.2z"/>
				<path class="st6" d="M436.5,510.8c4.3,3.2,17.1,11.3,15.9,16.2c-1.5,6.4-15.8,9.4-21.4,7.3c-5.5-2.1-11.4-12-15.3-14
					c-3.9-2-9.3-8.8-9.3-8.8s-0.1-5.4-0.3-10.9c0,0,0-0.1,0-0.1l0.8,0c1.3,1.2,3,5.7,6.8,3.3l0,0c1.2-0.3,1-3.3,2.2-4.5
					c3.5-3.5,8.2-3,10.9-1.6c0.9,0.5,1.6,1.1,1.9,1.6C429.9,501.4,432.2,507.7,436.5,510.8z"/>
				<path class="st3" d="M447.1,167.6l-0.1,0.1c-0.2,0.1-1.8,1.4-4.7,3.3c-6.1,4.1-14.4,10-27,14.5c0,0-0.1,0-0.1,0
					c0,0-2.2-4.1-4.9-9.7c-0.3-0.7-0.7-1.4-1.1-2.2v0c-4.5-9.2-10-21.2-10.5-25.6c-0.8-7.6-3.2-28.3,13.4-33l0.1-0.1
					c0,0,0.1,0.1,0.1,0.1C418.7,119.1,447.1,167.6,447.1,167.6z"/>
				<path class="st6" d="M428.2,470c0.7,7.9,1.2,13,1.2,13s-0.7,0.8-3,2.5c-3,2.3-7.2,5-11,5.2c-3,0.2-6.7-0.8-10-1.9c0,0,0,0,0,0
					c-4.3-1.4-7.8-3.2-7.8-3.2s-0.8-5.3-2-13.5C417.9,483.3,428.2,470,428.2,470L428.2,470z"/>
				<path class="st10" d="M413.7,503.8c-3.8,2.4-5.5-2.1-6.8-3.3l-0.8,0c-0.2-4.9-0.4-9.7-0.9-11.2l0.2-0.5c0,0,0,0,0,0
					c3.3,1.1,7,2.1,10,1.9c3.8-0.2,8-2.9,11-5.2l1.3,12.1l-0.9,0.1c-2.7-1.4-7.4-1.9-10.9,1.6C414.7,500.5,414.9,503.5,413.7,503.8
					L413.7,503.8z"/>
				<path class="st6" d="M404.7,248.2c2.9,2.4,5.6,4.2,7.5,4.2c-2.1,2.7-4,5-5.4,6.8l-0.1,0c-2.2-0.5-3.9-2-6.3-3.8
					c2.6,0,4.8-2.2,4.8-4.9C405.3,249.7,405.1,248.9,404.7,248.2z"/>
				<path class="st10" d="M406.9,259.2C406.8,259.3,406.8,259.3,406.9,259.2c-1.5,1.9-2.5,3.1-3.1,3.9c-5.1-2-10.3-6-12.9-12.2
					l0.1,0c0.6-0.9,1.2-1.9,1.7-2.8c0.9,1.1,1.5,2.1,2.8,3.2h0.2c0.4,2.4,2.4,4.2,4.8,4.2c0,0,0,0,0,0
					C402.9,257.2,404.6,258.7,406.9,259.2L406.9,259.2z"/>
				<path class="st10" d="M400.5,255.4C400.5,255.4,400.5,255.4,400.5,255.4c-2.4,0-4.4-1.8-4.8-4.2c0-0.2-0.1-0.5-0.1-0.7
					c0-2.7,2.2-4.9,4.8-4.9c0.3,0,0.6,0,0.9,0.1c0,0,0.1,0,0.1,0c1.5,0.2,2.6,1.2,3.3,2.5c0.4,0.7,0.6,1.5,0.6,2.3
					C405.3,253.2,403.1,255.4,400.5,255.4z"/>
				<path class="st6" d="M401.4,245.6l0,0.1c0,0-0.1,0-0.1,0c-0.3-0.1-0.6-0.1-0.9-0.1c-2.6,0-4.8,2.2-4.8,4.9
					c0,0.2,0.1,0.5,0.1,0.7h-0.2c-1.3-1.1-1.9-2.1-2.8-3.2c1.6-2.6,3-5.3,4.4-7.9C397.7,241.5,399.5,243.8,401.4,245.6z"/>
				<path class="st6" d="M350.9,102.7c0,0-0.1,0-0.1,0c-0.2-0.1-0.5-0.2-0.8-0.3c-4.7-1.7-7.9-5.7-8-11.4c0-1.4,0.1-3.8,0.3-6.6
					c1.2-1.6,4.6-3,4.6-3c10.5-2.5,15,6.4,21,5.2c1.3-0.2,6.9-1.8,9.9-4.9c2.5-2.7,3.8-12.4,3.8-12.4l-2.9-8c0,0,1.7-2,1.8-6.4
					c0.2-4.3-6.4-9.2-6.4-9.2s-19,8.6-21.3,8.5c-2.3-0.1-7.7-6.3-7.7-6.3s-5.2-10.3,3.9-15.3c3.6-2,6.4-1.8,8.5-1
					c0,0,2.8-6.6,21-0.6s19.7,19.5,19,31l-2.1-0.5h-0.2c-0.2,2.3-0.9,3.2-0.9,3.2l-1.2-0.9l-1.2,4.7l0,0c0,0-0.1,0-0.1,0
					c-4.7-2-6.9,3.8-6.9,3.8h0.1l-1,11.3l-0.1,0.1v0c0,0-0.1,0-0.1,0C374.5,100.1,360.2,105.5,350.9,102.7z"/>
				<path class="st3" d="M384.4,102.1l0.1,0.4l-12.9,32.8c-0.5-0.3-0.9-0.6-1.3-0.9c-4.6-3.9-11-10.7-17.6,2.2l-0.4-0.2l5.3-11
					l26.1-23.8l0.6,0.2L384.4,102.1z"/>
				<path class="st10" d="M383.9,83.7l-0.2,15.6v2.3l-26.1,23.8l-5.3,11l-1.1,2.2l-2.6,5.4l-0.2-4.3l-0.8-16.6l3.3-20.4
					c9.3,2.7,23.6-2.6,32.9-19C383.8,83.7,383.9,83.7,383.9,83.7z"/>
				<path class="st10" d="M378.7,61.3l2.9,8c0,0-1.3,9.7-3.8,12.4c-3,3.1-8.6,4.7-9.9,4.9c-6,1.2-10.5-7.7-21-5.2c0,0-3.4,1.4-4.6,3
					c0.6-13,2.8-36.5,2.8-36.5s5.4,6.2,7.7,6.3c2.3,0.1,21.3-8.5,21.3-8.5s6.6,4.9,6.4,9.2C380.4,59.3,378.7,61.3,378.7,61.3z"/>
				<path class="st6" d="M367.9,465.7l0.2,15.2c0,0-1,1.2-3,2.8c0,0-0.1,0.1-0.1,0.1c-1.9,1.5-4.7,3.2-8.2,4.3
					c-3.6,1.1-7.9,1.2-11.8,1c-6.2-0.3-7.9-2.4-7.9-2.4l-1.4-14.6C347.9,476,362.5,473.4,367.9,465.7z"/>
				<path class="st6" d="M341.7,499.2c4.6,0.3,8.6,3.7,8.9,6.9c0,0,7.7-0.2,10-2.5c1.7-1.7,2.9-2.8,4.9-3.1
					c-0.2,8.8-0.6,17.9-1.5,18.6c-1.8,1.6-11.1,2.7-14,3.1c-2.9,0.4-5.8,2.6-9.3,4.4c-3.5,1.8-27,3.5-30.6,1.7s0-11.8,6.3-13.9
					c6.3-2.1,12-3.9,15.1-6.6c3.1-2.7,4.6-8.6,9.5-8.6c0.2,0,0.4,0,0.6,0C341.6,499.2,341.7,499.2,341.7,499.2z"/>
				<path class="st10" d="M365,483.8L365,483.8c0,0-0.2,8.6,0.5,16.7c-2,0.3-3.2,1.4-4.9,3.1c-2.3,2.3-10,2.5-10,2.5
					c-0.3-3.2-4.3-6.6-8.9-6.9c0.4-0.4,2.1-2.1,3.3-4.2c0.6-1,0-5.8,0-5.8v-0.1c3.9,0.2,8.2,0.1,11.8-1
					C360.3,487,363.1,485.3,365,483.8z"/>
				<path class="st6" d="M370.3,134.4c-6.2-4.2-9.4-4.1-17.2,2.5c-0.6,0.5-1.3,1.1-1.9,1.7l1.1-2.2l0.4,0.2
					C359.4,123.7,365.8,130.4,370.3,134.4z"/>
				<path class="st3" d="M350.9,102.7l-3.3,20.4l0.8,16.6h-0.1c-0.2-0.7-0.5-1.5-0.9-2.4c-1.1-4.8-3-11.9-4.9-12.4
					c-2.9-0.8-8.7,3.9-8.7,3.9c1-9,11.1-20.7,14.8-24.7c0-0.1,0.1-0.1,0.1-0.2c0.8-0.8,1.2-1.2,1.2-1.2l0.1-0.4
					c0.3,0.1,0.6,0.2,0.8,0.3C350.8,102.7,350.9,102.7,350.9,102.7z"/>
				<path class="st6" d="M342.5,124.9c1.9,0.5,3.8,7.6,4.9,12.4c-1.9-4.6-5.4-10.9-13.6-8.5C333.8,128.8,339.6,124.1,342.5,124.9z"
					/>
				<path class="st3" d="M330.1,114.7c2.3-1.6,4.8-3.8,6.6-4.9c-4.6,3.1-7,8.3-8,13.9c-0.6,3.1-2.2,36.6-2.7,58.1h-0.5
					c-13.7-8.1-17.9-15-20.2-18.7c0,0,0,0,0,0c-0.9-1.5-1.2-2.4-1.2-2.4s12-29.3,20.5-40C326,119,327.9,116.2,330.1,114.7z"/>
			</g>
			<g>
				<polyline class="st8" points="385,72.3 384,83.6 383.9,83.7 383.9,83.7 383.7,99.3 383.7,101.6 357.6,125.4 352.3,136.4 
					351.2,138.6 348.6,144 348.4,139.7 347.6,123.1 350.9,102.7 350.9,102.7 				"/>
				<path class="st8" d="M342.3,84.4c1.2-1.6,4.6-3,4.6-3c10.5-2.5,15,6.4,21,5.2c1.3-0.2,6.9-1.8,9.9-4.9
					c2.5-2.7,3.8-12.4,3.8-12.4l-2.9-8c0,0,1.7-2,1.8-6.4c0.2-4.3-6.4-9.2-6.4-9.2s-19,8.6-21.3,8.5c-2.3-0.1-7.7-6.3-7.7-6.3
					S342.9,71.4,342.3,84.4c-0.2,2.8-0.3,5.2-0.3,6.6c0.1,5.7,3.3,9.7,8,11.4c0.3,0.1,0.6,0.2,0.8,0.3c0,0,0.1,0,0.1,0
					c9.3,2.7,23.6-2.6,32.9-19"/>
				<path class="st8" d="M383.8,83.7c0,0,0.1,0,0.1,0c0.9,0.4,2.1,0.5,3.3,0.1c4.3-1.5,9.3-13.2,4.7-15.3c0,0-0.1,0-0.1,0
					c-4.7-2-6.9,3.8-6.9,3.8"/>
				<path class="st8" d="M391.9,68.5l1.2-4.7l1.2,0.9c0,0,0.7-0.9,0.9-3.2c0.1-0.8,0.1-1.9,0-3.1"/>
				<path class="st8" d="M345.1,47.9c0,0-5.2-10.3,3.9-15.3c3.6-2,6.4-1.8,8.5-1c3.1,1.3,4.5,4.3,4.5,4.3"/>
				<path class="st8" d="M357.5,31.6c0,0,2.8-6.6,21-0.6s19.7,19.5,19,31l-2.1-0.5"/>
				<path class="st8" d="M347.4,137.4c0.6,2.6,0.9,4.5,0.9,4.5"/>
				<path class="st8" d="M349.9,102.8c0,0-0.4,0.4-1.2,1.2c0,0.1-0.1,0.1-0.1,0.2c-3.6,3.9-13.8,15.7-14.8,24.7c0,0,5.8-4.7,8.7-3.9
					c1.9,0.5,3.8,7.6,4.9,12.4"/>
				<path class="st8" d="M352.7,136.6c6.7-13,13.1-6.2,17.6-2.2c0.4,0.4,0.9,0.7,1.3,1l0-0.1l12.9-32.8l-0.1-0.4l-0.1-0.3"/>
				<path class="st8" d="M409.2,173.6c-4.5-9.2-10-21.2-10.5-25.6c-0.8-7.6-3.2-28.3,13.4-33"/>
				<path class="st8" d="M447,167.7c-0.2,0.1-1.8,1.4-4.7,3.3c-6.1,4.1-14.4,10-27,14.5c0,0-0.1,0-0.1,0c0,0-2.2-4.1-4.9-9.7
					c-0.3-0.7-0.7-1.4-1.1-2.2"/>
				<path class="st8" d="M384.5,102.1c0,0,2.3,2.8,4.2,3.3c1.9,0.5,13,3,23.4,9.5c0,0,0.1,0.1,0.1,0.1c6.4,4.1,34.8,52.6,34.8,52.6"
					/>
				<path class="st8" d="M447,167.7c0,0.1-0.5,1.9-3.3,5.6"/>
				<path class="st8" d="M409.2,173.6L409.2,173.6c0,9.9-1.4,20.7-2.8,27.4c-1.8,8-4,13.2-4,13.2"/>
				<path class="st8" d="M407.4,221c-0.3-4.7-1.2-9.9-0.9-19.9c0,0,0-0.1,0-0.1c0-0.1,0-0.1,0-0.2"/>
				<path class="st8" d="M412.2,252.4c-2.1,2.7-4,5-5.4,6.8c0,0,0,0-0.1,0.1c-1.4,1.8-2.4,3.1-3,3.8c0,0-0.1,0.1-0.1,0.1"/>
				<path class="st8" d="M442.3,171c0,0,0.5,0.7,1.1,1.8c0.1,0.2,0.2,0.3,0.3,0.5c2.8,4.8,6.9,13.1,4.9,18.9
					c-2.9,8.5-19.5,38.6-33.3,56.3c-1.1,1.4-2.1,2.7-3,3.9"/>
				<polyline class="st8" points="420.3,194.5 416.8,188.2 416.6,187.9 415.3,185.5 				"/>
				<path class="st8" d="M422.5,191.6c-0.8,0.9-1.5,1.9-2.2,2.9c-3.2,4.5-6.6,14.3-12.9,26.5c-2,3.9-4.3,8.1-7,12.4c0,0,0,0.1,0,0.1
					c-1.1,2.2-2.2,4.4-3.3,6.6c-1.4,2.6-2.8,5.3-4.4,7.9c-0.5,0.9-1.1,1.9-1.7,2.8"/>
				<path class="st8" d="M328.1,232.5c0,0,25.4,12.7,72.3,0.9"/>
				<path class="st8" d="M321.5,221c0.6,3.8,1.2,9.3,6.6,11.5"/>
				<path class="st8" d="M336.8,109.8c-4.6,3.1-7,8.3-8,13.9c-0.6,3.1-2.2,36.6-2.7,58.1c0,0.8,0,1.7-0.1,2.5c0,0.7,0,1.4,0,2
					c-0.1,4.9-0.4,8.7-0.6,10.9c-1.5,11.3-4.2,20-4.2,20s0,1.6,0.3,3.8"/>
				<path class="st8" d="M348.4,104c0,0,0,0-0.1,0c-0.9,0.3-6.3,2.2-11.5,5.8"/>
				<path class="st8" d="M325.6,181.8c-13.7-8.1-17.9-15-20.2-18.7c0,0,0,0,0,0c-0.9-1.5-1.2-2.4-1.2-2.4s12-29.3,20.5-40
					c1.3-1.6,3.2-4.4,5.5-6s4.8-3.8,6.6-4.9"/>
				<path class="st8" d="M305.3,163.2c0,0-0.2,0.8-0.7,2.2c-0.1,0.2-0.1,0.3-0.1,0.5c-1.5,5.2-4.5,15.2-4.3,19.2
					c0.3,5.1,13.8,47.4,20,55.8c0.1,0.1,0.2,0.2,0.2,0.3"/>
				<path class="st8" d="M321.5,221c0,0.4-0.7,11.3-1.2,19.8c-0.2,3.6-0.5,7.1-0.8,9.6c-1.1,8.6,4.8,93.1,4.8,93.1l11.5,128.6
					l1.4,14.6c0,0,1.7,2.1,7.9,2.4c3.9,0.2,8.2,0.1,11.8-1c3.5-1.1,6.3-2.8,8.2-4.3c0,0,0.1,0,0.1-0.1c2-1.6,3-2.8,3-2.8l-0.2-15.2
					l-1.3-105.9l-0.5-26.2l0-0.5"/>
				<path class="st2" d="M335.7,472.1c12.2,3.9,26.8,1.3,32.2-6.4"/>
				<path class="st8" d="M365.5,500.5c-0.2,8.8-0.6,17.9-1.5,18.6c-1.8,1.6-11.1,2.7-14,3.1c-2.9,0.4-5.8,2.6-9.3,4.4
					c-3.5,1.8-27,3.5-30.6,1.7s0-11.8,6.3-13.9c6.3-2.1,12-3.9,15.1-6.6c3.1-2.7,4.6-8.6,9.5-8.6c0.2,0,0.4,0,0.6,0c0,0,0.1,0,0.1,0
					c4.6,0.3,8.6,3.7,8.9,6.9c0,0,7.7-0.2,10-2.5C362.3,501.9,363.5,500.8,365.5,500.5c-0.7-8.1-0.5-16.7-0.5-16.7"/>
				<path class="st8" d="M345,489.2c0,0,0.6,4.8,0,5.8c-1.2,2.1-2.9,3.8-3.3,4.2c-0.1,0.1-0.1,0.1-0.1,0.1"/>
				<path class="st8" d="M426.4,485.5c2.3-1.8,3-2.5,3-2.5s-0.5-5.1-1.2-13c0,0,0-0.1,0-0.1c-2.3-25.9-10.1-82.4-10.8-94.2
					c-1-15.6-4.2-53.1-5-64c-0.5-7.4-0.5-31.8-0.4-46.9c0.1-7.2,0.1-12.3,0.1-12.3"/>
				<path class="st8" d="M381.5,386c0,0.1,0,0.1,0.1,0.2c2.1,7.7,10.3,60.5,14,85.9c1.2,8.2,2,13.5,2,13.5s3.5,1.8,7.8,3.2
					c0,0,0,0,0,0c3.3,1.1,7,2.1,10,1.9c3.8-0.2,8-2.9,11-5.2"/>
				<path class="st2" d="M340.8,251.2c0,0,2.5,30.8,4.3,33.5c1.8,2.7,11,14.4,11,14.4s4.6,15.9,9.9,34.1c0,0.1,0.1,0.2,0.1,0.4
					c6.4,22.1,13.8,47.6,15.3,52.4l0.2,0.2l10.2,14.4"/>
				<path class="st2" d="M395.6,472.1c22.3,11.2,32.6-2.1,32.6-2.1"/>
				<path class="st2" d="M389.2,243.7c0.2,2.6,0.8,5,1.7,7.1c0,0,0,0,0,0c2.6,6.3,7.8,10.3,12.9,12.2l0,0c2.5,1,5,1.5,7.1,1.6"/>
				<path class="st8" d="M404.7,248.2c2.9,2.4,5.6,4.2,7.5,4.2"/>
				<path class="st8" d="M397.1,240.1c0.6,1.4,2.4,3.7,4.3,5.5"/>
				<path class="st8" d="M400.4,255.3c0,0,0.1,0.1,0.1,0.1c2.3,1.9,4.1,3.3,6.3,3.8"/>
				<path class="st8" d="M392.7,248c0.9,1.1,1.5,2.1,2.8,3.2"/>
				<path class="st8" d="M404.7,248.2c0.4,0.7,0.6,1.5,0.6,2.3c0,2.7-2.2,4.9-4.8,4.9c0,0,0,0,0,0c-2.4,0-4.4-1.8-4.8-4.2
					c0-0.2-0.1-0.5-0.1-0.7c0-2.7,2.2-4.9,4.8-4.9c0.3,0,0.6,0,0.9,0.1c0,0,0.1,0,0.1,0C402.8,245.9,404,246.9,404.7,248.2z"/>
				<path class="st8" d="M413.8,503.7c0,0-0.1,0-0.1,0.1c-3.8,2.4-5.5-2.1-6.8-3.3"/>
				<path class="st8" d="M405.2,489.3c0.5,1.5,0.7,6.4,0.9,11.2c0,0,0,0,0,0.1c0.2,5.5,0.3,10.9,0.3,10.9s5.4,6.8,9.3,8.8
					c3.9,2,9.8,11.9,15.3,14c5.6,2.1,19.9-0.9,21.4-7.3c1.2-4.9-11.6-13-15.9-16.2c-4.3-3.1-6.6-9.4-7.8-11.5
					c-0.3-0.5-1-1.1-1.9-1.6c-2.7-1.4-7.4-1.9-10.9,1.6c-1.2,1.2-1,4.2-2.2,4.5"/>
				<line class="st8" x1="426.4" y1="485.5" x2="427.7" y2="497.6"/>
				<path class="st8" d="M371.7,135.3C371.7,135.3,371.7,135.3,371.7,135.3c-0.5-0.4-1-0.7-1.4-0.9c-6.2-4.2-9.4-4.1-17.2,2.5
					c-0.6,0.5-1.3,1.1-1.9,1.7"/>
				<path class="st8" d="M333.8,128.8c8.2-2.4,11.7,3.9,13.6,8.5c0.4,0.9,0.7,1.7,0.9,2.4"/>
			</g>
		</g>
	</g>
	<path class="st6" d="M390,73.7c-0.3-0.3-0.6-0.6-0.7-0.7c-0.3-0.1-0.2,0.1-0.4,0.2c0,0.1-0.2,0.8-0.3,1.5c-0.1,0.7-0.3,1.4-0.7,2.1
		c-0.2,0.4-0.4,0.8-0.7,1c-0.4,0.3-0.8,0.4-1.2,0.2c0.4-0.2,0.5-0.5,0.6-0.8s0.1-0.6,0.2-0.8c0.1-0.7,0.1-1.3,0.3-2.1
		c0.1-0.4,0.2-0.8,0.3-1.1c0.1-0.2,0.2-0.4,0.3-0.6c0.1-0.1,0.1-0.2,0.3-0.3c0.1-0.1,0.3-0.2,0.4-0.3c0.2-0.1,0.5-0.2,0.8-0.2
		c0.4,0.1,0.6,0.3,0.7,0.5C390.1,72.9,390.1,73.4,390,73.7z"/>
	<path class="st6" d="M362.3,70.5L362.3,70.5c0.8,0.1,1.5-0.5,1.6-1.4l0.1-0.9c0.1-0.9-0.5-1.6-1.3-1.7l0,0
		c-0.8-0.1-1.5,0.5-1.6,1.4l-0.1,0.9C360.9,69.7,361.5,70.5,362.3,70.5z"/>
	<path class="st6" d="M346.7,68.6L346.7,68.6c0.8,0.1,1.5-0.5,1.6-1.4l0.1-0.9c0.1-0.9-0.5-1.6-1.3-1.7l0,0
		c-0.8-0.1-1.5,0.5-1.6,1.4l-0.1,0.9C345.3,67.9,345.9,68.6,346.7,68.6z"/>
	<g>
		<path class="st6" d="M372.7,63.7c0-0.1-0.8-3.1-2.1-4.4c-1-0.9-5.7-1-7.1-0.8c-0.7,0.1-4,1.9-4.1,2l0,0c0,0-0.4,0.5-0.4,0.8v0.5
			c0,0.4,0.2,1.3,0.5,1.5s0.7,0.2,1.1,0c1-0.6,2.7-1.7,3.8-1.8c1.4-0.2,3.5-0.1,4.7-0.1c0.6,0,1.1,0.3,1.5,0.7l2.2,2L372.7,63.7z"/>
		<path class="st6" d="M345.7,57.6c-0.9,0.3-2.2,2.7-2.3,2.8l0.7-0.2l1.7-1c0.4,0.2,2.4,1.3,3.5,2.2c0.6,0.6,0.9,2,1.9,2.6l0,0
			c0.2-0.4,0.7-3.2-0.8-4.8C349.7,58.5,347.3,57,345.7,57.6z"/>
	</g>
	<path class="st6" d="M345.1,47.9c0,0-2.7-3.4-4.8,0c-2.1,3.4,0.8,8.7,0.8,8.7s-4.7-5.5-2.9-10.9s6.5-3.1,7.6,1.9L345.1,47.9z"/>
	<path class="st8" d="M314.2,177.1c7.7,4.5,9.6,13.2,11.4,19"/>
	<path class="st2" d="M336.2,291c7.9,0.3,17.8,5.2,19.9,8.1"/>
	<path class="st11" d="M348.7,87.8c5.2,1.1,7.1-1.1,7.1-1.1"/>
	<path class="st12" d="M369.5,151l19.4,1.4c0.9,0.1,1.6,0.9,1.5,1.8l-1.6,18.6c-0.1,1.1-0.8,2.1-1.9,2.5l-9.6,3.6
		c-0.6,0.2-1.2,0.1-1.7-0.2l-8-5.8c-0.8-0.6-1.3-1.6-1.2-2.6l1.3-17.8C367.8,151.7,368.6,151,369.5,151z"/>
	<line class="st13" x1="367.4" y1="157.3" x2="389.9" y2="159.2"/>
	<path class="st8" d="M411.4,178c10.6-2.6,31.8-16.7,31.8-16.7"/>
	<path class="st8" d="M307.2,154.1c7.5,10.6,18.7,18.9,18.7,18.9"/>
	<path class="st8" d="M396,242.2"/>
	<path class="st8" d="M318.6,236.6"/>
	<path class="st6" d="M351.4,64.1c0.3,1.1-1.7,4.7-2.1,5.9c-0.2,0.6-1.7,3.6-2.1,4.1c-0.2,0.3-0.4,0.5-0.6,0.7
		c-0.1,0.1-0.2,0.3-0.3,0.4c-0.1,0.3-0.1,0.6,0,0.9c0.1,0.4,0.4,0.8,0.7,1.2c0.6,0.8,3.1,2.4,4,3c-1.2,0.1-4-1.2-5-2
		c-0.5-0.4-1-0.9-1.3-1.6s-0.4-1.6,0-2.3c0.2-0.4,0.4-0.7,0.7-0.9c0.2-0.2,0.4-0.3,0.5-0.5c0.3-0.4,0.7-0.8,0.9-1.2
		c0.4-0.6,0.7-1.2,1-1.8c0.4-0.8,0.8-1.6,1.3-2.4L351.4,64.1z"/>
	<path class="st2" d="M332.2,508.5c3.7,4.2,11.9,2.9,16.8-1.4"/>
	<path class="st2" d="M415.1,504.5c0,0,4.7,4.9,7.9,6.5c3.3,1.7,12.2,1.1,9.1-3.9"/>
</g>
</svg>
