<?xml version="1.0" encoding="UTF-8"?>
<svg id="Layer_2" data-name="Layer 2" xmlns="http://www.w3.org/2000/svg" xmlns:xlink="http://www.w3.org/1999/xlink" viewBox="0 0 675.12 537.6">
  <defs>
    <style>
      .cls-1 {
        stroke-width: 1.8px;
      }

      .cls-1, .cls-2 {
        stroke: #00b4d8;
      }

      .cls-1, .cls-2, .cls-3, .cls-4, .cls-5 {
        fill: none;
      }

      .cls-1, .cls-2, .cls-3, .cls-5 {
        stroke-linecap: round;
        stroke-linejoin: round;
      }

      .cls-2, .cls-3, .cls-5 {
        stroke-width: 1.8px;
      }

      .cls-3, .cls-6, .cls-7 {
        stroke: #03045e;
      }

      .cls-8 {
        fill: #03045e;
      }

      .cls-8, .cls-4, .cls-9, .cls-10, .cls-11, .cls-12, .cls-13 {
        stroke-width: 0px;
      }

      .cls-9 {
        fill: #90e0ef;
      }

      .cls-14 {
        clip-path: url(#clippath-1);
      }

      .cls-10 {
        fill: #f3de8a;
      }

      .cls-11, .cls-6 {
        fill: #00b4d8;
      }

      .cls-6, .cls-7 {
        stroke-miterlimit: 10;
        stroke-width: 2px;
      }

      .cls-15 {
        clip-path: url(#clippath);
      }

      .cls-5 {
        stroke: #fff;
      }

      .cls-7 {
        fill: #fff;
      }

      .cls-12 {
        fill: #d90368;
      }

      .cls-13 {
        fill: #b8d8c7;
      }
    </style>
    <clipPath id="clippath">
      <path class="cls-4" d="m591.84,450.2l-520-14.9c-24.2-.7-44.1-19.2-46.5-43.3L.24,144c-2.8-28.1,19-52.6,47.2-53l578.8-8c29.2-.4,52.1,25.1,48.5,54.1l-33.7,270.9c-3.1,24.7-24.4,43-49.2,42.2Z"/>
    </clipPath>
    <clipPath id="clippath-1">
      <path class="cls-4" d="m380.34,98.8s5,1.5,15.6,1.7c10.6.2,22.7,3.3,27.4,9.2,4.7,5.9,6.2,49.4,5.5,69.1-.7,19.6-14.8,49-14.8,49,0,0-33.7,3.8-61.3,2.5-27.6-1.4-34.2-7.4-36.1-9.3s-3-6.5-1.9-8.5c1.1-1.9,6.5-17.5,8.5-32.4,1.9-15-2.2-35.7-.3-54,1.9-18.3,9-23.7,9-23.7,0,0,8.9-3,24.3-3.5,15.3-.7,24.1-.1,24.1-.1Z"/>
    </clipPath>
  </defs>
  <g id="illustration">
    <g>
      <g>
        <path class="cls-9" d="m591.84,450.2l-520-14.9c-24.2-.7-44.1-19.2-46.5-43.3L.24,144c-2.8-28.1,19-52.6,47.2-53l578.8-8c29.2-.4,52.1,25.1,48.5,54.1l-33.7,270.9c-3.1,24.7-24.4,43-49.2,42.2Z"/>
        <g class="cls-15">
          <g>
            <path class="cls-1" d="m516.94,517.5h415.5c8.3,0,15-6.7,15-15v-235.6c0-8.3-6.7-15-15-15h-415.5c-8.3,0-15,6.7-15,15v235.6c0,8.3,6.8,15,15,15Z"/>
            <path class="cls-1" d="m-32.16,501.7h419.1c8.3,0,15-6.7,15-15V142.4c0-8.3-6.7-15-15-15H-32.16c-8.3,0-15,6.7-15,15v344.3c0,8.3,6.8,15,15,15Z"/>
            <g>
              <path class="cls-1" d="m539.54,251.8h20.3c2.2,0,4-1.6,4.3-3.8l1.6-14.4c.3-2.5-1.7-4.8-4.3-4.8h-23.5c-2.6,0-4.5,2.2-4.3,4.8l1.6,14.4c.3,2.2,2.1,3.8,4.3,3.8Z"/>
              <path class="cls-11" d="m552.04,228.9s8-.8,9.6-11.6c0,0-7.2,2.1-9.5,7.2,0,0-1-11.4-6.4-12.5,0,0-2.4,8.5,1.4,12.7,0,0-2.9-4.8-10.3-4.7,0,0,1.9,6.8,9.2,8.8"/>
            </g>
            <g>
              <path class="cls-1" d="m53.84,232.1h20.3c2.2,0,4-1.6,4.3-3.8l1.6-14.4c.3-2.5-1.7-4.8-4.3-4.8h-23.5c-2.6,0-4.5,2.2-4.3,4.8l1.6,14.4c.2,2.1,2.1,3.8,4.3,3.8Z"/>
              <path class="cls-11" d="m66.34,209.1s8-.8,9.6-11.6c0,0-7.2,2.1-9.5,7.2,0,0-1-11.4-6.4-12.5,0,0-2.4,8.5,1.4,12.7,0,0-2.9-4.8-10.3-4.7,0,0,1.9,6.8,9.2,8.8"/>
            </g>
            <g>
              <path class="cls-1" d="m520.14,301.6h90.2c2.3,0,4.2-1.9,4.2-4.2v-27.5c0-2.3-1.9-4.2-4.2-4.2h-90.2c-2.3,0-4.2,1.9-4.2,4.2v27.4c0,2.4,1.9,4.3,4.2,4.3Z"/>
              <path class="cls-11" d="m554.84,275.5h20.8c.8,0,1.5-.7,1.5-1.5h0c0-.8-.7-1.5-1.5-1.5h-20.8c-.8,0-1.5.7-1.5,1.5h0c0,.8.7,1.5,1.5,1.5Z"/>
            </g>
            <g>
              <path class="cls-1" d="m520.14,347.4h90.2c2.3,0,4.2-1.9,4.2-4.2v-27.4c0-2.3-1.9-4.2-4.2-4.2h-90.2c-2.3,0-4.2,1.9-4.2,4.2v27.4c0,2.3,1.9,4.2,4.2,4.2Z"/>
              <path class="cls-11" d="m554.84,321.3h20.8c.8,0,1.5-.7,1.5-1.5h0c0-.8-.7-1.5-1.5-1.5h-20.8c-.8,0-1.5.7-1.5,1.5h0c0,.8.7,1.5,1.5,1.5Z"/>
            </g>
            <g>
              <path class="cls-1" d="m56.94,379.8h90.2c2.3,0,4.2-1.9,4.2-4.2v-27.4c0-2.3-1.9-4.2-4.2-4.2H56.94c-2.3,0-4.2,1.9-4.2,4.2v27.4c0,2.3,1.9,4.2,4.2,4.2Z"/>
              <path class="cls-11" d="m91.74,353.6h20.8c.8,0,1.5-.7,1.5-1.5h0c0-.8-.7-1.5-1.5-1.5h-20.8c-.8,0-1.5.7-1.5,1.5h0c0,.9.6,1.5,1.5,1.5Z"/>
            </g>
            <g>
              <path class="cls-1" d="m172.74,379.8h90.2c2.3,0,4.2-1.9,4.2-4.2v-27.4c0-2.3-1.9-4.2-4.2-4.2h-90.2c-2.3,0-4.2,1.9-4.2,4.2v27.4c0,2.3,1.9,4.2,4.2,4.2Z"/>
              <path class="cls-11" d="m207.54,353.6h20.8c.8,0,1.5-.7,1.5-1.5h0c0-.8-.7-1.5-1.5-1.5h-20.8c-.8,0-1.5.7-1.5,1.5h0c0,.9.6,1.5,1.5,1.5Z"/>
            </g>
            <g>
              <path class="cls-1" d="m635.14,301.6h90.2c2.3,0,4.2-1.9,4.2-4.2v-27.5c0-2.3-1.9-4.2-4.2-4.2h-90.2c-2.3,0-4.2,1.9-4.2,4.2v27.4c0,2.4,1.9,4.3,4.2,4.3Z"/>
              <path class="cls-13" d="m669.84,275.5h20.8c.8,0,1.5-.7,1.5-1.5h0c0-.8-.7-1.5-1.5-1.5h-20.8c-.8,0-1.5.7-1.5,1.5h0c0,.8.7,1.5,1.5,1.5Z"/>
            </g>
            <g>
              <path class="cls-1" d="m635.14,347.4h90.2c2.3,0,4.2-1.9,4.2-4.2v-27.4c0-2.3-1.9-4.2-4.2-4.2h-90.2c-2.3,0-4.2,1.9-4.2,4.2v27.4c0,2.3,1.9,4.2,4.2,4.2Z"/>
              <path class="cls-13" d="m669.84,321.3h20.8c.8,0,1.5-.7,1.5-1.5h0c0-.8-.7-1.5-1.5-1.5h-20.8c-.8,0-1.5.7-1.5,1.5h0c0,.8.7,1.5,1.5,1.5Z"/>
            </g>
            <path class="cls-1" d="m-74.36,232.2h455c2.5,0,4.6-2.1,4.6-4.6v-79.7c0-2.5-2.1-4.6-4.6-4.6H-74.36c-2.5,0-4.6,2.1-4.6,4.6v79.7c0,2.6,2.1,4.6,4.6,4.6Z"/>
            <path class="cls-1" d="m-74.36,331.2h455c2.5,0,4.6-2.1,4.6-4.6v-79.7c0-2.5-2.1-4.6-4.6-4.6H-74.36c-2.5,0-4.6,2.1-4.6,4.6v79.7c0,2.5,2.1,4.6,4.6,4.6Z"/>
            <rect class="cls-2" x="344.77" y="181.99" width="9.9" height="50.3"/>
            <rect class="cls-2" x="334.43" y="195.6" width="10.3" height="36.6"/>
            <rect class="cls-2" x="46.4" y="280.73" width="9.9" height="50.3"/>
            <rect class="cls-2" x="36.05" y="294.44" width="10.3" height="36.6"/>
            <rect class="cls-2" x="66.48" y="280.73" width="9.9" height="50.3"/>
            <rect class="cls-1" x="83.58" y="279.99" width="9.9" height="50.3" transform="translate(-87.77 40.82) rotate(-17.52)"/>
            <rect class="cls-2" x="56.24" y="294.44" width="10.3" height="36.6"/>
            <path class="cls-11" d="m265.44,188.5l-1.1-14.9c-.1-1,.7-1.8,1.7-1.8h8.6c1,0,1.7.8,1.7,1.8l-1.1,14.9s9,5.8,8.9,10.6c-.1,3.7-2.3,21.4-3.3,29.2-.3,2.2-2.1,3.8-4.3,3.8h-12.4c-2.2,0-4-1.6-4.3-3.8-1-7.8-3.2-25.5-3.3-29.2-.1-4.8,8.9-10.6,8.9-10.6Z"/>
            <path class="cls-11" d="m221.24,188.5l-1.1-14.9c-.1-1,.7-1.8,1.7-1.8h8.6c1,0,1.7.8,1.7,1.8l-1.1,14.9s9,5.8,8.9,10.6c-.1,3.7-2.3,21.4-3.3,29.2-.3,2.2-2.1,3.8-4.3,3.8h-12.4c-2.2,0-4-1.6-4.3-3.8-1-7.8-3.2-25.5-3.3-29.2-.1-4.8,8.9-10.6,8.9-10.6Z"/>
            <line class="cls-2" x1="662.74" y1="425.6" x2="-270.16" y2="425.6"/>
          </g>
        </g>
        <path class="cls-1" d="m249.44,331.2h-83.2c-2.7,0-4.9-2.2-4.9-4.9v-13.1c0-2.7,2.2-4.9,4.9-4.9h83.2c2.7,0,4.9,2.2,4.9,4.9v13.1c0,2.7-2.2,4.9-4.9,4.9Z"/>
        <rect class="cls-1" x="177.74" y="287.2" width="60" height="21"/>
        <circle class="cls-11" cx="170.74" cy="315.9" r="1.5"/>
      </g>
      <g>
        <path class="cls-11" d="m259.84,308.7l42.2-15.7c1.6-.6,2.7-2.2,2.7-3.9h0l-83.8-6,12.9,23.2,21.8,2.9c1.4.2,2.9,0,4.2-.5Z"/>
        <path class="cls-8" d="m153.64,293.4l-7.6-59.3c-.2-1.7,1.2-3.1,2.8-3l101.4,7.2c1.5.1,2.7,1.3,2.8,2.8l6,65.3c.2,1.7-1.3,3.1-3,2.9l-99.8-13.2c-1.4-.3-2.5-1.4-2.6-2.7Z"/>
        <path class="cls-8" d="m304.74,289.2c0,1.8-1.1,3.3-2.7,3.9l-42.2,15.7c-1,.4-2.2.6-3.3.5-1.6-1.2-2.6-3.1-2.6-3.1l50.8-17Z"/>
        <ellipse class="cls-11" cx="197.93" cy="268.08" rx="6" ry="7" transform="translate(-120.54 170) rotate(-36.44)"/>
      </g>
      <g>
        <path class="cls-10" d="m436.84,25h-30.6l-3.1,2c-1,.7-2.3-.1-2.3-1.3V4c0-2.2,1.8-4,4-4h32.1c2.2,0,4,1.8,4,4v16.9c-.1,2.3-1.9,4.1-4.1,4.1Z"/>
        <g>
          <line class="cls-3" x1="420.44" y1="10" x2="431.14" y2="10"/>
          <line class="cls-3" x1="420.44" y1="15.5" x2="426.94" y2="15.5"/>
          <rect class="cls-3" x="409.44" y="10" width="5.5" height="5.5"/>
        </g>
      </g>
      <g>
        <path class="cls-11" d="m254.04,186.9l-169,25.6c-3.8.6-7.2-2.2-7.5-6l-10.1-152.2c-.3-4.2,3.2-7.7,7.4-7.4l169.3,10.8c3.2.2,5.8,2.7,6.1,5.9l9.7,115.9c.3,3.5-2.3,6.8-5.9,7.4Z"/>
        <path class="cls-8" d="m258.64,186.7l-169.8,25.7c-3.8.6-7.2-2.2-7.5-6l-10.2-152.9c-.3-4.2,3.2-7.8,7.5-7.5l170,10.8c3.2.2,5.8,2.7,6.1,6l9.8,116.4c.4,3.7-2.2,7-5.9,7.5Z"/>
        <path class="cls-11" d="m147.94,134.3l-47.8,2.6c-1.5.1-2.8-1.1-2.9-2.6l-2.8-40.4c-.1-1.6,1.2-3,2.8-3l47.8.3c1.5,0,2.7,1.1,2.8,2.6l2.8,37.5c.1,1.6-1.1,2.9-2.7,3Z"/>
        <path class="cls-10" d="m199.34,118.7l-40,1.4c-1.5.1-2.8-1.1-2.9-2.6l-1.7-23.3c-.1-1.6,1.2-3,2.8-3l40,.3c1.4,0,2.6,1.1,2.8,2.6l1.7,21.6c.1,1.6-1.1,3-2.7,3Z"/>
        <path class="cls-12" d="m244.64,117.2l-33.7,1.2c-1.5.1-2.8-1.1-2.9-2.6l-1.7-21.1c-.1-1.6,1.2-3,2.8-3l33.7.2c1.4,0,2.6,1.1,2.8,2.6l1.6,19.7c.2,1.5-1,2.9-2.6,3Z"/>
        <path class="cls-2" d="m150.94,173.5l-47.8,5.2c-1.6.2-3-1-3.1-2.6l-1.8-26.1c-.1-1.5,1.1-2.9,2.6-3l47.9-3.2c1.5-.1,2.9,1,3,2.6l1.8,24.1c0,1.5-1.1,2.8-2.6,3Z"/>
        <path class="cls-12" d="m203.84,172.5l-39.9,4.7c-1.6.2-3-1-3.1-2.6l-3.2-43.1c-.1-1.6,1.1-2.9,2.6-3l40-1.9c1.5-.1,2.8,1.1,2.9,2.6l3.2,40.3c.1,1.5-1,2.8-2.5,3Z"/>
        <path class="cls-9" d="m195.54,134.1l-28.7,1.7c-.7,0-1.2.6-1.1,1.3l1.3,17.8c.1.7.6,1.2,1.3,1.1l28.7-2.5c.7-.1,1.2-.6,1.1-1.3l-1.3-17c-.1-.6-.7-1.1-1.3-1.1Z"/>
        <path class="cls-10" d="m248.64,162.6l-33.7,3.7c-1.6.2-3-1-3.1-2.6l-2.7-34.7c-.1-1.6,1.1-2.9,2.6-3l33.7-1.6c1.5-.1,2.8,1.1,2.9,2.6l2.7,32.6c.2,1.5-.9,2.8-2.4,3Z"/>
        <g>
          <line class="cls-2" x1="126.54" y1="157" x2="127.14" y2="164.4"/>
          <line class="cls-2" x1="123.34" y1="161" x2="130.34" y2="160.4"/>
        </g>
        <g>
          <path class="cls-9" d="m174.44,165.2c-.2-2-1.7-3.6-3.5-3.4s-3.2,2-3,4.1,1.8,3.6,3.6,3.4c1.7-.3,3-2.1,2.9-4.1Z"/>
          <line class="cls-3" x1="180.24" y1="164.6" x2="198.94" y2="162.7"/>
        </g>
        <g>
          <path class="cls-11" d="m221.84,135.4c-.2-1.9-1.5-3.3-3.1-3.3-1.6.1-2.7,1.7-2.6,3.6.2,1.9,1.5,3.4,3.1,3.3,1.7-.1,2.8-1.7,2.6-3.6Z"/>
          <line class="cls-3" x1="226.94" y1="135.1" x2="243.04" y2="134.1"/>
        </g>
        <g>
          <path class="cls-11" d="m222.74,146.1c-.2-1.9-1.5-3.3-3.1-3.2-1.6.1-2.7,1.8-2.6,3.7.2,1.9,1.6,3.4,3.1,3.2,1.6-.2,2.8-1.8,2.6-3.7Z"/>
          <line class="cls-3" x1="227.74" y1="145.7" x2="243.94" y2="144.4"/>
        </g>
        <g>
          <path class="cls-11" d="m223.64,156.8c-.2-1.9-1.5-3.3-3.1-3.2-1.6.1-2.7,1.8-2.6,3.7.2,1.9,1.6,3.3,3.1,3.2,1.6-.2,2.7-1.8,2.6-3.7Z"/>
          <line class="cls-3" x1="228.64" y1="156.3" x2="244.74" y2="154.7"/>
        </g>
        <g>
          <path class="cls-10" d="m111.14,107.1l-6.5.1c-.6,0-1.1-.5-1.2-1.1l-.5-6.8c0-.7.5-1.2,1.2-1.2h6.5c.6,0,1.1.5,1.2,1.1l.5,6.7c-.1.6-.6,1.2-1.2,1.2Z"/>
          <line class="cls-3" x1="118.14" y1="98.1" x2="140.64" y2="98"/>
          <line class="cls-3" x1="118.54" y1="103.9" x2="141.04" y2="103.7"/>
        </g>
        <g>
          <path class="cls-8" d="m219.04,105.5l-5.1.1c-.3,0-.6-.3-.7-.6l-.5-6.5c0-.4.3-.7.7-.7h5.1c.3,0,.6.3.7.6l.5,6.4c0,.3-.3.7-.7.7Z"/>
          <line class="cls-3" x1="223.84" y1="97.7" x2="240.54" y2="97.7"/>
          <line class="cls-3" x1="224.34" y1="102.8" x2="240.94" y2="102.6"/>
          <line class="cls-3" x1="213.74" y1="111.1" x2="241.54" y2="110.4"/>
        </g>
        <g>
          <path class="cls-10" d="m112.24,122.6l-6.5.2c-.6,0-1.2-.5-1.2-1.1l-.5-6.8c0-.7.5-1.2,1.1-1.2l6.5-.2c.6,0,1.1.5,1.2,1.1l.5,6.7c0,.7-.5,1.3-1.1,1.3Z"/>
          <line class="cls-3" x1="119.24" y1="113.4" x2="141.74" y2="112.8"/>
          <line class="cls-3" x1="119.64" y1="119.3" x2="142.14" y2="118.6"/>
        </g>
        <path class="cls-9" d="m128.64,74.2l-33.7-1c-1.1,0-2-.9-2.1-2l-.4-5.3c-.1-1.3,1-2.4,2.2-2.3l33.7,1.4c1.1,0,2,.9,2.1,2l.4,4.9c.1,1.2-.9,2.3-2.2,2.3Z"/>
        <line class="cls-3" x1="162.74" y1="97.9" x2="194.54" y2="97.8"/>
        <line class="cls-3" x1="163.14" y1="103.5" x2="194.94" y2="103.1"/>
        <line class="cls-3" x1="163.74" y1="112.3" x2="180.84" y2="111.9"/>
        <path class="cls-11" d="m243.64,73.7c-.1-1.5-1.2-2.8-2.5-2.9-1.2-.1-2.2,1.2-2,2.7.1,1.6,1.2,2.9,2.5,2.9,1.2.1,2.1-1.2,2-2.7Z"/>
        <path class="cls-11" d="m234.74,73.4c-.1-1.6-1.3-2.9-2.5-2.9-1.3-.1-2.2,1.2-2.1,2.8.1,1.6,1.3,2.9,2.6,2.9,1.2,0,2.1-1.3,2-2.8Z"/>
        <path class="cls-11" d="m225.54,73c-.1-1.6-1.3-2.9-2.6-3-1.3-.1-2.3,1.2-2.2,2.8.1,1.6,1.3,2.9,2.6,3,1.4.1,2.3-1.2,2.2-2.8Z"/>
      </g>
      <g>
        <g>
          <path class="cls-7" d="m305.34,157.1s-6.2,12.9-6.7,21.1,8.2,41.1,22.4,66.2c0,0,13.4-4.4,13.4-8.5s-7.9-52.6-7.4-54,6-11.7,6-16.1c0-4.3-25.6-13.5-27.7-8.7Z"/>
          <path class="cls-8" d="m333.04,165.8c0-4.4-25.5-13.5-27.6-8.7,0,0-.8,1.8-1.9,4.4,8.1,6.3,16.8,11.7,26.7,13.5,1.4-3.2,2.8-7,2.8-9.2Z"/>
          <path class="cls-6" d="m331.94,102.3s-10,3.4-17.6,20.6c-7.7,17.3-15.7,31.6-15.7,31.6,0,0,12.5,12.4,28.5,18.7,16,6.5,16.6-69.3,4.8-70.9Z"/>
          <path class="cls-3" d="m301.44,149.4s17.1,14,33,20.1"/>
        </g>
        <g>
          <path class="cls-7" d="m365.34,475.3s-.9,21-.7,23c.2,2.1-7,6.3-15.9,6-8.8-.3-9.7-2.9-9.7-2.9,0,0-2-22.7-2.2-25.9-.2-3.2,26.7-4.5,28.5-.2Z"/>
          <path class="cls-8" d="m364.84,487.4c.2-6,.5-12.1.5-12.1-1.8-4.3-28.7-3-28.5.2.1,1.5.6,7.1,1,12.7,7.9,3.9,18.3,2.9,27-.8Z"/>
          <path class="cls-8" d="m364.64,497.7s.8,5.9,1.1,12.3c.3,6.5,1.3,18.1.2,20.1-1.2,2-7.2,3.7-21.5,4.8s-27.5.1-29.8-1.7c-2.3-1.8-1.6-4.5.6-6.6,2.2-2.1,10.9-11.4,14.5-15.2,4.7-5,8.1-10.1,8.1-10.7.3-2.4.8-2.4.8-2.4,0,0,.6,1.5,1.4,1.4.8-.1,1.9-4.6,6.7-3.5,4.9,1.1,6.8,4.4,8.6,4.4,1.8-.1,6.7-.7,9.3-2.9Z"/>
          <path class="cls-7" d="m402.84,479.5s2.7,21.6,3.2,22.9,5.5,4.9,13.3,4.5,10.8-2.7,11.1-3.2-.2-25.2-.4-26.8-25.4-1.2-27.2,2.6Z"/>
          <path class="cls-8" d="m430.34,488c-.1-5.5-.3-10.6-.4-11.3-.3-1.6-25.3-1.1-27.2,2.7,0,0,.6,4.8,1.3,10,9,2.1,18,1.5,26.3-1.4Z"/>
          <path class="cls-8" d="m405.64,500.5c-.2,1.6-.3,3.1-.2,4.7.1,1.3.2,3.1.2,5.3.1,4.6.5,20.5,1.6,22.8s13.7,4.2,23.2,4.3c9.5.1,16.5-2.4,17.6-5,1.1-2.6.5-6.4-2.8-10.6-3.3-4.2-10.9-10.7-11.8-13.8-.9-3.1-2.3-6.7-2.9-7.7,0,0-1.3,1.8-2.7,2.2-1.3.4-3.2-5-7.3-5.2-4.1-.3-5.9,1.4-8.5,5.2-.1,0-3.7.3-6.4-2.2h0Z"/>
          <path class="cls-8" d="m433.54,414.6c-1.4-21.8-3.8-54.3-4.4-61.9,0,0-3-36-4.6-54.5s-.7-37.4-3.1-69.3c-2.07-25.44-52.48-24.46-73.01-14.05-15.05-.22-29.8,2.64-30.49,3.85,0,0-2.4,10.9-3.6,25.6-1.2,14.7,3,105.8,3.6,112.9.6,7.1,2.9,47.6,5.5,67.3,2.1,16.2.6,48.9,5.5,53.5,4.9,4.6,19.9,7.1,29.2,4.6,9.3-2.5,13.6-7.1,14.7-10.9,1.1-3.8-3.3-32.7-3-47.4s0-58.1-.5-68.4c0,0,.61-7.85,1.64-18.17,3.09,10.61,5.92,20.05,7.86,24.97,0,0,4.6,35.2,8.2,56.2,3.5,21,3,46.4,5.7,55.1s18.5,10.4,26.2,9.7c7.7-.7,18-3.7,17.7-12.7s-1.8-34.6-3.1-56.4Z"/>
          <path class="cls-2" d="m340.54,259.1c.3,5.6.8,10.5,1.5,13.4,2.5,10.4,7.9,11.2,12,13.6,4.1,2.5,18.8,61.3,24.8,76.6"/>
          <path class="cls-2" d="m354.04,286.1s-11.7-6-16.9-3.8"/>
          <ellipse class="cls-2" cx="336.14" cy="357.3" rx="13.2" ry="14.5"/>
          <ellipse class="cls-2" cx="405.14" cy="356.4" rx="13.6" ry="14.5"/>
          <path class="cls-5" d="m341.94,489.7s-.3-2.1,0-3"/>
          <path class="cls-5" d="m350.24,491v-4.3"/>
          <path class="cls-5" d="m360.34,489s.1-2.5,0-3.6"/>
          <path class="cls-5" d="m408.34,490.3s-.5-2.7-.5-3.5"/>
          <path class="cls-5" d="m418.34,490.7s.2-3.4,0-4.3"/>
          <path class="cls-5" d="m426.94,489.1s.2-2.3,0-3.4"/>
          <path class="cls-5" d="m332.54,509.9s7.6-6.1,22.5,2.3"/>
          <path class="cls-5" d="m326.84,517.6s9.4-7.5,23.4,1.6"/>
          <path class="cls-5" d="m435.74,514.3s-9.1-4-21.4,2.5"/>
          <path class="cls-5" d="m439.84,521.1s-10.5-4.6-23.2,3.7"/>
        </g>
        <path class="cls-7" d="m380.34,98.8s5,1.5,15.6,1.7c10.6.2,22.7,3.3,27.4,9.2,4.7,5.9,6.2,49.4,5.5,69.1-.7,19.6-14.8,49-14.8,49,0,0-33.7,3.8-61.3,2.5-27.6-1.4-34.2-7.4-36.1-9.3s-3-6.5-1.9-8.5c1.1-1.9,6.5-17.5,8.5-32.4,1.9-15-2.2-35.7-.3-54,1.9-18.3,9-23.7,9-23.7,0,0,8.9-3,24.3-3.5,15.3-.7,24.1-.1,24.1-.1Z"/>
        <g class="cls-14">
          <g>
            <path class="cls-3" d="m340.74,94.8s-12.9,19.8-8.8,61.5c4.1,41.7-13.9,63.2-5.7,82.4"/>
            <path class="cls-3" d="m410.44,98.5s-15.7,2.6-19.6,29.1c-3.9,26.5,6.4,61.9,4.5,81.8-1.9,19.9-7.2,31.6-7.2,31.6"/>
            <path class="cls-3" d="m412.14,234.6s5.3-49.9,0-77.5c-5.3-27.6,6.7-51.6,20.2-48.3"/>
            <path class="cls-3" d="m365.74,236.7s4.4-32.4,2.9-61.4c-.6-10.9-6.9-64.4,16.4-81.3"/>
            <path class="cls-3" d="m340.74,234.6s6.9-40.8,6.5-64.8c-.4-24-2.4-74.8,9.7-83"/>
          </g>
        </g>
        <circle class="cls-6" cx="378.84" cy="145" r="6.5"/>
        <path class="cls-6" d="m357.04,95c-2.7.1-4.8,1.7-6.7,3.6-1.2,1.2-2.3,2.8-2.8,4.9-3.8,18.4,2,40.6,9.4,40.4,9.3-.3,21.8-17.2,31.6-36.4,4-7.9-3.7-13.4-8.2-13.4-3.5-.1-17.7.6-23.3.9Z"/>
        <path class="cls-8" d="m399.74,56.1s0,8.1-4.7,16.1-10.4,12.2-12.3,15.8c-1.9,3.6-1.4-5.8,0-10.3,1.4-4.4,9.7-28.5,17-21.6Z"/>
        <path class="cls-7" d="m354.94,86.5s-1.1,9.7-1.8,13.4-2.3,13.4,10.1,14c11.1.6,17.1-8,19.3-12.2.7-1.3,1-2.7.9-4.1-.3-4.4-.9-15.2-.6-24,.4-11.2-27.9,5-27.9,12.9Z"/>
        <path class="cls-8" d="m376.94,87.2c-5.9,4.7-14.6,6.9-22.8,5.7-.3,2.6-.7,5.4-1,7-.1.5-.2,1.1-.3,1.8,10.1.5,21.6-4.5,24.1-14.5Z"/>
        <g>
          <path class="cls-8" d="m343.14,50.5s-2.7,3.9-2.3,6.9c.4,3,6.1,13.1,9,12.8,2.9-.3,5.9-12.7,2.5-16.8-3.5-4.1-8.1-4.8-9.2-2.9Z"/>
          <path class="cls-7" d="m345.44,56.2s.3,7-1,15c-1.3,8-2.2,20,9.7,23.3,11.9,3.3,25.9-1.2,30.3-17.6,4.4-16.4,7.6-33-7.6-37.8-15.2-4.8-33.2,1.4-31.4,17.1Z"/>
          <path class="cls-8" d="m350.54,64.2c.3,1.1.2,2.4-.2,3.6-.2.6-.5,1.1-.9,1.6-.2.3-.4.5-.6.7-.1.1-.2.3-.3.4-.1.3-.1.6,0,.9.1.4.4.8.7,1.2.6.8,1.5,1.5,2.4,2.1-1.2.1-2.4-.3-3.4-1.1-.5-.4-1-.9-1.3-1.6-.3-.7-.4-1.6,0-2.3.2-.4.4-.7.7-.9.2-.2.4-.3.5-.5.3-.4.7-.8.9-1.2.6-.9,1.1-1.8,1.5-2.9Z"/>
          <path class="cls-8" d="m383.84,68.8s-1.5-2.3-2.2-6.9c-.6-4.6-5.5-4.3-7.8-12.8-2.3-8.5-7.9,2-16.8,5.8-8.9,3.8-15.9-2.3-19.5-9.1-3.5-6.7,2.5-12.8,6.6-15.6,4.1-2.8,8.4,1.7,16.4-.3s20.9-4.5,27.1,4.5c6.2,9,12.6,11.2,12.2,21-.5,9.8-11.9,20.7-12.6,20.8-.8.2-3.4-7.4-3.4-7.4Z"/>
          <path class="cls-8" d="m362.74,59.4c-.3-.8-.6-2.3.5-3.1s3.6-.5,6,1c2.1,1.3,2.7,3.4,1.3,3.2-1.4-.2-2.5-.8-4.2-.9-1.8-.1-3.3.5-3.6-.2Z"/>
          <path class="cls-8" d="m350.74,58.3c.2-.7.4-2-.3-2.9-.6-.8-2.2-.7-3.7.4-1.3,1-1.7,2.9-.8,2.8.9-.1,1.5-.5,2.6-.4,1.1.1,2,.7,2.2.1Z"/>
          <path class="cls-8" d="m343.84,76.3s-.1,1.2,1.6,1.5c1.7.2,1.9-2.3,4.8-2.7,1.8-.2,8.1.3,10.7,2.7s6.2,5.2,11.4,3.6c5.2-1.6,8.3-8.9,9.3-19.5.9-9.7,4.5-.3,4.5,2,0,1.6-1.5-.7-3.3,5.8-.8,2.9,0,11.1-3.1,17.1-2.4,4.6-9.1,9.3-17.6,9.9-8.5.6-15.5-2.9-17.6-8.5-2.1-5.4-1.3-11.5-.7-11.9Z"/>
          <path class="cls-8" d="m347.94,65.8h0c.8.1,1.5-.5,1.6-1.3l.1-.8c.1-.8-.5-1.5-1.3-1.6h0c-.8-.1-1.5.5-1.6,1.3l-.1.8c-.1.8.5,1.5,1.3,1.6Z"/>
          <path class="cls-8" d="m363.84,66.8h0c.8.1,1.5-.5,1.6-1.3l.1-.8c.1-.8-.5-1.5-1.3-1.6h0c-.8-.1-1.5.5-1.6,1.3l-.1.8c-.1.9.5,1.6,1.3,1.6Z"/>
          <path class="cls-7" d="m382.74,69.7s2.7-6,7.4-5.3c4.8.8,2.4,13.4-6.3,13.3"/>
          <path class="cls-8" d="m389.84,68.9c-.3-.3-.6-.6-.8-.7-.3-.1-.2.1-.4.2,0,.1-.2.9-.3,1.6-.1.7-.3,1.5-.7,2.2-.2.4-.4.8-.8,1.1-.4.3-.9.4-1.3.2.4-.2.5-.5.6-.8s.1-.6.2-.9c.1-.7.1-1.4.3-2.2.1-.4.2-.8.3-1.2.1-.2.2-.4.3-.6.1-.1.1-.2.3-.3.1-.1.3-.2.4-.3.2-.1.5-.2.9-.2.4.1.6.3.8.5.3.5.3,1,.2,1.4Z"/>
          <path class="cls-5" d="m354.94,81.9s2.7,1.2,5.4.7"/>
          <ellipse class="cls-3" cx="344.14" cy="62.35" rx="9.1" ry="6" transform="translate(249.37 399.01) rotate(-84.55)"/>
          <ellipse class="cls-3" cx="364.69" cy="64.14" rx="9.1" ry="7.7" transform="translate(266.18 421.08) rotate(-84.55)"/>
          <path class="cls-3" d="m349.84,64.4s1.7-3.2,7.1.6"/>
          <line class="cls-3" x1="372.24" y1="64.9" x2="383.54" y2="67.3"/>
        </g>
        <g>
          <path class="cls-7" d="m415.54,175.3l5.3,10.7s-5.6,7.6-11.6,22c-6,14.4-10.4,32.2-14.5,37.3,0,0,4,9.6,13.8,13.8,0,0,19.1-28,27.8-40.2,8.7-12.2,17-27.8,16.4-35.6-.9-11.5-9.6-28.5-10.4-33.1-.8-4.6-26.6,11.8-26.8,25.1Z"/>
          <path class="cls-8" d="m442.24,150.2c-.7-4.5-26.5,11.8-26.7,25.1l.8,1.5c9.1-6.9,19.3-11.6,30.2-14.9-2.1-5.2-4-9.7-4.3-11.7Z"/>
          <path class="cls-8" d="m399.74,234.9c1.4,2.4,6.2,8.8,17.4,11.4.4.1.5.5.3.8l-5.1,6.9c-.1.2-.4.2-.6.2-12.5-3.8-15.8-10.1-16.3-11.3-.1-.1-.1-.3,0-.4l3.4-7.5c.2-.5.7-.5.9-.1Z"/>
          <ellipse class="cls-7" cx="402.89" cy="244.65" rx="4.8" ry="4.6" transform="translate(-15.48 461.76) rotate(-58.69)"/>
          <path class="cls-6" d="m418.44,108.9c2.4-.4,4.8.5,6.3,2.4,2.3,2.9,6.1,8.5,10.8,18.1,7.9,16.1,13.4,26.7,13.4,26.7,0,0-27.4,14.8-33.4,19.2,0,0-11.1-18.7-14.7-26.5-3.5-7.4-2.5-36.2,17.6-39.9Z"/>
          <path class="cls-3" d="m412.14,169.5s15-11.2,33.7-19.4"/>
          <path class="cls-2" d="m390.84,238.7s4.7,17.5,24,23.6"/>
          <path class="cls-3" d="m420.84,186s2.6-3.4,8.2-4.7"/>
        </g>
      </g>
      <g>
        <g>
          <path class="cls-11" d="m569.04,211l-88.5-10.9c-2.9-.4-4.9-2.9-4.6-5.8l9.4-87.8c.4-3.4,3-6.1,6.4-6.6l91.6-12.4c3.4-.5,6.4,2.4,6,5.9l-13.6,112.5c-.4,3.2-3.4,5.5-6.7,5.1Z"/>
          <path class="cls-8" d="m566.04,210.7l-88.5-11c-2.9-.4-4.9-2.9-4.6-5.8l9.4-87.8c.4-3.4,3-6.1,6.4-6.6l91.6-12.4c3.4-.5,6.4,2.4,6,5.9l-13.6,112.5c-.4,3.2-3.4,5.6-6.7,5.2Z"/>
        </g>
        <g>
          <path class="cls-9" d="m562.74,129.1l-69.3,3.5c-1.2.1-2.2-1-2-2.1l1.7-15.5c.1-.9.8-1.6,1.7-1.7l69.9-6.9c1.2-.1,2.3.9,2.1,2.2l-2.3,19c0,.7-.8,1.4-1.8,1.5Z"/>
          <g>
            <line class="cls-3" x1="511.14" y1="118.7" x2="557.04" y2="115"/>
            <line class="cls-3" x1="510.54" y1="124.6" x2="535.24" y2="122.9"/>
          </g>
          <ellipse class="cls-8" cx="500.72" cy="122.25" rx="3.4" ry="2.8" transform="translate(155.42 504.91) rotate(-61.66)"/>
        </g>
        <g>
          <path class="cls-12" d="m558.84,160.8l-68.5-1.2c-1.1,0-2-1-1.9-2.1l1.7-15.4c.1-1,.9-1.7,1.9-1.7l69-2.2c1.2,0,2.1,1,2,2.2l-2.2,18.8c-.1.8-1,1.6-2,1.6Z"/>
          <g>
            <line class="cls-3" x1="508.04" y1="146.9" x2="553.44" y2="146.3"/>
            <line class="cls-3" x1="507.34" y1="152.7" x2="531.84" y2="152.7"/>
          </g>
          <ellipse class="cls-8" cx="497.76" cy="150" rx="3.4" ry="2.7" transform="translate(146.17 532.95) rotate(-64.21)"/>
        </g>
        <g>
          <path class="cls-10" d="m555.04,192.2l-67.7-5.8c-1.1-.1-1.9-1.1-1.8-2.1l1.7-15.3c.1-1,1-1.8,2-1.7l68.2,2.5c1.1,0,2,1,1.9,2.2l-2.2,18.6c-.1.9-1.1,1.6-2.1,1.6Z"/>
          <g>
            <line class="cls-3" x1="504.94" y1="174.9" x2="549.74" y2="177.3"/>
            <line class="cls-3" x1="504.24" y1="180.6" x2="528.44" y2="182.3"/>
          </g>
          <ellipse class="cls-8" cx="494.88" cy="176.88" rx="3.4" ry="2.7" transform="translate(137.41 562.11) rotate(-66.81)"/>
        </g>
      </g>
    </g>
  </g>
</svg>