<svg width="657" height="389" viewBox="0 0 657 389" fill="none" xmlns="http://www.w3.org/2000/svg">
<path d="M269.927 305.522L232.851 184.11C231.749 180.796 228.658 178.593 225.122 178.593L5.75259 184.777C2.00433 184.777 -0.430102 188.313 0.45866 191.84L43.496 339.959C44.5973 343.708 48.3552 346.143 52.1035 345.477L265.068 312.585C268.816 312.14 271.029 308.836 269.927 305.522Z" fill="#03045E"/>
<path d="M271.908 311.706L399.464 323.629L180.761 377.489C175.467 378.813 169.951 378.813 164.648 377.489L45.9111 346.81L271.898 311.715L271.908 311.706Z" fill="#00B4D8"/>
<path d="M180.539 377.489L399.242 323.629C399.242 327.823 396.373 331.36 392.403 332.461L186.278 387.21C177.67 389.413 168.406 389.413 159.798 386.765L51.6591 354.975C47.9108 353.874 45.4764 350.559 45.4764 346.588L164.213 377.267C169.951 378.813 175.467 378.813 180.549 377.489H180.539Z" fill="#03045E"/>
<path d="M125.813 205.523L141.26 258.059C141.704 259.382 143.028 260.262 144.351 260.262L231.083 252.754C233.073 252.531 234.174 250.763 233.73 249.005L219.162 200.885C218.717 199.561 217.616 198.681 216.293 198.681L128.682 201.774C126.692 201.774 125.368 203.764 125.813 205.523Z" fill="white"/>
<path d="M142.361 215.021L152.07 246.579L219.606 241.729L217.181 234.665L192.238 223.63L178.114 234.665L142.361 215.021Z" fill="#D90368"/>
<path d="M192.905 279.471L199.309 299.337C199.754 300.661 201.077 301.541 202.623 301.328L244.337 295.811C246.105 295.588 247.428 293.82 246.762 292.061L241.246 273.519C240.801 272.195 239.478 271.316 238.154 271.316L195.561 275.732C193.571 275.732 192.248 277.5 192.914 279.481L192.905 279.471Z" fill="#F3DE8A"/>
<path d="M127.581 286.1L134.642 307.957C135.087 309.28 136.41 310.16 137.956 309.947L177.68 304.652C179.448 304.43 180.771 302.661 180.104 300.681L173.487 280.147C173.043 278.824 171.719 277.944 170.396 278.157L130.228 282.128C128.238 282.351 126.914 284.119 127.581 286.1Z" fill="#00B4D8"/>
<path d="M52.5382 293.598L60.0443 317.88C60.4887 319.204 61.8122 320.083 63.3579 319.871L111.245 313.464C113.013 313.242 114.336 311.474 113.67 309.493L106.386 286.757C105.941 285.433 104.618 284.554 103.294 284.766L55.4073 289.626C53.2047 289.849 51.8716 291.83 52.5382 293.598Z" fill="#D90368"/>
<path d="M78.3606 216.123C79.9062 222.741 86.7458 227.824 93.3633 227.38C99.7681 226.935 103.072 221.418 101.304 215.243C99.5363 209.281 93.3633 204.866 87.4028 204.866C81.2201 204.866 77.0274 209.938 78.3509 216.123H78.3606Z" fill="#F3DE8A"/>
<path d="M30.4737 211.929C30.4737 211.929 30.522 211.929 30.5413 211.929L62.7589 210.827C63.8506 210.789 64.7103 209.871 64.6717 208.769C64.6331 207.677 63.6863 206.817 62.6237 206.856L30.4061 207.958C29.3144 207.996 28.4547 208.914 28.4933 210.016C28.5319 211.088 29.411 211.939 30.4737 211.939V211.929Z" fill="#00B4D8"/>
<path d="M43.9307 257.624C43.9307 257.624 44.0273 257.624 44.0756 257.624L113.158 252.763C114.249 252.686 115.08 251.739 115.003 250.638C114.925 249.546 113.969 248.695 112.877 248.792L43.7955 253.652C42.7038 253.73 41.873 254.677 41.9503 255.778C42.0276 256.822 42.897 257.624 43.9307 257.624Z" fill="#00B4D8"/>
<path d="M34.222 225.176C34.222 225.176 34.2799 225.176 34.3089 225.176L66.5265 223.853C67.6181 223.804 68.4779 222.886 68.4296 221.785C68.3813 220.693 67.5022 219.881 66.3623 219.881L34.1447 221.205C33.053 221.253 32.1933 222.171 32.2416 223.273C32.2899 224.336 33.169 225.176 34.222 225.176Z" fill="#00B4D8"/>
<path d="M443.313 208.847L218.128 242.965C213.066 243.767 208.535 240.038 208.139 234.965L194.682 32.1164C194.286 26.5217 198.942 21.8547 204.545 22.2508L430.127 36.6482C434.387 36.9188 437.855 40.2427 438.251 44.5136L451.177 198.981C451.573 203.648 448.114 208.045 443.313 208.847Z" fill="#00B4D8"/>
<path d="M449.438 208.586L223.19 242.84C218.128 243.642 213.597 239.912 213.201 234.839L199.609 31.0632C199.213 25.4685 203.869 20.6662 209.598 21.072L436.116 35.4694C440.376 35.7399 443.845 39.0639 444.241 43.4701L457.302 198.604C457.833 203.532 454.374 207.938 449.438 208.595V208.586Z" fill="#03045E"/>
<path d="M301.932 138.744L238.241 142.213C236.241 142.348 234.512 140.744 234.377 138.744L230.648 84.9036C230.513 82.7681 232.252 80.9032 234.377 80.9032L298.068 81.2994C300.068 81.2994 301.662 82.7681 301.797 84.7683L305.526 134.744C305.661 136.879 304.058 138.609 301.932 138.744Z" fill="#00B4D8"/>
<path d="M370.425 117.95L317.128 119.815C315.129 119.95 313.399 118.346 313.264 116.346L311.004 85.2901C310.868 83.1546 312.607 81.2897 314.733 81.2897L368.029 81.6859C369.894 81.6859 371.497 83.1546 371.758 85.1548L374.019 113.94C374.154 116.075 372.55 117.94 370.425 117.94V117.95Z" fill="#F3DE8A"/>
<path d="M430.784 115.959L385.882 117.563C383.882 117.699 382.153 116.095 382.018 114.094L379.757 85.9761C379.622 83.8407 381.361 81.9758 383.486 81.9758L428.388 82.2463C430.252 82.2463 431.856 83.7151 432.117 85.7152L434.252 111.969C434.522 113.969 432.919 115.834 430.784 115.969V115.959Z" fill="#D90368"/>
<path d="M241.767 199.155C240.647 199.155 239.574 198.768 238.695 198.034C237.652 197.174 237.005 195.889 236.918 194.527L234.522 159.751C234.338 157.064 236.444 154.649 239.101 154.475L302.928 150.214C304.251 150.136 305.565 150.571 306.56 151.45C307.536 152.31 308.125 153.499 308.202 154.803L310.598 186.912C310.598 186.912 310.598 186.97 310.598 186.999C310.598 189.618 308.666 191.84 306.096 192.188H306.067L242.376 199.126C242.173 199.155 241.97 199.165 241.767 199.165V199.155ZM303.256 152.6C303.198 152.6 303.14 152.6 303.082 152.6L239.255 156.861C237.942 156.948 236.821 158.243 236.908 159.586L239.304 194.372C239.352 195.097 239.671 195.734 240.212 196.188C240.734 196.623 241.41 196.817 242.086 196.73L305.777 189.801C307.139 189.608 308.163 188.429 308.192 187.038L305.797 154.968C305.758 154.291 305.459 153.682 304.966 153.248C304.493 152.832 303.874 152.6 303.246 152.6H303.256Z" fill="#00B4D8"/>
<path d="M376.424 189.657L323.263 195.918C321.128 196.188 319.263 194.584 319.128 192.449L314.868 135.004C314.733 132.869 316.336 131.139 318.336 131.004L371.633 128.473C373.632 128.337 375.362 129.941 375.497 131.941L379.757 185.656C379.892 187.656 378.424 189.386 376.424 189.657Z" fill="#D90368"/>
<path d="M365.363 138.483L327.117 140.744C326.18 140.744 325.514 141.546 325.649 142.474L327.378 166.196C327.513 167.133 328.18 167.8 329.107 167.664L367.353 164.331C368.29 164.195 368.957 163.529 368.821 162.601L367.092 139.942C366.957 139.14 366.155 138.473 365.363 138.473V138.483Z" fill="#00B4D8"/>
<path d="M436.116 176.467L391.214 181.395C389.079 181.665 387.215 180.061 387.08 177.926L383.486 131.681C383.351 129.545 384.954 127.815 386.954 127.68L431.856 125.545C433.856 125.409 435.585 127.013 435.72 129.014L439.314 172.457C439.584 174.457 438.116 176.187 436.116 176.457V176.467Z" fill="#F3DE8A"/>
<path d="M274.217 180.062C273.598 180.062 273.077 179.588 273.019 178.96L272.217 169.094C272.159 168.437 272.652 167.858 273.318 167.8C273.985 167.742 274.555 168.234 274.613 168.901L275.415 178.767C275.472 179.424 274.98 180.004 274.313 180.062C274.284 180.062 274.246 180.062 274.217 180.062Z" fill="#00B4D8"/>
<path d="M269.155 175.53C268.536 175.53 268.015 175.056 267.957 174.438C267.899 173.781 268.391 173.201 269.048 173.143L278.371 172.341C279.037 172.283 279.607 172.776 279.665 173.433C279.723 174.09 279.23 174.67 278.573 174.728L269.251 175.53C269.251 175.53 269.184 175.53 269.145 175.53H269.155Z" fill="#00B4D8"/>
<path d="M337.251 179.926C336.981 177.259 334.991 175.124 332.585 175.394C330.18 175.665 328.325 178.061 328.586 180.863C328.856 183.666 330.981 185.666 333.387 185.395C335.647 184.999 337.386 182.593 337.251 179.926Z" fill="#282828"/>
<path d="M344.97 180.332C344.361 180.332 343.84 179.868 343.782 179.25C343.714 178.593 344.197 178.003 344.854 177.936L369.768 175.404C370.425 175.336 371.014 175.82 371.082 176.477C371.15 177.134 370.667 177.723 370.01 177.791L345.095 180.322C345.095 180.322 345.018 180.322 344.97 180.322V180.332Z" fill="#282828"/>
<path d="M400.401 140.213C400.131 137.681 398.402 135.816 396.267 135.816C394.132 135.951 392.673 138.077 392.799 140.618C393.069 143.15 394.798 145.15 396.933 145.015C399.194 144.88 400.662 142.754 400.401 140.213Z" fill="#00B4D8"/>
<path d="M407.202 141.015C406.575 141.015 406.043 140.522 406.005 139.894C405.966 139.237 406.468 138.667 407.125 138.618L428.581 137.285C429.238 137.256 429.808 137.749 429.856 138.406C429.895 139.063 429.392 139.633 428.736 139.681L407.28 141.015C407.28 141.015 407.231 141.015 407.202 141.015Z" fill="#03045E"/>
<path d="M401.609 154.475C401.339 151.943 399.609 150.078 397.474 150.214C395.339 150.349 393.881 152.61 394.006 155.141C394.277 157.673 396.141 159.673 398.141 159.403C400.276 159.132 401.87 157.006 401.609 154.475Z" fill="#00B4D8"/>
<path d="M408.265 155.141C407.647 155.141 407.125 154.668 407.067 154.04C407.019 153.383 407.502 152.803 408.169 152.745L429.75 151.016C430.417 150.977 430.986 151.46 431.044 152.117C431.102 152.774 430.61 153.354 429.943 153.412L408.362 155.141C408.362 155.141 408.294 155.141 408.265 155.141Z" fill="#03045E"/>
<path d="M402.807 168.737C402.536 166.205 400.807 164.34 398.672 164.476C396.537 164.611 395.079 166.872 395.204 169.404C395.475 171.935 397.339 173.8 399.339 173.665C401.474 173.394 402.933 171.268 402.807 168.737Z" fill="#00B4D8"/>
<path d="M409.463 169.268C408.854 169.268 408.333 168.804 408.275 168.186C408.207 167.529 408.69 166.94 409.347 166.872L430.803 164.736C431.46 164.679 432.049 165.152 432.117 165.809C432.184 166.466 431.701 167.056 431.044 167.123L409.589 169.259C409.589 169.259 409.511 169.259 409.473 169.259L409.463 169.268Z" fill="#03045E"/>
<path d="M252.906 102.499L244.24 102.635C243.438 102.635 242.772 101.968 242.637 101.166L241.97 92.1022C241.97 91.165 242.637 90.4982 243.574 90.4982H252.239C253.041 90.4982 253.707 91.165 253.843 91.967L254.509 100.895C254.374 101.697 253.707 102.499 252.906 102.499Z" fill="#FFE779"/>
<path d="M262.228 91.6964C261.571 91.6964 261.03 91.165 261.03 90.4982C261.03 89.8315 261.561 89.3001 262.228 89.2904L292.204 89.1551C292.861 89.1551 293.402 89.6866 293.402 90.3533C293.402 91.02 292.871 91.5515 292.204 91.5611L262.228 91.6964Z" fill="#03045E"/>
<path d="M262.759 99.4265C262.102 99.4265 261.561 98.8951 261.561 98.238C261.561 97.5713 262.083 97.0302 262.75 97.0302L292.726 96.7596H292.736C293.393 96.7596 293.934 97.2911 293.934 97.9482C293.934 98.6149 293.412 99.156 292.745 99.156L262.769 99.4265H262.759Z" fill="#03045E"/>
<path d="M396.673 100.364L389.881 100.499C389.485 100.499 389.079 100.103 388.944 99.6971L388.278 91.0297C388.278 90.4982 388.674 90.0924 389.215 90.0924H396.006C396.402 90.0924 396.808 90.4886 396.943 90.8944L397.61 99.4265C397.61 99.8227 397.214 100.364 396.673 100.364Z" fill="#03045E"/>
<path d="M425.325 91.165H403.077C402.411 91.165 401.88 90.6238 401.88 89.9668C401.88 89.3097 402.421 88.7686 403.077 88.7686H425.325C425.992 88.7686 426.523 89.3097 426.523 89.9668C426.523 90.6238 425.982 91.165 425.325 91.165Z" fill="#03045E"/>
<path d="M403.734 97.9675C403.077 97.9675 402.546 97.436 402.536 96.779C402.536 96.1123 403.058 95.5711 403.725 95.5615L425.847 95.2909H425.866C426.523 95.2909 427.055 95.8224 427.064 96.4794C427.064 97.1462 426.543 97.6873 425.876 97.6969L403.754 97.9675H403.734Z" fill="#03045E"/>
<path d="M389.611 109.022C388.964 109.022 388.432 108.5 388.413 107.852C388.394 107.186 388.915 106.645 389.582 106.625L426.62 105.688C427.258 105.688 427.828 106.2 427.847 106.857C427.866 107.524 427.345 108.065 426.678 108.084L389.64 109.022H389.611Z" fill="#03045E"/>
<path d="M254.364 123.148L245.699 123.419C244.897 123.419 244.095 122.752 244.095 121.95L243.429 112.887C243.429 111.949 244.095 111.283 244.897 111.283L253.563 111.012C254.364 111.012 255.031 111.679 255.166 112.481L255.833 121.409C255.833 122.346 255.166 123.139 254.364 123.139V123.148Z" fill="#FFE779"/>
<path d="M263.696 112.094C263.049 112.094 262.518 111.582 262.499 110.925C262.479 110.258 263.001 109.708 263.667 109.698L293.644 108.896C294.301 108.896 294.861 109.398 294.871 110.065C294.89 110.732 294.368 111.283 293.702 111.292L263.725 112.094H263.696Z" fill="#03045E"/>
<path d="M264.228 119.95C263.58 119.95 263.049 119.438 263.03 118.79C263.01 118.124 263.532 117.573 264.189 117.554L294.165 116.616C294.813 116.587 295.383 117.119 295.402 117.776C295.421 118.443 294.9 118.993 294.243 119.013L264.266 119.95C264.266 119.95 264.237 119.95 264.228 119.95Z" fill="#03045E"/>
<path d="M276.216 58.6501L231.315 57.3166C229.846 57.3166 228.648 56.1185 228.513 54.6498L227.982 47.5863C227.846 45.8567 229.315 44.388 230.909 44.5233L275.811 46.3882C277.279 46.3882 278.477 47.5863 278.612 49.0551L279.143 55.587C279.279 57.191 277.946 58.6501 276.216 58.6501Z" fill="#00B4D8"/>
<path d="M321.659 91.4355C321.002 91.4355 320.461 90.9041 320.461 90.2373C320.461 89.5706 320.993 89.0392 321.659 89.0295L364.03 88.8942C364.687 88.8942 365.228 89.4257 365.228 90.0924C365.228 90.7591 364.696 91.2906 364.03 91.3002L321.659 91.4355Z" fill="#03045E"/>
<path d="M322.19 98.8951C321.534 98.8951 321.002 98.3637 320.993 97.7066C320.993 97.0399 321.514 96.4988 322.181 96.4891L364.552 95.9576H364.571C365.228 95.9576 365.759 96.4891 365.769 97.1462C365.769 97.8129 365.247 98.354 364.581 98.3637L322.21 98.8951H322.19Z" fill="#03045E"/>
<path d="M322.992 110.626C322.345 110.626 321.814 110.104 321.794 109.456C321.775 108.79 322.306 108.249 322.963 108.229L345.752 107.698C346.4 107.669 346.96 108.21 346.979 108.867C346.999 109.534 346.467 110.075 345.81 110.094L323.021 110.626H322.992Z" fill="#03045E"/>
<path d="M429.451 57.9834C429.315 55.9832 427.847 54.2536 426.118 54.1183C424.514 53.983 423.191 55.7223 423.451 57.7128C423.587 59.8483 425.055 61.5779 426.784 61.5779C428.388 61.7132 429.586 59.9739 429.451 57.9834Z" fill="#00B4D8"/>
<path d="M417.597 57.5775C417.462 55.4421 415.868 53.7125 414.264 53.7125C412.535 53.5772 411.337 55.3165 411.463 57.4423C411.598 59.5777 413.192 61.3073 414.931 61.3073C416.534 61.3073 417.732 59.5777 417.597 57.5775Z" fill="#00B4D8"/>
<path d="M405.338 57.0461C405.203 54.9106 403.609 53.181 401.87 53.0458C400.141 52.9105 398.807 54.6498 398.943 56.7755C399.078 58.911 400.672 60.6406 402.411 60.7759C404.275 60.9112 405.473 59.1719 405.338 57.0461Z" fill="#00B4D8"/>
<path d="M483.549 75.4438L424.388 74.3809C421.993 74.3809 419.993 72.516 419.858 70.1197L414.525 4.94502C414.39 2.68396 416.254 0.94468 418.389 1.07996L477.82 7.34136C480.081 7.61192 481.82 9.34154 481.955 11.6026L487.152 71.4435C487.288 73.7046 485.684 75.4438 483.559 75.4438H483.549Z" fill="#D90368"/>
<path d="M486.747 74.3713L427.586 73.3084C425.19 73.3084 423.191 71.4435 423.055 69.0471L417.723 3.87245C417.587 1.61139 419.452 -0.127891 421.587 0.00738653L481.018 6.26879C483.279 6.53935 485.017 8.26897 485.153 10.53L490.35 70.3709C490.485 72.632 488.746 74.3713 486.756 74.3713H486.747Z" fill="#F3DE8A"/>
<path d="M474.893 16.26C474.893 16.26 474.816 16.26 474.777 16.26L443.468 13.3322C442.811 13.2742 442.328 12.6848 442.386 12.0277C442.444 11.3707 443.033 10.8682 443.69 10.9455L475 13.8733C475.656 13.9313 476.139 14.5207 476.081 15.1778C476.024 15.7962 475.502 16.2696 474.893 16.2696V16.26Z" fill="#03045E"/>
<path d="M475.425 22.3958C475.425 22.3958 475.357 22.3958 475.318 22.3958L444.009 19.7289C443.352 19.6709 442.859 19.0911 442.917 18.4341C442.975 17.777 443.555 17.2842 444.212 17.3422L475.521 20.0091C476.178 20.0671 476.671 20.6468 476.613 21.3039C476.555 21.932 476.033 22.4054 475.415 22.4054L475.425 22.3958Z" fill="#03045E"/>
<path d="M476.758 36.5226C476.758 36.5226 476.7 36.5226 476.671 36.5226L445.226 34.3871C444.569 34.3388 444.067 33.7687 444.115 33.1117C444.163 32.4546 444.743 31.9618 445.39 32.0004L476.835 34.1359C477.492 34.1842 477.994 34.7543 477.946 35.4114C477.907 36.0491 477.376 36.5322 476.748 36.5322L476.758 36.5226Z" fill="#03045E"/>
<path d="M477.154 42.5231C477.154 42.5231 477.105 42.5231 477.077 42.5231L445.767 40.6582C445.11 40.6195 444.598 40.0494 444.637 39.3924C444.675 38.7353 445.245 38.2329 445.902 38.2618L477.212 40.1267C477.869 40.1654 478.381 40.7355 478.342 41.3925C478.303 42.0303 477.772 42.5231 477.144 42.5231H477.154Z" fill="#03045E"/>
<path d="M478.487 56.7852C478.487 56.7852 478.448 56.7852 478.439 56.7852L447.129 55.4518C446.472 55.4228 445.951 54.8623 445.98 54.2053C446.008 53.5386 446.559 53.0168 447.226 53.0554L478.535 54.3889C479.192 54.4179 479.714 54.9783 479.685 55.6354C479.656 56.2828 479.125 56.7852 478.487 56.7852Z" fill="#03045E"/>
<path d="M479.018 62.7761C479.018 62.7761 478.989 62.7761 478.98 62.7761L447.67 61.7132C447.004 61.6938 446.492 61.1334 446.511 60.4764C446.53 59.8096 447.09 59.2782 447.747 59.3168L479.057 60.3797C479.723 60.3991 480.235 60.9595 480.216 61.6165C480.197 62.2639 479.666 62.7761 479.018 62.7761Z" fill="#03045E"/>
<path d="M434.387 18.9269C434.02 18.9269 433.682 18.7626 433.45 18.4728L431.846 16.4726C431.431 15.9508 431.518 15.1971 432.03 14.7913C432.551 14.3758 433.305 14.4627 433.711 14.9749L434.339 15.7575L435.681 13.9506C436.078 13.4192 436.821 13.3032 437.362 13.6994C437.894 14.0956 438.01 14.8396 437.614 15.3807L435.353 18.4438C435.131 18.7433 434.783 18.9269 434.416 18.9269H434.397H434.387Z" fill="#00B4D8"/>
<path d="M436.116 40.1171C435.768 40.1171 435.43 39.9625 435.208 39.7016L433.604 37.8367C433.17 37.3342 433.228 36.5806 433.73 36.1457C434.232 35.7109 434.986 35.7689 435.421 36.2714L436.068 37.025L437.565 35.1118C437.971 34.59 438.725 34.4934 439.246 34.9089C439.768 35.3147 439.855 36.0684 439.449 36.5902L437.053 39.6533C436.831 39.9335 436.493 40.1074 436.136 40.1171H436.107H436.116Z" fill="#00B4D8"/>
<path d="M437.981 61.0464C437.652 61.0464 437.333 60.9112 437.102 60.6599L435.372 58.795C434.918 58.3119 434.947 57.5486 435.43 57.1041C435.913 56.6499 436.677 56.6789 437.121 57.1621L437.845 57.9447L439.256 55.9542C439.642 55.4131 440.386 55.2875 440.927 55.6643C441.468 56.0508 441.594 56.7949 441.217 57.336L438.947 60.5343C438.734 60.8339 438.406 61.0175 438.048 61.0368C438.019 61.0368 438 61.0368 437.971 61.0368L437.981 61.0464Z" fill="#00B4D8"/>
<path d="M619.626 242.859C578.589 282.669 527.601 290.486 509.12 263.122C492.775 238.955 508.232 195.947 541.628 164.852C574.493 134.289 617.849 121.67 641.295 137.845C667.764 155.972 659.949 203.774 619.617 242.869L619.626 242.859Z" fill="#03045E"/>
<path d="M613.772 236.82C572.734 276.63 521.747 284.447 503.266 257.083C486.921 232.916 502.377 189.908 535.774 158.813C568.638 128.25 611.995 115.631 635.44 131.806C662.094 150.107 654.095 197.908 613.762 236.83L613.772 236.82Z" fill="#D90368"/>
<path d="M596.538 219.582C571.846 243.217 540.932 249.082 528.49 233.264C517.119 218.693 526.181 191.145 547.859 170.892C569.353 150.813 597.253 143.169 611.637 154.542C627.094 166.63 620.872 196.121 596.538 219.582Z" fill="white"/>
<path d="M580.724 203.764C570.957 213.002 558.514 215.668 553.182 209.803C548.033 204.112 551.404 192.565 560.64 183.859C569.875 175.153 581.777 172.312 587.467 177.462C593.331 182.612 590.49 194.527 580.714 203.764H580.724Z" fill="#D90368"/>
<path d="M517.65 144.058C513.922 147.614 507.884 147.257 504.503 143.527L472.874 103.185C471.271 101.05 471.454 98.0352 473.406 96.2572C475.357 94.4793 478.381 94.4793 480.332 96.2572L517.998 130.908C521.727 134.637 521.553 140.503 517.641 144.058H517.65Z" fill="#03045E"/>
<path d="M480.168 110.829L470.044 112.249C467.204 112.606 466.131 116.162 468.266 117.94C474.488 123.448 482.119 127.004 490.292 128.424L495.441 129.313C495.972 129.487 496.504 128.782 496.156 128.25L483.366 112.075C482.477 111.186 481.414 110.655 480.168 110.829Z" fill="#00B4D8"/>
<path d="M487.626 104.074L489.935 94.1218C490.466 91.4549 494.021 90.5659 495.799 92.8753C500.774 99.4459 503.797 107.273 504.503 115.621L504.86 120.771C504.86 121.303 504.145 121.66 503.797 121.303L488.698 107.447C487.635 106.384 487.278 105.137 487.635 104.074H487.626Z" fill="#00B4D8"/>
<path d="M526.355 154.9C525.929 154.9 525.504 154.726 525.186 154.388L515.061 143.546C514.463 142.899 514.492 141.884 515.139 141.285C515.786 140.686 516.8 140.715 517.399 141.363L527.523 152.204C528.122 152.851 528.093 153.866 527.446 154.465C527.137 154.755 526.751 154.9 526.355 154.9Z" fill="#03045E"/>
</svg>
