<?xml version="1.0" encoding="UTF-8"?>
<svg id="Layer_2" data-name="Layer 2" xmlns="http://www.w3.org/2000/svg" xmlns:xlink="http://www.w3.org/1999/xlink" viewBox="0 0 117.86 117.76">
  <defs>
    <style>
      .cls-1 {
        fill: #5d6482;
      }

      .cls-1, .cls-2, .cls-3, .cls-4, .cls-5, .cls-6, .cls-7, .cls-8, .cls-9, .cls-10, .cls-11, .cls-12, .cls-13, .cls-14, .cls-15, .cls-16, .cls-17, .cls-18, .cls-19, .cls-20, .cls-21, .cls-22, .cls-23, .cls-24, .cls-25, .cls-26, .cls-27, .cls-28, .cls-29, .cls-30, .cls-31, .cls-32, .cls-33, .cls-34, .cls-35, .cls-36, .cls-37, .cls-38, .cls-39, .cls-40, .cls-41, .cls-42, .cls-43, .cls-44, .cls-45, .cls-46, .cls-47, .cls-48, .cls-49, .cls-50, .cls-51, .cls-52, .cls-53, .cls-54, .cls-55, .cls-56, .cls-57, .cls-58, .cls-59, .cls-60, .cls-61, .cls-62, .cls-63, .cls-64, .cls-65, .cls-66, .cls-67, .cls-68, .cls-69, .cls-70, .cls-71, .cls-72, .cls-73, .cls-74, .cls-75, .cls-76, .cls-77, .cls-78, .cls-79, .cls-80, .cls-81, .cls-82, .cls-83, .cls-84, .cls-85, .cls-86, .cls-87, .cls-88, .cls-89, .cls-90, .cls-91, .cls-92, .cls-93, .cls-94, .cls-95, .cls-96, .cls-97, .cls-98, .cls-99, .cls-100, .cls-101, .cls-102, .cls-103, .cls-104, .cls-105, .cls-106, .cls-107 {
        stroke-width: 0px;
      }

      .cls-2 {
        fill: #f4bb79;
      }

      .cls-3 {
        fill: #f2b874;
      }

      .cls-4 {
        fill: #e9a355;
      }

      .cls-5 {
        fill: #efaf68;
      }

      .cls-6 {
        fill: #767c93;
      }

      .cls-7 {
        fill: #5a6180;
      }

      .cls-8 {
        fill: #eba85c;
      }

      .cls-9 {
        fill: #eaa356;
      }

      .cls-10 {
        fill: #eeae65;
      }

      .cls-11 {
        fill: #878c9f;
      }

      .cls-12 {
        fill: #747a91;
      }

      .cls-13 {
        fill: #858a9e;
      }

      .cls-14 {
        fill: #82879b;
      }

      .cls-15 {
        fill: #f2b571;
      }

      .cls-16 {
        fill: #71778f;
      }

      .cls-17 {
        fill: #4e5677;
      }

      .cls-18 {
        fill: #575e7d;
      }

      .cls-19 {
        fill: #485073;
      }

      .cls-20 {
        fill: #eca85d;
      }

      .cls-21 {
        fill: #6e748d;
      }

      .cls-22 {
        fill: #474f72;
      }

      .cls-23 {
        fill: #666d88;
      }

      .cls-24 {
        fill: #606784;
      }

      .cls-25 {
        fill: #495173;
      }

      .cls-26 {
        fill: #f2b773;
      }

      .cls-27 {
        fill: #eaa457;
      }

      .cls-28 {
        fill: #565e7d;
      }

      .cls-29 {
        fill: #59607f;
      }

      .cls-30 {
        fill: #656c87;
      }

      .cls-31 {
        fill: #696f8a;
      }

      .cls-32 {
        fill: #03045e;
      }

      .cls-33 {
        fill: #5c6381;
      }

      .cls-34 {
        fill: #edab61;
      }

      .cls-35 {
        fill: #7c8197;
      }

      .cls-36 {
        fill: #edaa60;
      }

      .cls-37 {
        fill: none;
      }

      .cls-38 {
        fill: #7f8499;
      }

      .cls-39 {
        fill: #737991;
      }

      .cls-40 {
        fill: #686e89;
      }

      .cls-41 {
        fill: #90e0ef;
      }

      .cls-42 {
        fill: #4d5576;
      }

      .cls-108 {
        clip-path: url(#clippath-1);
      }

      .cls-43 {
        fill: #505878;
      }

      .cls-44 {
        fill: #757b92;
      }

      .cls-45 {
        fill: #f0b26c;
      }

      .cls-46 {
        fill: #787d94;
      }

      .cls-47 {
        fill: #4a5274;
      }

      .cls-48 {
        fill: #f3de8a;
      }

      .cls-49 {
        fill: #777d94;
      }

      .cls-50 {
        fill: #797e95;
      }

      .cls-51 {
        fill: #6f758e;
      }

      .cls-52 {
        fill: #00b4d8;
      }

      .cls-53 {
        fill: #f1b570;
      }

      .cls-54 {
        fill: #535b7b;
      }

      .cls-55 {
        fill: #f0b16b;
      }

      .cls-56 {
        fill: #6a708a;
      }

      .cls-57 {
        fill: #727890;
      }

      .cls-58 {
        fill: #616885;
      }

      .cls-59 {
        fill: #efb16a;
      }

      .cls-60 {
        fill: #eaa558;
      }

      .cls-61 {
        fill: #80859a;
      }

      .cls-62 {
        fill: #84899d;
      }

      .cls-63 {
        fill: #4b5375;
      }

      .cls-64 {
        fill: #eba75b;
      }

      .cls-65 {
        fill: #6b718b;
      }

      .cls-66 {
        fill: #525a7a;
      }

      .cls-67 {
        fill: #70768f;
      }

      .cls-68 {
        fill: #7a7f96;
      }

      .cls-109 {
        clip-path: url(#clippath);
      }

      .cls-69 {
        fill: #f3b976;
      }

      .cls-70 {
        fill: #868b9e;
      }

      .cls-71 {
        fill: #81869b;
      }

      .cls-72 {
        fill: #eeac63;
      }

      .cls-73 {
        fill: #ecaa5f;
      }

      .cls-74 {
        fill: #f2b672;
      }

      .cls-75 {
        fill: #646b87;
      }

      .cls-76 {
        fill: #eca95e;
      }

      .cls-77 {
        fill: #eba65a;
      }

      .cls-78 {
        fill: #4c5476;
      }

      .cls-79 {
        fill: #f4ba78;
      }

      .cls-80 {
        fill: #eead64;
      }

      .cls-81 {
        fill: #83889c;
      }

      .cls-82 {
        fill: #f3b875;
      }

      .cls-83 {
        fill: #585f7e;
      }

      .cls-84 {
        fill: #6c728c;
      }

      .cls-85 {
        fill: #d90368;
      }

      .cls-86 {
        fill: #e9a254;
      }

      .cls-87 {
        fill: #eba559;
      }

      .cls-88 {
        fill: #545c7b;
      }

      .cls-89 {
        fill: #6d738c;
      }

      .cls-90 {
        fill: #f1b36e;
      }

      .cls-91 {
        fill: #5f6683;
      }

      .cls-92 {
        fill: #7b8096;
      }

      .cls-93 {
        fill: #626985;
      }

      .cls-94 {
        fill: #5b6280;
      }

      .cls-95 {
        fill: #5e6582;
      }

      .cls-96 {
        fill: #efb069;
      }

      .cls-97 {
        fill: #f0b36d;
      }

      .cls-98 {
        fill: #555d7c;
      }

      .cls-99 {
        fill: #7d8298;
      }

      .cls-100 {
        fill: #f1b46f;
      }

      .cls-101 {
        fill: #515979;
      }

      .cls-102 {
        fill: #edac62;
      }

      .cls-103 {
        fill: #7e8399;
      }

      .cls-104 {
        fill: #efaf67;
      }

      .cls-105 {
        fill: #4f5778;
      }

      .cls-106 {
        fill: #636a86;
      }

      .cls-107 {
        fill: #f3ba77;
      }
    </style>
    <clipPath id="clippath">
      <path class="cls-37" d="m33.26,52.59c1.16.68.24-.35,0,4.45-.14-1.48-.14-2.97,0-4.45Z"/>
    </clipPath>
    <clipPath id="clippath-1">
      <circle class="cls-37" cx="58.87" cy="58.89" r="18.4"/>
    </clipPath>
  </defs>
  <g id="Layer_2-2" data-name="Layer 2">
    <g id="Layer_3" data-name="Layer 3">
      <g>
        <circle class="cls-48" cx="58.87" cy="7.35" r="5.52"/>
        <circle class="cls-48" cx="58.87" cy="110.42" r="5.52"/>
        <circle class="cls-48" cx="95.31" cy="22.45" r="5.52"/>
        <circle class="cls-48" cx="22.43" cy="95.33" r="5.52"/>
        <circle class="cls-48" cx="95.31" cy="95.33" r="5.52"/>
        <circle class="cls-48" cx="22.43" cy="22.45" r="5.52"/>
        <circle class="cls-48" cx="110.4" cy="58.89" r="5.52" transform="translate(-3.09 6.2) rotate(-3.17)"/>
        <circle class="cls-48" cx="7.34" cy="58.89" r="5.52"/>
        <path class="cls-41" d="m83.92,52.92l4.14-2.39-7.36-12.74-4.14,2.37c-2.93-2.77-6.46-4.81-10.32-5.96v-4.77h-14.72v4.77c-3.86,1.15-7.4,3.2-10.32,5.96l-4.14-2.37-7.36,12.74,4.14,2.39c-.96,3.92-.96,8.01,0,11.93l-4.14,2.39,7.36,12.74,4.14-2.37c2.93,2.77,6.46,4.81,10.32,5.96v4.77h14.72v-4.77c3.86-1.15,7.4-3.2,10.32-5.96l4.14,2.37,7.36-12.74-4.14-2.39c.96-3.92.96-8.01,0-11.93Z"/>
        <path class="cls-52" d="m83.92,64.85l4.14,2.39-7.36,12.74-4.14-2.37c-2.93,2.77-6.46,4.81-10.32,5.96v4.77h-14.72v-4.77c-3.86-1.15-7.4-3.2-10.32-5.96l-4.14,2.37-7.36-12.74,4.14-2.39c-.64-2.55-.89-5.18-.72-7.8,0,14.23,11.54,25.77,25.77,25.77s25.77-11.54,25.77-25.77c.18,2.62-.06,5.26-.72,7.8h-.02Z"/>
        <g class="cls-109">
          <g>
            <rect class="cls-22" x="33.11" y="56.98" width="1.3" height=".07"/>
            <rect class="cls-19" x="33.11" y="56.91" width="1.3" height=".07"/>
            <rect class="cls-25" x="33.11" y="56.84" width="1.3" height=".07"/>
            <rect class="cls-47" x="33.11" y="56.77" width="1.3" height=".07"/>
            <rect class="cls-63" x="33.11" y="56.7" width="1.3" height=".07"/>
            <rect class="cls-78" x="33.11" y="56.63" width="1.3" height=".07"/>
            <rect class="cls-42" x="33.11" y="56.56" width="1.3" height=".07"/>
            <rect class="cls-17" x="33.11" y="56.49" width="1.3" height=".07"/>
            <rect class="cls-105" x="33.11" y="56.42" width="1.3" height=".07"/>
            <rect class="cls-43" x="33.11" y="56.35" width="1.3" height=".07"/>
            <rect class="cls-101" x="33.11" y="56.28" width="1.3" height=".07"/>
            <rect class="cls-66" x="33.11" y="56.21" width="1.3" height=".07"/>
            <rect class="cls-54" x="33.11" y="56.14" width="1.3" height=".07"/>
            <rect class="cls-88" x="33.11" y="56.07" width="1.3" height=".07"/>
            <rect class="cls-98" x="33.11" y="56" width="1.3" height=".07"/>
            <rect class="cls-28" x="33.11" y="55.93" width="1.3" height=".07"/>
            <rect class="cls-18" x="33.11" y="55.86" width="1.3" height=".07"/>
            <rect class="cls-83" x="33.11" y="55.79" width="1.3" height=".07"/>
            <rect class="cls-29" x="33.11" y="55.72" width="1.3" height=".07"/>
            <rect class="cls-7" x="33.11" y="55.65" width="1.3" height=".07"/>
            <rect class="cls-94" x="33.11" y="55.58" width="1.3" height=".07"/>
            <rect class="cls-33" x="33.11" y="55.51" width="1.3" height=".07"/>
            <rect class="cls-1" x="33.11" y="55.44" width="1.3" height=".07"/>
            <rect class="cls-95" x="33.11" y="55.37" width="1.3" height=".07"/>
            <rect class="cls-91" x="33.11" y="55.3" width="1.3" height=".07"/>
            <rect class="cls-24" x="33.11" y="55.24" width="1.3" height=".07"/>
            <rect class="cls-58" x="33.11" y="55.17" width="1.3" height=".07"/>
            <rect class="cls-93" x="33.11" y="55.1" width="1.3" height=".07"/>
            <rect class="cls-106" x="33.11" y="55.03" width="1.3" height=".07"/>
            <rect class="cls-75" x="33.11" y="54.96" width="1.3" height=".07"/>
            <rect class="cls-30" x="33.11" y="54.89" width="1.3" height=".07"/>
            <rect class="cls-23" x="33.11" y="54.82" width="1.3" height=".07"/>
            <rect class="cls-40" x="33.11" y="54.75" width="1.3" height=".07"/>
            <rect class="cls-31" x="33.11" y="54.68" width="1.3" height=".07"/>
            <rect class="cls-56" x="33.11" y="54.61" width="1.3" height=".07"/>
            <rect class="cls-65" x="33.11" y="54.54" width="1.3" height=".07"/>
            <rect class="cls-84" x="33.11" y="54.47" width="1.3" height=".07"/>
            <rect class="cls-89" x="33.11" y="54.4" width="1.3" height=".07"/>
            <rect class="cls-21" x="33.11" y="54.33" width="1.3" height=".07"/>
            <rect class="cls-51" x="33.11" y="54.26" width="1.3" height=".07"/>
            <rect class="cls-67" x="33.11" y="54.19" width="1.3" height=".07"/>
            <rect class="cls-16" x="33.11" y="54.12" width="1.3" height=".07"/>
            <rect class="cls-57" x="33.11" y="54.05" width="1.3" height=".07"/>
            <rect class="cls-39" x="33.11" y="53.98" width="1.3" height=".07"/>
            <rect class="cls-12" x="33.11" y="53.91" width="1.3" height=".07"/>
            <rect class="cls-44" x="33.11" y="53.84" width="1.3" height=".07"/>
            <rect class="cls-6" x="33.11" y="53.77" width="1.3" height=".07"/>
            <rect class="cls-49" x="33.11" y="53.7" width="1.3" height=".07"/>
            <rect class="cls-46" x="33.11" y="53.63" width="1.3" height=".07"/>
            <rect class="cls-50" x="33.11" y="53.57" width="1.3" height=".07"/>
            <rect class="cls-68" x="33.11" y="53.5" width="1.3" height=".07"/>
            <rect class="cls-92" x="33.11" y="53.43" width="1.3" height=".07"/>
            <rect class="cls-35" x="33.11" y="53.36" width="1.3" height=".07"/>
            <rect class="cls-99" x="33.11" y="53.29" width="1.3" height=".07"/>
            <rect class="cls-103" x="33.11" y="53.22" width="1.3" height=".07"/>
            <rect class="cls-38" x="33.11" y="53.15" width="1.3" height=".07"/>
            <rect class="cls-61" x="33.11" y="53.08" width="1.3" height=".07"/>
            <rect class="cls-71" x="33.11" y="53.01" width="1.3" height=".07"/>
            <rect class="cls-14" x="33.11" y="52.94" width="1.3" height=".07"/>
            <rect class="cls-81" x="33.11" y="52.87" width="1.3" height=".07"/>
            <rect class="cls-62" x="33.11" y="52.8" width="1.3" height=".07"/>
            <rect class="cls-13" x="33.11" y="52.73" width="1.3" height=".07"/>
            <rect class="cls-70" x="33.11" y="52.66" width="1.3" height=".07"/>
            <rect class="cls-11" x="33.11" y="52.59" width="1.3" height=".07"/>
            <rect class="cls-11" x="33.11" y="52.24" width="1.3" height=".35"/>
          </g>
        </g>
        <g class="cls-108">
          <g>
            <rect class="cls-86" x="40.47" y="76.29" width="36.81" height=".99"/>
            <rect class="cls-4" x="40.47" y="75.3" width="36.81" height=".99"/>
            <rect class="cls-9" x="40.47" y="74.3" width="36.81" height=".99"/>
            <rect class="cls-27" x="40.47" y="73.31" width="36.81" height=".99"/>
            <rect class="cls-60" x="40.47" y="72.32" width="36.81" height=".99"/>
            <rect class="cls-87" x="40.47" y="71.32" width="36.81" height=".99"/>
            <rect class="cls-77" x="40.47" y="70.33" width="36.81" height=".99"/>
            <rect class="cls-64" x="40.47" y="69.33" width="36.81" height=".99"/>
            <rect class="cls-8" x="40.47" y="68.34" width="36.81" height=".99"/>
            <rect class="cls-20" x="40.47" y="67.34" width="36.81" height=".99"/>
            <rect class="cls-76" x="40.47" y="66.35" width="36.81" height=".99"/>
            <rect class="cls-73" x="40.47" y="65.35" width="36.81" height=".99"/>
            <rect class="cls-36" x="40.47" y="64.36" width="36.81" height=".99"/>
            <rect class="cls-34" x="40.47" y="63.36" width="36.81" height=".99"/>
            <rect class="cls-102" x="40.47" y="62.37" width="36.81" height=".99"/>
            <rect class="cls-72" x="40.47" y="61.37" width="36.81" height=".99"/>
            <rect class="cls-80" x="40.47" y="60.38" width="36.81" height=".99"/>
            <rect class="cls-10" x="40.47" y="59.38" width="36.81" height=".99"/>
            <rect class="cls-104" x="40.47" y="58.39" width="36.81" height=".99"/>
            <rect class="cls-5" x="40.47" y="57.39" width="36.81" height=".99"/>
            <rect class="cls-96" x="40.47" y="56.4" width="36.81" height=".99"/>
            <rect class="cls-59" x="40.47" y="55.4" width="36.81" height=".99"/>
            <rect class="cls-55" x="40.47" y="54.41" width="36.81" height=".99"/>
            <rect class="cls-45" x="40.47" y="53.41" width="36.81" height=".99"/>
            <rect class="cls-97" x="40.47" y="52.42" width="36.81" height=".99"/>
            <rect class="cls-90" x="40.47" y="51.42" width="36.81" height=".99"/>
            <rect class="cls-100" x="40.47" y="50.43" width="36.81" height=".99"/>
            <rect class="cls-53" x="40.47" y="49.43" width="36.81" height=".99"/>
            <rect class="cls-15" x="40.47" y="48.44" width="36.81" height=".99"/>
            <rect class="cls-74" x="40.47" y="47.44" width="36.81" height=".99"/>
            <rect class="cls-26" x="40.47" y="46.45" width="36.81" height=".99"/>
            <rect class="cls-3" x="40.47" y="45.46" width="36.81" height=".99"/>
            <rect class="cls-82" x="40.47" y="44.46" width="36.81" height=".99"/>
            <rect class="cls-69" x="40.47" y="43.47" width="36.81" height=".99"/>
            <rect class="cls-107" x="40.47" y="42.47" width="36.81" height=".99"/>
            <rect class="cls-79" x="40.47" y="41.48" width="36.81" height=".99"/>
            <rect class="cls-2" x="40.47" y="40.48" width="36.81" height=".99"/>
          </g>
        </g>
        <circle class="cls-48" cx="58.87" cy="58.89" r="18.4"/>
        <path class="cls-85" d="m77.28,60.73c-1.02-10.11-10.04-17.49-20.15-16.47-8.71.87-15.6,7.76-16.47,16.47-1.02-10.11,6.36-19.13,16.47-20.15s19.13,6.36,20.15,16.47c.12,1.22.12,2.45,0,3.68h0Z"/>
        <path class="cls-32" d="m58.87,38.64c-11.18,0-20.24,9.06-20.24,20.24s9.06,20.24,20.24,20.24,20.24-9.06,20.24-20.24-9.06-20.24-20.24-20.24Zm0,36.81c-9.15,0-16.56-7.42-16.56-16.56s7.42-16.56,16.56-16.56,16.56,7.42,16.56,16.56-7.42,16.56-16.56,16.56Z"/>
        <path class="cls-32" d="m103.3,57.04h-16.82c-.07-1.07-.2-2.14-.39-3.2l2.98-1.71c.8-.54,1.05-1.61.57-2.45l-6.85-12.05,8.87-8.85c3.5,2.07,8.01.91,10.08-2.59s.91-8.01-2.59-10.08c-2.98-1.76-6.78-1.21-9.13,1.32-2.26,2.36-2.66,5.94-.98,8.74-12.77,12.77-10.71,10.9-12.18,11.76-2.6-2.21-5.58-3.93-8.8-5.06v-3.42c0-1.02-.82-1.84-1.84-1.84h-5.52v-13.14c8.5-2.21,6.57-14.47-1.84-14.47s-10.27,12.28-1.84,14.47v13.14h-5.52c-1.02,0-1.84.82-1.84,1.84v3.42c-3.19,1.14-6.15,2.86-8.72,5.06-1.49-.88.52.96-12.18-11.76,4.36-7.36-5.52-14.98-11.54-8.93s1.44,15.96,8.93,11.54l8.8,8.85c-7.36,12.75-7.36,12.33-7.1,13.38s.81,1.1,3.83,2.83c-.17,1.06-.27,2.13-.31,3.2H14.46c-1.07-3.92-5.11-6.24-9.03-5.18-3.18.86-5.39,3.73-5.43,7.02,0,8.47,12.26,10.29,14.47,1.84h16.91c.07,1.07.2,2.14.39,3.2l-2.98,1.71c-.84.51-1.13,1.59-.66,2.45l6.85,12.05-8.87,8.85c-3.52-2.03-8.02-.83-10.06,2.69-.64,1.11-.98,2.36-.99,3.64,0,5.96,7.03,10.18,12.77,4.99,2.19-2.38,2.56-5.92.92-8.71,12.77-12.77,10.71-10.9,12.18-11.76,2.59,2.21,5.56,3.92,8.76,5.06v3.42c0,1.02.82,1.84,1.84,1.84h5.52v13.14c-8.26,2.15-6.77,14.47,1.84,14.47s10.29-12.26,1.84-14.47v-13.14h5.52c1.02,0,1.84-.82,1.84-1.84v-3.42c3.19-1.14,6.15-2.86,8.72-5.06,1.49.88-.52-.96,12.18,11.76-1.64,2.81-1.25,6.36.98,8.74,2.76,2.98,7.42,3.16,10.4.4,2.98-2.76,3.16-7.42.4-10.4-2.35-2.54-6.17-3.1-9.15-1.34l-8.82-8.87c7.36-12.75,7.36-12.33,7.1-13.38s-.81-1.1-3.83-2.83c.2-1.06.33-2.13.4-3.2h16.91c2.21,8.5,14.47,6.57,14.47-1.84.18-4.06-2.97-7.5-7.03-7.67-3.6-.16-6.78,2.31-7.52,5.83h0ZM55.19,7.35c0-2.03,1.65-3.68,3.68-3.68s3.68,1.65,3.68,3.68-1.65,3.68-3.68,3.68-3.68-1.65-3.68-3.68Zm7.36,103.06c0,2.03-1.65,3.68-3.68,3.68s-3.68-1.65-3.68-3.68,1.65-3.68,3.68-3.68,3.68,1.65,3.68,3.68ZM97.9,19.84c1.44,1.43,1.45,3.76.02,5.21-1.43,1.44-3.76,1.45-5.21.02-.7-.69-1.09-1.64-1.09-2.63,0-2.03,1.66-3.67,3.7-3.67.97,0,1.89.39,2.58,1.07h0Zm-78.07,5.21c-1.44-1.44-1.44-3.77,0-5.21s3.77-1.44,5.21,0,1.44,3.77,0,5.2c-1.46,1.38-3.75,1.38-5.21,0h0ZM7.33,62.56c-2.03,0-3.68-1.65-3.68-3.68s1.65-3.68,3.68-3.68,3.68,1.65,3.68,3.68-1.65,3.68-3.68,3.68Zm12.5,35.35c-1.44-1.44-1.44-3.77,0-5.21s3.77-1.44,5.21,0,1.44,3.77,0,5.2c-1.44,1.44-3.77,1.44-5.21,0h0Zm78.07-5.21c1.44,1.43,1.45,3.76.02,5.21-1.43,1.44-3.76,1.45-5.21.02-.69-.69-1.09-1.63-1.09-2.61,0-2.03,1.65-3.68,3.68-3.68.97,0,1.91.38,2.6,1.07h0Zm-17.89-15.24l-2.54-1.47c-.71-.41-1.6-.3-2.19.26-6.68,6.31-10.9,4.44-10.9,7.36v2.87h-11.04c0-2.76.31-4.2-1.31-4.69-8.8-2.61-9.2-7.25-11.78-5.8l-2.54,1.47-5.52-9.57c2.54-1.47,3.79-1.84,3.4-3.48-.88-3.63-.88-7.41,0-11.04.39-1.6-.86-2.02-3.4-3.48l5.52-9.57,2.54,1.47c2.5,1.44,3.04-3.2,11.78-5.8,1.56-.48,1.31-1.84,1.31-4.69h11.04v2.93c0,2.87,4.21.99,10.9,7.36,1.2,1.14,2.19.26,4.73-1.21l5.52,9.57c-5.52,3.2-2.74,1.23-2.74,9.02s-2.82,5.82,2.74,9.02l-5.52,9.48h0Zm30.39-14.91c-2.03,0-3.68-1.65-3.68-3.68s1.65-3.68,3.68-3.68,3.68,1.65,3.68,3.68-1.65,3.68-3.68,3.68Z"/>
        <path class="cls-32" d="m10.71,46.59c.16-1-.53-1.95-1.53-2.1-.87-.14-1.72.37-2.02,1.2-.16,1,.53,1.95,1.53,2.1.87.14,1.72-.37,2.02-1.2Z"/>
        <path class="cls-32" d="m16.14,33.52c.42-.93,0-2.02-.92-2.44-.8-.36-1.73-.11-2.25.59-.42.93,0,2.02.92,2.44.8.36,1.73.11,2.25-.59Z"/>
        <path class="cls-32" d="m12.96,39.87c.39-.94-.05-2.02-.99-2.41-.94-.39-2.02.05-2.41.99s.05,2.02.99,2.41c.94.39,2.02-.05,2.41-.99Z"/>
        <path class="cls-32" d="m73.39,9.4c.04-1.02-.76-1.87-1.77-1.9-.71-.03-1.38.37-1.7,1-.04,1.02.76,1.87,1.77,1.9.71.03,1.38-.37,1.7-1Z"/>
        <path class="cls-32" d="m80.3,11.97c.39-.94-.05-2.02-.99-2.41-.94-.39-2.02.05-2.41.99s.05,2.02.99,2.41c.94.39,2.02-.05,2.41-.99h0Z"/>
        <path class="cls-32" d="m86.76,15.51c.42-.93,0-2.02-.92-2.44-.8-.36-1.73-.11-2.25.59-.42.93,0,2.02.92,2.44.8.36,1.73.11,2.25-.59Z"/>
        <path class="cls-32" d="m109.26,69.93c-.99-.25-1.99.35-2.24,1.33s.35,1.99,1.33,2.24,1.99-.35,2.24-1.33-.35-1.99-1.33-2.24Z"/>
        <path class="cls-32" d="m104.13,83.6c-.93-.42-2.02,0-2.44.92-.36.8-.11,1.73.59,2.25.93.42,2.02,0,2.44-.92.36-.8.11-1.73-.59-2.25Z"/>
        <path class="cls-32" d="m107.18,76.9c-.94-.39-2.02.06-2.4,1-.39.94.06,2.02,1,2.4s2.02-.06,2.4-1c.39-.94-.06-2.02-1-2.4Z"/>
        <path class="cls-32" d="m33.51,101.62c-.93-.42-2.02,0-2.44.92-.36.8-.11,1.73.59,2.25.93.42,2.02,0,2.44-.92.36-.8.11-1.73-.59-2.25Z"/>
        <path class="cls-32" d="m37.45,105.8c-.39.94.06,2.02,1,2.4.94.39,2.02-.06,2.4-1s-.06-2.02-1-2.4c-.94-.39-2.02.06-2.4,1Z"/>
        <path class="cls-32" d="m46.58,107.03c-.99-.25-1.99.35-2.24,1.33-.25.99.35,1.99,1.33,2.24.98.25,1.99-.35,2.24-1.33.25-.99-.35-1.99-1.33-2.24Z"/>
        <path class="cls-32" d="m12.96,77.9c-.39-.94-1.47-1.39-2.41-.99-.94.39-1.39,1.47-.99,2.41h0c.39.94,1.47,1.39,2.41.99.94-.39,1.39-1.47.99-2.41Z"/>
        <path class="cls-32" d="m10.73,71.18h0c-.28-.96-1.28-1.51-2.25-1.25-.98.26-1.57,1.26-1.32,2.24.26.98,1.26,1.57,2.24,1.32s1.57-1.26,1.32-2.24v-.07h.01Z"/>
        <path class="cls-32" d="m16.14,84.25c-.6-.82-1.75-1-2.57-.41-.71.51-.95,1.45-.59,2.25.6.82,1.75,1,2.57.41.71-.51.95-1.45.59-2.25Z"/>
        <path class="cls-32" d="m84.22,101.62c-.87.53-1.15,1.66-.62,2.53.53.87,1.66,1.15,2.53.62.86-.52,1.14-1.64.64-2.51-.51-.88-1.64-1.17-2.52-.66,0,0-.01,0-.02.01h-.01Z"/>
        <path class="cls-32" d="m77.88,104.9c-.94.39-1.38,1.47-.99,2.41s1.47,1.38,2.41.99,1.38-1.47.99-2.4c-.39-.94-1.47-1.39-2.4-1h-.01Z"/>
        <path class="cls-32" d="m71.17,107.05c-.99.25-1.59,1.24-1.34,2.23s1.24,1.59,2.23,1.34c.99-.25,1.59-1.24,1.34-2.23v-.02c-.25-.98-1.25-1.57-2.23-1.33h0Z"/>
        <path class="cls-32" d="m104.13,34.17c.82-.6,1-1.75.41-2.57-.51-.71-1.45-.95-2.25-.59-.82.6-1,1.75-.41,2.57.51.71,1.45.95,2.25.59Z"/>
        <path class="cls-32" d="m104.88,39.86c.28.69.95,1.14,1.69,1.14,1.02,0,1.84-.81,1.85-1.83,0-1.02-.81-1.84-1.83-1.85-1.02,0-1.84.81-1.85,1.83,0,.24.05.48.14.71h0Z"/>
        <path class="cls-32" d="m109.26,47.84c.99-.25,1.58-1.25,1.33-2.24s-1.25-1.58-2.24-1.33h0c-.99.25-1.58,1.25-1.33,2.24s1.25,1.58,2.24,1.33Z"/>
        <path class="cls-32" d="m34.16,13.63c-.6-.82-1.75-1-2.57-.41-.71.51-.95,1.45-.59,2.25.6.82,1.75,1,2.57.41.71-.51.95-1.45.59-2.25Z"/>
        <path class="cls-32" d="m39.14,13.11c1.02,0,1.84-.83,1.84-1.84,0-.25-.05-.49-.15-.72-.39-.93-1.46-1.38-2.39-.99-.95.37-1.41,1.44-1.04,2.39.28.71.97,1.17,1.73,1.16h.01Z"/>
        <path class="cls-32" d="m47.83,8.49c-.25-.99-1.25-1.58-2.24-1.33s-1.58,1.25-1.33,2.24,1.25,1.58,2.24,1.33,1.58-1.25,1.33-2.24Z"/>
        <g>
          <path class="cls-32" d="m48.87,53.33l-4.49,4.49c-.59.58-.59,1.53,0,2.12h0l4.49,4.49c.59.59,1.54.59,2.13,0s.59-1.54,0-2.13h0l-3.45-3.43,3.45-3.43c.59-.59.59-1.54,0-2.13s-1.54-.59-2.13,0v.02Z"/>
          <path class="cls-32" d="m68.97,64.44l4.49-4.49c.59-.58.59-1.53,0-2.12h0l-4.49-4.49c-.59-.59-1.54-.59-2.13,0s-.59,1.54,0,2.13l3.45,3.43-3.45,3.43c-.59.59-.59,1.54,0,2.13s1.54.59,2.13,0v-.02Z"/>
          <path class="cls-32" d="m54.68,62.55c-.46.69-.26,1.62.43,2.07.24.16.53.25.82.25,1.09,0,.69.18,7.23-9.66.39-.73.12-1.64-.61-2.03-.64-.34-1.42-.18-1.87.38l-5.99,8.99h-.01Z"/>
        </g>
      </g>
    </g>
  </g>
</svg>