<?xml version="1.0" encoding="UTF-8"?>
<svg id="Layer_2" data-name="Layer 2" xmlns="http://www.w3.org/2000/svg" xmlns:xlink="http://www.w3.org/1999/xlink" viewBox="0 0 695.2 551.11">
  <defs>
    <style>
      .cls-1 {
        stroke-width: 1.8px;
      }

      .cls-1, .cls-2 {
        stroke: #00b4d8;
      }

      .cls-1, .cls-2, .cls-3, .cls-4, .cls-5, .cls-6, .cls-7, .cls-8, .cls-9 {
        fill: none;
      }

      .cls-1, .cls-2, .cls-3, .cls-5, .cls-6, .cls-7, .cls-8, .cls-9 {
        stroke-linecap: round;
        stroke-linejoin: round;
      }

      .cls-2, .cls-3, .cls-6, .cls-7, .cls-8 {
        stroke-width: 1.8px;
      }

      .cls-10 {
        fill: #f4c2c9;
      }

      .cls-10, .cls-11, .cls-12, .cls-4, .cls-13, .cls-14, .cls-15, .cls-16, .cls-17, .cls-18, .cls-19, .cls-20, .cls-21 {
        stroke-width: 0px;
      }

      .cls-3, .cls-22, .cls-5, .cls-23 {
        stroke: #03045e;
      }

      .cls-11 {
        fill: #b0d7c0;
      }

      .cls-12 {
        fill: #03045e;
      }

      .cls-24 {
        stroke: #201e5a;
      }

      .cls-24, .cls-15 {
        fill: #f3de8a;
      }

      .cls-24, .cls-22, .cls-23 {
        stroke-miterlimit: 10;
        stroke-width: 2px;
      }

      .cls-13 {
        fill: #90e0ef;
      }

      .cls-14 {
        fill: #ffe779;
      }

      .cls-16, .cls-22 {
        fill: #00b4d8;
      }

      .cls-17, .cls-23 {
        fill: #fff;
      }

      .cls-18 {
        fill: #6dafa7;
      }

      .cls-19 {
        fill: #ffe7ca;
      }

      .cls-5 {
        stroke-width: 4px;
      }

      .cls-25 {
        clip-path: url(#clippath);
      }

      .cls-6, .cls-9 {
        stroke: #22272e;
      }

      .cls-7 {
        stroke: #fff;
      }

      .cls-20 {
        fill: #63737a;
      }

      .cls-21 {
        fill: #d90368;
      }

      .cls-8 {
        stroke: #63737a;
      }

      .cls-9 {
        stroke-width: 1.8px;
      }
    </style>
    <clipPath id="clippath">
      <path class="cls-4" d="m602.9,450.61l-520-14.9c-24.2-.7-44.1-19.2-46.5-43.3L11.3,144.41c-2.8-28.1,19-52.6,47.2-53l578.8-8c29.2-.4,52.1,25.1,48.5,54.1l-33.7,271c-3.1,24.6-24.4,42.9-49.2,42.1Z"/>
    </clipPath>
  </defs>
  <g id="illustration">
    <g>
      <g>
        <path class="cls-13" d="m602.9,450.61l-520-14.9c-24.2-.7-44.1-19.2-46.5-43.3L11.3,144.41c-2.8-28.1,19-52.6,47.2-53l578.8-8c29.2-.4,52.1,25.1,48.5,54.1l-33.7,271c-3.1,24.6-24.4,42.9-49.2,42.1Z"/>
        <g class="cls-25">
          <g>
            <path class="cls-2" d="m178.5,495.71H-237c-8.3,0-15-6.7-15-15v-235.7c0-8.3,6.7-15,15-15H178.5c8.3,0,15,6.7,15,15v235.6c0,8.3-6.7,15.1-15,15.1Z"/>
            <path class="cls-2" d="m727.6,479.81h-419.1c-8.3,0-15-6.7-15-15V120.51c0-8.3,6.7-15,15-15h419.1c8.3,0,15,6.7,15,15v344.3c0,8.3-6.7,15-15,15Z"/>
            <g>
              <path class="cls-2" d="m63.7,230.01h-20.3c-2.2,0-4-1.6-4.3-3.8l-1.6-14.4c-.3-2.5,1.7-4.8,4.3-4.8h23.5c2.6,0,4.5,2.2,4.3,4.8l-1.6,14.4c-.3,2.2-2.1,3.8-4.3,3.8Z"/>
              <path class="cls-16" d="m51.1,207.11s-8-.8-9.6-11.6c0,0,7.2,2.1,9.5,7.2,0,0,1-11.4,6.4-12.5,0,0,2.4,8.5-1.4,12.7,0,0,2.9-4.8,10.3-4.7,0,0-1.9,6.8-9.2,8.8"/>
            </g>
            <g>
              <path class="cls-2" d="m175.4,279.71h-90.2c-2.3,0-4.2-1.9-4.2-4.2v-27.4c0-2.3,1.9-4.2,4.2-4.2h90.2c2.3,0,4.2,1.9,4.2,4.2v27.4c0,2.3-1.9,4.2-4.2,4.2Z"/>
              <path class="cls-16" d="m140.6,253.61h-20.8c-.8,0-1.5-.7-1.5-1.5h0c0-.8.7-1.5,1.5-1.5h20.8c.8,0,1.5.7,1.5,1.5h0c0,.8-.6,1.5-1.5,1.5Z"/>
            </g>
            <g>
              <path class="cls-2" d="m175.4,325.51h-90.2c-2.3,0-4.2-1.9-4.2-4.2v-27.4c0-2.3,1.9-4.2,4.2-4.2h90.2c2.3,0,4.2,1.9,4.2,4.2v27.4c0,2.3-1.9,4.2-4.2,4.2Z"/>
              <path class="cls-16" d="m140.6,299.41h-20.8c-.8,0-1.5-.7-1.5-1.5h0c0-.8.7-1.5,1.5-1.5h20.8c.8,0,1.5.7,1.5,1.5h0c0,.8-.6,1.5-1.5,1.5Z"/>
            </g>
            <g>
              <path class="cls-2" d="m638.5,357.91h-90.2c-2.3,0-4.2-1.9-4.2-4.2v-27.4c0-2.3,1.9-4.2,4.2-4.2h90.2c2.3,0,4.2,1.9,4.2,4.2v27.4c.1,2.3-1.8,4.2-4.2,4.2Z"/>
              <path class="cls-16" d="m603.8,331.71h-20.8c-.8,0-1.5-.7-1.5-1.5h0c0-.8.7-1.5,1.5-1.5h20.8c.8,0,1.5.7,1.5,1.5h0c0,.9-.7,1.5-1.5,1.5Z"/>
            </g>
            <g>
              <path class="cls-2" d="m522.7,357.91h-90.2c-2.3,0-4.2-1.9-4.2-4.2v-27.4c0-2.3,1.9-4.2,4.2-4.2h90.2c2.3,0,4.2,1.9,4.2,4.2v27.4c.1,2.3-1.8,4.2-4.2,4.2Z"/>
              <path class="cls-16" d="m488,331.71h-20.8c-.8,0-1.5-.7-1.5-1.5h0c0-.8.7-1.5,1.5-1.5h20.8c.8,0,1.5.7,1.5,1.5h0c0,.9-.7,1.5-1.5,1.5Z"/>
            </g>
            <g>
              <path class="cls-2" d="m60.4,279.71H-29.8c-2.3,0-4.2-1.9-4.2-4.2v-27.4c0-2.3,1.9-4.2,4.2-4.2H60.4c2.3,0,4.2,1.9,4.2,4.2v27.4c0,2.3-1.9,4.2-4.2,4.2Z"/>
              <path class="cls-16" d="m25.6,253.61H4.8c-.8,0-1.5-.7-1.5-1.5h0c0-.8.7-1.5,1.5-1.5h20.8c.8,0,1.5.7,1.5,1.5h0c0,.8-.6,1.5-1.5,1.5Z"/>
            </g>
            <g>
              <path class="cls-2" d="m60.4,325.51H-29.8c-2.3,0-4.2-1.9-4.2-4.2v-27.4c0-2.3,1.9-4.2,4.2-4.2H60.4c2.3,0,4.2,1.9,4.2,4.2v27.4c0,2.3-1.9,4.2-4.2,4.2Z"/>
              <path class="cls-16" d="m25.6,299.41H4.8c-.8,0-1.5-.7-1.5-1.5h0c0-.8.7-1.5,1.5-1.5h20.8c.8,0,1.5.7,1.5,1.5h0c0,.8-.6,1.5-1.5,1.5Z"/>
            </g>
            <path class="cls-2" d="m769.9,210.41h-455c-2.5,0-4.6-2.1-4.6-4.6v-79.7c0-2.5,2.1-4.6,4.6-4.6h455c2.5,0,4.6,2.1,4.6,4.6v79.7c0,2.5-2.1,4.6-4.6,4.6Z"/>
            <path class="cls-2" d="m769.9,309.31h-455c-2.5,0-4.6-2.1-4.6-4.6v-79.7c0-2.5,2.1-4.6,4.6-4.6h455c2.5,0,4.6,2.1,4.6,4.6v79.7c0,2.5-2.1,4.6-4.6,4.6Z"/>
            <rect class="cls-2" x="340.9" y="160.11" width="9.9" height="50.3"/>
            <rect class="cls-2" x="350.7" y="173.81" width="10.3" height="36.6"/>
            <rect class="cls-2" x="639.3" y="258.91" width="9.9" height="50.3"/>
            <rect class="cls-2" x="649.1" y="272.61" width="10.3" height="36.6"/>
            <rect class="cls-2" x="619.1" y="258.91" width="9.9" height="50.3"/>
            <rect class="cls-1" x="581.79" y="278.32" width="50.3" height="9.9" transform="translate(154.07 776.75) rotate(-72.48)"/>
            <rect class="cls-2" x="629" y="272.61" width="10.3" height="36.6"/>
            <rect class="cls-2" x="505.7" y="160.11" width="9.9" height="50.3"/>
            <rect class="cls-2" x="515.6" y="173.81" width="10.3" height="36.6"/>
            <rect class="cls-2" x="408" y="160.11" width="9.9" height="50.3"/>
            <rect class="cls-1" x="370.71" y="179.44" width="50.3" height="9.9" transform="translate(100.84 506.36) rotate(-72.48)"/>
            <rect class="cls-2" x="417.8" y="173.81" width="10.3" height="36.6"/>
            <path class="cls-16" d="m649,166.61l1.1-14.9c.1-1-.7-1.8-1.7-1.8h-8.6c-1,0-1.7.8-1.7,1.8l1.1,14.9s-9,5.8-8.9,10.6c.1,3.7,2.3,21.4,3.3,29.2.3,2.2,2.1,3.8,4.3,3.8h12.4c2.2,0,4-1.6,4.3-3.8,1-7.8,3.2-25.5,3.3-29.2.1-4.8-8.9-10.6-8.9-10.6Z"/>
            <path class="cls-16" d="m609.2,166.61l1.1-14.9c.1-1-.7-1.8-1.7-1.8h-8.6c-1,0-1.7.8-1.7,1.8l1.1,14.9s-9,5.8-8.9,10.6c.1,3.7,2.3,21.4,3.3,29.2.3,2.2,2.1,3.8,4.3,3.8h12.4c2.2,0,4-1.6,4.3-3.8,1-7.8,3.2-25.5,3.3-29.2.1-4.8-8.9-10.6-8.9-10.6Z"/>
            <line class="cls-2" x1="9.9" y1="403.71" x2="965.7" y2="403.71"/>
          </g>
        </g>
      </g>
      <g>
        <g>
          <path class="cls-11" d="m110.1,317.61l-12.7,177.6c-.1,1.5,1.1,2.8,2.6,2.8h0c1.4,0,2.5-1,2.6-2.4l15.3-178h-7.8Z"/>
          <path class="cls-21" d="m624.2,317.61l12.7,177.6c.1,1.5-1.1,2.8-2.6,2.8h0c-1.4,0-2.5-1-2.6-2.4l-15.3-178h7.8Z"/>
        </g>
        <g>
          <path class="cls-12" d="m221.3,97.81s8.9,18.1,15.3,34.4c6.4,16.3,7.5,31.4,1.3,34.6-8.7,4.5-18.4,4.8-29.6-16.4-11.2-21.2-2.8-69.1,13-52.6Z"/>
          <path class="cls-23" d="m173.4,428.41c.1,1.2-3.5,21.5-3.3,23,.3,1.5-15.3,5.4-22.8-1.3,0,0,1.1-26.5,1.1-30.5,0-3.9,24.3-2.4,25,8.8Z"/>
          <path class="cls-12" d="m170.4,447.81s1.7,7.5,4.2,12.1c2.5,4.6,16.3,17.5,14.8,21.9s-14.2,4.8-24,4.4c-9.8-.4-14.2-3.8-18.1-10.8-4-7-1.3-11.7-.8-25.3,0,0,.3-2.3.9-2.7,0,0,2,3.5,4.3,3.8,2.3.2,4.6-5.3,10.2-5.9,5.6-.5,6.3,5,6.9,5,.7,0,1.4-.9,1.6-2.5Z"/>
          <path class="cls-7" d="m179.5,469.31s-7-3-20,1.9"/>
          <path class="cls-7" d="m177,463.81s-7-3-20,1.9"/>
          <path class="cls-23" d="m223.4,424.91c.1,1.2-3.5,21.5-3.3,23,.3,1.5-15.3,5.4-22.8-1.3,0,0,1.1-26.5,1.1-30.5,0-3.9,24.4-2.4,25,8.8Z"/>
          <path class="cls-12" d="m220.5,444.21s1.7,7.5,4.2,12.1,16.3,17.5,14.8,21.9-14.2,4.8-24,4.4c-9.8-.4-14.2-3.8-18.1-10.8-4-7-1.3-11.7-.8-25.3,0,0,.3-2.3.9-2.7,0,0,2,3.5,4.3,3.8,2.3.2,4.6-5.3,10.2-5.9,5.6-.5,6.3,5,6.9,5,.7.1,1.4-.8,1.6-2.5Z"/>
          <path class="cls-7" d="m229.5,465.81s-7-3-20,1.9"/>
          <path class="cls-7" d="m227.1,460.31s-7-3-20,1.9"/>
          <path class="cls-24" d="m214.8,211.41s15,64.2,16.8,84.2-1.9,118.1-1.8,124c.2,5.9-5.3,11.2-18.7,11.5-13.4.3-18.8-8.6-18.7-13.4.3-16,.5-79.7-.5-89.5s-15.6-58-18.5-62.6c-2.9-4.7-9.3-39.2,3.3-45.2,12.6-6,32.4-15,38.1-9Z"/>
          <path class="cls-24" d="m128.7,209.11s-3,17.5,5.6,58.6c2.6,12.5,4.7,28.8,6.2,45.9,3.5,39,.5,78.8-1.3,94.5-2.6,22.5,8.9,26.8,21.3,27.8s17-4.7,17.6-11,8-90.3,10.8-109.3c2.9-19,3.1-45,2.2-48.8s9.9-3,5.4-50c-4.4-47.2-64.2-20.2-67.8-7.7Z"/>
          <path class="cls-22" d="m195.9,83.31s-25.6-.9-37.5-2.5c-11.9-1.6-34.1-1.7-42.9,16.2-8.8,17.9,18.5,26.7,17.8,39.4-.6,12.6-2.5,34.2-2.5,34.2,0,0-2.5,24.1-5.3,33.2-2.8,9.1,2.5,13.7,5,14.5,2.5.8,28.5,6.1,48.2,5,19.7-1.1,35.8-5.6,37.2-10,1.5-4.4-.9-17.3,0-30.8s3.5-37.1,3.5-46.1,4.4-31.8,0-41.2c-4.4-9.4-15-11.6-23.5-11.9Z"/>
          <path class="cls-12" d="m162.3,72.71s-4.1.6-5.5,3.3c-.9,1.7-2,4.8-1.9,8s4.9,12,18.8,13.6c14,1.6,18.9-5.2,19.5-7.8s-.4-9.6-1.4-10.8c-.9-1.3-2.4-2.6-7.4-3.2-4.9-.8-20.5-3.7-22.1-3.1Z"/>
          <path class="cls-23" d="m182.4,133.51s4.1-4.3,6.2-7.5,4.9-6.7,7.2-8c2.3-1.4,7.1-2.2,8.4-2.9,1.4-.7,2.8,1.8,0,4.1s-1.6,9-5.5,12.6c-4,3.6-14.9,5.8-16.3,1.7Z"/>
          <path class="cls-15" d="m211.5,74.31l50.5-3.3c1.5-.1,2.7,1.2,2.5,2.7l-12.4,76.2c-.3,1.7-1.6,3-3.3,3.2l-48.3,6.6c-1.5.2-2.8-1.1-2.7-2.6l10.2-79.4c.1-1.9,1.6-3.3,3.5-3.4Z"/>
          <path class="cls-16" d="m247.2,74.51l-19.1,1c-.7,0-1.3-.6-1.2-1.3l.3-2c.1-.8.8-1.4,1.5-1.4l19.1-1c.7,0,1.3.6,1.2,1.3l-.3,2c-.1.8-.8,1.3-1.5,1.4Z"/>
          <path class="cls-23" d="m135.8,151.71s6.3-25.3,7.9-35-4.5-20.5-13.9-22.9c-11-2.7-14.4,3.1-14.4,3.1,0,0-4.4,7.7-8.8,31.9-4.4,24.2-6.9,46.7,8.8,52.2s47.9-12.4,58.2-20.1c10.3-7.6,14.1-10.9,16.1-11.4s9.9,1.6,14.1-3.1c4.2-4.7,7.8-8.4,8.2-8.4s10.4,1.5,12.1.2c1.9-1.5-.9-3-2.9-3.3-1.9-.3-7.7-2.2-7.7-2.2,0,0,4.5-1.4,7.7-2.6,3.2-1.3,6.5-1.9,6.3-3.6-.2-1.8-2.2-1.5-4.2-1.6-2-.1-4.7.5-4.7.5,0,0,5.5-1.5,6.9-3.1,1.5-1.7.2-3-2.7-2.7-2.3.2-5.5,1-5.5,1,0,0,5.6-.5,5.2-3-.3-1.7-5.3-.8-8.6-.4-3.3.4-7.5,1.2-11.1,2.1-2.4.6-4.6,1.3-6.1,2-3.5,1.7-12.3,10.1-13.7,11.8-1.4,1.7-19,4.5-33.4,7.7-14.4,3.1-22.8,5.8-27.2,9.9l13.4,1Z"/>
          <path class="cls-3" d="m214.1,117.11c-3.3.4-7.5,1.2-11.1,2.1-2.4.6-4.6,1.3-6.1,2"/>
          <path class="cls-12" d="m186,151.71c-2.5,1.8-6.3,4.8-12.3,9.2-10.3,7.6-42.5,25.5-58.2,20.1-15.6-5.5-13.1-28-8.8-52.2,4.4-24.2,8.8-31.9,8.8-31.9,0,0,3.4-5.8,14.4-3.1,9.3,2.3,15.5,13.1,13.9,22.9-1,6.1-3.9,18.5-5.9,26.8,3.5-1,7.5-1.9,12.1-2.9,10.2-2.2,22.1-4.3,28.6-5.9-.1.3-1.4,5.7,1.1,10.8,2.3,5.2,6.3,6.2,6.3,6.2Z"/>
          <path class="cls-2" d="m105.7,171.51s-.2-5.4,6.4-4.7c6.5.7,23.7,6.9,18.8,14.2"/>
          <path class="cls-2" d="m170.6,136.51s-1.5,5.8,1.2,11.7c2.7,5.8,7.6,8.6,7.6,8.6"/>
          <path class="cls-23" d="m161.5,57.01s-.3,12.8-1.1,20.8c-.8,8,14.1,11.3,21.3,9.9,7.2-1.4,8.3-3.6,8.3-3.6,0,0-.6-10.8,0-14.7s-28.4-16.6-28.5-12.4Z"/>
          <path class="cls-12" d="m189.8,81.21c-.1-1.6-.1-3.7-.1-5.8-6.1.3-11.5-5.3-15.9-9.9-1.2,9.6,7.1,15.8,16,15.7Z"/>
          <path class="cls-12" d="m201.6,40.01s5-2.6,6.5-10.8c1.5-8.3-.3-20.4-5.9-21.8-5.7-1.5-1.7,15.8-5.5,19-3.8,3.1,4.9,9.1,4.9,13.6Z"/>
          <path class="cls-23" d="m201.4,25.91s1.7,6.9,1.1,17c-.6,10.2,1.4,27.4-9.7,32.4s-25.8-.2-31.8-16.6c-6-16.4-6.1-32.7,3.1-39.7,9.3-7.1,34-6.1,37.3,6.9Z"/>
          <path class="cls-12" d="m162.2,45.61s3.4-1.1,3.5-7.2c0-6.2,3.3-11.3,9.9-9.5s15.8,6.9,21.2,6.8c6.4-.2,8.4-7.1,8.9-15.6.5-8.6-2.3-13.8-5.6-12.9-3.3.9-6.1,3.7-10.2-1.5-5.6-7-10.6-6.8-14.6-3.5-7,5.9-5.4,9-11.8,6.5-3.7-1.5-6.3-1.1-8.1,5.8-1.8,6.9-1.1,8.8-5.4,8.2-4.4-.6-1.6,22.2,5.4,27.3.1,0,5.5-4.9,6.8-4.4Z"/>
          <path class="cls-12" d="m196.6,47.31c.4,1.1.6,2.2.9,3.2s.6,2.1.9,2.9c.2.5.5,1.2.5,1.9s-.1,1.5-.6,2c-.9,1.1-2.2,1.4-3.4,1.3,1-.6,1.9-1.3,2.2-2,.3-.7.1-1.5-.4-2.4-.5-1.2-.7-2.3-.7-3.5.1-1.2.3-2.3.6-3.4Z"/>
          <path class="cls-12" d="m186.9,38.61c.9.1,1.6-.7,1.3-1.6-.3-.9-.5-1.7-1.5-1.9-2.1-.5-6.6-.1-9.3,1.9-2.7,2-.1,2.4,3.3,1.7,2.4-.4,4.6-.3,6.2-.1Z"/>
          <g>
            <ellipse class="cls-3" cx="182.3" cy="48.41" rx="9.9" ry="10.3"/>
            <ellipse class="cls-3" cx="203" cy="48.41" rx="6.4" ry="9.4"/>
            <path class="cls-3" d="m196.8,46.31s-1.3-1.8-4.8,0"/>
            <line class="cls-3" x1="172.8" y1="45.51" x2="160.9" y2="44.61"/>
          </g>
          <path class="cls-3" d="m188.3,65.71s-4.5-.3-6.8-4.7"/>
          <path class="cls-12" d="m183.8,52.21h0c.9.1,1.7-.6,1.8-1.6l.1-1c.1-.9-.6-1.7-1.6-1.8h0c-.9-.1-1.7.6-1.8,1.6l-.1,1c-.1,1,.6,1.7,1.6,1.8Z"/>
          <path class="cls-12" d="m198.6,52.51h0c.9.1,1.7-.6,1.8-1.6l.1-1c.1-.9-.6-1.7-1.6-1.8h0c-.9-.1-1.7.6-1.8,1.6l-.1,1c0,.9.7,1.7,1.6,1.8Z"/>
          <path class="cls-23" d="m161.8,45.91s-2.9-5-6.8-3.7-3.8,7.3-1.9,10.9c2.4,4.6,7.9,6,10.8,5.5"/>
          <path class="cls-12" d="m154.9,49.51c-.2-.5-.3-1-.2-1.6,0-.3.2-.6.4-.9.3-.3.7-.5,1.1-.5.7,0,1.4.3,1.8.8.4.4.7.9,1,1.4.5.9.7,1.8,1,2.6.2.4.3.7.5.9s.7.2,1.2.2c-.3.4-.8.8-1.5.7-.7-.2-1.1-.6-1.5-1-.6-.9-1-1.7-1.4-2.5s-.8-1.4-1.2-1.5c-.1,0-.2-.1-.3,0-.1,0-.2.1-.3.3-.2.1-.4.6-.6,1.1Z"/>
          <path class="cls-3" d="m214.1,132.81s-1.9-.5-3.3-.6c-1.4-.2-2.4,0-2.4,0"/>
          <path class="cls-3" d="m218.7,125.31s-10.2,2.2-11.1,2.9"/>
          <path class="cls-3" d="m217.5,120.51s-7,1.5-7.4,1.6c-1.3.4-3.7,1.1-3.7,1.1"/>
          <path class="cls-3" d="m137.9,250.21s11.7-5,11.7-22"/>
        </g>
        <g>
          <path class="cls-21" d="m25.7,389.41l-5.8,120.4c-.1,1.4,1,2.5,2.4,2.5h0c1.2,0,2.3-.9,2.4-2.2l10.1-120.8h-9.1v.1Z"/>
          <path class="cls-21" d="m82.8,389.41l5.8,120.4c.1,1.4-1,2.5-2.4,2.5h0c-1.2,0-2.3-.9-2.4-2.2l-10.1-120.8h9.1v.1Z"/>
          <path class="cls-21" d="m64.7,365.71l-.1,120.5c0,1.4-1.1,2.4-2.5,2.4h0c-1.2-.1-2.2-1.1-2.3-2.3l-4.2-121.1,9.1.5Z"/>
          <path class="cls-12" d="m86.8,377.71c-9.2-1.3-21-2.1-34-2.1s-24.8.8-34,2.1H0v6.8c0,4.9,23.6,8.9,52.8,8.9s52.8-4,52.8-8.9v-6.8h-18.8Z"/>
          <ellipse class="cls-16" cx="52.8" cy="377.71" rx="52.8" ry="8.9"/>
        </g>
        <g>
          <path class="cls-12" d="m90.5,471.71s-1.3,9.6-3.1,12.5c-1.9,2.9-4.8,10.1-4.7,11.8.3,3.1,9.9,11,15.5,15.8,5.6,4.8,10.2,5,20.6,5.8,10.4.8,14.6-.8,14.6-4s-2.1-4.7-6.7-10c-4.5-5.3-11.8-12.8-14.2-17.1-2.4-4.3,2.4-10.8,4.6-14.8,2.2-4-22-11.3-26.6,0Z"/>
          <g>
            <path class="cls-17" d="m97.36,486.95c-.49,0-.96-.17-1.47-.54-2.09-1.56-4.76-3.33-6.69-4.53,1.18-3.7,1.94-9.03,2.07-9.99,2.04-4.55,7.72-5.23,10.95-5.23,6.61,0,12.91,2.56,13.93,4.29.12.2.09.26.07.29-.37.71-.82,1.48-1.3,2.31-1.94,3.35-4.26,7.35-4.02,10.88-1.35-.72-2.87-1.11-4.5-1.11-2.39,0-4.23,1.17-5.85,2.21-1.2.77-2.23,1.43-3.19,1.43Z"/>
            <path class="cls-12" d="m102.22,465.66v2c6.3,0,11.69,2.32,12.88,3.55-.31.56-.67,1.18-1.04,1.83-1.66,2.86-3.74,6.44-4.11,9.87-1.11-.39-2.3-.59-3.55-.59-2.68,0-4.74,1.31-6.39,2.37-1.02.65-1.99,1.27-2.65,1.27-.17,0-.45-.04-.86-.34-1.9-1.42-4.25-2.99-6.12-4.17,1.02-3.55,1.69-8.07,1.86-9.27,1.86-3.92,7.03-4.51,9.98-4.51v-2m0,0c-5.12,0-10.03,1.54-11.92,5.96,0,0-.9,6.8-2.3,10.7,1.8,1.1,4.9,3.1,7.3,4.9.72.52,1.4.74,2.06.74,2.74,0,5.18-3.64,9.04-3.64,4.1,0,6.2,2.6,6.8,3.4-.2-.4-.5-.8-.7-1.2-2.3-4.3,2.5-10.8,4.6-14.8,1.33-2.42-7.02-6.06-14.88-6.06h0Z"/>
          </g>
          <path class="cls-12" d="m86.9,308.41s4.2,10.2,6.3,13.1c2.1,2.9,53.6,7.9,59.1,28.8,5.5,20.9-27.1,109.1-30.6,117.4-3.5,8.3-4,15.6-15.8,14.4-11.9-1.3-21.3-8.8-19-17.1,2.3-8.3,11.3-30.4,15-56.9,3.8-26.5,17.1-32.1-6.9-40.2-24-8.1-43.1-5.5-36.5-27.9,6.6-22.4,23.8-34,28.4-31.6Z"/>
          <path class="cls-12" d="m124.1,486.31s4.2,15,4.2,16.6c0,1.7-2.7,14.5-2.1,18.3s5.8,5.9,12.7,12.2c7.4,6.9,13.4,6.5,22.5,5.8,7.8-.6,18.2-4.4,19.3-7.5,1.2-3.2-.1-5.3-6.3-8.6-5.5-3-19.3-18.3-20-20s-4.9-24-5.1-26.1c-.2-2.2-27.7,3.6-25.2,9.3Z"/>
          <g>
            <path class="cls-17" d="m137.51,505.83c-.43,0-.73-.33-1.38-1.12-.73-.9-1.64-2.02-3.33-2.55-2.12-.58-3.61-1.88-4.09-2.35-1.13-4.75-3.62-13.77-3.65-13.86l-.02-.07-.03-.07c-.09-.21-.16-.52.17-1.02,2.34-3.59,16.97-7.36,22.34-7.36.35,0,.59.02.74.04.42,2.87,2.43,13.78,3.79,20.54-1.31-.96-2.67-1.43-4.1-1.43-1.27,0-2.58.4-3.87,1.17-2.52,1.5-3.76,3.86-4.75,5.75-.58,1.1-1.18,2.25-1.67,2.31-.05,0-.11.01-.16.01Z"/>
            <path class="cls-12" d="m147.4,478.44c.54,3.37,2.06,11.57,3.26,17.67-.88-.35-1.78-.52-2.7-.52-1.46,0-2.93.44-4.38,1.31-2.77,1.65-4.13,4.25-5.13,6.15-.3.58-.7,1.34-.98,1.69-.17-.17-.4-.45-.56-.66-.77-.95-1.83-2.26-3.82-2.88h-.03s-.03-.02-.03-.02c-1.64-.45-2.87-1.41-3.42-1.9-1.15-4.82-3.48-13.24-3.58-13.61l-.04-.14-.04-.08c.22-.56,2.16-2.4,8.75-4.47,5.16-1.62,10.34-2.51,12.7-2.55m.13-2c-5.94,0-25.55,4.93-23.43,9.78,0,0,2.6,9.4,3.7,14.1,0,0,1.8,2,4.7,2.8,2.77.86,3.08,3.72,5.01,3.72.09,0,.19,0,.29-.02,2.2-.3,2.6-5.7,6.8-8.2,1.21-.73,2.33-1.03,3.36-1.03,2.37,0,4.28,1.62,5.74,3.43-1.3-6-4.3-22.2-4.5-24.1-.01-.33-.64-.48-1.67-.48h0Z"/>
          </g>
          <path class="cls-7" d="m160.4,511.91s-5.2-2-15.4,3.1"/>
          <path class="cls-7" d="m167.6,518.31s-7.7-2-17.9,3.1"/>
          <path class="cls-12" d="m16.5,306.81s-4.8,12.6-7.7,20.5c-2.9,7.9-6.6,24.1,1.7,37.2,8.3,13.1,24.3,15.4,50,18.6,25.4,3.1,30.9,5.1,30.9,5.1,0,0,5.8,25.9,15.2,51.3,9.4,25.4,12.9,40.2,13.3,43.8.4,3.5,2.3,7.1,8.6,8.6,6.3,1.5,22.7-2.1,23.8-9.4,1-7.3-6-29.6-10.6-59.2-4.6-29.6-6.7-54.4-15.4-65.9-8.8-11.5-43-12.7-43-16-.1-3.2-50.1-42.6-66.8-34.6Z"/>
          <path class="cls-2" d="m141.6,423.31c-4.6-29.6-6.7-54.4-15.4-65.9-8.8-11.5-41.3-14.7-43-16,0,0-8-5.5-19.1-5.4"/>
          <path class="cls-6" d="m83.2,341.41s.8-5.2,0-7.6"/>
          <path class="cls-2" d="m10.5,345.31s16.7-.3,20.4-18.5"/>
          <path class="cls-2" d="m91.3,388.21s-.2-4.6,3.8-8.1"/>
          <path class="cls-7" d="m125.7,502.31s-2.1-5.7-18.9-1.1"/>
          <path class="cls-7" d="m117.3,493.31s-1.6-4.2-15,1.5"/>
        </g>
        <g>
          <path class="cls-12" d="m524.4,126.81l-134.6-5.5c-2.9-.1-4.9-2.8-4.5-6.1l11-80.9c.4-3.2,3.2-5.8,6.1-6l134.6-5.5c3.7-.2,6.3,2.6,5.9,6.2l-11,91.3c-.4,3.8-3.8,6.7-7.5,6.5Z"/>
          <path class="cls-15" d="m522.1,125.11l-134.6-5.5c-2.9-.1-4.9-2.8-4.5-6.1l11-80.9c.4-3.2,3.2-5.8,6.1-6l134.6-5.5c3.7-.2,6.3,2.6,5.9,6.2l-11,91.3c-.4,3.8-3.8,6.6-7.5,6.5Z"/>
          <g>
            <line class="cls-3" x1="415.2" y1="72.91" x2="450.8" y2="72.91"/>
            <path class="cls-3" d="m447,102.21l-19.2-.5c-3-.1-5-2.7-4.6-5.8l6.1-45.9c.4-3.1,3.1-5.7,6.1-5.8l19.2-.5"/>
            <path class="cls-16" d="m475.6,49.01l-22.3.4c-1.3,0-2.1-1-2-2.3l.9-6.7c.2-1.3,1.3-2.4,2.6-2.4l22.3-.7c1.3,0,2.2,1,2.1,2.3l-.9,6.8c-.2,1.5-1.4,2.6-2.7,2.6Z"/>
            <path class="cls-16" d="m514,78.91l-23.9-.1c-1.3,0-2.3-1.1-2.1-2.5l.9-7c.2-1.4,1.4-2.5,2.7-2.5l23.9-.1c1.4,0,2.4,1.1,2.2,2.5l-.9,7.1c-.1,1.5-1.4,2.6-2.8,2.6Z"/>
            <path class="cls-16" d="m468.1,108.61l-22.3-.6c-1.3,0-2.1-1.1-2-2.4l.9-6.8c.2-1.3,1.3-2.4,2.6-2.3l22.3.4c1.3,0,2.2,1.1,2.1,2.5l-.9,6.9c-.2,1.3-1.4,2.3-2.7,2.3Z"/>
            <line class="cls-3" x1="475" y1="72.81" x2="488.5" y2="72.81"/>
            <path class="cls-21" d="m471.9,78.71l-22.3-.1c-1.3,0-2.1-1.1-2-2.4l.9-6.7c.2-1.3,1.3-2.4,2.6-2.4l22.3-.1c1.3,0,2.2,1.1,2.1,2.4l-.9,6.9c-.2,1.3-1.4,2.4-2.7,2.4Z"/>
            <path class="cls-16" d="m415.2,72.91c.5-3.7-1.9-6.6-5.3-6.6s-6.5,3-7,6.6,1.8,6.6,5.2,6.6,6.6-2.9,7.1-6.6Z"/>
          </g>
        </g>
        <g>
          <g>
            <path class="cls-12" d="m511.2,370.11v6.8c0,4.4-22.1,8-49.5,8s-49.5-3.6-49.5-8v-6.8h23.3c7.6-.8,16.6-1.2,26.2-1.2s18.6.4,26.2,1.2h23.3Z"/>
            <ellipse class="cls-16" cx="461.7" cy="370.11" rx="49.5" ry="8"/>
          </g>
          <g>
            <path class="cls-12" d="m461.7,458.91h0c-1.3,0-2.3-1-2.3-2.3v-78.4h4.7v78.4c0,1.3-1.1,2.3-2.4,2.3Z"/>
            <path class="cls-5" d="m461.7,456.41s-27.2,2-35.8,20.1"/>
            <path class="cls-5" d="m497.6,476.51c-8.7-18.1-35.8-20.1-35.8-20.1,0,0-4.5,3.5-6.4,24.2"/>
            <circle class="cls-16" cx="455.29" cy="482.86" r="7.3"/>
            <circle class="cls-16" cx="497.55" cy="477.99" r="7.3"/>
            <circle class="cls-9" cx="425.89" cy="477.96" r="7.3"/>
          </g>
        </g>
        <g>
          <g>
            <path class="cls-12" d="m488.7,296.41c4.8,11.5,13.3,30,13.2,50.8,0,25.2-30.5,35.5-33.6,39.5-3.1,4.1-66.6,8.4-73.1-4.3-6.5-12.8-6.1-26.1,11.3-58.2,11.6-21.5,10.1-27.5,10.2-27.8,0,0,1.6,1.7,2.3-5,.7-6.7,66.8-1.8,69.7,5Z"/>
            <g>
              <path class="cls-23" d="m410.3,356.31c-6.2,1-16.6,4.3-17.7,20.8-1,16.5,12.1,80.5,12.3,91.8s-.9,11.8-8.6,18.7c-7.7,6.9-23,14.4-21.7,19.7s18.8,9.8,30.3,7.7c11.6-2.1,14.1-15.2,16.3-16.3s3.6-5.2,3.9-7.8c.3-2.7,8.4-94.4,9.2-107.9,1.1-16.7-5.8-29.6-24-26.7Z"/>
              <path class="cls-12" d="m425.9,483.11c-.4,4.4-.7,7.2-.7,7.7-.3,2.7-1.7,6.7-3.9,7.8-2.2,1.1-4.7,14.2-16.3,16.3-11.6,2.1-29.1-2.4-30.3-7.7-1-4.1,8.1-9.6,15.8-15.1-.2.2-2.4,2.4,0,2.9,2.5.5,7-1.4,15.6,3.4,8.6,4.8,11.1-2.7,12.8-7.8,1.5-4.3,4.5-2.9,7-7.5Z"/>
              <path class="cls-23" d="m440.5,359.31c-7.5,5-10.5,11.1-11.9,34.1-1.9,31.6-5.3,81.3-6.9,86.6-1.6,5.3-3.6,7.7-5.5,13s-18,20.6-17,26.4c.9,5.8,10.2,11.6,16,13.5,5.8,1.9,12.7,2.7,16.9,0s6.3-19.6,7.4-23.6c1.1-4.1,2.3-7,3.3-14.1.9-7,8.3-39.1,11.4-48.3,3.1-9.1,17-53.9,17.4-71.4.2-17.5-20.1-23.4-31.1-16.2Z"/>
              <path class="cls-3" d="m440.5,359.31c-7.5,5-10.5,11.1-11.9,34.1-1.9,31.6-5.3,81.3-6.9,86.6-1.6,5.3-3.6,7.7-5.5,13"/>
              <path class="cls-12" d="m443.9,488.91c-.6,2.8-1,5-1.1,6.3-.9,7-2.2,10-3.3,14.1s-3.1,21-7.3,23.6c-4.2,2.7-11.1,1.9-16.9,0-5.8-1.9-15-7.7-16-13.4-.7-4.2,7.5-13.3,12.8-20.1-.3.4-4.1,6.1,2.7,11.1,5.9,4.4,16.9,7.1,19.7.5,2.8-6.6,4.3-12.8,5.6-14.8,1.3-1.9,2.9-4,3.8-7.3Z"/>
              <ellipse class="cls-23" cx="418.78" cy="512.12" rx="4.1" ry="5.5" transform="translate(-206.33 728.65) rotate(-69.83)"/>
              <path class="cls-23" d="m401.7,497.01c-.3,2.1-2.9,3.4-5.7,3s-4.9-2.5-4.6-4.6c.3-2.1,2.9-3.4,5.7-3,2.9.4,4.9,2.5,4.6,4.6Z"/>
            </g>
          </g>
          <path class="cls-22" d="m419.1,212.81s-13.6.2-22.8,20.5c-9.2,20.2-23.8,48.9-21.7,61,2.1,12.1,30,0,43.2-22.7,13.1-22.7,11.9-58.2,1.3-58.8Z"/>
          <path class="cls-12" d="m429.6,172.41s-6.9-.4-9.1-9.3c-2.2-8.9,6.9-20,15.3-22.7,8.4-2.7,10.5,2.5,16,3.1,5.5.6,20.2-1,26.1,12.1,5.9,13.1-3.9,25.5,3.6,35.3,7.5,9.9,13.8,28-8.3,35.8s-47.5,1.7-55.4-12.4c-7.8-14.1,7.3-22.4,9.6-29.7,2.5-7.2,3.6-9,2.2-12.2Z"/>
          <path class="cls-23" d="m452,207.61s-20.4-.2-31.5,4c-3.3,1.2-6.1,3.3-6.9,13.7-.7,9.4-1.2,9.3-3.8,13.9-4.1,7.4-5.8,15.9,2.1,29.7,5.1,9,3.5,25.9,2.7,34.4-.8,8.6.2,12.3,16.7,16.5,16.5,4.2,51.9,0,55.9-4s5.8-43.6,5-51.3c-.8-7.7,14-28.2,12.9-36.3-1-8.1-10.7-19.2-53.1-20.6Z"/>
          <path class="cls-23" d="m440.8,205.91s-9.2.4-12.2,3.5c-2.1,2.2-.4,3.6,2.1,5.5,1.7,1.3-4.3,4.7-1.2,8.6,2.3,2.9,7.5-.7,9.5,2,2.3,3.2,2.7,4.4,6.2,4.5,4.4.1,4.8-4.6,8.1-4.1,4,.6,4.9,2,7.8,1.7,4.5-.5,4.6-5,4-7.7s1-2.8,4.5-3.8,4.2-7.8-8.7-9.7c-12.8-1.9-20.1-.5-20.1-.5Z"/>
          <path class="cls-23" d="m463.6,187.81s-2.1,10.1-1.9,20.9c0,0-3.5,10.5-15.5,9.8-11.2-.6-8.6-9.6-8.6-9.6,0,0,2.7-10,2.8-12.6.2-2.6,20.4-11.2,23.2-8.5Z"/>
          <path class="cls-12" d="m454.7,199.21c-4.8,3.2-10.4,5.1-15.7,4.7-.7,2.7-1.3,5-1.3,5,0,0-.1.5-.2,1.3,7.8-.2,14.8-3.7,17.2-11Z"/>
          <g>
            <path class="cls-23" d="m428.3,162.41c0,.3.3,8-1.1,16.6-1.4,8.6.1,22.2,9.4,25.4,12.9,4.4,26.3-4.4,29.6-17.2,3.3-12.8,5-28.5-11.4-33.2-16.5-4.8-25.6,2.1-26.5,8.4Z"/>
            <path class="cls-12" d="m427.8,166.01s-.7-3.1,2.2-3.7c2.9-.6,5.6-1.9,8.3-3.1,1.9-.9,4.3-.6,6.2,3.6,4.2,9,9.5,22.5,20.5,18.7,0,0,4.2.9,5.4-6.1s.7-16.4-11.5-22.1c-12.2-5.6-26.2-1.8-28.8,1.1-4,4.5-2.3,11.6-2.3,11.6Z"/>
            <path class="cls-23" d="m460.3,182.91s4.5-6.2,8.7-2.6c4.2,3.6-1.6,12.7-7.4,12.4"/>
            <path class="cls-21" d="m466.8,193.41c0-1.4-1.2-4-2.6-4s-2.6,2.6-2.6,4,1.2,2.6,2.6,2.6,2.6-1.1,2.6-2.6Z"/>
            <g>
              <path class="cls-12" d="m467.5,184.51c-.4-.2-.7-.5-1-.6-.3-.2-.6-.1-.7,0-.1,0-.1.1-.2.2-.1.1-.2.2-.2.3-.1.2-.1.4-.2.7-.1.6,0,1.4-.2,2.3-.1.5-.4,1-.9,1.3s-1,.1-1.4,0c.4-.2.7-.4.8-.7.1-.2.1-.5.1-.8,0-.6-.2-1.4-.1-2.3,0-.5.2-1,.6-1.5.2-.2.4-.4.6-.6.3-.1.6-.3.9-.3.7,0,1.2.4,1.4.8.4.4.5.8.5,1.2Z"/>
              <path class="cls-12" d="m431.7,178.41c.4.9.4,1.9.2,2.9s-.6,1.9-1.3,2.7c-.2.3-.3.3-.3.6,0,.2.1.5.3.9.2.3.4.7.7,1s.6.7,1,.8c-.5.2-1,.1-1.5-.1s-.9-.5-1.3-.8c-.4-.4-.7-.9-.8-1.6v-.5c0-.2.1-.4.1-.5.1-.2.1-.3.2-.5.1-.1.2-.3.3-.4,1-1.2,1.7-2.7,2.4-4.5Z"/>
              <path class="cls-3" d="m436.2,192.61s3.7.5,6.4-1.8"/>
              <path class="cls-12" d="m440.5,170.81c-.2-.6.1-1.5.4-1.9.8-1,3.4-1.1,5.4.2,2,1.2,2.8,3.1,2.2,3.3-.9.3-1.8-.9-3.9-1.1-2.1-.3-3.7.6-4.1-.5Z"/>
              <path class="cls-12" d="m430.2,170.51c.5.1,1-.2,1-.7.1-.7.1-1.5-.2-2-.6-.9-2.2.1-2.7.8-.5.7-.3,1.9,0,1.9.2,0,1.1-.2,1.9,0Z"/>
              <path class="cls-12" d="m442.5,180.21h0c.8.1,1.4-.5,1.5-1.3l.1-.8c.1-.8-.5-1.4-1.3-1.5h0c-.8-.1-1.4.5-1.5,1.3l-.1.8c0,.8.5,1.5,1.3,1.5Z"/>
              <path class="cls-12" d="m429.6,179.21h0c.8.1,1.4-.5,1.5-1.3l.1-.8c.1-.8-.5-1.4-1.3-1.5h0c-.8-.1-1.4.5-1.5,1.3l-.1.8c0,.8.6,1.4,1.3,1.5Z"/>
            </g>
          </g>
        </g>
        <g>
          <path class="cls-21" d="m293,334.91l5.8,135.6c.1,1.5-1,2.8-2.4,2.8h0c-1.2,0-2.3-1.1-2.4-2.5l-10.1-136h9.1v.1Z"/>
          <path class="cls-21" d="m305.5,319.01l5.5,129c.1,1.5-1,2.7-2.3,2.7h0c-1.2,0-2.2-1-2.3-2.3l-9.6-129.4h8.7Z"/>
          <path class="cls-11" d="m202.1,335.01l-18.2,134.5c-.2,1.5.8,2.9,2.1,3h0c1.2.1,2.4-.9,2.6-2.2l22.5-134.5-9-.8Z"/>
          <path class="cls-16" d="m323.5,191.11s5.9,2.7.8,26.4c-5.1,23.7-14.5,55.1-13.2,90.6,1.2,35.5-22,50.2-60.1,47.5-38.1-2.7,21.7-110.3,21.7-110.3,0,0,42.9-63.9,50.8-54.2Z"/>
          <path class="cls-17" d="m221.3,198.31c1-4.4,3.1-11.5,11-14.4,7.9-2.9,90.9-1.5,92,8.8,1,10.2-20.6,58.3-20.5,92.7.1,34.3,6.2,62.9-34.3,68.6-40.5,5.7-83.9-2.7-79.5-16.5,4.4-13.7,17.8-32.3,21.9-70.2,4.1-37.9,5.7-52,9.4-69Z"/>
        </g>
        <g>
          <g>
            <path class="cls-12" d="m202.5,308.41s-30.5,38.2-31.4,50.9c-.9,12.7,50.1,12.2,50.2,9.6.2-2.6,8.6-17.4,12.6-17.7,2.6-.2,6.6-.4,7.3,2.8,1,4.5,0,13.9,0,13.9l43.9,20.6,4.3-18.3s7.4-11.9,7.4-31.5-5.7-48.5-5.7-48.5c0,0-83.6,8.8-88.6,18.2Z"/>
            <path class="cls-12" d="m238.5,492.61s-2.7,1.8-3.3,6.3-3,11.2-4.6,16.7-6.3,16.2-3.9,18c3.4,2.7,12.4,4.6,22.8,5.5,10.4.9,15.4.3,17-2.7,1.5-3-1.8-20.2-2.4-26.7s0-13.3-1.2-15.6c-1.2-2.2-19.6-7.7-24.4-1.5Z"/>
            <path class="cls-12" d="m201.6,486.81s-1.2,1.9-2.4,5.9c-1.2,3.9-11.8,20.3-11.7,25.5.2,5.3,10.2,5.3,14.1,5.5,4.7.2,16.6-.7,20.5-3.4s4-12,4.3-15c.6-6,.5-9.6-.9-18.6-.4-2.9-4.8-3.7-7.2-2-2.4,1.6-14.9-1.8-16.7,2.1Z"/>
            <path class="cls-23" d="m240.1,480.71s-1.8,13.1-2,14.7c-.2,1.5,2.7,5.1,11.1,6.9,7.2,1.6,11.5-1.1,12.2-2.1s4-17.7,5.1-21.5c1.1-3.7-24.1-2.5-26.4,2Z"/>
            <path class="cls-23" d="m199.2,477.91s2.7,9.2,2.7,10.4,4.6,3.7,11,3.5c6.3-.2,11.8-3.7,11.8-5.4s-1.9-18-1.9-18c0,0-23,4.9-23.6,9.5Z"/>
            <g>
              <path class="cls-7" d="m236.4,515.91s12.3-4.1,23.9,5.5"/>
              <path class="cls-7" d="m239.6,508.61s12.1-2.2,19.8,4.1"/>
            </g>
            <path class="cls-12" d="m238.6,497.91s2,1.2,4.3,0,4.7-3.4,9.4-2.5c5.7,1.1,6.8,7,9.9,4.4,0,0,.1,4-7.7,4.4-7.8.4-15.8-5-15.9-6.3Z"/>
            <path class="cls-12" d="m201.5,488.51s1.1,1.2,2.9-.5c1.8-1.6,1.6-3.6,6.5-4.3,3.2-.4,5.9,1.9,8.3,3.8,2.4,1.9,4.8-.7,5.3-2.9,0,0,1.6,5.7-.6,8.5-1.6,2.1-7.8.6-11.5.7-3.6.1-11.7-1.7-11.7-1.7l.8-3.6Z"/>
            <g>
              <path class="cls-7" d="m194.7,503.21s9.4-5.8,22.3,2"/>
              <path class="cls-7" d="m199.2,497.21s8.2-5.8,19.5,2"/>
            </g>
            <path class="cls-12" d="m253,348.21s-12.1,1.7-12.9,31.9-3.3,78.7-6.7,85.5c-3.3,6.8-2.2,14.8,4.1,18,6.3,3.2,13.6,6.9,22.8,5.9,9.2-.9,13.6-6.3,13.6-17s3.9-40.7,9.9-65.1c5.9-24.4,10-48.5-2.2-57.2-12.2-8.7-28.6-2-28.6-2Z"/>
            <path class="cls-12" d="m181.3,345.81s-18.2,2.3-7.9,47.4c10.3,45,17.2,68.8,15.6,75.7-1.6,6.9,3.4,10.6,9.1,11.9,5.6,1.3,16.6,1.1,22.8-2.4,6.3-3.5,6.9-9.1,4.4-19.8s-3.1-53.5-3.4-68.2,3.4-39.7-14.4-46.9c-17.9-7.3-26.2,2.3-26.2,2.3Z"/>
            <ellipse class="cls-2" cx="192.7" cy="361.31" rx="14.5" ry="14.3"/>
            <ellipse class="cls-2" cx="264.4" cy="372.31" rx="14.5" ry="14.3"/>
          </g>
          <path class="cls-12" d="m297.8,159.31s5.9-1.9,7.8-6.2c2-4.3,1.7-17.3-1.8-21.4-3.5-4.1-13.3-2.3-19.5-4.1-6.2-1.8-10.5-5.8-22-3.6-11.5,2.2-22.1,12.5-22.6,18.1s2.8,7.9,1.6,11.5c-1.3,3.5-2.8,7.1,2.8,12.6,5.6,5.5,3.4,9.1,7.6,9.1s-3.4-12.8,2-23.8c5.5-10.9,41.1-4.6,44.1,7.8Z"/>
          <g>
            <path class="cls-23" d="m181.6,225.51s-13.2,17.4-15.5,30.5c-2.3,13.1,4.8,21.6,13.6,23,8.8,1.4,38.3-37.1,39.7-44.9,1.3-7.8-33.6-14.7-37.8-8.6Z"/>
            <path class="cls-22" d="m223.7,191.51s-6.7-1.9-22.8,12c-13.5,11.6-24.2,22.7-24.2,22.7,0,0,28.4,25.8,32.3,32.5,0,0,17.5-20.2,19-40.6,1.5-20.5-1.8-27.4-4.3-26.6Z"/>
            <path class="cls-3" d="m181.6,221.61s20.5,16.5,31.6,31.7"/>
          </g>
          <path class="cls-12" d="m215.8,200.01c2.5-5.6,7.5-9.7,13.7-9.9,6-.2,15.1-.1,28.3.8,28.4,2,50.3,10.1,56.1,14.3,5.8,4.2-1.3,30.2-7.3,44.6-6,14.4-12.5,27.5-13.6,32.5-1,5,2.9,28.6.8,33.4s-24.4,13.1-52.8,11.5c-28.4-1.7-40.2-10.8-41.1-14.2-.8-3.3,2.7-32.9,4.4-43,1.7-10.1,2.9-32.3,3.1-35.5,1.8-20.6,5.8-28.7,8.4-34.5Z"/>
          <g>
            <path class="cls-23" d="m339.8,246.51c-7.1-12.2-31.7,12.1-31.1,17.5,0,0,4.4,9.2,4.4,10.2s-4.4,26.3-7.4,40.5c-.9,4.4-3.6,9.3-6.9,14,7.8,2.9,15.7,5.3,23.8,6.9,10.6-18.5,22.8-46.8,24.7-53.8,3.5-13.1-.4-23.1-7.5-35.3Z"/>
            <path class="cls-3" d="m313.1,274.21s1.8-4.3,6.4-6.2"/>
            <path class="cls-22" d="m313.9,205.11s8.1,4.5,16.1,18c7.9,13.5,14.2,25.8,14.2,25.8l-35.2,18.4s-10.2-16.7-14.4-24.2c-4.2-7.5-4.6-22.9,1.3-31.5,5.7-8.5,15.2-8.4,18-6.5Z"/>
            <path class="cls-3" d="m305.7,262.01s20.5-13.5,35.6-18.5"/>
            <path class="cls-10" d="m303.7,320.31s-14.1,1.4-17.3,3.2c-3.1,1.8-8,12.7-7.6,13.7.3,1,3.4,0,3.4,0,0,0-.4,2.1,2,2.1s2.8-1,2.8-1c0,0-.4,2.6,2.4,2.5,2.8-.2,8.6-5.2,8.6-5.2,0,0-3.1,5.5-1.2,6.8,1.8,1.3,6-3.3,6.6-4.2.6-.9,16.5,8.7,22.6-9,0,0-11.5-12.5-22.3-8.9Z"/>
          </g>
          <path class="cls-22" d="m244.4,189.51s-4.8.5-5.8,1.4c-1,.9-4,8.7,0,16.8,4,8,15.6,12.1,27.4,8.4,11.8-3.6,16.8-15,16.4-18.5s-2.5-4.6-6.8-5.7c-4.3-1.1-31.2-2.4-31.2-2.4Z"/>
          <path class="cls-23" d="m250.1,164.41s.3,9.2-2,16.7c-1,3.4-2.6,6.5-3.6,8.3-.8,1.5-1.4,3.1-1.6,4.7-.6,4.1-.3,11.2,7.2,14.6,12,5.4,24.6-4.5,26.3-12.4,0,0,.7-8.2,2.5-11.5,1.8-3.2-23-23.5-28.8-20.4Z"/>
          <path class="cls-12" d="m275.6,198.61c.4-.8.6-1.6.8-2.3,0,0,.1-1.6.5-3.7-8.3-1.4-15.6-6.2-20.1-12.7.6,9.8,9,17.3,18.8,18.7Z"/>
          <g>
            <path class="cls-23" d="m174.8,277.41s4.9,5.5,26.7,0c21.7-5.5,49.9-20.7,54.1-22.2,4.2-1.6,5.8-.8,10.3-.8,10.7.2,15.1-.8,16.5-1.5,2.8-1.4,4.1-3.5,3.6-5.3s1-2.3,1.3-3.9c.5-3-.6-3.4-.3-3.6s3.3-1.1,3.9-1.9c1.5-2.3.3-3.8.3-3.8,0,0,3.8-1,8.3-1.4,4.5-.4,7.2-2,5.9-3.6-1.3-1.6-10.1-1.1-15.8-1.1s-7.7.1-8.1-.1c-2.2-.7-6.5-2-8.6-1.8s-4.5,1.9-8.6,4.1-8.7,4-14.7,5.5c-4.6,1.2-35.5,3.6-54.6,7.2-2.7.5-5.2,1-7.3,1.6-2.6.7-4.7,1.4-6.1,2.1"/>
            <path class="cls-3" d="m291.1,234.41s-2.6-.4-3.5-.6c-1-.2-2.4-.2-2.4-.2"/>
            <path class="cls-3" d="m287,240.11s-1.8.5-2.5.8"/>
            <path class="cls-3" d="m286,246.51s-1.9,1.1-2.7,1.4"/>
            <path class="cls-12" d="m255.6,255.21c-7.7-9.1-3.8-19.8-3.8-19.8l-8.6,1.6c-4.9,12.1,3.8,22.3,3.8,22.3l8.6-4.1Z"/>
            <path class="cls-3" d="m281.4,228.21s-5.4.1-6.3.5"/>
            <path class="cls-3" d="m195,243.21c-2.7.5-5.2,1-7.3,1.6-2.6.7-4.7,1.4-6.1,2.1"/>
            <path class="cls-23" d="m251.6,246.51c0-2.9-2.3-5.2-5.2-5.2s-5.2,2.3-5.2,5.2,2.3,5.2,5.2,5.2c2.8-.1,5.2-2.4,5.2-5.2Z"/>
          </g>
          <g>
            <path class="cls-23" d="m299,142.31s2.2,6.6-.9,16.4c-3.1,9.9-5.2,13.5-7.8,21.3-2.7,7.8-8.9,14.6-19.6,13.5-11.2-1.2-20-11.4-20.5-24.1s-1.6-32.5,13.5-36c14.9-3.4,32.7,5.5,35.3,8.9Z"/>
            <path class="cls-12" d="m289.1,163.51c0,1.2,0,2.3.2,3.4.1.5.2,1.1.3,1.6.1.3.1.5.2.8l.1.4.1.5c.2.7.2,1.4,0,2.2-.3.7-.8,1.4-1.4,1.7-1.2.7-2.5.8-3.7.5,1.1-.5,2.2-1,2.8-1.6.7-.7.8-1.4.5-2.3l-.1-.3-.1-.5c-.1-.3-.1-.6-.2-.9-.1-.6-.1-1.3-.1-1.9.3-1.4.7-2.7,1.4-3.6Z"/>
            <path class="cls-12" d="m252.8,158.11s3.3-.8,5.4-9.5c0,0,.7-2,4.2.7,3.4,2.7,9.3,7.1,19.5,2.3,10.2-4.8,11.5-6.4,12.9-4.7,0,0,1.5,7.6,6.7,5.2,5.2-2.3,2.4-15.9-14.8-20.3-17.2-4.4-29.4-2.9-34.9,6.7-5.6,9.7-3.4,19,1,19.6Z"/>
            <path class="cls-12" d="m284.2,154.91c.6-.7,1.2-2.3.4-3.4-1.1-1.7-8.6-2.9-10.4-1.4s2.7,1.7,4.8,2.7c2.1,1.1,4.6,2.8,5.2,2.1Z"/>
            <path class="cls-12" d="m293.5,159.21c.2-.6.8-1.3,1.5-1.6,1.1-.5,3.4,1.8,3,3.3s-1.5-.2-2.5-.4c-1-.4-2.3-.7-2-1.3Z"/>
            <path class="cls-12" d="m278.5,160.71c.3-.8-.1-1.7-1-2h0c-.8-.3-1.7.1-2,1l-.2.5,2.9,1.1.3-.6Z"/>
            <path class="cls-12" d="m293.5,166.31c.3-.8-.1-1.7-1-2-.8-.3-1.7.1-2,1l-.2.5,2.9,1.1.3-.6Z"/>
            <path class="cls-23" d="m254.6,159.81s-1.7-6.8-6.7-6.7c-5,.1-7.3,13.7,4.2,15.8"/>
            <path class="cls-12" d="m247.1,159.31c0-.5.1-.9.5-1.4.2-.2.5-.4.9-.4.3,0,.7.1.9.2.1,0,.3.2.4.3.2.1.2.3.3.4.1.2.1.3.2.4,0,.1.1.3.1.4.1.5.1.9.1,1.3v2.3c0,.3.1.6.3.9.2.3.5.5.9.7-.4.2-.9.2-1.4,0s-.9-.7-1.1-1.2c-.4-.9-.5-1.8-.5-2.7,0-.8-.1-1.7-.1-1.7-.2-.2-.3-.3-.6-.3-.2.2-.5.5-.9.8Z"/>
            <g>
              <path class="cls-12" d="m278.2,181.11c.4-.6.8-1.2,1-1.7.4-.9,0-1.9-.9-2.2-1-.4-2.3-1.1-3.8-2.3-3.1-2.5-4.5-.3-4.3,2.5,3,.3,5.7,2.2,8,3.7Z"/>
              <g>
                <path class="cls-21" d="m274.9,182.57c-.17,0-.34-.01-.52-.05-2.05-.32-3.26-2.5-3.61-4.6,2.41.5,4.64,1.97,6.63,3.27l.06.04c-.78.89-1.64,1.34-2.56,1.34h0Z"/>
                <path class="cls-12" d="m271.44,178.6c1.86.55,3.63,1.66,5.24,2.71-.57.5-1.16.76-1.78.76-.14,0-.28-.01-.45-.04-1.56-.24-2.57-1.77-3.01-3.42m-1.24-1.29c.2,2.4,1.5,5.3,4.1,5.7.21.04.41.05.6.05,1.41,0,2.51-.9,3.3-1.95-2.3-1.5-5-3.4-8-3.8h0Z"/>
              </g>
            </g>
          </g>
        </g>
        <g>
          <g>
            <path class="cls-21" d="m70.5,342.91l-14.7,205c-.1,1.7,1.3,3.2,3,3.2h0c1.6,0,2.9-1.2,3-2.7l17.7-205.4h-9v-.1Z"/>
            <path class="cls-21" d="m663.8,342.91l14.7,205c.1,1.7-1.3,3.2-3,3.2h0c-1.6,0-2.9-1.2-3-2.7l-17.7-205.4h9v-.1Z"/>
          </g>
          <polygon class="cls-17" points="695.1 338.61 39.2 338.61 114.2 308.41 620 308.41 695.1 338.61"/>
          <rect class="cls-21" x="39.2" y="338.61" width="656" height="7.5"/>
        </g>
        <g>
          <path class="cls-15" d="m300,303.41h42.1c1.1,0,2.2.3,3.2,1l38.2,25.5c1.3.8.7,2.8-.8,2.8h-60.9c-1.4,0-2.7-.6-3.6-1.8l-19.4-25c-.8-1-.1-2.5,1.2-2.5Z"/>
          <line class="cls-2" x1="326" y1="324.81" x2="365.3" y2="324.81"/>
          <path class="cls-12" d="m354.4,317.31l-8.2-6.2c-.4-.3-.8-.4-1.2-.4h-10.7c-.4,0-.5.4-.3.7l6.2,6c.4.4.9.6,1.4.6h12.6c.4,0,.5-.4.2-.7Z"/>
          <line class="cls-2" x1="332.2" y1="318.01" x2="321.4" y2="318.01"/>
          <line class="cls-2" x1="328.7" y1="313.91" x2="319" y2="313.91"/>
        </g>
        <g>
          <path class="cls-16" d="m543.1,336.81l-12,.9c-1,.1-2.1,0-3.1-.3l-54.8-15c-1.2-.3-2.1-1.5-2.1-2.8h0l93.2-2.3-21.2,19.5Z"/>
          <path class="cls-12" d="m529.7,333.41l23.2-61.7c.8-2.2,3-3.7,5.3-3.6l95.2,1.8c2.1,0,3.6,2.2,2.7,4.2l-22,53.9c-.8,2-2.7,3.3-4.8,3.5l-96.6,6.1c-2.1,0-3.7-2.2-3-4.2Z"/>
          <path class="cls-12" d="m533.1,337.61l-2,.1c-1,.1-2.1,0-3.1-.3l-54.8-15c-1.2-.4-2.1-1.5-2.1-2.8l60.1,14.4,1.9,3.6Z"/>
          <path class="cls-20" d="m610.2,301.41c-1.1,3.8-5,6.9-8.8,6.9s-6-3.1-4.9-6.9,5-6.9,8.8-6.9c3.8-.1,6,3.1,4.9,6.9Z"/>
        </g>
        <g>
          <g>
            <path class="cls-23" d="m73.2,206.01s9.8-2.7,18.4,12.7c8.6,15.4,12.9,44,15.6,46.9,2.7,2.9,7.1,5.1,21.3,14.2,14.2,9.1,15,9.4,27.3,10.9s13.1,5.7,16.9,9.9c3.8,4.2,6.5,7.1,2.9,7.4-3.5.3-7.5-4.9-9.8-3.4s-4,2.7-8.1,3.8c-4.2,1-2.9,2.7-6.8,2.3-3.9-.4-11.5-.2-9.1-2.3,2.3-2.1,0-2.6,0-2.6,0,0-42.3-5.7-56-16.8-13.8-11.1-17.3-47.9-20-60.1-2.8-12.3,4-22.9,7.4-22.9Z"/>
            <path class="cls-3" d="m107.2,265.61s-3.8-.4-6.5,1"/>
          </g>
          <path class="cls-12" d="m78,157.31s7.4-7,4.5-16.1c-2.9-9.2-11.9-10-19.2-7.8-7.3,2.3-27.3-1.5-34.6,9.6-7.3,11.1-2.7,21.1-7.3,24-4.6,2.9-11.1,5-10,12.3,1,7.3,20.6,17.9,14.6,26.3-6,8.3-11.7,27.9,11.5,39,23.1,11.1,24.6-15.4,26.1-30.8,1.5-15.4-3.1-33.2,3.5-39.8,6.7-6.8,12.2-10.5,10.9-16.7Z"/>
          <path class="cls-12" d="m44.2,202.41s26.5.6,31.1,2.7c4.6,2.1,6.7,9.2,8.1,14.6,1.5,5.4,11.9,11.9,13.8,23.8,1.9,11.9-8.3,25.7-8.8,27.9-.4,2.3-.6,24.6.6,29.2,1.3,4.6,3.3,12.1,3.1,15.4s-14.2,9.8-35,8.6c-20.8-1.2-42.6-11.7-43.3-14-.6-2.3,6.2-13.1,4.3-35.7-1.9-22.5-12.7-46.9-4.8-60.3,7.9-13.2,26.9-12.3,30.9-12.2Z"/>
          <path class="cls-23" d="m70,204.01s-.8-.13-2.21-.32c-.06-.22-2.6-9.66-2.89-16.18-.2-6.4-21.2-5-21.7-4.1,0,0,1.08,11.39.9,18.8-1.57.03-3.15.1-4.7.2,0,0,5.8,3.8,11.6,12,5.7,8.2,13,14.3,18.1,13.7,5.1-.6,7.5-7.3.9-24.1Z"/>
          <path class="cls-12" d="m52.2,193.01c4.1,6.4,8.3,9,15.5,9.5-.4-1.4-.9-3.9-1.5-6.6-5.7.7-8.4-1.3-14-2.9Z"/>
          <g>
            <path class="cls-20" d="m133.7,297.01l41.9-2.6c.5,0,1.1-1.1,1.3-.7.1.1,0,1.7,0,1.8,0,.3-.1.7-.3.9l-31.6,32.4c-1.3,1.3-3.1,2-5,1.8l-41.2-4.1c-.4,0-.8-.3-.9-.6-.1-.2-1.7-2.9-1.6-3.2,0-.3,2.3-.3,2.6-.5l32-24.1c.7-.6,1.7-1,2.8-1.1Z"/>
            <path class="cls-12" d="m133.2,294.41l42.5-1.8c1.1,0,1.7,1.3.9,2.1l-32.7,32.2c-1.3,1.3-3.2,2-5.1,1.7l-41.7-5.1c-1.1-.1-1.5-1.5-.6-2.2l33.7-25.9c.8-.6,1.9-1,3-1Z"/>
            <path class="cls-19" d="m152,292.51s-1.1.2-1.1,2.3.8,7.7-1.3,8.1c-2,.4-3-2.1-4-4.3-1-2.2-4-2.3-5.9-5.5"/>
          </g>
          <path class="cls-23" d="m75.4,146.61s2.9,7.7,3.2,16.4c.3,8.8,3.3,13.8,1.6,21.4-1.7,7.7-7.7,13.5-15.1,13.8-7.4.3-18.2-6.3-24.1-14.2-5.9-8-7.7-24.4-4.2-32.4,3.3-7.9,29.5-16.2,38.6-5Z"/>
          <path class="cls-12" d="m78.8,155.21s-4.3.5-7-3.9c0,0-6.5,15-17,16-7.2.7-8.6-2.7-11.6,0-3,2.7,5.7,18.3,3,31-2.7,12.7-15.5,16.2-24.5,8.4-11.3-9.9,1-11.8,3.3-25.8,2.3-13.9,0-24.6,7.4-32.7s14.7-13.1,26.4-12c11.8,1.1,16.6,2.9,20,19Z"/>
          <path class="cls-12" d="m47.9,165.41s-.7,5.3-.4,7-3.1-1.9-6.2.4c-1.7,1.3-3.3-6.9,0-9.4,3.2-2.5,5.1-.4,6.6,2Z"/>
          <path class="cls-19" d="m46,172.51s-3.8-4.9-7.9-1.9c-4.1,3.1,1.2,12.1,7.4,11.4"/>
          <g>
            <path class="cls-23" d="m130.1,319.91s5.7,4.7,7.9,6.3c2.1,1.6.8,3-1.6,3-2.5.1-10.3-6.3-6.3-9.3Z"/>
            <path class="cls-23" d="m16.8,210.51c-2.4,1.1-4.3,3-5.6,5.3-2.4,4.5-5.8,13.3-3.3,24.7,3.7,16.9,12.4,42.3,16.3,48.3,3.9,6,22.2,18,35.1,26s22.8,12.4,25.2,14.2c2.5,1.8,7.2,6.4,16.3,7.5,9.2,1.1,12.1-2.2,14.9-1.5,2.9.7,7.5,3.9,10.1,3.6,2.6-.4,1.2-2.3.2-3.3s-5.97-5.47-5.97-5.47c0,0,2.67.67,7.87,3.77,4.4,2.6,6.5,2.7,7.7,2.6,1.2,0,2.6-.5,2.4-1.6,0,0,1.2.7,2.2-.2,1-.9,1.3-1.7-1.1-4.4-2.5-2.7-8.5-9.8-11.5-12.9-3.1-3.2-6.5-3.4-13.9-3-7.4.3-17.8-1.2-18.1-.9s-32.1-33.4-41.7-43c0,0-7.7-25.1-10-35.9-4.7-21.7-16.1-29-27.1-23.8Z"/>
            <path class="cls-3" d="m138,334.71s0-1.2-3-3.3c-3-2-7.7-6.6-9.2-7.7-1.5-1.2-3.3-2.5-3.6-2.5"/>
            <path class="cls-3" d="m119.1,329.11s-2.3-2-3.4-1.7"/>
            <path class="cls-3" d="m53.9,270.21s-4.7-.5-8.4,3.3"/>
          </g>
          <g>
            <path class="cls-12" d="m74.9,168.31c.7.9,1.3,1.8,1.9,2.6.3.4.6.8,1,1.1.2.2.3.3.5.5l.3.2c.1.1.3.2.4.4.5.6.7,1.4.7,2.1s-.3,1.3-.6,1.8c-.6,1-1.5,1.9-2.7,2.2.7-.9,1.1-1.8,1.4-2.8.3-.9.2-1.8-.2-2.2,0-.1-.1-.1-.2-.2-.1-.1-.2-.2-.4-.3-.2-.2-.5-.5-.6-.7-.4-.5-.7-1-.9-1.5-.3-.9-.6-2-.6-3.2Z"/>
            <path class="cls-6" d="m71.8,186.31s-2.9.9-5.5-1.8"/>
            <path class="cls-12" d="m65,172.91h0c.9-.1,1.5-1,1.3-1.9l-.2-.9c-.1-.9-1-1.5-1.9-1.3h0c-.9.1-1.5,1-1.3,1.9l.2.9c.2.8,1,1.4,1.9,1.3Z"/>
            <path class="cls-12" d="m77.2,170.91h0c.9-.1,1.5-1,1.3-1.9l-.2-.9c-.1-.9-1-1.5-1.9-1.3h0c-.9.1-1.5,1-1.3,1.9l.2.9c.2.8,1,1.5,1.9,1.3Z"/>
            <path class="cls-12" d="m64.1,162.51c.9.1,1.6-.7,1.5-1.6-.1-.8-.3-1.6-.7-2.1-.9-1-4.4-.7-7,1.3-2.7,2-3.7,4.6-2.4,4.7,1.3.1,3.2-1.6,5.3-2.1,1-.4,2.3-.3,3.3-.2Z"/>
            <path class="cls-12" d="m77.2,161.01c-.4.3-.9,0-1-.4-.2-.8-.4-2-.1-2.3.5-.6,2-.2,2.3.7.3.9.4,1.4.1,1.4-.2-.1-.8.2-1.3.6Z"/>
            <path class="cls-12" d="m39.7,175.11c-.3-.3-.4-.7-.4-1.2,0-.2.1-.5.3-.8s.4-.4.7-.6c.1,0,.2-.1.4-.1s.5,0,.7.1c.4.2.6.5.7.7.3.4.4.8.6,1.2.3.7.4,1.4.6,1.9.1.3.2.5.4.7s.6.3,1,.3c-.3.3-.7.5-1.2.5s-1-.3-1.3-.7c-.6-.7-.9-1.5-1.2-2.1-.1-.3-.2-.7-.3-.9,0-.1-.1-.2,0-.2h.1-.1c-.2,0-.3,0-.5.2-.3.2-.4.6-.5,1Z"/>
          </g>
        </g>
        <g>
          <path class="cls-21" d="m322.4,113.21h-35.2l-3.6,2.3c-1.1.7-2.7-.1-2.7-1.4v-24.9c0-2.5,2-4.6,4.6-4.6h36.8c2.5,0,4.6,2,4.6,4.6v19.4c0,2.6-2,4.6-4.5,4.6Z"/>
          <g>
            <path class="cls-3" d="m291.4,104.01l3.5-3.5c1.9-1.9,4.9-1.9,6.8,0,1.9,1.9,4.9,1.9,6.8,0l6.7-6.7"/>
            <polygon class="cls-12" points="316.3 95.81 317.5 91.51 313.2 92.71 316.3 95.81"/>
          </g>
        </g>
        <g>
          <path class="cls-16" d="m631.4,229.41l-92.2-10.8c-2.7-.3-4.3-2.7-3.7-5.4l21.3-97.4c.5-2.3,2.7-4.2,5.1-4.5l96.2-10.1c2.5-.3,4.4,1.7,3.9,4.1l-25.5,120.4c-.6,2.3-2.8,4-5.1,3.7Z"/>
          <path class="cls-12" d="m627.7,229.41l-93-10.9c-2.7-.3-4.4-2.7-3.8-5.4l21.5-98.1c.5-2.4,2.7-4.3,5.2-4.5l96.9-10.2c2.5-.3,4.4,1.7,3.9,4.1l-25.8,121.4c-.4,2.2-2.7,3.9-4.9,3.6Z"/>
          <g>
            <path class="cls-18" d="m593.4,135.31l-35,1.7c-.9,0-1.6-.7-1.4-1.6l2.8-13c.2-.7.8-1.3,1.6-1.4l35.3-3c1-.1,1.6.7,1.4,1.6l-3.1,14.4c-.1.6-.8,1.2-1.6,1.3Z"/>
            <g>
              <path class="cls-10" d="m547.1,208.21h0c-.8-.1-1.3-.8-1.1-1.5l5.2-24.4c.2-.8.9-1.4,1.7-1.3h0c.8.1,1.3.7,1.1,1.5l-5.2,24.5c-.1.7-.9,1.3-1.7,1.2Z"/>
              <path class="cls-14" d="m559.5,207.91l6.2-28.8c.2-.8.9-1.4,1.7-1.3h.2c.8,0,1.3.7,1.2,1.5l-6.2,28.8c-.2.8-1,1.4-1.8,1.3h-.2c-.8,0-1.3-.7-1.1-1.5Z"/>
              <path class="cls-18" d="m573,209.01l7-32.9c.2-.9,1-1.5,1.9-1.5h0c.9,0,1.5.8,1.3,1.7l-7,32.9c-.2.9-1.1,1.5-2,1.5h0c-.8,0-1.4-.8-1.2-1.7Z"/>
            </g>
            <g>
              <path class="cls-18" d="m623,146.91l2.3,4.9c-2.8,3.2-6.2,5.2-9.4,5.2-6.2,0-9.5-7.5-7.5-16.8s8.6-17.2,14.9-17.7c3.3-.3,5.8,1.4,7.3,4.4l-4.4,5.2c-.9-1.8-2.4-2.9-4.3-2.7-3.8.3-7.8,5-9.1,10.7-1.2,5.6.8,10.2,4.6,10.1,2-.2,4-1.4,5.6-3.3Z"/>
              <path class="cls-14" d="m631.6,139.11c-1.1,4.9-3.4,9.4-6.2,12.6l-2.3-4.9c1.7-1.9,3.1-4.6,3.7-7.5.6-2.9.4-5.5-.5-7.3l4.4-5.2c1.5,3.1,1.9,7.4.9,12.3Z"/>
            </g>
            <g>
              <path class="cls-18" d="m596.3,195.41c-2,9.3,1.3,16.8,7.5,16.8,3.2,0,6.6-2,9.4-5.2l-2.3-4.9c-1.7,1.9-3.7,3.1-5.6,3.2-3.8.1-5.8-4.5-4.6-10.1.5-2.5,1.7-4.9,3.1-6.7l-2.1-4.6c-2.5,3.2-4.5,7.2-5.4,11.5Z"/>
              <path class="cls-14" d="m609.8,184.61c1.9-.1,3.5.9,4.3,2.7l4.4-5.2c-1.5-3-4.1-4.7-7.3-4.4-3.4.3-6.8,2.7-9.6,6.2l2.1,4.6c1.8-2.2,3.9-3.8,6.1-3.9Z"/>
              <path class="cls-10" d="m619.4,194.51c-1.1,4.9-3.4,9.4-6.2,12.6l-2.3-4.9c1.7-1.9,3.1-4.6,3.7-7.5.6-2.9.4-5.5-.5-7.3l4.4-5.2c1.5,3,2,7.4.9,12.3Z"/>
            </g>
            <line class="cls-8" x1="555.8" y1="145.71" x2="580.4" y2="144.81"/>
            <line class="cls-8" x1="554.4" y1="151.31" x2="589.6" y2="150.91"/>
            <line class="cls-8" x1="553.3" y1="157.11" x2="588.9" y2="157.11"/>
          </g>
          <g>
            <path class="cls-20" d="m645.3,110.01c.2-.8-.1-1.4-.7-1.4-.6.1-1.2.8-1.3,1.6-.2.8.1,1.4.7,1.4.6-.1,1.2-.8,1.3-1.6Z"/>
            <path class="cls-20" d="m651.1,109.51c.2-.8-.2-1.4-.7-1.4-.6.1-1.2.8-1.4,1.6s.2,1.4.7,1.4c.7-.1,1.3-.8,1.4-1.6Z"/>
          </g>
        </g>
        <g>
          <path class="cls-12" d="m280.9,331.01v.3c0,1-.8,1.8-1.8,1.8h-84.8c-1,0-1.8-.8-1.8-1.8h0c0-.6.3-1.2.7-1.7l16.4-16.2c.8-.8,1.8-1.2,2.8-1.2h55.7c1.4,0,2.8.8,3.5,2l9,15.5c.1.5.3.9.3,1.3Z"/>
          <path class="cls-20" d="m238.6,326.71c0,.3-.6.6-1.4.6s-1.4-.3-1.4-.6.6-.6,1.4-.6,1.4.3,1.4.6Z"/>
        </g>
        <g>
          <path class="cls-16" d="m575.7,419.91s-7.7-16.5,11.6-26.9c19.3-10.4,46.1-.1,43.7,3.5-1.5,2.2-5.4,8.6-12.7,16.5-6.1,6.7-23.6,17.1-42.6,6.9Z"/>
          <path class="cls-3" d="m627.6,395.81s-42.4-9.5-52,24.1c-9.5,33.6-6.6,65.8-6.6,65.8"/>
          <path class="cls-12" d="m537.5,457.71l6.9,81.3c0,3.1,12.6,5.5,28.2,5.5s28.2-2.5,28.2-5.5l6.9-81.3h-70.2Z"/>
          <ellipse class="cls-16" cx="572.6" cy="457.71" rx="35" ry="5.3"/>
          <path class="cls-16" d="m563.7,440.81s-11.3-5.6-18.6,7c-7.3,12.7-1.9,31.6,3.1,34.4,5,2.8,25.8-6.7,25.8-25.8,0-17-10.3-15.6-10.3-15.6Z"/>
          <path class="cls-3" d="m563.7,440.81s-11.3-.8-14.7,38.8"/>
          <path class="cls-16" d="m555.1,417.71s-11.9-18.5-35.7-6.6c-23.8,11.9-23.1,44.7-19.4,46.6,3.8,1.9,59.4-17.5,55.1-40Z"/>
          <path class="cls-3" d="m574,456.41s-7.4-26-18.9-38.8c-11.6-12.8-47.2,1.9-53.5,32.8"/>
          <path class="cls-16" d="m587.3,428.11s-10.1-3.5-14.7,9c-4.5,12.2.8,40,26.8,48.4,1.4.4,2.9,0,3.8-1.1,3.2-3.7,9.9-13.4,9.9-28-.1-20.3-11.3-35-25.8-28.3Z"/>
          <path class="cls-3" d="m587.3,428.11s21,10.3,13.3,53.6"/>
        </g>
        <g>
          <g>
            <path class="cls-22" d="m374.6,294.31s.4,12.6,18.6,13.8c18.1,1.3,53.4-2.8,60.3-4.7,6.9-1.9,6.5-13,2.1-16.1-4.4-3.1-30.8-4.5-44.3-6.5-3.1-.5-6.7-1.1-10.4-1.4-3.2-.3-6.4-.5-9.5-.4"/>
            <path class="cls-3" d="m374.4,290.81s0-2.6,3.9-1.9c8.5,1.6,15.7,19.9,7,17.6"/>
            <path class="cls-3" d="m411.2,280.81c-3.1-.5-6.7-1.1-10.4-1.4-3.2-.3-6.4-.5-9.5-.4"/>
          </g>
          <path class="cls-22" d="m500.5,222.41c3.3,1.1,5.7,3.7,9.9,16.4,5.5,16.6,12.5,51.8,8.9,61.3s-10.8,14.4-35,15.5c-24.2,1.1-47.7-.8-50.8-.8s-8.3-11.4-5-18.9c0,0,20.5-5,32.1-8.1,11.6-3.1,24.4-6.4,29.7-7,0,0-8.6-21.1-11.4-28.5-2.8-7.4-.5-20,6.1-25.7,6.5-5.6,12.7-5.1,15.5-4.2Z"/>
          <path class="cls-3" d="m490.2,280.81s9.9-2,15.8,0"/>
          <path class="cls-3" d="m520.3,294.31s-2.1-5-10.6.6c-6.7,4.4-8.7,17.6-1.4,16.8"/>
          <g>
            <path class="cls-23" d="m430.5,296.11s-5.3.5-10.7.5-12.7.9-14.4,1.7c-1.7.7-18.9,18-18.5,20.3.3,2.3,3.6.8,6.4-1.1,2.7-2,8-7.1,9.1-7.8,0,0-1.4,3.2-2.7,8s-2.6,9.6-1.3,10.4c1.7,1,3.3-.7,3.8-1.7,0,0-.1,2.5,1.9,2.6,2,.1,3.9-3.7,5.5-6.9,1.7-3.2,5.1-7.4,5.1-7.4,0,0-1.6,5.1-2.2,7.9-.6,2.8-1,6.1.5,6.4,2.3.5,4.4-6.3,5.7-8.9,1.4-2.7,6.4-.9,10.1-3.2,3.8-2.4,5.8-3,5.8-3,0,0,2.5-2.5,2.5-7.9,0-5.5-4.5-10.1-6.6-9.9Z"/>
            <path class="cls-3" d="m402,326.51s4.8-14,6.8-16.7,2.7-2.9,3.3-3.3"/>
            <path class="cls-3" d="m402.2,309.81s.8-1.6,2.1-4c.7-1.2,2.2-2.4,2.2-2.4"/>
            <path class="cls-3" d="m414.5,314.71s1.4-3.4,2.8-3.8"/>
          </g>
          <g>
            <g>
              <path class="cls-23" d="m446.4,285.91s4-1.3,7.7-3,5.2-2.4,8.1-2.6c2.9-.3,12-.3,13.3.5s3,4.6,3.9,6.5c.9,1.9-2,9.4-2,9.4,0,0,1.3,6.6-.3,7.3-1,.4-1.9.2-3.2-3.3,0,0,.9,3-.9,3.2-1.8.2-3.8-5-5.1-7.3s-3.8-5.2-3.8-5.2c0,0,1.1,3.6,1.3,4.8.2,1.3,1,4.3.5,5.5s-2.3-.4-4.1-4.5c-1.8-4.1-2.4-5.5-3.5-5.4-6.2.6-5.8-.8-8.8-1l-6.6,1.7c-.1-.1-.8-4.1,3.5-6.6Z"/>
              <path class="cls-3" d="m473.9,300.61s-2-6.5-2.7-8.5c-.7-1.9-3-5.5-3-5.5"/>
              <path class="cls-3" d="m477.4,296.61s-1.2-7-1.7-8.7c-.5-1.6-1.3-3.1-1.3-3.1"/>
            </g>
            <path class="cls-3" d="m464,291.31s-.6-2-.9-2.6"/>
          </g>
        </g>
      </g>
    </g>
  </g>
</svg>