<?xml version="1.0" encoding="UTF-8"?>
<svg id="Layer_2" data-name="Layer 2" xmlns="http://www.w3.org/2000/svg" viewBox="0 0 114.59 114.59">
  <defs>
    <style>
      .cls-1 {
        fill: #03045e;
      }

      .cls-1, .cls-2, .cls-3, .cls-4, .cls-5 {
        stroke-width: 0px;
      }

      .cls-2 {
        fill: #90e0ef;
      }

      .cls-3 {
        fill: #f3de8a;
      }

      .cls-4 {
        fill: #00b4d8;
      }

      .cls-5 {
        fill: #d90368;
      }
    </style>
  </defs>
  <g id="Layer_2-2" data-name="Layer 2">
    <g id="Layer_3" data-name="Layer 3">
      <g id="Technology">
        <rect class="cls-4" x="25.1" y="25.11" width="64.4" height="64.4" rx="7.16" ry="7.16"/>
        <rect class="cls-3" x="32.26" y="32.26" width="50.09" height="50.09"/>
        <rect class="cls-5" x="32.26" y="32.26" width="50.09" height="3.58"/>
        <circle class="cls-3" cx="68.04" cy="109.19" r="3.58"/>
        <circle class="cls-3" cx="87.71" cy="109.19" r="3.58"/>
        <circle class="cls-3" cx="46.57" cy="109.19" r="3.58"/>
        <circle class="cls-3" cx="26.89" cy="109.19" r="3.58"/>
        <circle class="cls-3" cx="46.57" cy="5.43" r="3.58"/>
        <circle class="cls-3" cx="26.89" cy="5.43" r="3.58"/>
        <circle class="cls-3" cx="68.04" cy="5.43" r="3.58"/>
        <circle class="cls-3" cx="87.71" cy="5.43" r="3.58"/>
        <circle class="cls-3" cx="5.42" cy="68.04" r="3.58"/>
        <circle class="cls-3" cx="5.42" cy="87.72" r="3.58"/>
        <circle class="cls-3" cx="5.42" cy="46.58" r="3.58"/>
        <circle class="cls-3" cx="5.42" cy="26.9" r="3.58"/>
        <circle class="cls-3" cx="109.18" cy="46.58" r="3.58"/>
        <circle class="cls-3" cx="109.18" cy="26.9" r="3.58"/>
        <circle class="cls-3" cx="109.18" cy="68.04" r="3.58"/>
        <circle class="cls-3" cx="109.18" cy="87.72" r="3.58"/>
        <path class="cls-2" d="m71.08,53.48l3.58-2.02-3.58-6.19-3.56,2.02c-1.83-1.85-4.12-3.17-6.64-3.83v-4.04h-7.16v4.04c-2.52.65-4.81,1.98-6.64,3.83l-3.49-2.02-3.58,6.19,3.58,2.02c-.72,2.5-.72,5.15,0,7.66l-3.58,2.02,3.58,6.19,3.49-2.02c1.83,1.85,4.12,3.17,6.64,3.83v4.04h7.16v-4.04c2.52-.65,4.81-1.98,6.64-3.83l3.49,2.02,3.58-6.19-3.58-2.02c.74-2.5.76-5.15.07-7.66Z"/>
        <circle class="cls-3" cx="57.3" cy="57.31" r="5.37"/>
        <path class="cls-1" d="m82.35,30.48h-50.09c-.99,0-1.79.8-1.79,1.79v50.09c0,.99.8,1.79,1.79,1.79h50.09c.99,0,1.79-.8,1.79-1.79v-50.09c0-.99-.8-1.79-1.79-1.79Zm-1.79,50.09h-46.51v-46.51h46.51v46.51Z"/>
        <path class="cls-1" d="m57.3,64.46c3.95,0,7.16-3.2,7.16-7.16s-3.2-7.16-7.16-7.16-7.16,3.2-7.16,7.16,3.2,7.16,7.16,7.16Zm0-10.73c1.98,0,3.58,1.6,3.58,3.58s-1.6,3.58-3.58,3.58-3.58-1.6-3.58-3.58,1.6-3.58,3.58-3.58Z"/>
        <path class="cls-1" d="m102.03,53.73c.79,0,.88-.21,4.19-2.68,2.47,1.64,5.8.97,7.44-1.5s.97-5.8-1.5-7.44-5.8-.97-7.44,1.5c-.58.88-.9,1.91-.9,2.97,0,2.29,1.32.79-2.38,3.58h-10.14v-7.16c9.43,0,9.73.3,10.47-.84l6.26-10.02c2.89.66,5.77-1.15,6.43-4.04.66-2.89-1.15-5.77-4.04-6.43s-5.77,1.15-6.43,4.04c-.36,1.58.01,3.24,1.01,4.51l-5.74,9.19h-7.96v-7.16c0-4.94-4-8.94-8.94-8.94h-7.16v-7.16h12.52c.99,0,1.79-.8,1.79-1.79v-3.9c2.79-.99,4.26-4.05,3.27-6.85-.99-2.79-4.05-4.26-6.85-3.27-2.79.99-4.26,4.05-3.27,6.85.54,1.53,1.74,2.73,3.27,3.27v2.11h-12.52c-.99,0-1.79.8-1.79,1.79v8.94h-7.16v-10.14l1.99-2.65c2.83.87,5.83-.73,6.7-3.57.87-2.83-.73-5.83-3.57-6.7-2.83-.87-5.83.73-6.7,3.57-.47,1.55-.22,3.23.69,4.57-3.4,4.54-2.68,1.38-2.68,14.92h-7.16v-10.73c0-.79-.21-.88-2.68-4.19,1.64-2.47.97-5.8-1.5-7.44-2.47-1.64-5.8-.97-7.44,1.5s-.97,5.8,1.5,7.44c.88.58,1.91.9,2.97.9,2.29,0,.79-1.32,3.58,2.38v10.14h-7.16c0-9.43.3-9.73-.84-10.47l-10.02-6.26c.66-2.89-1.15-5.77-4.04-6.43s-5.77,1.15-6.43,4.04c-.66,2.89,1.15,5.77,4.04,6.43,1.58.36,3.24,0,4.51-1.01l9.19,5.74v7.96h-7.16c-4.94,0-8.94,4-8.94,8.94v7.16h-7.16v-12.52c0-.99-.8-1.79-1.79-1.79h-3.9c-.99-2.79-4.05-4.26-6.85-3.27-2.79.99-4.26,4.05-3.27,6.85.99,2.79,4.05,4.26,6.85,3.27,1.53-.54,2.73-1.74,3.27-3.27h2.11v12.52c0,.99.8,1.79,1.79,1.79h8.94v7.16h-10.14l-2.65-1.99c.87-2.83-.73-5.83-3.57-6.7-2.83-.87-5.83.73-6.7,3.57-.87,2.83.73,5.83,3.57,6.7,1.55.47,3.23.22,4.57-.69,4.54,3.4,1.38,2.68,14.92,2.68v7.16h-10.73c-.79,0-.88.21-4.19,2.68-2.47-1.64-5.8-.97-7.44,1.5s-.97,5.8,1.5,7.44,5.8.97,7.44-1.5c.58-.88.9-1.91.9-2.97,0-2.29-1.32-.79,2.38-3.58h10.14v7.16c-9.43,0-9.73-.3-10.47.84l-6.26,10.02c-2.89-.66-5.77,1.15-6.43,4.04s1.15,5.77,4.04,6.43,5.77-1.15,6.43-4.04c.36-1.58-.01-3.24-1.01-4.51l5.74-9.19h7.96v7.16c0,4.94,4,8.94,8.94,8.94h7.16v7.16h-12.52c-.99,0-1.79.8-1.79,1.79v3.9c-2.79.99-4.26,4.05-3.27,6.85.99,2.79,4.05,4.26,6.85,3.27,2.79-.99,4.26-4.05,3.27-6.85-.54-1.53-1.74-2.73-3.27-3.27v-2.11h12.52c.99,0,1.79-.8,1.79-1.79v-8.94h7.16v10.14l-1.99,2.65c-2.83-.87-5.83.73-6.7,3.57-.87,2.83.73,5.83,3.57,6.7,2.83.87,5.83-.73,6.7-3.57.47-1.55.22-3.23-.69-4.57,3.4-4.54,2.68-1.38,2.68-14.92h7.16v10.73c0,.79.21.88,2.68,4.19-1.64,2.47-.97,5.8,1.5,7.44s5.8.97,7.44-1.5.97-5.8-1.5-7.44c-.88-.58-1.91-.9-2.97-.9-2.29,0-.79,1.32-3.58-2.38v-10.14h7.16c0,9.43-.3,9.73.84,10.47l10.02,6.26c-.66,2.89,1.15,5.77,4.04,6.43,2.89.66,5.77-1.15,6.43-4.04s-1.15-5.77-4.04-6.43c-1.58-.36-3.24,0-4.51,1.01l-9.19-5.74v-7.96h7.16c4.94,0,8.94-4,8.94-8.94v-7.16h7.16v12.52c0,.99.8,1.79,1.79,1.79h3.9c.99,2.79,4.05,4.26,6.85,3.27,2.79-.99,4.26-4.05,3.27-6.85s-4.05-4.26-6.85-3.27c-1.53.54-2.73,1.74-3.27,3.27h-2.11v-12.52c0-.99-.8-1.79-1.79-1.79h-8.94v-7.16h10.14l2.65,1.99c-.87,2.83.73,5.83,3.57,6.7,2.83.87,5.83-.73,6.7-3.57.87-2.83-.73-5.83-3.57-6.7-1.55-.47-3.23-.22-4.57.69-4.54-3.4-1.38-2.68-14.92-2.68v-7.16h10.73,0Zm7.16-8.94c.99,0,1.79.8,1.79,1.79s-.8,1.79-1.79,1.79-1.79-.8-1.79-1.79.8-1.79,1.79-1.79Zm0-19.68c.99,0,1.79.8,1.79,1.79s-.8,1.79-1.79,1.79-1.79-.8-1.79-1.79.8-1.79,1.79-1.79ZM87.72,3.64c.99,0,1.79.8,1.79,1.79s-.8,1.79-1.79,1.79-1.79-.8-1.79-1.79.8-1.79,1.79-1.79Zm-19.68,0c.99,0,1.79.8,1.79,1.79s-.8,1.79-1.79,1.79-1.79-.8-1.79-1.79.8-1.79,1.79-1.79Zm-23.26,1.79c0-.99.8-1.79,1.79-1.79s1.79.8,1.79,1.79-.8,1.79-1.79,1.79-1.79-.8-1.79-1.79Zm-17.89,1.79c-.99,0-1.79-.8-1.79-1.79s.8-1.79,1.79-1.79,1.79.8,1.79,1.79-.8,1.79-1.79,1.79ZM5.42,28.69c-.99,0-1.79-.8-1.79-1.79s.8-1.79,1.79-1.79,1.79.8,1.79,1.79-.8,1.79-1.79,1.79Zm-1.79,17.89c0-.99.8-1.79,1.79-1.79s1.79.8,1.79,1.79-.8,1.79-1.79,1.79-1.79-.8-1.79-1.79Zm1.79,23.26c-.99,0-1.79-.8-1.79-1.79s.8-1.79,1.79-1.79,1.79.8,1.79,1.79-.8,1.79-1.79,1.79Zm0,19.68c-.99,0-1.79-.8-1.79-1.79s.8-1.79,1.79-1.79,1.79.8,1.79,1.79-.8,1.79-1.79,1.79Zm21.47,21.47c-.99,0-1.79-.8-1.79-1.79s.8-1.79,1.79-1.79,1.79.8,1.79,1.79-.8,1.79-1.79,1.79Zm19.68,0c-.99,0-1.79-.8-1.79-1.79s.8-1.79,1.79-1.79,1.79.8,1.79,1.79-.8,1.79-1.79,1.79Zm23.26-1.79c0,.99-.8,1.79-1.79,1.79s-1.79-.8-1.79-1.79.8-1.79,1.79-1.79,1.79.8,1.79,1.79Zm17.89-1.79c.99,0,1.79.8,1.79,1.79s-.8,1.79-1.79,1.79-1.79-.8-1.79-1.79.8-1.79,1.79-1.79Zm21.47-21.47c.99,0,1.79.8,1.79,1.79s-.8,1.79-1.79,1.79-1.79-.8-1.79-1.79.8-1.79,1.79-1.79Zm1.79-17.89c0,.99-.8,1.79-1.79,1.79s-1.79-.8-1.79-1.79.8-1.79,1.79-1.79,1.79.8,1.79,1.79Zm-23.26,14.31c0,2.96-2.4,5.37-5.37,5.37h-50.09c-2.96,0-5.37-2.4-5.37-5.37v-50.09c0-2.96,2.4-5.37,5.37-5.37h50.09c2.96,0,5.37,2.4,5.37,5.37v50.09Z"/>
        <path class="cls-1" d="m42.04,70.24c.49.86,1.58,1.16,2.44.67h.01l2.34-1.36c1.51,1.28,3.24,2.27,5.1,2.93v2.72c0,.99.8,1.79,1.79,1.79h7.16c.99,0,1.79-.8,1.79-1.79v-2.72c1.86-.66,3.58-1.65,5.08-2.93l2.36,1.36c.85.5,1.95.2,2.44-.65h0s3.58-6.2,3.58-6.2c.5-.85.2-1.95-.65-2.44h-.01l-2.36-1.36c.38-1.94.38-3.93,0-5.87l2.36-1.36c.86-.49,1.16-1.58.67-2.44h0s-3.58-6.2-3.58-6.2c-.49-.86-1.58-1.16-2.44-.67h-.01l-2.36,1.36c-1.5-1.28-3.22-2.28-5.08-2.93v-2.72c0-.99-.8-1.79-1.79-1.79h-7.16c-.99,0-1.79.8-1.79,1.79v2.72c-1.86.66-3.59,1.66-5.1,2.93l-2.34-1.36c-.85-.5-1.95-.2-2.44.65h0c-4.85,8.4-5.12,7.38-.55,10.01-.38,1.94-.38,3.93,0,5.87-4.6,2.65-4.26,1.65.55,10h0Zm3.2-9.59c-.63-2.19-.63-4.5,0-6.69.43-1.54-.82-2.02-2.77-3.15l1.79-3.11,1.93,1.13c2.22,1.27,2.43-2.2,7.98-3.58,1.54-.39,1.34-1.7,1.34-3.99h3.58v2.25c0,2.56,3.15,1,7.16,5.08,1.13,1.14,2.2.27,4.11-.84l1.79,3.11-1.97,1.07c-1.79.98-.36,2.33-.36,5.37s-1.34,4.38.36,5.37l1.95,1.13-1.79,3.11c-1.79-1.07-2.95-2.02-4.11-.84-3.99,4.08-7.16,2.52-7.16,5.08v2.25h-3.56v-2.25c.03-.84-.53-1.58-1.34-1.79-5.56-1.43-5.76-4.92-7.98-3.58l-1.93,1.13-1.79-3.11c1.86-1.13,3.22-1.56,2.77-3.15Z"/>
      </g>
    </g>
  </g>
</svg>