<?xml version="1.0" encoding="UTF-8"?>
<svg id="Layer_2" data-name="Layer 2" xmlns="http://www.w3.org/2000/svg" viewBox="0 0 117.74 117.93">
  <defs>
    <style>
      .cls-1 {
        fill: #03045e;
      }

      .cls-1, .cls-2, .cls-3, .cls-4, .cls-5, .cls-6, .cls-7 {
        stroke-width: 0px;
      }

      .cls-2 {
        fill: #90e0ef;
      }

      .cls-3 {
        fill: #f3de8a;
      }

      .cls-4 {
        fill: #00b4d8;
      }

      .cls-5 {
        fill: #fff;
      }

      .cls-6 {
        fill: #f1f2f2;
      }

      .cls-7 {
        fill: #d90368;
      }
    </style>
  </defs>
  <g id="Layer_2-2" data-name="Layer 2">
    <g id="Layer_3" data-name="Layer 3">
      <g>
        <path class="cls-4" d="m10.67,1.96h94.85c5.11,0,9.26,4.15,9.26,9.26v6.57H1.42v-6.57C1.42,6.11,5.57,1.96,10.68,1.96h-.01Z"/>
        <path class="cls-6" d="m1.41,19.6h114.13v61.7c0,6.17-5.01,11.17-11.17,11.17H12.58c-6.17,0-11.17-5.01-11.17-11.17V19.6h0Z"/>
        <polygon class="cls-2" points="105.54 92.47 11.41 92.47 1.41 86.89 115.54 86.89 105.54 92.47"/>
        <path class="cls-1" d="m117.74,14.12c0-8.24-5.91-14.12-14.17-14.12C73.77,0,43.97,0,14.17.01c-1.18,0-2.38.09-3.52.36C4.23,1.84.02,7.24,0,14.01-.01,26.97,0,39.94,0,52.9,0,62.02,0,71.14,0,80.26c0,4.72,1.86,8.57,5.69,11.38,2.35,1.72,5.02,2.58,7.95,2.56l90.4.04c.6-.04,1.09-.03,1.57-.11,7.34-1.09,12.11-6.57,12.11-14,.01-22,.02-44,0-66h.01Zm-3.92,58.83c0,2.62.04,5.24-.02,7.85-.1,4.35-3.03,8.06-7.21,9.15-.82.21-1.67.3-2.54.46l-90.4-.06c-6.27-.62-9.72-4.43-9.72-10.66V19.61h109.9s-.01,35.59-.01,53.34h0Zm0-57.28H4.07c-.96-6.6,3.5-11.74,10.13-11.74h89.03c6.61,0,10.59,4,10.59,10.63v1.12h0Z"/>
        <path class="cls-1" d="m45.14,70.54v-38.28c0-5.55,3.18-8.71,8.77-8.71,3.52,0,7.03-.01,10.55,0,4.75.02,8.15,3.37,8.15,8.09.01,26.01.01,52.02,0,78.03,0,4.72-3.4,8.08-8.15,8.1-3.72.02-7.44.02-11.16,0-4.79-.02-8.15-3.39-8.15-8.22-.01-13.01,0-26.01,0-39.02h0Zm15.76-37.22h7.79v-1.1c.01-3.25-1.45-4.74-4.68-4.74-3.6,0-7.19-.01-10.79,0-2.49.01-4.12,1.66-4.15,4.16-.01,1.06,0,2.13,0,3.19v74.45c0,3.07,1.52,4.57,4.6,4.57,3.64,0,7.27.01,10.91,0,2.12-.01,3.79-1.38,4.05-3.35.1-.79.02-1.61.02-2.55h-7.72v-3.94h7.68v-3.94h-3.79v-3.9h3.77v-3.94h-3.75v-3.94h3.78v-3.9h-7.68v-3.94h7.66v-3.94h-3.77v-3.9h3.79v-3.9h-3.77v-3.94h3.76v-3.94h-7.71v-3.9h7.69v-3.94h-3.75v-3.94h3.77v-3.9h-3.76v-3.94h3.74v-3.9h-7.7v-3.99Z"/>
        <path class="cls-1" d="m17.67,79.74c0-10.59,0-21.18.02-31.76,0-.75.17-1.55.47-2.23,2.4-5.5,4.86-10.97,7.28-16.46.42-.95.93-1.77,2.1-1.75,1.1.02,1.58.81,1.98,1.73,2.42,5.49,4.88,10.96,7.28,16.46.3.69.47,1.49.47,2.24.02,21.13.02,42.27.02,63.4,0,4.06-2.33,6.41-6.37,6.42-2.37,0-4.74.01-7.11,0-3.72-.02-6.14-2.43-6.14-6.15-.01-10.63,0-21.26,0-31.89h0Zm11.81-26.68v48.92h3.83v-52.83h-11.63v52.83h3.88v-48.92h3.93,0Zm-7.88,52.99c0,2.04-.03,3.96.01,5.88.03,1.16.68,1.88,1.82,1.9,2.7.05,5.39.04,8.09,0,1.03-.01,1.76-.62,1.8-1.65.08-2.03.02-4.06.02-6.13h-11.74Zm10.77-60.94c-1.64-3.61-3.2-7.04-4.89-10.75-1.63,3.75-3.14,7.21-4.68,10.75h9.57Z"/>
        <polygon class="cls-1" points="26.75 31.39 23.37 39.17 31.28 39.17 28.28 31 26.75 31.39"/>
        <path class="cls-5" d="m96.11,29.95c.72,2.66,1.27,5.16,2.08,7.58,1.06,3.17,1.71,6.37,1.69,9.71-.03,4.22-3.15,7.55-7.28,7.71-4.19.16-8.01-3.02-8.14-7.17-.16-5.49,1.36-10.5,5.35-14.51,1.79-1.8,3.99-2.91,6.3-3.33h0Z"/>
        <path class="cls-7" d="m82.22,42.45s.08.2.23.49c.52.99,1.92,3.05,4.21,2.17,2.96-1.15,4.37-4.17,7.69-2.66s6.77,2.13,6.64-.41-1.79-14.51-1.79-14.51l-5.74.6-8.43,8.94-2.81,5.38h0Z"/>
        <path class="cls-3" d="m86.67,57.5c3.74,1.82,7.41,1.83,11.13,0,0,.98.02,1.83,0,2.67-.46,14.99-.92,29.98-1.39,44.97-.07,2.33-.12,4.66-.26,6.98-.02.38-.37.91-.71,1.06-2.12.96-4.29.96-6.39-.01-.35-.16-.7-.77-.71-1.19-.35-9.88-.66-19.77-.97-29.65-.23-7.43-.46-14.87-.69-22.3-.02-.77,0-1.55,0-2.54h0Z"/>
        <path class="cls-7" d="m85.16,55.95v2.79s1.5,1.64,7.01,1.55c5.5-.09,7.72-1.42,7.72-1.42l-.3-3.11-14.43.18h0Z"/>
        <path class="cls-1" d="m104.09,46.57c-.03,2.31-.54,4.46-1.69,6.46-.21.37-.34.84-.36,1.26-.42,12.38-.81,24.76-1.21,37.15-.24,7.6-.47,15.2-.76,22.8-.02.44-.33,1-.69,1.27-4.31,3.22-9.93,3.22-14.24.01-.38-.28-.72-.89-.74-1.36-.61-18.35-1.19-36.7-1.77-55.05-.05-1.63-.12-3.27-.19-4.9-.01-.28-.02-.6-.16-.82-2.24-3.55-2.12-7.39-1.32-11.27,1.4-6.77,4.78-12.11,11.29-15.06,2.37-1.08,4.9-1.51,7.51-1.55.87-.01,1.62.16,2.04,1.03.43.89.3,1.69-.39,2.35-1.22,1.16-1.16,2.46-.68,3.94,1.02,3.18,2,6.38,2.86,9.6.35,1.33.35,2.75.5,4.13h0Zm-17.42,10.93c0,.99-.02,1.76,0,2.54.22,7.43.45,14.87.69,22.3.31,9.88.62,19.77.97,29.65.01.42.36,1.03.71,1.19,2.11.97,4.28.97,6.39.01.34-.15.69-.69.71-1.06.14-2.32.19-4.65.26-6.98.46-14.99.93-29.98,1.39-44.97.03-.84,0-1.68,0-2.67-3.72,1.83-7.39,1.82-11.13,0h0Zm9.44-27.56c-2.31.42-4.51,1.52-6.3,3.33-3.99,4.01-5.51,9.02-5.35,14.51.12,4.15,3.94,7.33,8.14,7.17,4.13-.16,7.25-3.49,7.28-7.71.02-3.35-.63-6.55-1.69-9.71-.81-2.42-1.36-4.92-2.08-7.58h0Z"/>
        <path class="cls-1" d="m62.75,7.93v3.77h-27.36v-3.77h27.36Z"/>
        <path class="cls-1" d="m15.65,7.92v3.77h-3.79v-3.77h3.79Z"/>
        <path class="cls-1" d="m23.5,7.92v3.77h-3.79v-3.77h3.79Z"/>
        <path class="cls-1" d="m31.32,11.72h-3.78v-3.77h3.78v3.77Z"/>
        <path class="cls-3" d="m60.9,33.33v3.94h7.7v3.9h-3.74v3.94h3.76v3.9h-3.77v3.94h3.75v3.94h-7.69v3.9h7.71v3.94h-3.76v3.94h3.77v3.9h-3.79v3.9h3.77v3.94h-7.66v3.94h7.68v3.9h-3.78v3.94h3.75v3.94h-3.77v3.9h3.79v3.94h-7.68v3.94h7.72c0,.94.09,1.75-.02,2.55-.26,1.97-1.93,3.34-4.05,3.35-3.64.02-7.27,0-10.91,0-3.08,0-4.6-1.51-4.6-4.57V34.79c0-1.06-.01-2.13,0-3.19.03-2.5,1.66-4.15,4.15-4.16,3.6-.02,7.19,0,10.79,0,3.22,0,4.69,1.49,4.68,4.74v1.1h-7.79v.05Z"/>
        <path class="cls-3" d="m29.48,53.06h-3.93v48.92h-3.88v-52.83h11.63v52.83h-3.83v-48.92h0Z"/>
        <path class="cls-7" d="m21.6,106.05h11.74c0,2.07.06,4.11-.02,6.13-.04,1.03-.77,1.64-1.8,1.65-2.7.04-5.39.05-8.09,0-1.13-.02-1.79-.74-1.82-1.9-.04-1.92-.01-3.83-.01-5.88Z"/>
        <path class="cls-5" d="m32.37,45.11h-9.57c1.54-3.55,3.05-7.01,4.68-10.75,1.69,3.71,3.25,7.14,4.89,10.75Z"/>
      </g>
    </g>
  </g>
</svg>