<?xml version="1.0" encoding="UTF-8"?>
<svg id="Layer_2" data-name="Layer 2" xmlns="http://www.w3.org/2000/svg" xmlns:xlink="http://www.w3.org/1999/xlink" viewBox="0 0 114.56 114.56">
  <defs>
    <style>
      .cls-1 {
        clip-path: url(#clippath-2);
      }

      .cls-2 {
        clip-path: url(#clippath-6);
      }

      .cls-3 {
        fill: #03045e;
      }

      .cls-3, .cls-4, .cls-5, .cls-6, .cls-7, .cls-8, .cls-9 {
        stroke-width: 0px;
      }

      .cls-4 {
        fill: none;
      }

      .cls-5 {
        fill: #90e0ef;
      }

      .cls-10 {
        clip-path: url(#clippath-1);
      }

      .cls-11 {
        clip-path: url(#clippath-4);
      }

      .cls-6 {
        fill: #f3de8a;
      }

      .cls-7 {
        fill: #00b4d8;
      }

      .cls-8 {
        fill: #fff;
      }

      .cls-12 {
        clip-path: url(#clippath);
      }

      .cls-13 {
        clip-path: url(#clippath-3);
      }

      .cls-9 {
        fill: #d90368;
      }

      .cls-14 {
        clip-path: url(#clippath-5);
      }
    </style>
    <clipPath id="clippath">
      <rect class="cls-4" x="23.27" y="1.79" width="68.02" height="110.98" rx="7.16" ry="7.16"/>
    </clipPath>
    <clipPath id="clippath-1">
      <circle class="cls-4" cx="87.71" cy="78.76" r="17.9"/>
    </clipPath>
    <clipPath id="clippath-2">
      <path class="cls-4" d="m87.71,82.02c-3.6,0-6.52-2.92-6.52-6.52v-1.63c0-3.6,2.92-6.51,6.52-6.51s6.51,2.92,6.51,6.51v1.63c0,3.6-2.92,6.52-6.52,6.52h0Z"/>
    </clipPath>
    <clipPath id="clippath-3">
      <path class="cls-4" d="m99.31,92.39c-6.7,5.73-16.57,5.73-23.27,0l.9-2.65c1.86-5.95,8.2-9.27,14.15-7.41,3.49,1.09,6.23,3.8,7.37,7.27,0,0,.84,2.74.86,2.79h-.01Z"/>
    </clipPath>
    <clipPath id="clippath-4">
      <rect class="cls-4" x="1.79" y="73.39" width="53.7" height="21.48"/>
    </clipPath>
    <clipPath id="clippath-5">
      <rect class="cls-4" x="62.65" y="23.27" width="50.12" height="25.06"/>
    </clipPath>
    <clipPath id="clippath-6">
      <rect class="cls-4" x="7.16" y="23.27" width="39.38" height="32.22"/>
    </clipPath>
  </defs>
  <g id="Layer_2-2" data-name="Layer 2">
    <g id="Layer_3" data-name="Layer 3">
      <g>
        <g>
          <rect class="cls-7" x="23.27" y="1.79" width="68.02" height="110.98" rx="7.16" ry="7.16"/>
          <g class="cls-12">
            <g>
              <rect class="cls-7" x="23.27" y="111.04" width="68.02" height="1.73"/>
              <rect class="cls-7" x="23.27" y="109.31" width="68.02" height="1.73"/>
              <rect class="cls-7" x="23.27" y="107.57" width="68.02" height="1.73"/>
              <rect class="cls-7" x="23.27" y="105.84" width="68.02" height="1.73"/>
              <rect class="cls-7" x="23.27" y="104.1" width="68.02" height="1.73"/>
              <rect class="cls-7" x="23.27" y="102.37" width="68.02" height="1.73"/>
              <rect class="cls-7" x="23.27" y="100.64" width="68.02" height="1.73"/>
              <rect class="cls-7" x="23.27" y="98.9" width="68.02" height="1.73"/>
              <rect class="cls-7" x="23.27" y="97.17" width="68.02" height="1.73"/>
              <rect class="cls-7" x="23.27" y="95.43" width="68.02" height="1.73"/>
              <rect class="cls-7" x="23.27" y="93.7" width="68.02" height="1.73"/>
              <rect class="cls-7" x="23.27" y="91.97" width="68.02" height="1.73"/>
              <rect class="cls-7" x="23.27" y="90.23" width="68.02" height="1.73"/>
              <rect class="cls-7" x="23.27" y="88.5" width="68.02" height="1.73"/>
              <rect class="cls-7" x="23.27" y="86.76" width="68.02" height="1.73"/>
              <rect class="cls-7" x="23.27" y="85.03" width="68.02" height="1.73"/>
              <rect class="cls-7" x="23.27" y="83.3" width="68.02" height="1.73"/>
              <rect class="cls-7" x="23.27" y="81.56" width="68.02" height="1.73"/>
              <rect class="cls-7" x="23.27" y="79.83" width="68.02" height="1.73"/>
              <rect class="cls-7" x="23.27" y="78.09" width="68.02" height="1.73"/>
              <rect class="cls-7" x="23.27" y="76.36" width="68.02" height="1.73"/>
              <rect class="cls-7" x="23.27" y="74.62" width="68.02" height="1.73"/>
              <rect class="cls-7" x="23.27" y="72.89" width="68.02" height="1.73"/>
              <rect class="cls-7" x="23.27" y="71.16" width="68.02" height="1.73"/>
              <rect class="cls-7" x="23.27" y="69.42" width="68.02" height="1.73"/>
              <rect class="cls-7" x="23.27" y="67.69" width="68.02" height="1.73"/>
              <rect class="cls-7" x="23.27" y="65.95" width="68.02" height="1.73"/>
              <rect class="cls-7" x="23.27" y="64.22" width="68.02" height="1.73"/>
              <rect class="cls-7" x="23.27" y="62.49" width="68.02" height="1.73"/>
              <rect class="cls-7" x="23.27" y="60.75" width="68.02" height="1.73"/>
              <rect class="cls-7" x="23.27" y="59.02" width="68.02" height="1.73"/>
              <rect class="cls-7" x="23.27" y="57.28" width="68.02" height="1.73"/>
              <rect class="cls-7" x="23.27" y="55.55" width="68.02" height="1.73"/>
              <rect class="cls-7" x="23.27" y="53.82" width="68.02" height="1.73"/>
              <rect class="cls-7" x="23.27" y="52.08" width="68.02" height="1.73"/>
              <rect class="cls-7" x="23.27" y="50.35" width="68.02" height="1.73"/>
              <rect class="cls-7" x="23.27" y="48.61" width="68.02" height="1.73"/>
              <rect class="cls-7" x="23.27" y="46.88" width="68.02" height="1.73"/>
              <rect class="cls-7" x="23.27" y="45.15" width="68.02" height="1.73"/>
              <rect class="cls-7" x="23.27" y="43.41" width="68.02" height="1.73"/>
              <rect class="cls-7" x="23.27" y="41.68" width="68.02" height="1.73"/>
              <rect class="cls-7" x="23.27" y="39.94" width="68.02" height="1.73"/>
              <rect class="cls-7" x="23.27" y="38.21" width="68.02" height="1.73"/>
              <rect class="cls-7" x="23.27" y="36.47" width="68.02" height="1.73"/>
              <rect class="cls-7" x="23.27" y="34.74" width="68.02" height="1.73"/>
              <rect class="cls-7" x="23.27" y="33.01" width="68.02" height="1.73"/>
              <rect class="cls-7" x="23.27" y="31.27" width="68.02" height="1.73"/>
              <rect class="cls-7" x="23.27" y="29.54" width="68.02" height="1.73"/>
              <rect class="cls-7" x="23.27" y="27.8" width="68.02" height="1.73"/>
              <rect class="cls-7" x="23.27" y="26.07" width="68.02" height="1.73"/>
              <rect class="cls-7" x="23.27" y="24.34" width="68.02" height="1.73"/>
              <rect class="cls-7" x="23.27" y="22.6" width="68.02" height="1.73"/>
              <rect class="cls-7" x="23.27" y="20.87" width="68.02" height="1.73"/>
              <rect class="cls-7" x="23.27" y="19.13" width="68.02" height="1.73"/>
              <rect class="cls-7" x="23.27" y="17.4" width="68.02" height="1.73"/>
              <rect class="cls-7" x="23.27" y="15.67" width="68.02" height="1.73"/>
              <rect class="cls-7" x="23.27" y="13.93" width="68.02" height="1.73"/>
              <rect class="cls-7" x="23.27" y="12.2" width="68.02" height="1.73"/>
              <rect class="cls-7" x="23.27" y="10.46" width="68.02" height="1.73"/>
              <rect class="cls-7" x="23.27" y="8.73" width="68.02" height="1.73"/>
              <rect class="cls-7" x="23.27" y="6.99" width="68.02" height="1.73"/>
              <rect class="cls-7" x="23.27" y="5.26" width="68.02" height="1.73"/>
              <rect class="cls-7" x="23.27" y="3.53" width="68.02" height="1.73"/>
              <rect class="cls-7" x="23.27" y="1.79" width="68.02" height="1.73"/>
            </g>
          </g>
        </g>
        <path class="cls-6" d="m84.13,8.95v96.66H30.43V8.95h12.53c0,1.98,1.6,3.58,3.58,3.58h21.48c1.98,0,3.58-1.6,3.58-3.58h12.53Z"/>
        <rect class="cls-9" x="30.43" y="102.03" width="53.7" height="3.58"/>
        <g>
          <circle class="cls-6" cx="87.71" cy="78.76" r="17.9"/>
          <g class="cls-10">
            <g>
              <rect class="cls-6" x="69.81" y="96.06" width="35.8" height=".61"/>
              <rect class="cls-6" x="69.81" y="95.45" width="35.8" height=".61"/>
              <rect class="cls-6" x="69.81" y="94.84" width="35.8" height=".61"/>
              <rect class="cls-6" x="69.81" y="94.24" width="35.8" height=".61"/>
              <rect class="cls-6" x="69.81" y="93.63" width="35.8" height=".61"/>
              <rect class="cls-6" x="69.81" y="93.02" width="35.8" height=".61"/>
              <rect class="cls-6" x="69.81" y="92.42" width="35.8" height=".61"/>
              <rect class="cls-6" x="69.81" y="91.81" width="35.8" height=".61"/>
              <rect class="cls-6" x="69.81" y="91.2" width="35.8" height=".61"/>
              <rect class="cls-6" x="69.81" y="90.6" width="35.8" height=".61"/>
              <rect class="cls-6" x="69.81" y="89.99" width="35.8" height=".61"/>
              <rect class="cls-6" x="69.81" y="89.38" width="35.8" height=".61"/>
              <rect class="cls-6" x="69.81" y="88.78" width="35.8" height=".61"/>
              <rect class="cls-6" x="69.81" y="88.17" width="35.8" height=".61"/>
              <rect class="cls-6" x="69.81" y="87.56" width="35.8" height=".61"/>
              <rect class="cls-6" x="69.81" y="86.96" width="35.8" height=".61"/>
              <rect class="cls-6" x="69.81" y="86.35" width="35.8" height=".61"/>
              <rect class="cls-6" x="69.81" y="85.74" width="35.8" height=".61"/>
              <rect class="cls-6" x="69.81" y="85.14" width="35.8" height=".61"/>
              <rect class="cls-6" x="69.81" y="84.53" width="35.8" height=".61"/>
              <rect class="cls-6" x="69.81" y="83.92" width="35.8" height=".61"/>
              <rect class="cls-6" x="69.81" y="83.31" width="35.8" height=".61"/>
              <rect class="cls-6" x="69.81" y="82.71" width="35.8" height=".61"/>
              <rect class="cls-6" x="69.81" y="82.1" width="35.8" height=".61"/>
              <rect class="cls-6" x="69.81" y="81.49" width="35.8" height=".61"/>
              <rect class="cls-6" x="69.81" y="80.89" width="35.8" height=".61"/>
              <rect class="cls-6" x="69.81" y="80.28" width="35.8" height=".61"/>
              <rect class="cls-6" x="69.81" y="79.67" width="35.8" height=".61"/>
              <rect class="cls-6" x="69.81" y="79.07" width="35.8" height=".61"/>
              <rect class="cls-6" x="69.81" y="78.46" width="35.8" height=".61"/>
              <rect class="cls-6" x="69.81" y="77.85" width="35.8" height=".61"/>
              <rect class="cls-6" x="69.81" y="77.25" width="35.8" height=".61"/>
              <rect class="cls-6" x="69.81" y="76.64" width="35.8" height=".61"/>
              <rect class="cls-6" x="69.81" y="76.03" width="35.8" height=".61"/>
              <rect class="cls-6" x="69.81" y="75.43" width="35.8" height=".61"/>
              <rect class="cls-6" x="69.81" y="74.82" width="35.8" height=".61"/>
              <rect class="cls-6" x="69.81" y="74.21" width="35.8" height=".61"/>
              <rect class="cls-6" x="69.81" y="73.61" width="35.8" height=".61"/>
              <rect class="cls-6" x="69.81" y="73" width="35.8" height=".61"/>
              <rect class="cls-6" x="69.81" y="72.39" width="35.8" height=".61"/>
              <rect class="cls-6" x="69.81" y="71.79" width="35.8" height=".61"/>
              <rect class="cls-6" x="69.81" y="71.18" width="35.8" height=".61"/>
              <rect class="cls-6" x="69.81" y="70.57" width="35.8" height=".61"/>
              <rect class="cls-6" x="69.81" y="69.97" width="35.8" height=".61"/>
              <rect class="cls-6" x="69.81" y="69.36" width="35.8" height=".61"/>
              <rect class="cls-6" x="69.81" y="68.75" width="35.8" height=".61"/>
              <rect class="cls-6" x="69.81" y="68.15" width="35.8" height=".61"/>
              <rect class="cls-6" x="69.81" y="67.54" width="35.8" height=".61"/>
              <rect class="cls-6" x="69.81" y="66.93" width="35.8" height=".61"/>
              <rect class="cls-6" x="69.81" y="66.32" width="35.8" height=".61"/>
              <rect class="cls-6" x="69.81" y="65.72" width="35.8" height=".61"/>
              <rect class="cls-6" x="69.81" y="65.11" width="35.8" height=".61"/>
              <rect class="cls-6" x="69.81" y="64.5" width="35.8" height=".61"/>
              <rect class="cls-6" x="69.81" y="63.9" width="35.8" height=".61"/>
              <rect class="cls-6" x="69.81" y="63.29" width="35.8" height=".61"/>
              <rect class="cls-6" x="69.81" y="62.68" width="35.8" height=".61"/>
              <rect class="cls-6" x="69.81" y="62.08" width="35.8" height=".61"/>
              <rect class="cls-6" x="69.81" y="61.47" width="35.8" height=".61"/>
              <rect class="cls-6" x="69.81" y="60.86" width="35.8" height=".61"/>
            </g>
          </g>
        </g>
        <g>
          <path class="cls-7" d="m87.71,82.02c-3.6,0-6.52-2.92-6.52-6.52v-1.63c0-3.6,2.92-6.51,6.52-6.51s6.51,2.92,6.51,6.51v1.63c0,3.6-2.92,6.52-6.52,6.52h0Z"/>
          <g class="cls-1">
            <g>
              <rect class="cls-7" x="81.19" y="81.82" width="13.03" height=".2"/>
              <rect class="cls-7" x="81.19" y="81.62" width="13.03" height=".2"/>
              <rect class="cls-7" x="81.19" y="81.42" width="13.03" height=".2"/>
              <rect class="cls-7" x="81.19" y="81.22" width="13.03" height=".2"/>
              <rect class="cls-7" x="81.19" y="81.02" width="13.03" height=".2"/>
              <rect class="cls-7" x="81.19" y="80.82" width="13.03" height=".2"/>
              <rect class="cls-7" x="81.19" y="80.62" width="13.03" height=".2"/>
              <rect class="cls-7" x="81.19" y="80.42" width="13.03" height=".2"/>
              <rect class="cls-7" x="81.19" y="80.21" width="13.03" height=".2"/>
              <rect class="cls-7" x="81.19" y="80.01" width="13.03" height=".2"/>
              <rect class="cls-7" x="81.19" y="79.81" width="13.03" height=".2"/>
              <rect class="cls-7" x="81.19" y="79.61" width="13.03" height=".2"/>
              <rect class="cls-7" x="81.19" y="79.41" width="13.03" height=".2"/>
              <rect class="cls-7" x="81.19" y="79.21" width="13.03" height=".2"/>
              <rect class="cls-7" x="81.19" y="79.01" width="13.03" height=".2"/>
              <rect class="cls-7" x="81.19" y="78.81" width="13.03" height=".2"/>
              <rect class="cls-7" x="81.19" y="78.61" width="13.03" height=".2"/>
              <rect class="cls-7" x="81.19" y="78.41" width="13.03" height=".2"/>
              <rect class="cls-7" x="81.19" y="78.21" width="13.03" height=".2"/>
              <rect class="cls-7" x="81.19" y="78.01" width="13.03" height=".2"/>
              <rect class="cls-7" x="81.19" y="77.81" width="13.03" height=".2"/>
              <rect class="cls-7" x="81.19" y="77.6" width="13.03" height=".2"/>
              <rect class="cls-7" x="81.19" y="77.4" width="13.03" height=".2"/>
              <rect class="cls-7" x="81.19" y="77.2" width="13.03" height=".2"/>
              <rect class="cls-7" x="81.19" y="77" width="13.03" height=".2"/>
              <rect class="cls-7" x="81.19" y="76.8" width="13.03" height=".2"/>
              <rect class="cls-7" x="81.19" y="76.6" width="13.03" height=".2"/>
              <rect class="cls-7" x="81.19" y="76.4" width="13.03" height=".2"/>
              <rect class="cls-7" x="81.19" y="76.2" width="13.03" height=".2"/>
              <rect class="cls-7" x="81.19" y="76" width="13.03" height=".2"/>
              <rect class="cls-7" x="81.19" y="75.8" width="13.03" height=".2"/>
              <rect class="cls-7" x="81.19" y="75.6" width="13.03" height=".2"/>
              <rect class="cls-7" x="81.19" y="75.4" width="13.03" height=".2"/>
              <rect class="cls-7" x="81.19" y="75.2" width="13.03" height=".2"/>
              <rect class="cls-7" x="81.19" y="74.99" width="13.03" height=".2"/>
              <rect class="cls-7" x="81.19" y="74.79" width="13.03" height=".2"/>
              <rect class="cls-7" x="81.19" y="74.59" width="13.03" height=".2"/>
              <rect class="cls-7" x="81.19" y="74.39" width="13.03" height=".2"/>
              <rect class="cls-7" x="81.19" y="74.19" width="13.03" height=".2"/>
              <rect class="cls-7" x="81.19" y="73.99" width="13.03" height=".2"/>
              <rect class="cls-7" x="81.19" y="73.79" width="13.03" height=".2"/>
              <rect class="cls-7" x="81.19" y="73.59" width="13.03" height=".2"/>
              <rect class="cls-7" x="81.19" y="73.39" width="13.03" height=".2"/>
              <rect class="cls-7" x="81.19" y="73.19" width="13.03" height=".2"/>
              <rect class="cls-7" x="81.19" y="72.99" width="13.03" height=".2"/>
              <rect class="cls-7" x="81.19" y="72.79" width="13.03" height=".2"/>
              <rect class="cls-7" x="81.19" y="72.59" width="13.03" height=".2"/>
              <rect class="cls-7" x="81.19" y="72.38" width="13.03" height=".2"/>
              <rect class="cls-7" x="81.19" y="72.18" width="13.03" height=".2"/>
              <rect class="cls-7" x="81.19" y="71.98" width="13.03" height=".2"/>
              <rect class="cls-7" x="81.19" y="71.78" width="13.03" height=".2"/>
              <rect class="cls-7" x="81.19" y="71.58" width="13.03" height=".2"/>
              <rect class="cls-7" x="81.19" y="71.38" width="13.03" height=".2"/>
              <rect class="cls-7" x="81.19" y="71.18" width="13.03" height=".2"/>
              <rect class="cls-7" x="81.19" y="70.98" width="13.03" height=".2"/>
              <rect class="cls-7" x="81.19" y="70.78" width="13.03" height=".2"/>
              <rect class="cls-7" x="81.19" y="70.58" width="13.03" height=".2"/>
              <rect class="cls-7" x="81.19" y="70.38" width="13.03" height=".2"/>
              <rect class="cls-7" x="81.19" y="70.18" width="13.03" height=".2"/>
              <rect class="cls-7" x="81.19" y="69.98" width="13.03" height=".2"/>
              <rect class="cls-7" x="81.19" y="69.77" width="13.03" height=".2"/>
              <rect class="cls-7" x="81.19" y="69.57" width="13.03" height=".2"/>
              <rect class="cls-7" x="81.19" y="69.37" width="13.03" height=".2"/>
              <rect class="cls-7" x="81.19" y="69.17" width="13.03" height=".2"/>
              <rect class="cls-7" x="81.19" y="68.97" width="13.03" height=".2"/>
              <rect class="cls-7" x="81.19" y="68.77" width="13.03" height=".2"/>
              <rect class="cls-7" x="81.19" y="68.57" width="13.03" height=".2"/>
              <rect class="cls-7" x="81.19" y="68.37" width="13.03" height=".2"/>
              <rect class="cls-7" x="81.19" y="68.17" width="13.03" height=".2"/>
              <rect class="cls-7" x="81.19" y="67.97" width="13.03" height=".2"/>
              <rect class="cls-7" x="81.19" y="67.77" width="13.03" height=".2"/>
              <rect class="cls-7" x="81.19" y="67.57" width="13.03" height=".2"/>
              <rect class="cls-7" x="81.19" y="67.37" width="13.03" height=".2"/>
            </g>
          </g>
        </g>
        <g>
          <path class="cls-7" d="m99.31,92.39c-6.7,5.73-16.57,5.73-23.27,0l.9-2.65c1.86-5.95,8.2-9.27,14.15-7.41,3.49,1.09,6.23,3.8,7.37,7.27,0,0,.84,2.74.86,2.79h-.01Z"/>
          <g class="cls-13">
            <g>
              <rect class="cls-7" x="76.04" y="96.65" width="23.27" height="1.47"/>
              <rect class="cls-7" x="76.04" y="96.45" width="23.27" height=".2"/>
              <rect class="cls-7" x="76.04" y="96.25" width="23.27" height=".2"/>
              <rect class="cls-7" x="76.04" y="96.05" width="23.27" height=".2"/>
              <rect class="cls-7" x="76.04" y="95.85" width="23.27" height=".2"/>
              <rect class="cls-7" x="76.04" y="95.65" width="23.27" height=".2"/>
              <rect class="cls-7" x="76.04" y="95.45" width="23.27" height=".2"/>
              <rect class="cls-7" x="76.04" y="95.25" width="23.27" height=".2"/>
              <rect class="cls-7" x="76.04" y="95.05" width="23.27" height=".2"/>
              <rect class="cls-7" x="76.04" y="94.85" width="23.27" height=".2"/>
              <rect class="cls-7" x="76.04" y="94.65" width="23.27" height=".2"/>
              <rect class="cls-7" x="76.04" y="94.45" width="23.27" height=".2"/>
              <rect class="cls-7" x="76.04" y="94.25" width="23.27" height=".2"/>
              <rect class="cls-7" x="76.04" y="94.05" width="23.27" height=".2"/>
              <rect class="cls-7" x="76.04" y="93.85" width="23.27" height=".2"/>
              <rect class="cls-7" x="76.04" y="93.65" width="23.27" height=".2"/>
              <rect class="cls-7" x="76.04" y="93.45" width="23.27" height=".2"/>
              <rect class="cls-7" x="76.04" y="93.24" width="23.27" height=".2"/>
              <rect class="cls-7" x="76.04" y="93.04" width="23.27" height=".2"/>
              <rect class="cls-7" x="76.04" y="92.84" width="23.27" height=".2"/>
              <rect class="cls-7" x="76.04" y="92.64" width="23.27" height=".2"/>
              <rect class="cls-7" x="76.04" y="92.44" width="23.27" height=".2"/>
              <rect class="cls-7" x="76.04" y="92.24" width="23.27" height=".2"/>
              <rect class="cls-7" x="76.04" y="92.04" width="23.27" height=".2"/>
              <rect class="cls-7" x="76.04" y="91.84" width="23.27" height=".2"/>
              <rect class="cls-7" x="76.04" y="91.64" width="23.27" height=".2"/>
              <rect class="cls-7" x="76.04" y="91.44" width="23.27" height=".2"/>
              <rect class="cls-7" x="76.04" y="91.24" width="23.27" height=".2"/>
              <rect class="cls-7" x="76.04" y="91.04" width="23.27" height=".2"/>
              <rect class="cls-7" x="76.04" y="90.84" width="23.27" height=".2"/>
              <rect class="cls-7" x="76.04" y="90.64" width="23.27" height=".2"/>
              <rect class="cls-7" x="76.04" y="90.44" width="23.27" height=".2"/>
              <rect class="cls-7" x="76.04" y="90.24" width="23.27" height=".2"/>
              <rect class="cls-7" x="76.04" y="90.04" width="23.27" height=".2"/>
              <rect class="cls-7" x="76.04" y="89.84" width="23.27" height=".2"/>
              <rect class="cls-7" x="76.04" y="89.64" width="23.27" height=".2"/>
              <rect class="cls-7" x="76.04" y="89.44" width="23.27" height=".2"/>
              <rect class="cls-7" x="76.04" y="89.24" width="23.27" height=".2"/>
              <rect class="cls-7" x="76.04" y="89.04" width="23.27" height=".2"/>
              <rect class="cls-7" x="76.04" y="88.84" width="23.27" height=".2"/>
              <rect class="cls-7" x="76.04" y="88.64" width="23.27" height=".2"/>
              <rect class="cls-7" x="76.04" y="88.44" width="23.27" height=".2"/>
              <rect class="cls-7" x="76.04" y="88.24" width="23.27" height=".2"/>
              <rect class="cls-7" x="76.04" y="88.04" width="23.27" height=".2"/>
              <rect class="cls-7" x="76.04" y="87.84" width="23.27" height=".2"/>
              <rect class="cls-7" x="76.04" y="87.64" width="23.27" height=".2"/>
              <rect class="cls-7" x="76.04" y="87.44" width="23.27" height=".2"/>
              <rect class="cls-7" x="76.04" y="87.24" width="23.27" height=".2"/>
              <rect class="cls-7" x="76.04" y="87.04" width="23.27" height=".2"/>
              <rect class="cls-7" x="76.04" y="86.84" width="23.27" height=".2"/>
              <rect class="cls-7" x="76.04" y="86.64" width="23.27" height=".2"/>
              <rect class="cls-7" x="76.04" y="86.44" width="23.27" height=".2"/>
              <rect class="cls-7" x="76.04" y="86.24" width="23.27" height=".2"/>
              <rect class="cls-7" x="76.04" y="86.04" width="23.27" height=".2"/>
              <rect class="cls-7" x="76.04" y="85.84" width="23.27" height=".2"/>
              <rect class="cls-7" x="76.04" y="85.64" width="23.27" height=".2"/>
              <rect class="cls-7" x="76.04" y="85.44" width="23.27" height=".2"/>
              <rect class="cls-7" x="76.04" y="85.24" width="23.27" height=".2"/>
              <rect class="cls-7" x="76.04" y="85.04" width="23.27" height=".2"/>
              <rect class="cls-7" x="76.04" y="84.84" width="23.27" height=".2"/>
              <rect class="cls-7" x="76.04" y="84.64" width="23.27" height=".2"/>
              <rect class="cls-7" x="76.04" y="84.44" width="23.27" height=".2"/>
              <rect class="cls-7" x="76.04" y="84.24" width="23.27" height=".2"/>
              <rect class="cls-7" x="76.04" y="84.04" width="23.27" height=".2"/>
              <rect class="cls-7" x="76.04" y="83.84" width="23.27" height=".2"/>
              <rect class="cls-7" x="76.04" y="83.64" width="23.27" height=".2"/>
              <rect class="cls-7" x="76.04" y="83.44" width="23.27" height=".2"/>
              <rect class="cls-7" x="76.04" y="83.24" width="23.27" height=".2"/>
              <rect class="cls-7" x="76.04" y="83.04" width="23.27" height=".2"/>
              <rect class="cls-7" x="76.04" y="82.84" width="23.27" height=".2"/>
              <rect class="cls-7" x="76.04" y="82.64" width="23.27" height=".2"/>
              <rect class="cls-7" x="76.04" y="82.44" width="23.27" height=".2"/>
              <rect class="cls-7" x="76.04" y="82.24" width="23.27" height=".2"/>
              <rect class="cls-7" x="76.04" y="82.04" width="23.27" height=".2"/>
              <rect class="cls-7" x="76.04" y="80.46" width="23.27" height="1.58"/>
            </g>
          </g>
        </g>
        <g>
          <rect class="cls-8" x="1.79" y="73.39" width="53.7" height="21.48"/>
          <g class="cls-11">
            <g>
              <rect class="cls-8" x="1.79" y="94.18" width="53.7" height=".69"/>
              <rect class="cls-8" x="1.79" y="93.49" width="53.7" height=".69"/>
              <rect class="cls-8" x="1.79" y="92.8" width="53.7" height=".69"/>
              <rect class="cls-8" x="1.79" y="92.1" width="53.7" height=".69"/>
              <rect class="cls-8" x="1.79" y="91.41" width="53.7" height=".69"/>
              <rect class="cls-8" x="1.79" y="90.72" width="53.7" height=".69"/>
              <rect class="cls-8" x="1.79" y="90.02" width="53.7" height=".69"/>
              <rect class="cls-8" x="1.79" y="89.33" width="53.7" height=".69"/>
              <rect class="cls-8" x="1.79" y="88.64" width="53.7" height=".69"/>
              <rect class="cls-8" x="1.79" y="87.95" width="53.7" height=".69"/>
              <rect class="cls-8" x="1.79" y="87.25" width="53.7" height=".69"/>
              <rect class="cls-8" x="1.79" y="86.56" width="53.7" height=".69"/>
              <rect class="cls-8" x="1.79" y="85.87" width="53.7" height=".69"/>
              <rect class="cls-8" x="1.79" y="85.17" width="53.7" height=".69"/>
              <rect class="cls-8" x="1.79" y="84.48" width="53.7" height=".69"/>
              <rect class="cls-8" x="1.79" y="83.79" width="53.7" height=".69"/>
              <rect class="cls-8" x="1.79" y="83.09" width="53.7" height=".69"/>
              <rect class="cls-8" x="1.79" y="82.4" width="53.7" height=".69"/>
              <rect class="cls-8" x="1.79" y="81.71" width="53.7" height=".69"/>
              <rect class="cls-8" x="1.79" y="81.02" width="53.7" height=".69"/>
              <rect class="cls-8" x="1.79" y="80.32" width="53.7" height=".69"/>
              <rect class="cls-8" x="1.79" y="79.63" width="53.7" height=".69"/>
              <rect class="cls-8" x="1.79" y="78.94" width="53.7" height=".69"/>
              <rect class="cls-8" x="1.79" y="78.24" width="53.7" height=".69"/>
              <rect class="cls-8" x="1.79" y="77.55" width="53.7" height=".69"/>
              <rect class="cls-8" x="1.79" y="76.86" width="53.7" height=".69"/>
              <rect class="cls-8" x="1.79" y="76.17" width="53.7" height=".69"/>
              <rect class="cls-8" x="1.79" y="75.47" width="53.7" height=".69"/>
              <rect class="cls-8" x="1.79" y="74.78" width="53.7" height=".69"/>
              <rect class="cls-8" x="1.79" y="74.09" width="53.7" height=".69"/>
              <rect class="cls-8" x="1.79" y="73.39" width="53.7" height=".69"/>
            </g>
          </g>
        </g>
        <rect class="cls-5" x="1.79" y="91.29" width="53.7" height="3.58"/>
        <rect class="cls-3" x="23.27" y="94.87" width="7.16" height="3.58"/>
        <rect class="cls-3" x="30.43" y="94.87" width="25.06" height="3.58"/>
        <g>
          <rect class="cls-8" x="62.65" y="23.27" width="50.12" height="25.06"/>
          <g class="cls-14">
            <g>
              <rect class="cls-8" x="62.65" y="47.53" width="50.12" height=".81"/>
              <rect class="cls-8" x="62.65" y="46.72" width="50.12" height=".81"/>
              <rect class="cls-8" x="62.65" y="45.91" width="50.12" height=".81"/>
              <rect class="cls-8" x="62.65" y="45.1" width="50.12" height=".81"/>
              <rect class="cls-8" x="62.65" y="44.29" width="50.12" height=".81"/>
              <rect class="cls-8" x="62.65" y="43.48" width="50.12" height=".81"/>
              <rect class="cls-8" x="62.65" y="42.67" width="50.12" height=".81"/>
              <rect class="cls-8" x="62.65" y="41.87" width="50.12" height=".81"/>
              <rect class="cls-8" x="62.65" y="41.06" width="50.12" height=".81"/>
              <rect class="cls-8" x="62.65" y="40.25" width="50.12" height=".81"/>
              <rect class="cls-8" x="62.65" y="39.44" width="50.12" height=".81"/>
              <rect class="cls-8" x="62.65" y="38.63" width="50.12" height=".81"/>
              <rect class="cls-8" x="62.65" y="37.82" width="50.12" height=".81"/>
              <rect class="cls-8" x="62.65" y="37.02" width="50.12" height=".81"/>
              <rect class="cls-8" x="62.65" y="36.21" width="50.12" height=".81"/>
              <rect class="cls-8" x="62.65" y="35.4" width="50.12" height=".81"/>
              <rect class="cls-8" x="62.65" y="34.59" width="50.12" height=".81"/>
              <rect class="cls-8" x="62.65" y="33.78" width="50.12" height=".81"/>
              <rect class="cls-8" x="62.65" y="32.97" width="50.12" height=".81"/>
              <rect class="cls-8" x="62.65" y="32.17" width="50.12" height=".81"/>
              <rect class="cls-8" x="62.65" y="31.36" width="50.12" height=".81"/>
              <rect class="cls-8" x="62.65" y="30.55" width="50.12" height=".81"/>
              <rect class="cls-8" x="62.65" y="29.74" width="50.12" height=".81"/>
              <rect class="cls-8" x="62.65" y="28.93" width="50.12" height=".81"/>
              <rect class="cls-8" x="62.65" y="28.12" width="50.12" height=".81"/>
              <rect class="cls-8" x="62.65" y="27.32" width="50.12" height=".81"/>
              <rect class="cls-8" x="62.65" y="26.51" width="50.12" height=".81"/>
              <rect class="cls-8" x="62.65" y="25.7" width="50.12" height=".81"/>
              <rect class="cls-8" x="62.65" y="24.89" width="50.12" height=".81"/>
              <rect class="cls-8" x="62.65" y="24.08" width="50.12" height=".81"/>
              <rect class="cls-8" x="62.65" y="23.27" width="50.12" height=".81"/>
            </g>
          </g>
        </g>
        <rect class="cls-5" x="62.65" y="44.75" width="50.12" height="3.58"/>
        <rect class="cls-3" x="84.13" y="48.33" width="7.16" height="3.58"/>
        <rect class="cls-3" x="62.65" y="48.33" width="21.48" height="3.58"/>
        <g>
          <rect class="cls-6" x="7.16" y="23.27" width="39.38" height="32.22"/>
          <g class="cls-2">
            <g>
              <rect class="cls-6" x="7.16" y="54.95" width="39.38" height=".55"/>
              <rect class="cls-6" x="7.16" y="54.4" width="39.38" height=".55"/>
              <rect class="cls-6" x="7.16" y="53.86" width="39.38" height=".55"/>
              <rect class="cls-6" x="7.16" y="53.31" width="39.38" height=".55"/>
              <rect class="cls-6" x="7.16" y="52.76" width="39.38" height=".55"/>
              <rect class="cls-6" x="7.16" y="52.22" width="39.38" height=".55"/>
              <rect class="cls-6" x="7.16" y="51.67" width="39.38" height=".55"/>
              <rect class="cls-6" x="7.16" y="51.12" width="39.38" height=".55"/>
              <rect class="cls-6" x="7.16" y="50.58" width="39.38" height=".55"/>
              <rect class="cls-6" x="7.16" y="50.03" width="39.38" height=".55"/>
              <rect class="cls-6" x="7.16" y="49.49" width="39.38" height=".55"/>
              <rect class="cls-6" x="7.16" y="48.94" width="39.38" height=".55"/>
              <rect class="cls-6" x="7.16" y="48.39" width="39.38" height=".55"/>
              <rect class="cls-6" x="7.16" y="47.85" width="39.38" height=".55"/>
              <rect class="cls-6" x="7.16" y="47.3" width="39.38" height=".55"/>
              <rect class="cls-6" x="7.16" y="46.76" width="39.38" height=".55"/>
              <rect class="cls-6" x="7.16" y="46.21" width="39.38" height=".55"/>
              <rect class="cls-6" x="7.16" y="45.66" width="39.38" height=".55"/>
              <rect class="cls-6" x="7.16" y="45.12" width="39.38" height=".55"/>
              <rect class="cls-6" x="7.16" y="44.57" width="39.38" height=".55"/>
              <rect class="cls-6" x="7.16" y="44.03" width="39.38" height=".55"/>
              <rect class="cls-6" x="7.16" y="43.48" width="39.38" height=".55"/>
              <rect class="cls-6" x="7.16" y="42.93" width="39.38" height=".55"/>
              <rect class="cls-6" x="7.16" y="42.39" width="39.38" height=".55"/>
              <rect class="cls-6" x="7.16" y="41.84" width="39.38" height=".55"/>
              <rect class="cls-6" x="7.16" y="41.29" width="39.38" height=".55"/>
              <rect class="cls-6" x="7.16" y="40.75" width="39.38" height=".55"/>
              <rect class="cls-6" x="7.16" y="40.2" width="39.38" height=".55"/>
              <rect class="cls-6" x="7.16" y="39.66" width="39.38" height=".55"/>
              <rect class="cls-6" x="7.16" y="39.11" width="39.38" height=".55"/>
              <rect class="cls-6" x="7.16" y="38.56" width="39.38" height=".55"/>
              <rect class="cls-6" x="7.16" y="38.02" width="39.38" height=".55"/>
              <rect class="cls-6" x="7.16" y="37.47" width="39.38" height=".55"/>
              <rect class="cls-6" x="7.16" y="36.93" width="39.38" height=".55"/>
              <rect class="cls-6" x="7.16" y="36.38" width="39.38" height=".55"/>
              <rect class="cls-6" x="7.16" y="35.83" width="39.38" height=".55"/>
              <rect class="cls-6" x="7.16" y="35.29" width="39.38" height=".55"/>
              <rect class="cls-6" x="7.16" y="34.74" width="39.38" height=".55"/>
              <rect class="cls-6" x="7.16" y="34.2" width="39.38" height=".55"/>
              <rect class="cls-6" x="7.16" y="33.65" width="39.38" height=".55"/>
              <rect class="cls-6" x="7.16" y="33.1" width="39.38" height=".55"/>
              <rect class="cls-6" x="7.16" y="32.56" width="39.38" height=".55"/>
              <rect class="cls-6" x="7.16" y="32.01" width="39.38" height=".55"/>
              <rect class="cls-6" x="7.16" y="31.46" width="39.38" height=".55"/>
              <rect class="cls-6" x="7.16" y="30.92" width="39.38" height=".55"/>
              <rect class="cls-6" x="7.16" y="30.37" width="39.38" height=".55"/>
              <rect class="cls-6" x="7.16" y="29.83" width="39.38" height=".55"/>
              <rect class="cls-6" x="7.16" y="29.28" width="39.38" height=".55"/>
              <rect class="cls-6" x="7.16" y="28.73" width="39.38" height=".55"/>
              <rect class="cls-6" x="7.16" y="28.19" width="39.38" height=".55"/>
              <rect class="cls-6" x="7.16" y="27.64" width="39.38" height=".55"/>
              <rect class="cls-6" x="7.16" y="27.1" width="39.38" height=".55"/>
              <rect class="cls-6" x="7.16" y="26.55" width="39.38" height=".55"/>
              <rect class="cls-6" x="7.16" y="26" width="39.38" height=".55"/>
              <rect class="cls-6" x="7.16" y="25.46" width="39.38" height=".55"/>
              <rect class="cls-6" x="7.16" y="24.91" width="39.38" height=".55"/>
              <rect class="cls-6" x="7.16" y="24.37" width="39.38" height=".55"/>
              <rect class="cls-6" x="7.16" y="23.82" width="39.38" height=".55"/>
              <rect class="cls-6" x="7.16" y="23.27" width="39.38" height=".55"/>
            </g>
          </g>
        </g>
        <rect class="cls-9" x="7.16" y="51.91" width="39.38" height="3.58"/>
        <rect class="cls-3" x="23.27" y="55.49" width="7.16" height="3.58"/>
        <rect class="cls-3" x="30.43" y="55.49" width="16.11" height="3.58"/>
        <path class="cls-9" d="m77.06,89.59s-.93,2.74-.95,2.79c-4.47-3.81-6.8-9.57-6.21-15.41.5,5.03,3.1,9.61,7.16,12.62Z"/>
        <path class="cls-9" d="m99.31,92.39l-.86-2.65c-.18-.54,6.21-3.79,7.16-12.73.55,5.85-1.8,11.6-6.3,15.38Z"/>
        <path class="cls-3" d="m99.31,92.39c-6.7,5.73-16.57,5.73-23.27,0,0,0,.91-2.74.95-2.79,3.1,2.32,6.87,3.58,10.74,3.58,7.16,0,10.54-3.81,10.74-3.35l.84,2.56h0Z"/>
        <path class="cls-3" d="m51.91,7.16c0-.99-.8-1.79-1.79-1.79s-1.79.8-1.79,1.79.8,1.79,1.79,1.79,1.79-.8,1.79-1.79Z"/>
        <path class="cls-3" d="m66.23,7.16c0-.99-.8-1.79-1.79-1.79s-1.79.8-1.79,1.79.8,1.79,1.79,1.79,1.79-.8,1.79-1.79Z"/>
        <path class="cls-3" d="m112.77,21.48h-19.69v-12.53c0-4.94-4.01-8.95-8.95-8.95H30.43c-4.94,0-8.95,4.01-8.95,8.95v12.53H7.16c-.99,0-1.79.8-1.79,1.79v32.22c0,.99.8,1.79,1.79,1.79h14.32v14.32H1.79c-.99,0-1.79.8-1.79,1.79v21.48c0,.99.8,1.79,1.79,1.79h19.69v8.95c0,4.94,4.01,8.95,8.95,8.95h53.7c4.94,0,8.95-4.01,8.95-8.95v-7.89c19.1-5.46,18.94-32.51,0-37.88v-9.72h19.69c.99,0,1.79-.8,1.79-1.79v-25.06c0-.99-.8-1.79-1.79-1.79h0ZM25.06,8.95c0-2.97,2.4-5.37,5.37-5.37h53.7c2.97,0,5.37,2.4,5.37,5.37v12.53h-3.58v-12.53c0-.99-.8-1.79-1.79-1.79h-12.53c-.99,0-1.79.8-1.79,1.79s-.8,1.79-1.79,1.79h-21.48c-.99,0-1.79-.8-1.79-1.79s-.8-1.79-1.79-1.79h-12.53c-.99,0-1.79.8-1.79,1.79v12.53h-3.58v-12.53Zm37.59,12.53c-.99,0-1.79.8-1.79,1.79v25.06c0,.99.8,1.79,1.79,1.79h19.69v9.72c-18.87,5.37-19.06,32.02-.39,37.75.55.16.39-.66.39,6.23h-50.12v-7.16h23.27c.99,0,1.79-.8,1.79-1.79v-21.48c0-.99-.8-1.79-1.79-1.79h-23.27v-14.32h14.32c.99,0,1.79-.8,1.79-1.79V23.27c0-.99-.8-1.79-1.79-1.79h-14.32v-10.74h9.25c.76,2.15,2.79,3.58,5.07,3.58h21.48c2.28,0,4.31-1.43,5.07-3.58h9.25v10.74h-19.69,0Zm29.79,54.02c0,2.61-2.11,4.73-4.72,4.73s-4.73-2.11-4.73-4.72h0v-1.64c0-2.61,2.12-4.72,4.73-4.72s4.72,2.11,4.72,4.72v1.63Zm4.22,14.8l.48,1.43c-5.64,4.17-13.35,4.17-18.99,0l.5-1.45c1.69-4.97,7.08-7.63,12.06-5.95,2.8.95,5.01,3.16,5.95,5.96h0ZM8.95,25.05h35.8v28.64H8.95v-28.64h0Zm16.11,32.22h3.58v14.32h-3.58v-14.32ZM3.58,75.17h50.12v17.9H3.58v-17.9h0Zm80.55,35.8H30.43c-2.97,0-5.37-2.4-5.37-5.37v-8.95h3.58v8.95c0,.99.8,1.79,1.79,1.79h53.7c.99,0,1.79-.8,1.79-1.79v-7.16c1.19.13,2.39.13,3.58,0v7.16c0,2.97-2.4,5.37-5.37,5.37Zm15.95-21.91c-1.11-3.32-3.52-6.04-6.68-7.55,2.01-2,2.98-4.83,2.61-7.64,0-4.59-3.72-8.3-8.31-8.3s-8.3,3.72-8.3,8.3c0,2.61,0,5.12,2.61,7.64-3.16,1.51-5.57,4.23-6.68,7.55-5.7-6.83-4.78-16.99,2.05-22.69s16.99-4.78,22.69,2.05c4.99,5.98,4.99,14.67,0,20.64h0Zm-10.58-29.91c-1.19-.13-2.39-.13-3.58,0v-9.04h3.58v9.04Zm21.48-12.53h-46.54v-21.57h46.54v21.57Z"/>
        <path class="cls-3" d="m39.38,85.92H10.74c-.99,0-1.79.8-1.79,1.79s.8,1.79,1.79,1.79h28.64c.99,0,1.79-.8,1.79-1.79s-.8-1.79-1.79-1.79Z"/>
        <path class="cls-3" d="m10.74,82.34h35.8c.99,0,1.79-.8,1.79-1.79s-.8-1.79-1.79-1.79H10.74c-.99,0-1.79.8-1.79,1.79s.8,1.79,1.79,1.79Z"/>
        <path class="cls-3" d="m25.06,48.33v-10.74c0-.99-.8-1.79-1.79-1.79s-1.79.8-1.79,1.79v10.74c0,.99.8,1.79,1.79,1.79s1.79-.8,1.79-1.79Z"/>
        <path class="cls-3" d="m14.32,44.75v3.58c0,.99.8,1.79,1.79,1.79s1.79-.8,1.79-1.79v-3.58c0-.99-.8-1.79-1.79-1.79s-1.79.8-1.79,1.79Z"/>
        <path class="cls-3" d="m32.22,48.33v-8.95c0-.99-.8-1.79-1.79-1.79s-1.79.8-1.79,1.79v8.95c0,.99.8,1.79,1.79,1.79s1.79-.8,1.79-1.79Z"/>
        <path class="cls-3" d="m39.38,48.33v-17.9c0-.99-.8-1.79-1.79-1.79s-1.79.8-1.79,1.79v17.9c0,.99.8,1.79,1.79,1.79s1.79-.8,1.79-1.79Z"/>
        <path class="cls-3" d="m75.7,29.16l-5.37,5.37c-.7.7-.71,1.83-.01,2.53h.01s5.37,5.38,5.37,5.38c.7.7,1.84.7,2.54,0,.7-.7.7-1.84,0-2.54h0l-4.12-4.1,4.12-4.1c.7-.7.7-1.84,0-2.54s-1.84-.7-2.54,0h0Z"/>
        <path class="cls-3" d="m99.72,42.44l5.37-5.37c.7-.7.71-1.83.01-2.53h-.01s-5.37-5.38-5.37-5.38c-.7-.7-1.84-.7-2.54,0-.7.7-.7,1.84,0,2.54l4.12,4.1-4.12,4.1c-.7.7-.7,1.84,0,2.54s1.84.7,2.54,0h0Z"/>
        <path class="cls-3" d="m82.64,40.19c-.54.83-.32,1.94.51,2.48.29.19.63.29.98.3,1.31,0,.82.21,8.65-11.55.47-.87.14-1.96-.73-2.42-.76-.41-1.7-.22-2.24.45l-7.16,10.74h-.01Z"/>
      </g>
    </g>
  </g>
</svg>